<?xml version="1.0" encoding="UTF-8"?>
<svg id="Layer_1" data-name="Layer 1" xmlns="http://www.w3.org/2000/svg" viewBox="0 0 20 20">
  <defs>
    <style>
      .cls-1 {
        fill: #fff;
        stroke-width: 0px;
      }
    </style>
  </defs>
  <g>
    <path class="cls-1" d="m6.92,18.85s-.06,0-.09,0l-4.88-.57c-.38-.04-.66-.36-.66-.75V6.89c0-.21.09-.42.25-.56s.38-.2.58-.18l4.77.56,1.95-.31c.4-.06.79.21.86.62.06.41-.22.79-.62.86l-2.05.32c-.07.01-.14.01-.2,0l-4.04-.47v9.13l4.11.48,5.03-.79c.06-.01.13-.01.2,0l4.04.44v-7.46c0-.41.34-.75.75-.75s.75.34.75.75v8.29c0,.21-.09.42-.25.56-.16.14-.37.21-.58.19l-4.78-.52-5.04.79s-.08,0-.12,0Z"/>
    <path class="cls-1" d="m6.92,18.85c-.41,0-.75-.34-.75-.75V7.46c0-.41.34-.75.75-.75s.75.34.75.75v10.64c0,.41-.34.75-.75.75Z"/>
    <path class="cls-1" d="m12.05,18.04c-.41,0-.75-.34-.75-.75v-6.54c0-.41.34-.75.75-.75s.75.34.75.75v6.54c0,.41-.34.75-.75.75Z"/>
  </g>
  <g>
    <path class="cls-1" d="m13.46,11.64c-2.89,0-5.24-2.35-5.24-5.24S10.57,1.15,13.46,1.15s5.24,2.35,5.24,5.24-2.35,5.24-5.24,5.24Zm0-8.99c-2.06,0-3.74,1.68-3.74,3.74s1.68,3.74,3.74,3.74,3.74-1.68,3.74-3.74-1.68-3.74-3.74-3.74Z"/>
    <g>
      <polygon class="cls-1" points="12.9 5.8 15.2 4.63 14.03 6.93 12.9 5.8"/>
      <polygon class="cls-1" points="12.9 5.8 11.72 8.1 14.03 6.93 12.9 5.8"/>
    </g>
  </g>
</svg>