<svg xmlns="http://www.w3.org/2000/svg" width="24" height="24" viewBox="0 0 24 24">
    <g data-name="icon / icon_24px_Circle_nationwide_v2" transform="translate(6323 21096)">
        <rect data-name="사각형 15032" width="24" height="24" rx="12" transform="translate(-6323 -21096)" style="fill:#e73068"/>
        <path data-name="패스 66365" d="M7.109-6.645h2.639c-.219-1.982-2.01-3.391-4.334-3.391C2.748-10.035.608-8.189.6-4.936.608-1.8 2.557.137 5.428.137a4.088 4.088 0 0 0 4.43-4.279V-5.5H5.51v1.859h1.832c-.014.916-.656 1.5-1.887 1.5-1.422.001-2.174-1.045-2.174-2.822s.807-2.8 2.187-2.8a1.527 1.527 0 0 1 1.641 1.118z" transform="translate(-6316.102 -21078.965)" style="fill:#fff"/>
    </g>
</svg>
