<svg xmlns="http://www.w3.org/2000/svg" width="20" height="20" viewBox="0 0 20 20">
    <path d="M423.361 829.18a.433.433 0 0 1-.424-.517l.324-1.621a.43.43 0 0 1 .118-.22l4.214-4.214a.432.432 0 0 1 .612 0l1.3 1.3a.432.432 0 0 1 0 .611l-4.215 4.214a.428.428 0 0 1-.22.118l-1.621.324a.416.416 0 0 1-.088.005zm.722-1.84-.171.857.856-.172 3.817-3.816-.686-.686z" transform="translate(-414.929 -817.797)" style="fill:#353535"/>
    <path data-name="패스 65762" d="M-6661.616-20700H-6665v9.2h9.2v-4.992" transform="translate(6670.5 20705.498)" style="stroke-width:1.4px;fill:none;stroke:#353535;stroke-linecap:round;stroke-linejoin:round"/>
    <path data-name="패스 65763" d="m-6662.258-20696.68 4.251-4.252 1.336 1.338-4.276 4.275-1.594.211z" transform="translate(6671 20706)" style="stroke-width:1.2px;fill:none;stroke:#353535;stroke-linecap:round;stroke-linejoin:round"/>
</svg>
