<svg xmlns="http://www.w3.org/2000/svg" width="16" height="16" viewBox="0 0 16 16">
    <defs>
        <clipPath id="w653ddl6la">
            <path data-name="사각형 23027" style="fill:none" d="M0 0h12v12.152H0z"/>
        </clipPath>
    </defs>
    <g data-name="그룹 21176" transform="translate(2 1.9)" style="clip-path:url(#w653ddl6la)">
        <path data-name="패스 65814" d="M4.046 1.639c0-.318-.01-.643 0-.967C4.065.257 4.3.044 4.61.04 5.5.027 6.388-.016 7.276.007c.4.011.629.187.616.674-.025.924-.006.921.791 1.371a.575.575 0 0 0 .65-.1 1.1 1.1 0 0 1 .851-.269.633.633 0 0 1 .378.211c.454.737.89 1.484 1.318 2.236a.579.579 0 0 1-.263.9c-.088.051-.168.114-.255.166-.17.1-.468.181-.49.308a3.25 3.25 0 0 0 0 1.154c.028.145.321.246.5.355.716.437.761.593.341 1.3-.391.656-.78 1.314-1.184 1.962a.513.513 0 0 1-.732.2 3.547 3.547 0 0 1-.526-.3.591.591 0 0 0-.732.019c-.656.392-.656.393-.655 1.174 0 .657-.111.777-.777.783-.8.007-1.594.008-2.391-.007-.441-.009-.716-.238-.654-.668a1.147 1.147 0 0 0-.792-1.364c-.177-.077-.285-.123-.457 0a6.189 6.189 0 0 1-.691.388.45.45 0 0 1-.645-.167Q.789 9.171.142 7.991c-.24-.44-.186-.575.235-.856.026-.017.043-.056.07-.062.724-.165.755-.694.714-1.293a.5.5 0 0 0-.293-.468 5.222 5.222 0 0 1-.731-.52.383.383 0 0 1-.053-.531c.44-.769.871-1.543 1.327-2.3.237-.4.432-.431.842-.219a5.091 5.091 0 0 1 .577.334.357.357 0 0 0 .469.007 3.943 3.943 0 0 1 .356-.234c.123-.072.251-.134.39-.208m2.706-.465h-.884c-.626 0-.652 0-.617.633.026.456-.173.667-.609.827a3.131 3.131 0 0 0-.8.426c-.646.487-.659.5-1.376.091a.672.672 0 0 1-.132-.072c-.137-.128-.218-.1-.311.062-.211.371-.443.73-.682 1.118.224.143.454.294.687.438a.555.555 0 0 1 .321.581 7.261 7.261 0 0 0-.062.9c0 .278.04.556.057.834a.447.447 0 0 1-.279.468c-.234.115-.451.263-.687.4l.339.573c.128.215.217.553.4.611s.453-.158.683-.26a.676.676 0 0 1 .693.042c.451.285.929.526 1.381.81a.741.741 0 0 1 .31.377 5.767 5.767 0 0 1 .067.7c.013.091.095.241.15.244.446.02.893.011 1.354.011 0-.236.007-.434 0-.632a.74.74 0 0 1 .472-.773 11.708 11.708 0 0 0 1.252-.735.624.624 0 0 1 .744-.011c.626.4.626.4 1-.247.126-.22.386-.475.342-.653-.048-.194-.373-.327-.591-.466a.588.588 0 0 1-.325-.609 2.983 2.983 0 0 0 .051-.956c-.162-.718-.029-1.228.731-1.473.153-.049.231-.186.1-.374a8.932 8.932 0 0 1-.46-.792c-.125-.235-.257-.349-.514-.147a2.839 2.839 0 0 1-.479.257.564.564 0 0 1-.6-.066c-.4-.248-.817-.482-1.242-.69a.736.736 0 0 1-.482-.73v-.72" style="fill:#353535"/>
        <path data-name="패스 65815" d="M16.3 14.263a2.487 2.487 0 0 1 2.468 2.137 2.539 2.539 0 0 1-2.551 2.822 2.476 2.476 0 0 1-2.409-2.543 2.356 2.356 0 0 1 2.494-2.42m-1.322 2.392a1.319 1.319 0 1 0 2.635.077 1.341 1.341 0 0 0-1.345-1.342 1.254 1.254 0 0 0-1.29 1.265" transform="translate(-10.305 -10.635)" style="fill:#353535"/>
    </g>
</svg>
