<svg xmlns="http://www.w3.org/2000/svg" width="20" height="20" viewBox="0 0 20 20">
    <path data-name="패스 65249" d="M5.492 18H3a2 2 0 0 1-2-2V3a2 2 0 0 1 2-2h10a2 2 0 0 1 2 2v4.385" transform="translate(1.5 .5)" style="stroke:#949494;stroke-miterlimit:10;stroke-width:2px;fill:none;stroke-linecap:round"/>
    <path data-name="선 304" transform="translate(7.5 14)" style="fill:#fff;stroke:transparent" d="M0 0h3"/>
    <path data-name="선 306" transform="translate(7.5 10)" style="fill:#fff;stroke:transparent" d="M0 0h6"/>
    <path data-name="선 307" transform="translate(6.5 10)" style="stroke:#949494;stroke-miterlimit:10;stroke-width:2px;fill:none;stroke-linecap:round" d="M0 0h2"/>
    <path data-name="선 308" transform="translate(7.5 6)" style="fill:#fff;stroke:transparent" d="M0 0h6"/>
    <path data-name="선 309" transform="translate(6.5 6)" style="stroke:#949494;stroke-miterlimit:10;stroke-width:2px;fill:none;stroke-linecap:round" d="M0 0h6"/>
    <path data-name="패스 65760" d="M-6076-21222.748v1.8h1.633" transform="translate(6090 21236)" style="stroke:#6c5ae6;stroke-linejoin:round;stroke-width:1.4px;fill:none;stroke-linecap:round"/>
    <path data-name="빼기 8" d="M6 1.8A3.2 3.2 0 1 0 9.2 5 3.2 3.2 0 0 0 6 1.8M6 0a5 5 0 1 1-5 5 5 5 0 0 1 5-5z" transform="translate(8 10)" style="fill:#6c5ae6"/>
</svg>
