<svg xmlns="http://www.w3.org/2000/svg" width="20" height="20" viewBox="0 0 20 20">
    <path data-name="패스 65249" d="M5.492 18H3a2 2 0 0 1-2-2V3a2 2 0 0 1 2-2h10a2 2 0 0 1 2 2v6.5" transform="translate(1.5 .5)" style="stroke-miterlimit:10;fill:none;stroke:#fff;stroke-linecap:round;stroke-width:2px"/>
    <path data-name="선 304" transform="translate(7.5 14)" style="fill:#fff" d="M0 0h3"/>
    <path data-name="선 306" transform="translate(7.5 10)" style="fill:#fff" d="M0 0h6"/>
    <path data-name="선 307" transform="translate(6.5 10)" style="stroke-miterlimit:10;fill:none;stroke:#fff;stroke-linecap:round;stroke-width:2px" d="M0 0h6"/>
    <path data-name="선 308" transform="translate(7.5 6)" style="fill:#fff" d="M0 0h6"/>
    <path data-name="선 309" transform="translate(6.5 6)" style="stroke-miterlimit:10;fill:none;stroke:#fff;stroke-linecap:round;stroke-width:2px" d="M0 0h6"/>
    <path data-name="패스 65248" d="m1520.929-11564.405 3.472 3.477 4.962-4.965" transform="translate(-1511.429 11579.429)" style="stroke-linejoin:round;fill:none;stroke:#fff;stroke-linecap:round;stroke-width:2px"/>
</svg>
