<svg xmlns="http://www.w3.org/2000/svg" width="24" height="24" viewBox="0 0 24 24">
    <g data-name="icon_32px_kakao" transform="translate(-20 -915)">
        <circle data-name="타원 199" cx="12" cy="12" r="12" transform="translate(20 915)" style="fill:#b7b7b7"/>
        <g data-name="그룹 20626">
            <path data-name="패스 65223" d="M109.291 9.171c-3.53 0-6.393 2.19-6.393 4.891a4.787 4.787 0 0 0 3.033 4.161c-.134.483-.484 1.751-.554 2.021-.087.337.128.332.268.242.11-.071 1.751-1.151 2.46-1.617a8.348 8.348 0 0 0 1.186.084c3.53 0 6.393-2.19 6.393-4.891s-2.862-4.891-6.393-4.891" transform="translate(-77.291 912.303)" style="fill:#fff"/>
            <g data-name="그룹 20625">
                <path data-name="패스 65224" d="M107.476 14.428h-1.855a.315.315 0 0 0 0 .631h.6v2.221a.309.309 0 0 0 .308.308h.067a.308.308 0 0 0 .307-.308v-2.221h.57a.315.315 0 1 0 0-.631z" transform="translate(-78.079 910.465)" style="fill:#b7b7b7"/>
                <path data-name="패스 65225" d="M114.4 16.974h-.863V14.7a.342.342 0 1 0-.684 0v2.45a.376.376 0 0 0 0 .055.291.291 0 0 0 0 .055.286.286 0 0 0 .286.287h1.26a.286.286 0 0 0 0-.573z" transform="translate(-80.481 910.487)" style="fill:#b7b7b7"/>
                <path data-name="패스 65226" d="m118.143 17.077-.962-1.262.869-.869a.3.3 0 0 0-.426-.425l-1.076 1.079v-.9a.342.342 0 1 0-.684 0v2.521a.342.342 0 0 0 .684 0v-.778l.2-.2.909 1.193a.306.306 0 0 0 .49-.368z" transform="translate(-81.431 910.487)" style="fill:#b7b7b7"/>
                <path data-name="패스 65227" d="m111.137 17.159-.925-2.528a.455.455 0 0 0-.433-.266.442.442 0 0 0-.449.318 1.662 1.662 0 0 0-.018.041l-.908 2.438a.306.306 0 1 0 .578.2l.157-.449h1.261l.157.449a.307.307 0 1 0 .579-.2zm-1.8-.818.425-1.213h.013l.425 1.212z" transform="translate(-79.054 910.487)" style="fill:#b7b7b7"/>
            </g>
        </g>
    </g>
</svg>
