<svg xmlns="http://www.w3.org/2000/svg" width="24" height="24" viewBox="0 0 24 24">
    <g data-name="icon_32px_blog" transform="translate(4.982 11)">
        <circle data-name="타원 200" cx="12" cy="12" r="12" transform="translate(-4.982 -11)" style="fill:#b7b7b7"/>
        <path data-name="합치기 50" d="M4273.654-11950.522h-.5v-1.144h.313c.915 0 .825-.945.825-.945v-.3a1.475 1.475 0 0 1-1.138.492c-1.8 0-1.776-1.918-1.776-1.918a1.781 1.781 0 0 1 1.828-1.98 1.416 1.416 0 0 1 1.086.492v-.363h1.257v3.649a1.875 1.875 0 0 1-1.888 2.02zm-.972-3.8a.831.831 0 0 0 .831.831.831.831 0 0 0 .832-.831.831.831 0 0 0-.832-.831.831.831 0 0 0-.831.828zm-6.288 0c0-2 2.137-2 2.137-2a1.966 1.966 0 0 1 2.188 2c0 1.966-2.188 1.969-2.188 1.969a1.931 1.931 0 0 1-2.136-1.972zm1.306 0a.833.833 0 0 0 .831.831.831.831 0 0 0 .832-.831.831.831 0 0 0-.832-.831.833.833 0 0 0-.831.828zm-7.376 1.411v.423h-1.306v-5.387h1.293v2.05a1.718 1.718 0 0 1 1.1-.508c1.755 0 1.821 1.969 1.821 1.969a1.907 1.907 0 0 1-1.821 2.011 1.242 1.242 0 0 1-1.087-.561zm-.03-1.411a.831.831 0 0 0 .832.831.831.831 0 0 0 .831-.831.831.831 0 0 0-.831-.831.831.831 0 0 0-.833.828zm3.946 1.834v-3.19c0-1.1-.591-1.071-.591-1.071v-1.251c1.891 0 1.836 2.025 1.836 2.025v3.484z" transform="translate(-4260.263 11955.25)" style="fill:#fff;stroke:transparent;stroke-miterlimit:10"/>
    </g>
</svg>
