<svg xmlns="http://www.w3.org/2000/svg" width="16" height="16" viewBox="0 0 16 16">
    <defs>
        <clipPath id="p3ynebj17a">
            <path data-name="사각형 22957" style="fill:#353535" d="M0 0h16v16H0z"/>
        </clipPath>
    </defs>
    <path style="fill:none" d="M0 0h16v16H0z"/>
    <g data-name="그룹 21014">
        <g data-name="그룹 21013" style="clip-path:url(#p3ynebj17a)">
            <path data-name="패스 65705" d="M8 3.178a.916.916 0 0 1-1-.794V.794A.916.916 0 0 1 8 0a.916.916 0 0 1 1 .794v1.589a.916.916 0 0 1-1 .794" style="fill:#353535"/>
            <path data-name="패스 65706" d="M8 15.16a.914.914 0 0 1-1-.79v-1.58A.914.914 0 0 1 8 12a.914.914 0 0 1 1 .79v1.58a.914.914 0 0 1-1 .79" transform="translate(0 .84)" style="fill:#353535"/>
            <path data-name="패스 65707" d="M3.228 8a.92.92 0 0 1-.807 1H.807A.92.92 0 0 1 0 8a.92.92 0 0 1 .807-1h1.614a.92.92 0 0 1 .807 1" style="fill:#353535"/>
            <path data-name="패스 65708" d="M15.4 8a.934.934 0 0 1-.85 1h-1.7A.934.934 0 0 1 12 8a.934.934 0 0 1 .85-1h1.7a.934.934 0 0 1 .85 1" transform="translate(.602)" style="fill:#353535"/>
            <path data-name="패스 65709" d="M8 5.6A2.4 2.4 0 1 0 10.4 8 2.4 2.4 0 0 0 8 5.6" style="fill:#353535"/>
            <path data-name="패스 65710" d="M8.389 2a6.389 6.389 0 1 0 6.389 6.389A6.389 6.389 0 0 0 8.389 2m0 10.649a4.259 4.259 0 1 1 4.259-4.259 4.26 4.26 0 0 1-4.259 4.259" transform="translate(-.389 -.389)" style="fill:#353535"/>
        </g>
    </g>
</svg>
