<svg xmlns="http://www.w3.org/2000/svg" width="120" height="121.708" viewBox="0 0 120 121.708">
    <defs>
        <linearGradient id="tusq4z60ua" x1=".5" x2=".5" y2="1" gradientUnits="objectBoundingBox">
            <stop offset="0" stop-color="#8e7ef4"/>
            <stop offset="1" stop-color="#6c5ae6"/>
        </linearGradient>
        <linearGradient id="cgjj8caxtb" x1=".5" x2=".5" y2="1" gradientUnits="objectBoundingBox">
            <stop offset="0" stop-color="#cfcfcf"/>
            <stop offset="1" stop-color="#b5b5b5"/>
        </linearGradient>
        <linearGradient id="nf8h0i975c" x1=".5" x2=".5" y2="1" gradientUnits="objectBoundingBox">
            <stop offset="0" stop-color="#efefef"/>
            <stop offset="1" stop-color="#efefef"/>
        </linearGradient>
        <linearGradient id="gic89sqj0d" x1=".5" x2=".5" y2="1" gradientUnits="objectBoundingBox">
            <stop offset="0" stop-color="#d0d5e0"/>
            <stop offset="1" stop-color="#9ba0ad"/>
        </linearGradient>
        <linearGradient id="wc32r8pxvf" x1=".796" y1=".6" x2=".333" gradientUnits="objectBoundingBox">
            <stop offset="0" stop-opacity=".514"/>
            <stop offset="1" stop-opacity="0"/>
        </linearGradient>
        <filter id="h73nxvmttg" x="23.517" y="21.695" width="45.031" height="54.225" filterUnits="userSpaceOnUse">
            <feOffset/>
            <feGaussianBlur stdDeviation="1" result="blur"/>
            <feFlood flood-opacity=".251"/>
            <feComposite operator="in" in2="blur"/>
            <feComposite in="SourceGraphic"/>
        </filter>
        <filter id="cueuvittjh" x="36.786" y="33.157" width="18.298" height="19.651" filterUnits="userSpaceOnUse">
            <feOffset/>
            <feGaussianBlur stdDeviation="1" result="blur-2"/>
            <feFlood flood-opacity=".161"/>
            <feComposite operator="in" in2="blur-2"/>
            <feComposite in="SourceGraphic"/>
        </filter>
        <filter id="oqee8fw1wi" x="58.723" y="73.314" width="48.394" height="48.394" filterUnits="userSpaceOnUse">
            <feOffset dy="2"/>
            <feGaussianBlur stdDeviation="3" result="blur-3"/>
            <feFlood flood-opacity=".251"/>
            <feComposite operator="in" in2="blur-3"/>
            <feComposite in="SourceGraphic"/>
        </filter>
        <clipPath id="gph94metze">
            <path data-name="패스 66795" d="M7.751-1.357h3.778c2.663 0 2.92 4.964 5.924 4.964h14.985c3.946 0 3.768-4.964 6.251-4.964h4.021c6.133 0 7.936 3.392 7.936 7.328V81.3c0 5.318-3.417 7.282-7.748 7.282H7.939C3.607 88.578 0 87.129 0 81.3L.022 6.561c0-5.222 1.799-7.918 7.729-7.918z" transform="translate(0 1.357)" style="fill:url(#tusq4z60ua)"/>
        </clipPath>
        <clipPath id="ni2e6nhh1j">
            <path data-name="사각형 23602" style="fill:#fff" d="M0 0h17.231v17.257H0z"/>
        </clipPath>
    </defs>
    <g transform="translate(15.172 11.986)">
        <rect data-name="사각형 23544" width="56.215" height="94.222" rx="8" style="fill:url(#cgjj8caxtb)"/>
        <rect data-name="사각형 23543" width="55.273" height="94.222" rx="8" transform="translate(3.77)" style="fill:url(#nf8h0i975c)"/>
        <path data-name="패스 66780" d="M7.751-1.357h3.778c2.663 0 2.92 4.964 5.924 4.964h14.985c3.946 0 3.768-4.964 6.251-4.964h4.021c6.133 0 7.936 3.392 7.936 7.328V81.3c0 5.318-3.417 7.282-7.748 7.282H7.939C3.607 88.578 0 87.129 0 81.3L.022 6.561c0-5.222 1.799-7.918 7.729-7.918z" transform="translate(6.084 3.638)" style="opacity:.3;fill:url(#gic89sqj0d);stroke:#fff"/>
        <g data-name="그룹 21640" transform="translate(24.211 3.266)">
            <rect data-name="사각형 23571" width="11.786" height="1.873" rx=".937" style="fill:#cdcdcd"/>
            <rect data-name="사각형 23572" width="1.873" height="1.873" rx=".937" transform="translate(12.592)" style="fill:#cdcdcd"/>
        </g>
        <g data-name="마스크 그룹 72" transform="translate(6.084 2.281)" style="clip-path:url(#gph94metze);opacity:.5">
            <path data-name="패스 66866" d="M-13374.27-20188.059c3.268 3.254 66.871 36.57 66.871 36.57" transform="translate(13364.275 20233.572)" style="stroke-width:3px;fill:none;stroke:#fff"/>
            <path data-name="패스 66867" d="m31.438 66.493 27.5-42.339" transform="translate(-3.302 .35)" style="stroke-width:3px;fill:none;stroke:#fff"/>
            <path data-name="패스 66868" d="m31.438 66.493 27.5-42.339" transform="translate(-15.469 50.122)" style="stroke-width:3px;fill:none;stroke:#fff"/>
            <path data-name="패스 66869" d="m31.438 66.493 27.5-42.339" transform="translate(-37.59 37.956)" style="stroke-width:3px;fill:none;stroke:#fff"/>
        </g>
    </g>
    <g transform="translate(26.517 24.694)">
        <path data-name="패스 66893" d="M19.419 48.225-7.531 35.3l-.012-23.348S12.285-1.488 19.354.406s.065 47.819.065 47.819z" style="fill:url(#wc32r8pxvf);opacity:.4"/>
        <g style="filter:url(#h73nxvmttg)">
            <path data-name="패스 66710" d="M36.666 32.658a19.511 19.511 0 1 0-31.193.156l13.679 16.14a2.636 2.636 0 0 0 3.725 0z" transform="translate(-1.5 -1.49)" style="fill:url(#tusq4z60ua)"/>
        </g>
        <circle data-name="타원 271" cx="12.031" cy="12.031" r="12.031" transform="translate(7.388 7.118)" style="fill:#fff"/>
        <g style="filter:url(#cueuvittjh)">
            <path data-name="house" d="M31.25 36.244h-7.875a1.21 1.21 0 0 1-1.212-1.207v-6.051a1.206 1.206 0 0 1 .465-.951l4-3.12a1.215 1.215 0 0 1 1.507.01l3.873 3.11a1.206 1.206 0 0 1 .451.94v6.061a1.209 1.209 0 0 1-1.211 1.207" transform="translate(-7.9 -12.13)" style="stroke-linecap:round;stroke-linejoin:round;fill:#6c5ae6;stroke:#6c5ae6;stroke-miterlimit:10;stroke-width:2px"/>
        </g>
        <rect width="1.731" height="3.862" rx=".865" transform="rotate(90 1.2 20.15)" style="fill:#fff"/>
    </g>
    <g transform="translate(67.723 80.314)">
        <rect data-name="사각형 23586" width="30.394" height="30.394" rx="4" style="opacity:.2;fill:#fff"/>
        <g style="filter:url(#oqee8fw1wi)">
            <g data-name="사각형 23587" style="stroke:#61d3c1;fill:#61d3c1">
                <rect width="30.394" height="30.394" rx="4" style="stroke:none"/>
                <rect x=".5" y=".5" width="29.394" height="29.394" rx="3.5" style="fill:none"/>
            </g>
        </g>
        <g data-name="그룹 21682">
            <path d="M113.169 40.977h18.25c1.654 0 3.16 1.992 3.16 3.793v19.8c0 1.762-1.243 3.924-2.959 3.924h-3.436a2.214 2.214 0 0 1-2.01-1.541s-13.217-21.813-14.253-23.49a1.542 1.542 0 0 1 1.249-2.486" transform="translate(-105.156 -39.55)" style="opacity:.1;fill:#fff"/>
            <path d="M1.052 0C.969 0 0 .764 0 2.974V23.5c0 .982.819 4 4.712 4.277.239-.011-4.381-.459-4.381-4.509V2.974C.331.484 1.134 0 1.052 0z" transform="rotate(90 13.873 14.186)" style="fill:#bafff4"/>
            <g data-name="그룹 21691">
                <g data-name="그룹 21690" style="clip-path:url(#ni2e6nhh1j)" transform="translate(6.426 6.53)">
                    <path data-name="패스 66871" d="M17.231 112.536a1.7 1.7 0 0 1-1.561.686c-4.712-.023-9.424-.012-14.136-.013a3.267 3.267 0 0 1-.6-.017 1.07 1.07 0 0 1 0-2.121 3.356 3.356 0 0 1 .6-.017c4.712 0 9.424.01 14.136-.013a1.686 1.686 0 0 1 1.56.686z" transform="translate(0 -95.965)" style="fill:#fff"/>
                </g>
            </g>
        </g>
        <path data-name="패스 66873" d="m-13284.271-20147.662 4.844 4.844 4.843-4.844" transform="translate(13294.277 20159.686)" style="stroke-width:4px;stroke-linecap:round;stroke-linejoin:round;fill:none;stroke:#fff"/>
        <path data-name="패스 66874" d="M-13306.428-20156.773v8.627" transform="translate(13321.277 20163.527)" style="stroke-width:4px;stroke-linecap:round;stroke-linejoin:round;fill:none;stroke:#fff"/>
    </g>
    <path d="M332.469 109.664a.871.871 0 1 0 .871-.871.871.871 0 0 0-.871.871" transform="translate(-252.893 -74.481)" style="fill:#61d3c1;opacity:.2"/>
    <path d="M92.49 10.54A7.381 7.381 0 1 0 96 .71a7.381 7.381 0 0 0-3.51 9.83" transform="translate(3.444 55.333)" style="fill:#61d3c1"/>
    <path d="M112.4 20.968a2.094 2.094 0 0 1 2.5-.136 2.11 2.11 0 0 1 2.424-.953 2.366 2.366 0 0 1 1.544 2.857c-.316 1.225-2.764 3.923-2.764 3.923s-3.278-1.445-4.037-2.452a2.383 2.383 0 0 1 .334-3.24" transform="translate(-12.75 39.659)" style="fill:#fff"/>
    <g data-name="하트">
        <path data-name="circle" d="M92.449 9.936A6.958 6.958 0 1 0 95.763.67a6.958 6.958 0 0 0-3.313 9.266" transform="translate(-10.462 35.183)" style="fill:#61d3c1;opacity:.4"/>
        <path d="M3.105-15.555h-1.46l.127 4.246h1.207zm-1.494 5.428a.758.758 0 0 0 .76.768.782.782 0 0 0 .768-.768.776.776 0 0 0-.768-.751.752.752 0 0 0-.76.751z" transform="translate(85.902 54.599)" style="fill:#fff"/>
    </g>
    <path data-name="dot" d="M184.591 7.062a1.741 1.741 0 1 0 1.742-1.741 1.742 1.742 0 0 0-1.742 1.741" transform="translate(-92.122 64.06)" style="fill:#61d3c1;opacity:.5"/>
    <path data-name="dot" d="M332.469 109.664a.871.871 0 1 0 .871-.871.871.871 0 0 0-.871.871" transform="translate(-242.987 -32.45)" style="fill:#61d3c1;opacity:.2"/>
</svg>
