<svg xmlns="http://www.w3.org/2000/svg" width="102" height="50.001" viewBox="0 0 102 50.001"><g transform="translate(-941.761 74.352) rotate(-90)"><path d="M73.552,962.161h-18a1.2,1.2,0,0,1-1.2-1.2v-18a1.2,1.2,0,1,1,2.4,0v16.8h16.8a1.2,1.2,0,0,1,0,2.4Z" transform="translate(-0.4)" fill="#4d4d4d"/><path d="M69.552,966.161a1.2,1.2,0,0,1-1.2-1.2v-16.8h-16.8a1.2,1.2,0,0,1,0-2.4h18a1.2,1.2,0,0,1,1.2,1.2v18A1.2,1.2,0,0,1,69.552,966.161Z" transform="translate(0 -0.4)" fill="#4d4d4d"/></g><g transform="translate(-193.959 -990.169)"><rect width="24" height="24" transform="translate(219.959 990.17)" fill="#4d4d4d" opacity="0"/><g transform="translate(-1 -1)"><g transform="translate(221.959 992.17)"><path d="M228.515,998.984a1.168,1.168,0,0,1-.279-.033,1.2,1.2,0,0,1-.889-1.445l.573-2.4-2.358-.563a1.2,1.2,0,1,1,.557-2.334l3.526.841a1.2,1.2,0,0,1,.889,1.445l-.852,3.573A1.2,1.2,0,0,1,228.515,998.984Z" transform="translate(-221.959 -992.17)" fill="#4d4d4d" stroke="rgba(0,0,0,0)" stroke-width="1"/><path d="M229.366,1012.989a1.222,1.222,0,0,1-.454-.086,10.528,10.528,0,0,1,0-19.8,1.218,1.218,0,0,1,1.565.627,1.13,1.13,0,0,1-.656,1.5,8.272,8.272,0,0,0,0,15.56,1.13,1.13,0,0,1,.656,1.5A1.2,1.2,0,0,1,229.366,1012.989Z" transform="translate(-221.959 -992.17)" fill="#4d4d4d" stroke="rgba(0,0,0,0)" stroke-width="1"/></g><g transform="translate(235.352 993.351)"><path d="M240.714,1015.089a1.216,1.216,0,0,1-.279-.033l-3.526-.841a1.2,1.2,0,0,1-.889-1.445l.852-3.573a1.2,1.2,0,0,1,2.335.557l-.574,2.4,2.358.563a1.2,1.2,0,0,1-.277,2.367Z" transform="translate(-235.987 -994.27)" fill="#4d4d4d" stroke="rgba(0,0,0,0)" stroke-width="1"/><path d="M237.188,1013.329a1.2,1.2,0,0,1-1.111-.713,1.129,1.129,0,0,1,.656-1.5,8.273,8.273,0,0,0,0-15.56,1.129,1.129,0,0,1-.656-1.5,1.218,1.218,0,0,1,1.565-.628,10.529,10.529,0,0,1,0,19.806A1.226,1.226,0,0,1,237.188,1013.329Z" transform="translate(-235.987 -993.351)" fill="#4d4d4d" stroke="rgba(0,0,0,0)" stroke-width="1"/></g></g></g><g transform="translate(-227.447 -991.033)"><rect width="24" height="24" transform="translate(279.447 991.033)" fill="#fff" opacity="0"/><g transform="translate(-1 -1)"><rect width="4" height="4" transform="translate(282.447 994.033)" fill="#4d4d4d"/><rect width="4" height="4" transform="translate(286.447 998.033)" fill="#4d4d4d"/><rect width="4" height="4" transform="translate(290.447 994.033)" fill="#4d4d4d"/><rect width="4" height="4" transform="translate(294.447 998.033)" fill="#4d4d4d"/><rect width="4" height="4" transform="translate(298.447 994.033)" fill="#4d4d4d"/><rect width="4" height="4" transform="translate(282.447 1002.033)" fill="#4d4d4d"/><rect width="4" height="4" transform="translate(286.447 1006.033)" fill="#4d4d4d"/><rect width="4" height="4" transform="translate(290.447 1002.033)" fill="#4d4d4d"/><rect width="4" height="4" transform="translate(294.447 1006.033)" fill="#4d4d4d"/><rect width="4" height="4" transform="translate(298.447 1002.033)" fill="#4d4d4d"/><rect width="4" height="4" transform="translate(282.447 1010.033)" fill="#4d4d4d"/><rect width="4" height="4" transform="translate(290.447 1010.033)" fill="#4d4d4d"/><rect width="4" height="4" transform="translate(298.447 1010.033)" fill="#4d4d4d"/></g></g><g transform="translate(-264.289 -989.972)"><path d="M354.289,1013.973a12,12,0,1,1,12-12A12.013,12.013,0,0,1,354.289,1013.973Zm0-21.639a9.639,9.639,0,1,0,9.639,9.639A9.651,9.651,0,0,0,354.289,992.334Z" fill="#4d4d4d"/><path d="M357.976,1003.871a4.172,4.172,0,1,1,0-3.8H360.5a6.5,6.5,0,1,0,0,3.8Z" transform="translate(0)" fill="#4d4d4d"/></g><g transform="translate(-941.761 100.352) rotate(-90)"><path d="M73.552,962.161h-18a1.2,1.2,0,0,1-1.2-1.2v-18a1.2,1.2,0,1,1,2.4,0v16.8h16.8a1.2,1.2,0,0,1,0,2.4Z" transform="translate(-0.4)" fill="#6c5ae6"/><path d="M69.552,966.161a1.2,1.2,0,0,1-1.2-1.2v-16.8h-16.8a1.2,1.2,0,0,1,0-2.4h18a1.2,1.2,0,0,1,1.2,1.2v18A1.2,1.2,0,0,1,69.552,966.161Z" transform="translate(0 -0.4)" fill="#6c5ae6"/></g><g transform="translate(-193.959 -964.169)"><rect width="24" height="24" transform="translate(219.959 990.17)" fill="#6c5ae6" opacity="0"/><g transform="translate(-1 -1)"><g transform="translate(221.959 992.17)"><path d="M228.515,998.984a1.168,1.168,0,0,1-.279-.033,1.2,1.2,0,0,1-.889-1.445l.573-2.4-2.358-.563a1.2,1.2,0,1,1,.557-2.334l3.526.841a1.2,1.2,0,0,1,.889,1.445l-.852,3.573A1.2,1.2,0,0,1,228.515,998.984Z" transform="translate(-221.959 -992.17)" fill="#6c5ae6" stroke="rgba(0,0,0,0)" stroke-width="1"/><path d="M229.366,1012.989a1.222,1.222,0,0,1-.454-.086,10.528,10.528,0,0,1,0-19.8,1.218,1.218,0,0,1,1.565.627,1.13,1.13,0,0,1-.656,1.5,8.272,8.272,0,0,0,0,15.56,1.13,1.13,0,0,1,.656,1.5A1.2,1.2,0,0,1,229.366,1012.989Z" transform="translate(-221.959 -992.17)" fill="#6c5ae6" stroke="rgba(0,0,0,0)" stroke-width="1"/></g><g transform="translate(235.352 993.351)"><path d="M240.714,1015.089a1.216,1.216,0,0,1-.279-.033l-3.526-.841a1.2,1.2,0,0,1-.889-1.445l.852-3.573a1.2,1.2,0,0,1,2.335.557l-.574,2.4,2.358.563a1.2,1.2,0,0,1-.277,2.367Z" transform="translate(-235.987 -994.27)" fill="#6c5ae6" stroke="rgba(0,0,0,0)" stroke-width="1"/><path d="M237.188,1013.329a1.2,1.2,0,0,1-1.111-.713,1.129,1.129,0,0,1,.656-1.5,8.273,8.273,0,0,0,0-15.56,1.129,1.129,0,0,1-.656-1.5,1.218,1.218,0,0,1,1.565-.628,10.529,10.529,0,0,1,0,19.806A1.226,1.226,0,0,1,237.188,1013.329Z" transform="translate(-235.987 -993.351)" fill="#6c5ae6" stroke="rgba(0,0,0,0)" stroke-width="1"/></g></g></g><g transform="translate(-227.447 -965.033)"><rect width="24" height="24" transform="translate(279.447 991.033)" fill="#fff" opacity="0"/><g transform="translate(-1 -1)"><rect width="4" height="4" transform="translate(282.447 994.033)" fill="#6c5ae6"/><rect width="4" height="4" transform="translate(286.447 998.033)" fill="#6c5ae6"/><rect width="4" height="4" transform="translate(290.447 994.033)" fill="#6c5ae6"/><rect width="4" height="4" transform="translate(294.447 998.033)" fill="#6c5ae6"/><rect width="4" height="4" transform="translate(298.447 994.033)" fill="#6c5ae6"/><rect width="4" height="4" transform="translate(282.447 1002.033)" fill="#6c5ae6"/><rect width="4" height="4" transform="translate(286.447 1006.033)" fill="#6c5ae6"/><rect width="4" height="4" transform="translate(290.447 1002.033)" fill="#6c5ae6"/><rect width="4" height="4" transform="translate(294.447 1006.033)" fill="#6c5ae6"/><rect width="4" height="4" transform="translate(298.447 1002.033)" fill="#6c5ae6"/><rect width="4" height="4" transform="translate(282.447 1010.033)" fill="#6c5ae6"/><rect width="4" height="4" transform="translate(290.447 1010.033)" fill="#6c5ae6"/><rect width="4" height="4" transform="translate(298.447 1010.033)" fill="#6c5ae6"/></g></g><g transform="translate(-264.289 -963.972)"><path d="M354.289,1013.973a12,12,0,1,1,12-12A12.013,12.013,0,0,1,354.289,1013.973Zm0-21.639a9.639,9.639,0,1,0,9.639,9.639A9.651,9.651,0,0,0,354.289,992.334Z" fill="#6c5ae6"/><path d="M357.976,1003.871a4.172,4.172,0,1,1,0-3.8H360.5a6.5,6.5,0,1,0,0,3.8Z" transform="translate(0)" fill="#6c5ae6"/></g></svg>