<svg xmlns="http://www.w3.org/2000/svg" width="56" height="20" viewBox="0 0 56 20"><g transform="translate(-288.736 -906.847)"><rect width="20" height="20" transform="translate(288.736 906.847)" fill="#fff" opacity="0"/><g transform="translate(292.167 908.487)"><path d="M6.569,17.47a1.8,1.8,0,0,1-1.343-.6l-.042-.048-.049-.057-.186-.221c-.143-.171-.372-.448-.649-.794-.489-.61-1.227-1.558-1.969-2.616A28.229,28.229,0,0,1,.3,9.848,7.975,7.975,0,0,1-.75,6.354,7.222,7.222,0,0,1,6.569-.75a7.222,7.222,0,0,1,7.319,7.1,7.975,7.975,0,0,1-1.053,3.494,28.23,28.23,0,0,1-2.027,3.289c-.742,1.058-1.48,2.006-1.969,2.616-.278.346-.506.623-.649.794L8,16.767l-.094.109A1.8,1.8,0,0,1,6.569,17.47Zm-.247-1.622.018.021a.31.31,0,0,0,.456,0l.064-.075.176-.209c.139-.166.361-.434.63-.771.475-.593,1.192-1.514,1.911-2.539A26.755,26.755,0,0,0,11.5,9.166a6.7,6.7,0,0,0,.889-2.813A5.721,5.721,0,0,0,6.569.75,5.721,5.721,0,0,0,.75,6.354a6.7,6.7,0,0,0,.889,2.813,26.754,26.754,0,0,0,1.919,3.11c.719,1.025,1.436,1.946,1.911,2.539.27.336.491.6.63.77l.177.21Z" fill="#4d4d4d"/><path d="M5.774.75H0A.75.75,0,0,1-.75,0,.75.75,0,0,1,0-.75H5.774a.75.75,0,0,1,.75.75A.75.75,0,0,1,5.774.75Z" transform="translate(3.787 6.739)" fill="#4d4d4d"/></g></g><g transform="translate(22)"><rect width="20" height="20" fill="#fff" opacity="0"/><g transform="translate(3.001 0.999)"><path d="M9.1,5.271H0L1.008,0A6.2,6.2,0,0,0,4.677,1.189,6.219,6.219,0,0,0,8.125.152L9.1,5.271Z" transform="translate(2.324 12.06)" fill="rgba(0,0,0,0)"/><path d="M9.1,6.021H0a.75.75,0,0,1-.578-.272.75.75,0,0,1-.159-.619L.272-.141A.75.75,0,0,1,.732-.7a.75.75,0,0,1,.717.091A5.455,5.455,0,0,0,4.677.439,5.472,5.472,0,0,0,7.711-.473.75.75,0,0,1,8.862.011L9.841,5.13a.751.751,0,0,1-.737.892Zm-8.2-1.5H8.2L7.583,1.309a6.977,6.977,0,0,1-2.906.63A6.955,6.955,0,0,1,1.542,1.2Z" transform="translate(2.324 12.06)" fill="#4d4d4d"/><path d="M7,1.5A5.5,5.5,0,1,0,12.5,7,5.506,5.506,0,0,0,7,1.5M7,0A7,7,0,1,1,0,7,7,7,0,0,1,7,0Z" fill="#4d4d4d"/><path d="M3,1.5A1.5,1.5,0,1,0,4.5,3,1.5,1.5,0,0,0,3,1.5M3,0A3,3,0,1,1,0,3,3,3,0,0,1,3,0Z" transform="translate(4 4)" fill="#4d4d4d"/></g></g><g transform="translate(-55 -41)"><rect width="12" height="12" transform="translate(99 41)" fill="none"/><g transform="translate(98.9 41.143)"><path d="M-23061.1-9626.25a.752.752,0,0,1-.748-.686,3.424,3.424,0,0,1,1-2.729,3.423,3.423,0,0,1,2.426-1.006c.092,0,.186,0,.279.012,3,.087,5.25,0,5.273,0h.029a.751.751,0,0,1,.75.721.75.75,0,0,1-.721.778c-.023,0-2.338.089-5.4,0l-.045,0a1.92,1.92,0,0,0-1.535.56,1.925,1.925,0,0,0-.561,1.538.751.751,0,0,1-.684.812Z" transform="translate(23062.111 9632.664)" fill="#121212"/><path d="M-22663.4-9685.74a.749.749,0,0,1-.564-.256.749.749,0,0,1,.07-1.059l1.7-1.488a.752.752,0,0,1,1.059.07.749.749,0,0,1-.07,1.059l-1.7,1.488A.751.751,0,0,1-22663.4-9685.74Z" transform="translate(-9678.732 22664.508) rotate(90)" fill="#121212"/><path d="M-23055.574-9626.24c-.092,0-.186,0-.279-.012-3-.088-5.25,0-5.273,0h-.029a.751.751,0,0,1-.75-.721.75.75,0,0,1,.721-.778c.023,0,2.336-.089,5.4,0l.045,0c.057,0,.113.008.17.008a1.935,1.935,0,0,0,1.369-.568,1.934,1.934,0,0,0,.557-1.537.751.751,0,0,1,.684-.812l.064,0a.752.752,0,0,1,.748.686,3.445,3.445,0,0,1-.992,2.728A3.435,3.435,0,0,1-23055.574-9626.24Z" transform="translate(23064.111 9636.088)" fill="#121212"/><path d="M0,2.45a.747.747,0,0,1-.51-.2.75.75,0,0,1-.039-1.06l1.58-1.7a.75.75,0,0,1,1.06-.039A.75.75,0,0,1,2.129.511l-1.58,1.7A.748.748,0,0,1,0,2.45Z" transform="translate(3.01 10.662) rotate(-90)" fill="#121212"/></g></g></svg>