<svg xmlns="http://www.w3.org/2000/svg" width="48" height="48" viewBox="0 0 48 48"><rect width="48" height="48" transform="translate(48) rotate(90)" fill="#fff" opacity="0"/><g transform="translate(17.027 18)"><path d="M0,13a1,1,0,0,1-.707-.293,1,1,0,0,1,0-1.414l12-12a1,1,0,0,1,1.414,0,1,1,0,0,1,0,1.414l-12,12A1,1,0,0,1,0,13Z" transform="translate(12 12) rotate(180)" fill="#353535"/><path d="M0,13a1,1,0,0,1-.707-.293,1,1,0,0,1,0-1.414l12-12a1,1,0,0,1,1.414,0,1,1,0,0,1,0,1.414l-12,12A1,1,0,0,1,0,13Z" transform="translate(12) rotate(90)" fill="#353535"/></g></svg>