<svg xmlns="http://www.w3.org/2000/svg" width="16" height="16" viewBox="0 0 16 16">
    <defs>
        <clipPath id="ayp49qb6qa">
            <path data-name="사각형 23092" style="fill:#353535" d="M0 0h11v10.918H0z"/>
        </clipPath>
    </defs>
    <g data-name="그룹 21309" transform="translate(3 2.5)" style="clip-path:url(#ayp49qb6qa)">
        <path data-name="패스 65863" d="M5.116 16.307c-1.1 0-2.208-.006-3.313 0a1.758 1.758 0 0 1-1.352-.575 1.519 1.519 0 0 1-.438-.963C0 14.558 0 14.344 0 14.131V7.919a1.849 1.849 0 0 1 .267-1.086 1.629 1.629 0 0 1 1.28-.769c.141-.01.283-.021.425-.021h3.593a.705.705 0 0 1 .518.172.559.559 0 0 1-.275.943 1.011 1.011 0 0 1-.245.027H1.77a.575.575 0 0 0-.612.39.469.469 0 0 0-.024.151c0 2.244.013 4.489 0 6.733a.625.625 0 0 0 .721.713c1.5-.012 3.01-.006 4.515-.006.695 0 1.389-.006 2.084 0a.615.615 0 0 0 .67-.67c0-1.3-.005-2.592 0-3.888a.523.523 0 0 1 .5-.566.563.563 0 0 1 .616.52c0 .07.018.14.018.211v3.714a1.722 1.722 0 0 1-.533 1.314 1.779 1.779 0 0 1-1.274.5c-1.113-.007-2.226 0-3.339 0z" transform="translate(0 -5.391)" style="fill:#353535"/>
        <path data-name="패스 65864" d="M36.5 1.691a1.694 1.694 0 0 1-.515 1.209Q33.741 5.141 31.5 7.384a.839.839 0 0 1-.517.24c-.271.031-.539.083-.809.122-.344.05-.687.107-1.033.138a.574.574 0 0 1-.555-.707c.049-.26.086-.522.13-.782.061-.362.11-.728.193-1.085a.815.815 0 0 1 .223-.359c1.438-1.446 2.884-2.884 4.322-4.33a1.809 1.809 0 0 1 .888-.568 1.683 1.683 0 0 1 1.435.266 1.746 1.746 0 0 1 .669 1 3.386 3.386 0 0 1 .054.376m-6.686 4.952c.284-.039.556-.07.825-.116a.464.464 0 0 0 .239-.109q1.772-1.76 3.536-3.528c.08-.079.089-.136 0-.218-.2-.194-.4-.391-.595-.595-.091-.1-.148-.085-.236 0q-1.635 1.642-3.275 3.279a1.163 1.163 0 0 1-.192.184.393.393 0 0 0-.181.313c-.037.253-.08.5-.126.785M35.32 1.9a.594.594 0 0 0-.073-.525.67.67 0 0 0-.7-.211l-.037.041.814.695" transform="translate(-25.496)" style="fill:#353535"/>
    </g>
</svg>
