<svg xmlns="http://www.w3.org/2000/svg" width="24" height="24.001" viewBox="0 0 24 24.001">
    <g data-name="그룹 1179">
        <path data-name="패스 179" d="M231.987 599.538h-13.349a2.467 2.467 0 0 1-2.074-1.1 2.1 2.1 0 0 1 .418-2.728l.946-.816v-4.026a7.385 7.385 0 0 1 14.769 0v4.026l.946.816a2.1 2.1 0 0 1 .421 2.725 2.47 2.47 0 0 1-2.077 1.103zm-6.674-14.1a5.547 5.547 0 0 0-5.385 5.426v4.447a.93.93 0 0 1-.327.7l-1.273 1.1a.262.262 0 0 0-.052.339.429.429 0 0 0 .362.184h13.349a.432.432 0 0 0 .365-.188.261.261 0 0 0-.055-.336l-1.272-1.1a.928.928 0 0 1-.328-.7v-4.447a5.547 5.547 0 0 0-5.384-5.424z" transform="translate(-213.236 -579.537)" style="fill:#333"/>
        <path data-name="패스 180" d="M225.313 604.331a4.691 4.691 0 0 1-4.531-4.826 1.032 1.032 0 0 1 1-1.06h7.062a1.032 1.032 0 0 1 1 1.06 4.691 4.691 0 0 1-4.531 4.826zm-2.329-3.766a2.47 2.47 0 0 0 4.658 0z" transform="translate(-213.236 -580.331)" style="fill:#333"/>
    </g>
</svg>
