<svg xmlns="http://www.w3.org/2000/svg" width="330" height="133" viewBox="0 0 330 133"><rect width="16" height="16" fill="none"/><g transform="translate(-0.095 -0.093)"><path d="M402.094,810.325a3.785,3.785,0,1,1-3.785,3.785,3.785,3.785,0,0,1,3.785-3.785m0-1.262a5.046,5.046,0,1,0,5.047,5.046,5.046,5.046,0,0,0-5.047-5.046Z" transform="translate(-394.954 -806.97)" fill="#333"/><path d="M408.97,821.671a.685.685,0,0,1-.484-.2l-2.632-2.632a.684.684,0,0,1,.968-.967l2.631,2.631a.685.685,0,0,1-.484,1.169Z" transform="translate(-395.558 -807.579)" fill="#333"/></g><g transform="translate(-15 -25)"><rect width="20" height="20" transform="translate(33 25)" fill="none"/><g transform="translate(33 25)"><circle cx="8" cy="8" r="8" transform="translate(2 2)" fill="#dbdbdb"/><path d="M6,0,0,6" transform="translate(13 13) rotate(180)" fill="none" stroke="#fff" stroke-linecap="round" stroke-linejoin="round" stroke-width="1.6"/><path d="M6,0,0,6" transform="translate(13 7) rotate(90)" fill="none" stroke="#fff" stroke-linecap="round" stroke-linejoin="round" stroke-width="1.6"/></g></g><g transform="translate(8 -28)"><rect width="20" height="20" transform="translate(32 28)" fill="none"/><path d="M-1931.06-2569.19a.8.8,0,0,1-.572-.241l-5.275-5.4a.8.8,0,0,1,0-1.118l5.275-5.4a.8.8,0,0,1,1.131-.013.8.8,0,0,1,.013,1.131l-4.729,4.841,4.729,4.841a.8.8,0,0,1-.013,1.131A.8.8,0,0,1-1931.06-2569.19Z" transform="translate(2617.39 -1895.66) rotate(-90)" fill="#333"/></g><g transform="translate(80)"><g fill="none" stroke="#949494" stroke-width="1" opacity="0.8"><circle cx="8" cy="8" r="8" stroke="none"/><circle cx="8" cy="8" r="7.5" fill="none"/></g><path d="M.672,0H2.4V-6.36H.672Zm-.1-8.088a.934.934,0,0,0,.96.888.913.913,0,0,0,.936-.888.893.893,0,0,0-.287-.628.893.893,0,0,0-.649-.236.915.915,0,0,0-.956.864Z" transform="translate(6.476 12.477)" fill="#949494"/></g><g transform="translate(11 -24)"><rect width="20" height="20" transform="translate(87 24)" fill="none"/><g transform="translate(89.5 26)"><path d="M450.38,864.778H436.918a.767.767,0,0,1-.769-.766v-12.8a.768.768,0,0,1,.769-.766H450.38a.768.768,0,0,1,.769.766v12.8a.767.767,0,0,1-.769.766Zm-12.692-1.531h11.923V851.974H437.687Z" transform="translate(-436.149 -848.778)" fill="#363636"/><path d="M450.38,856.743H436.918a.8.8,0,0,1,0-1.6H450.38a.8.8,0,0,1,0,1.6Z" transform="translate(-436.149 -849.008)" fill="#363636"/><path d="M440.767,854.1a.8.8,0,0,1-.8-.8v-2.714a.8.8,0,0,1,1.6,0V853.3a.8.8,0,0,1-.8.8Z" transform="translate(-436.313 -849.778)" fill="#363636"/><path d="M447.131,854.092a.8.8,0,0,1-.8-.8v-2.714a.8.8,0,0,1,1.6,0v2.714a.8.8,0,0,1-.8.8Z" transform="translate(-436.585 -849.778)" fill="#363636"/><circle cx="1" cy="1" r="1" transform="translate(6.333 9.831)" fill="#363636"/><circle cx="1" cy="1" r="1" transform="translate(3.333 9.831)" fill="#363636"/><circle cx="1" cy="1" r="1" transform="translate(9.333 9.831)" fill="#363636"/></g></g><g transform="translate(25 -24)"><rect width="20" height="20" transform="translate(127 24)" fill="none"/><path d="M-1931.06-2569.19a.8.8,0,0,1-.572-.241l-5.275-5.4a.8.8,0,0,1,0-1.118l5.275-5.4a.8.8,0,0,1,1.131-.013.8.8,0,0,1,.013,1.131l-4.729,4.841,4.729,4.841a.8.8,0,0,1-.013,1.131A.8.8,0,0,1-1931.06-2569.19Z" transform="translate(2712.39 -1899.698) rotate(-90)" fill="#333"/></g><g transform="translate(137 -1)"><rect width="12" height="12" transform="translate(1 1)" fill="rgba(255,255,255,0)"/><path d="M-5815.517-1641.15a1,1,0,0,1-.707-.293l-3.41-3.411a1,1,0,0,1,0-1.414,1,1,0,0,1,1.414,0l2.712,2.713,4.95-4.824a1,1,0,0,1,1.414.018,1,1,0,0,1-.019,1.414l-5.657,5.513A1,1,0,0,1-5815.517-1641.15Z" transform="translate(5821.227 1652.412)" fill="#fff"/></g><g transform="translate(120.8 0.8)"><rect width="16" height="16" transform="translate(-0.8 -0.8)" fill="rgba(255,255,255,0)"/><path d="M-5814.835-1640.047a1,1,0,0,1-.707-.293l-4.092-4.093a1,1,0,0,1,0-1.414,1,1,0,0,1,1.414,0l3.394,3.395,6.081-5.926a1,1,0,0,1,1.414.018,1,1,0,0,1-.019,1.414l-6.788,6.615A1,1,0,0,1-5814.835-1640.047Z" transform="translate(5820.486 1651.862)" fill="#fff"/></g><g transform="translate(174)"><rect width="16" height="16" fill="red" opacity="0"/><g transform="translate(-6.898 -5.238)"><path d="M10.547.625H0A.625.625,0,0,1-.625,0,.625.625,0,0,1,0-.625H10.547A.625.625,0,0,1,11.172,0,.625.625,0,0,1,10.547.625Z" transform="translate(9.6 10.598)" fill="#353535"/><path d="M10.547.625H0A.625.625,0,0,1-.625,0,.625.625,0,0,1,0-.625H10.547A.625.625,0,0,1,11.172,0,.625.625,0,0,1,10.547.625Z" transform="translate(9.6 15.871)" fill="#353535"/><circle cx="2.109" cy="2.109" r="2.109" transform="translate(14.346 8.488)" fill="#fff"/><path d="M2.109,1.25a.859.859,0,1,0,.859.859.86.86,0,0,0-.859-.859m0-1.25A2.109,2.109,0,1,1,0,2.109,2.109,2.109,0,0,1,2.109,0Z" transform="translate(14.346 8.488)" fill="#353535"/><circle cx="2.109" cy="2.109" r="2.109" transform="translate(11.182 13.762)" fill="#fff"/><path d="M2.109,1.25a.859.859,0,1,0,.859.859.86.86,0,0,0-.859-.859m0-1.25A2.109,2.109,0,1,1,0,2.109,2.109,2.109,0,0,1,2.109,0Z" transform="translate(11.182 13.762)" fill="#353535"/></g></g><g transform="translate(192)"><rect width="16" height="16" fill="red" opacity="0"/><g transform="translate(3.986 2.986)"><path d="M2.987,11.175a.625.625,0,0,1-.625-.625V1.472l-.928.9a.625.625,0,1,1-.868-.9L2.553-.45a.625.625,0,0,1,.678-.126A.625.625,0,0,1,3.612,0V10.55A.625.625,0,0,1,2.987,11.175Z" transform="translate(-0.909 -0.263)" fill="#353535"/><path d="M1.987,11.175a.625.625,0,0,1-.625-.625V1.472l-.928.9A.625.625,0,0,1-.45,2.352a.625.625,0,0,1,.016-.884L1.553-.45a.625.625,0,0,1,.678-.126A.625.625,0,0,1,2.612,0V10.55A.625.625,0,0,1,1.987,11.175Z" transform="translate(7.938 10.288) rotate(180)" fill="#353535"/></g></g><g transform="translate(22 24)"><path d="M0,0H24V24H0Z" fill="none"/><g transform="translate(0.001 0.051)"><path d="M15.981,2.544a.73.73,0,0,1-.7.422H13.59c-.087.181-.159.359-.253.523a2.359,2.359,0,0,1-1.107.95,2.057,2.057,0,0,1-1.026.189,2.26,2.26,0,0,1-1.153-.459,2.09,2.09,0,0,1-.783-1.016c-.041-.115-.1-.2-.253-.188a3.086,3.086,0,0,1-.343,0c-2.643,0-5.287.006-7.93-.006a.66.66,0,0,1-.7-.647.652.652,0,0,1,.567-.653c.21-.018.422-.031.633-.032H9.016c.112,0,.174-.02.216-.134A2.214,2.214,0,0,1,10,.458,1.972,1.972,0,0,1,11.152,0a2.4,2.4,0,0,1,1.067.154,2.212,2.212,0,0,1,1.247,1.233c.091.242.094.241.353.241h1.345a1.722,1.722,0,0,1,.363.046.647.647,0,0,1,.443.354s.03.03.03.272a1.293,1.293,0,0,1-.016.243m-4.62.743a.989.989,0,0,0,.075-1.976.973.973,0,0,0-1.063.983.965.965,0,0,0,.988.993" transform="translate(3.964 4.301)" fill="#fff"/><path d="M15.741,87.377a.764.764,0,0,1-.52.168H13.688a.174.174,0,0,0-.2.125,2.118,2.118,0,0,1-.62.917,2.536,2.536,0,0,1-1.28.6,2.135,2.135,0,0,1-1.559-.42,1.944,1.944,0,0,1-.764-.94.392.392,0,0,0-.448-.284c-2.679.012-5.359.007-8.039.008A.727.727,0,0,1,0,86.928a.7.7,0,0,1,.452-.657,2.39,2.39,0,0,1,.473-.058H8.667a2.069,2.069,0,0,1,.246.024.232.232,0,0,0,.289-.159,2.122,2.122,0,0,1,.565-.861,2.26,2.26,0,0,1,1.537-.641,2.327,2.327,0,0,1,1.669.7,2.385,2.385,0,0,1,.521.833.187.187,0,0,0,.206.131q.685-.018,1.372-.025a2.079,2.079,0,0,1,.37.033.688.688,0,0,1,.52.428l.031.094a.744.744,0,0,1-.257.615M11.312,85.9a.954.954,0,0,0-.977.978,1,1,0,1,0,.977-.978" transform="translate(4 -69.599)" fill="#fff"/><path d="M16.02,44.6l-.039.091a.687.687,0,0,1-.68.439q-4,.009-7.993.01c-.115,0-.231-.015-.346-.005-.036,0-.078.056-.1.1-.117.206-.212.426-.346.62a2.245,2.245,0,0,1-1.191.844,2.089,2.089,0,0,1-1.809-.245,2.49,2.49,0,0,1-.988-1.193.163.163,0,0,0-.109-.091c-.535-.01-1.071-.026-1.606-.01a.78.78,0,0,1-.786-.65.659.659,0,0,1,.522-.656,2.434,2.434,0,0,1,.444-.042c.453,0,.907,0,1.36.01a.164.164,0,0,0,.181-.124,2.322,2.322,0,0,1,1.674-1.479,2.12,2.12,0,0,1,1.576.24,2.276,2.276,0,0,1,.767.678,2.847,2.847,0,0,1,.281.534.22.22,0,0,0,.243.152q3.864-.011,7.728-.013a5.018,5.018,0,0,1,.678.045.529.529,0,0,1,.456.334.461.461,0,0,0,.076.1l.007.314M5.69,44.48a.964.964,0,0,0-1.018-1,.952.952,0,0,0-.982.983,1,1,0,0,0,2,.015" transform="translate(3.979 -32.539)" fill="#fff"/></g></g><g transform="translate(210)"><rect width="16" height="16" fill="rgba(255,255,255,0)"/><path d="M2579.613-8087l4.4,4.4,4.4-4.4" transform="translate(8093 2591.912) rotate(-90)" fill="none" stroke="#353535" stroke-linecap="round" stroke-linejoin="round" stroke-width="1.6"/></g><g transform="translate(0 -10)"><rect width="20" height="20" transform="translate(48 34)" fill="none"/><path d="M-3129.216-2594.826a1.2,1.2,0,0,1-.849-.351l-4.784-4.784a1.2,1.2,0,0,1,0-1.7,1.2,1.2,0,0,1,1.7,0l3.935,3.936,7.109-7.11a1.2,1.2,0,0,1,1.7,0,1.2,1.2,0,0,1,0,1.7l-7.958,7.958A1.2,1.2,0,0,1-3129.216-2594.826Z" transform="translate(3185.629 2643.972)" fill="#695ede"/></g><g transform="translate(70 24)"><rect width="24" height="24" transform="translate(24) rotate(90)" fill="#fff" opacity="0"/><path d="M-1930.333-2567.79a1,1,0,0,1-.707-.293l-6-6a1,1,0,0,1-.293-.707,1,1,0,0,1,.293-.707l6-6a1,1,0,0,1,1.414,0,1,1,0,0,1,0,1.414l-5.293,5.293,5.293,5.293a1,1,0,0,1,0,1.414A1,1,0,0,1-1930.333-2567.79Z" transform="translate(1945.333 2586.789)" fill="#353535"/></g><g transform="translate(96 24)"><g transform="translate(9058 20445)"><rect width="24" height="24" transform="translate(-9034 -20445) rotate(90)" fill="#fff" opacity="0"/><path d="M-9040-20437.508h-14a1,1,0,0,1-1-1,1,1,0,0,1,1-1h14a1,1,0,0,1,1,1A1,1,0,0,1-9040-20437.508Z" transform="translate(1 0.008)" fill="#353535"/><path d="M-9040-20437.508h-14a1,1,0,0,1-1-1,1,1,0,0,1,1-1h14a1,1,0,0,1,1,1A1,1,0,0,1-9040-20437.508Z" transform="translate(1 5.508)" fill="#353535"/><path d="M-9043.311-20437.508H-9054a1,1,0,0,1-1-1,1,1,0,0,1,1-1h10.689a1,1,0,0,1,1,1A1,1,0,0,1-9043.311-20437.508Z" transform="translate(1 11.008)" fill="#353535"/></g></g><g transform="translate(228)"><rect width="16" height="16" fill="#fff" opacity="0"/><g transform="translate(5552 19837)"><g transform="translate(-5552 -19837)" fill="none" stroke="#949494" stroke-width="1" opacity="0.8"><circle cx="8" cy="8" r="8" stroke="none"/><circle cx="8" cy="8" r="7.5" fill="none"/></g><path d="M2.257-2.753v.124H3.844v-.124a1.722,1.722,0,0,1,.992-1.662A2.31,2.31,0,0,0,6.15-6.522c0-1.488-1.19-2.368-2.877-2.356a2.531,2.531,0,0,0-2.852,2.5H2.133A1.1,1.1,0,0,1,3.249-7.465,1.01,1.01,0,0,1,4.315-6.448c0,.558-.4.93-.918,1.265C2.666-4.724,2.257-4.266,2.257-2.753ZM2.083-.918A.984.984,0,0,0,3.1.1,1.029,1.029,0,0,0,4.117-.918,1.025,1.025,0,0,0,3.1-1.91.978.978,0,0,0,2.083-.918Z" transform="translate(-5547.5 -19824.5)" fill="#949494"/></g></g><g transform="translate(0 24)"><rect width="20" height="20" fill="#fff" opacity="0"/><g transform="translate(2 2)"><path d="M856.617,597.43a5.72,5.72,0,1,1-5.72,5.72,5.726,5.726,0,0,1,5.72-5.72m0-1.43a7.15,7.15,0,1,0,7.15,7.15,7.15,7.15,0,0,0-7.15-7.15Z" transform="translate(-849.467 -596)" fill="#353535"/><path d="M864.467,611.7a.7.7,0,0,1-.495-.205l-3.367-3.366a.7.7,0,0,1,.991-.99l3.366,3.366a.7.7,0,0,1-.495,1.2Z" transform="translate(-849.167 -595.7)" fill="#353535"/></g></g><g transform="translate(251 5)"><circle cx="8" cy="8" r="8" transform="translate(-5 -5)" fill="#dbdbdb"/><path d="M4.775,0,0,4.775" transform="translate(2.999 6.376) rotate(-135)" fill="none" stroke="#fff" stroke-linecap="round" stroke-linejoin="round" stroke-width="1.6"/><path d="M4.775,0,0,4.775" transform="translate(6.376 2.999) rotate(135)" fill="none" stroke="#fff" stroke-linecap="round" stroke-linejoin="round" stroke-width="1.6"/></g><g transform="translate(264)"><rect width="16" height="16" fill="rgba(255,255,255,0)"/><path d="M4.4,5.2a.8.8,0,0,1-.566-.234l-4.4-4.4a.8.8,0,0,1,0-1.131.8.8,0,0,1,1.131,0L4.4,3.269,8.234-.566a.8.8,0,0,1,1.131,0,.8.8,0,0,1,0,1.131l-4.4,4.4A.8.8,0,0,1,4.4,5.2Z" transform="translate(5.8 12.4) rotate(-90)" fill="#353535"/></g><g transform="translate(-161 -34)"><rect width="56" height="56" transform="translate(161 85)" fill="none"/><g transform="translate(179 103)"><path d="M-20513.355-21934.764a1.4,1.4,0,0,1-1.4-1.4v-20a1.4,1.4,0,0,1,1.4-1.4,1.4,1.4,0,0,1,1.4,1.4v20A1.4,1.4,0,0,1-20513.355-21934.764Z" transform="translate(20523.355 21956.164)" fill="#fff"/><path d="M0,21.4A1.4,1.4,0,0,1-1.4,20V0A1.4,1.4,0,0,1,0-1.4,1.4,1.4,0,0,1,1.4,0V20A1.4,1.4,0,0,1,0,21.4Z" transform="translate(20 10) rotate(90)" fill="#fff"/></g></g><g transform="translate(122 24)"><rect width="24" height="24" fill="#fff" opacity="0"/><g transform="translate(17199 22678)"><path d="M-17190.678-22648.381h12" transform="translate(-2.323 -23.618)" fill="none" stroke="#353535" stroke-linecap="round" stroke-width="2"/><path d="M-17190.678-22648.381h12" transform="translate(-2.323 -17.618)" fill="none" stroke="#353535" stroke-linecap="round" stroke-width="2"/><path d="M-17190.678-22648.381h12" transform="translate(-2.323 -11.618)" fill="none" stroke="#353535" stroke-linecap="round" stroke-width="2"/></g></g><g transform="translate(159 24)"><rect width="20" height="20" fill="#fff" opacity="0"/><g transform="translate(2 2)"><path d="M856.617,597.43a5.72,5.72,0,1,1-5.72,5.72,5.726,5.726,0,0,1,5.72-5.72m0-1.43a7.15,7.15,0,1,0,7.15,7.15,7.15,7.15,0,0,0-7.15-7.15Z" transform="translate(-849.467 -596)" fill="#353535"/><path d="M864.467,611.7a.7.7,0,0,1-.495-.205l-3.367-3.366a.7.7,0,0,1,.991-.99l3.366,3.366a.7.7,0,0,1-.495,1.2Z" transform="translate(-849.167 -595.7)" fill="#353535"/></g></g><g transform="translate(298) rotate(90)"><rect width="16" height="16" fill="rgba(255,255,255,0)"/><path d="M4.4,5.2a.8.8,0,0,1-.566-.234l-4.4-4.4a.8.8,0,0,1,0-1.131.8.8,0,0,1,1.131,0L4.4,3.269,8.234-.566a.8.8,0,0,1,1.131,0,.8.8,0,0,1,0,1.131l-4.4,4.4A.8.8,0,0,1,4.4,5.2Z" transform="translate(5.8 12.4) rotate(-90)" fill="#353535"/></g><g transform="translate(-61 -53)"><rect width="16" height="16" transform="translate(242 77)" fill="none"/><g transform="translate(242 76.75)"><path d="M6.885,14.964a.75.75,0,0,1-.551-1.258l4.973-5.4a.75.75,0,0,1,1.1,0l5.027,5.4a.75.75,0,0,1-1.1,1.022L11.861,9.918l-4.424,4.8A.748.748,0,0,1,6.885,14.964Z" transform="translate(-3.885 -4.5)"/><path d="M17.163,10.665h-12a.75.75,0,1,1,0-1.5h12a.75.75,0,0,1,0,1.5Z" transform="translate(-3.163 -7.915)"/><path d="M15.163,10.665h-10a.75.75,0,1,1,0-1.5h10a.75.75,0,1,1,0,1.5Z" transform="translate(17.915 -0.663) rotate(90)"/></g></g><g transform="translate(-6 -51)"><rect width="16" height="16" transform="translate(205 75)" fill="none"/><g transform="translate(205 75)"><path d="M0,8.8a.8.8,0,0,1-.566-.234.8.8,0,0,1,0-1.131l8-8a.8.8,0,0,1,1.131,0,.8.8,0,0,1,0,1.131l-8,8A.8.8,0,0,1,0,8.8Z" transform="translate(12 12) rotate(180)" fill="#353535"/><path d="M0,8.8a.8.8,0,0,1-.566-.234.8.8,0,0,1,0-1.131l8-8a.8.8,0,0,1,1.131,0,.8.8,0,0,1,0,1.131l-8,8A.8.8,0,0,1,0,8.8Z" transform="translate(12 4) rotate(90)" fill="#353535"/></g></g><g transform="translate(217 24)"><rect width="20" height="20" fill="#fff" opacity="0"/><g transform="translate(4 4)"><path d="M12,0,0,12" transform="translate(12 12) rotate(180)" fill="none" stroke="#353535" stroke-linecap="round" stroke-linejoin="round" stroke-width="1.6"/><path d="M12,0,0,12" transform="translate(12 0) rotate(90)" fill="none" stroke="#353535" stroke-linecap="round" stroke-linejoin="round" stroke-width="1.6"/></g></g><g transform="translate(80 51)"><circle cx="20" cy="20" r="20" fill="#f2f2f2" opacity="0.8"/><path d="M5.952-15.555H1.709L2.077-3.22H5.584ZM1.611.214A2.2,2.2,0,0,0,3.818,2.445,2.272,2.272,0,0,0,6.05.214,2.255,2.255,0,0,0,3.818-1.969,2.185,2.185,0,0,0,1.611.214Z" transform="translate(16.391 26.555)" fill="#fff"/></g><g transform="translate(26 109)"><rect width="24" height="24" fill="none"/><g transform="translate(2 2)"><rect width="20" height="20" fill="none" opacity="0"/><path d="M5.273,0,0,5.4l5.273,5.4" transform="translate(7.363 4.5)" fill="none" stroke="#333" stroke-linecap="round" stroke-linejoin="round" stroke-width="1.6"/></g></g><g transform="translate(0 109)"><rect width="24" height="24" fill="none"/><g transform="translate(2 2)"><rect width="20" height="20" fill="none" opacity="0"/><g transform="translate(0.638)"><path d="M5.273,0,0,5.4l5.273,5.4" transform="translate(8.814 4.5)" fill="none" stroke="#333" stroke-linecap="round" stroke-linejoin="round" stroke-width="1.6"/><path d="M15.088,4.5V15.308" transform="translate(-9.725)" fill="none" stroke="#333" stroke-linecap="round" stroke-linejoin="round" stroke-width="1.6"/></g></g></g><g transform="translate(300)"><rect width="14" height="14" fill="#fff" opacity="0"/><circle cx="7" cy="7" r="7" fill="#dbdbdb" opacity="0.8"/><path d="M.657-1.4H2.115V-6.765H.657ZM.576-8.223a.788.788,0,0,0,.81.749.77.77,0,0,0,.79-.749.754.754,0,0,0-.79-.729A.772.772,0,0,0,.576-8.223Z" transform="translate(5.424 11.953)" fill="#fff"/></g><g transform="translate(239 24)"><rect width="16" height="16" fill="rgba(255,255,255,0)"/><path d="M2579.613-8087l4,4,4-4" transform="translate(2591.613 -8078) rotate(180)" fill="none" stroke="#353535" stroke-linecap="round" stroke-linejoin="round" stroke-width="1.6"/></g><g transform="translate(-91 -48)"><rect width="10" height="12" transform="translate(348 72)" fill="none"/><path d="M9.515-6.138H4.059V-8.382L0-4.356,4.059-.341V-2.574H9.515Z" transform="translate(348.2 82.382)" fill="#5061eb"/></g><g transform="translate(-91 -48)"><rect width="10" height="12" transform="translate(360 72)" fill="none"/><path d="M.638-5.763v3.133H6.184V-.177L10.158-4.2,6.184-8.217v2.454Z" transform="translate(359.662 82.217)" fill="#009d8b"/></g><g transform="translate(-56 -89)"><rect width="20" height="20" transform="translate(200 140)" fill="none"/><g transform="translate(21761.934 19966.613)"><path d="M-21543.678-19817.377a.894.894,0,0,1-.539-.18l-8.334-6.246-8.316,6.127a.9.9,0,0,1-1.258-.191.9.9,0,0,1,.191-1.258l8.854-6.523a.9.9,0,0,1,1.072,0l8.869,6.646a.9.9,0,0,1,.182,1.26A.9.9,0,0,1-21543.678-19817.377Z" transform="translate(0.606 -0.123)" fill="#6c5ae6"/><path d="M3.007-.9A3.907,3.907,0,1,1-.9,3.007,3.911,3.911,0,0,1,3.007-.9Zm0,6.014A2.107,2.107,0,1,0,.9,3.007,2.109,2.109,0,0,0,3.007,5.114Z" transform="translate(-21552.5 -19815.537)" fill="#6c5ae6"/><path d="M-21547.9-19808.4a.9.9,0,0,1-.637-.264l-1.9-1.9a.9.9,0,0,1,0-1.273.9.9,0,0,1,1.273,0l1.9,1.9a.9.9,0,0,1,0,1.273A.9.9,0,0,1-21547.9-19808.4Z" transform="translate(2.981 1.121)" fill="#6c5ae6"/><path d="M-21552.4-19849.4h-6.793a.9.9,0,0,1-.9-.9v-11.961h1.8v11.061h4.057Z" transform="translate(0.334 42.068)" fill="#6c5ae6"/><path d="M-21558.3-19857.7l-1.8-1.2v-3.312h1.8Z" transform="translate(13.966 42.576)" fill="#6c5ae6"/></g></g><g transform="translate(-100 -89)"><rect width="20" height="20" transform="translate(222 140)" fill="none"/><g transform="translate(221.75 139.75)"><path d="M5.492,19H3a3,3,0,0,1-3-3V3A3,3,0,0,1,3,0H13a3,3,0,0,1,3,3V7.385a1,1,0,0,1-2,0V3a1,1,0,0,0-1-1H3A1,1,0,0,0,2,3V16a1,1,0,0,0,1,1H5.492a1,1,0,0,1,0,2Z" transform="translate(1.5 0.5)" fill="#353535"/><path d="M0,0H3" transform="translate(7.5 14)" fill="#fff"/><path d="M0,0H6" transform="translate(7.5 10)" fill="#fff"/><path d="M2,1H0A1,1,0,0,1-1,0,1,1,0,0,1,0-1H2A1,1,0,0,1,3,0,1,1,0,0,1,2,1Z" transform="translate(6.5 10)" fill="#353535"/><path d="M0,0H6" transform="translate(7.5 6)" fill="#fff"/><path d="M6,1H0A1,1,0,0,1-1,0,1,1,0,0,1,0-1H6A1,1,0,0,1,7,0,1,1,0,0,1,6,1Z" transform="translate(6.5 6)" fill="#353535"/><path d="M-6074.367-21220.2H-6076a.7.7,0,0,1-.7-.7v-1.8a.7.7,0,0,1,.7-.7.7.7,0,0,1,.7.7v1.1h.933a.7.7,0,0,1,.7.7A.7.7,0,0,1-6074.367-21220.2Z" transform="translate(6090 21236)" fill="#353535"/><path d="M6,1.8A3.2,3.2,0,1,0,9.2,5,3.2,3.2,0,0,0,6,1.8M6,0A5,5,0,1,1,1,5,5,5,0,0,1,6,0Z" transform="translate(8 10)" fill="#353535"/></g></g><g transform="translate(-78 -89)"><rect width="20" height="20" transform="translate(244 140)" fill="none"/><g transform="translate(243.91 139.997)"><path d="M-21543.678-19818.09a.9.9,0,0,1-.5-.15l-8.375-5.551-8.357,5.445a.9.9,0,0,1-1.246-.262.9.9,0,0,1,.262-1.246l8.854-5.768a.9.9,0,0,1,.492-.146.907.907,0,0,1,.5.15l8.869,5.877a.9.9,0,0,1,.252,1.248A.9.9,0,0,1-21543.678-19818.09Z" transform="translate(21562.695 19825.877)" fill="#6c5ae6"/><path d="M8.839,68.318c-.151-.04-.3-.043-.447-.071A4.031,4.031,0,0,1,6.314,67.1q-1.639-1.595-3.268-3.2c-.828-.812-1.661-1.619-2.479-2.442A1.628,1.628,0,0,1,.012,60.2L0,59.407A2.217,2.217,0,0,1,1.82,57.62a2.032,2.032,0,0,1,1.792.409c.516.415.978.9,1.458,1.355.437.417.866.842,1.315,1.28.082-.125.142-.231.217-.325A2.269,2.269,0,0,1,8.5,59.5h2.413c1.144.007,2.289,0,3.431.038a8.575,8.575,0,0,1,3.476.912,10.556,10.556,0,0,1,2,1.255c.09.072.122.215.181.325v1.6a.916.916,0,0,1-.215-.08q-.693-.476-1.375-.969a7.483,7.483,0,0,0-4.446-1.52c-1.877-.013-3.755,0-5.633,0a.63.63,0,0,0-.615.423.6.6,0,0,0,.25.717,1.8,1.8,0,0,0,.665.256c1.52.171,3.042.317,4.563.475.433.045.865.1,1.319.158-.058.488-.112.957-.176,1.425,0,.034-.092.085-.137.082-.306-.02-.612-.048-.918-.081-1.488-.164-2.974-.346-4.463-.489a3.153,3.153,0,0,1-1.992-.8c-1.22-1.178-2.428-2.366-3.641-3.549a5.654,5.654,0,0,0-.457-.426.764.764,0,0,0-.834-.069.731.731,0,0,0-.43.669,1.031,1.031,0,0,0,.437.81C3.7,62.4,5.5,64.138,7.279,65.9a2.9,2.9,0,0,0,2.143.917q5.289,0,10.578.008v1.558Z" transform="translate(0.09 -48.484)" fill="#6c5ae6"/><path d="M56.47,38.007a1.623,1.623,0,0,1,.192-.022c.666,0,1.332.006,2,.007.1,0,.174.005.172.142q-.012.991-.008,1.982c0,.141-.04.193-.188.192q-1-.007-2,0c-.143,0-.172-.047-.171-.18.007-.7,0-1.4,0-2.126" transform="translate(-47.558 -32.144)" fill="#6c5ae6"/><path d="M-21558.3-19858.6l-1.8-1.092v-2.59h1.8Z" transform="translate(21562.455 19867.484)" fill="#6c5ae6"/><path d="M-21558.3-19856.7l-1.725-.605-.076-4.934h1.8Z" transform="translate(21576.057 19867.484)" fill="#6c5ae6"/></g></g><g transform="translate(67 -74)"><rect width="20" height="20" transform="translate(214 98)" fill="none"/><g transform="translate(214 98)"><path d="M0,8.8a.8.8,0,0,1-.566-.234.8.8,0,0,1,0-1.131l8-8a.8.8,0,0,1,1.131,0,.8.8,0,0,1,0,1.131l-8,8A.8.8,0,0,1,0,8.8Z" transform="translate(14 14) rotate(180)" fill="#353535"/><path d="M0,8.8a.8.8,0,0,1-.566-.234.8.8,0,0,1,0-1.131l8-8a.8.8,0,0,1,1.131,0,.8.8,0,0,1,0,1.131l-8,8A.8.8,0,0,1,0,8.8Z" transform="translate(14 6) rotate(90)" fill="#353535"/></g></g><g transform="translate(-6)"><rect width="16" height="16" transform="translate(194 51)" fill="none"/><g transform="translate(194 51)"><path d="M2,1.4a.6.6,0,0,0-.6.6v8a.6.6,0,0,0,.6.6H8a.6.6,0,0,0,.6-.6V2A.6.6,0,0,0,8,1.4H2M2,0H8a2,2,0,0,1,2,2v8a2,2,0,0,1-2,2H2a2,2,0,0,1-2-2V2A2,2,0,0,1,2,0Z" transform="translate(3 2)" fill="#333"/><rect width="3" height="1" rx="0.5" transform="translate(5.5 6)" fill="#fff"/><path d="M.5,0h2a.5.5,0,0,1,0,1H.5a.5.5,0,0,1,0-1Z" transform="translate(5.5 6)" fill="#333"/><rect width="5" height="1" rx="0.5" transform="translate(5.5 8)" fill="#fff"/><path d="M.5,0h4a.5.5,0,0,1,0,1H.5a.5.5,0,0,1,0-1Z" transform="translate(5.5 8)" fill="#333"/><rect width="5" height="1" rx="0.5" transform="translate(5.5 10)" fill="#fff"/><path d="M.5,0h4a.5.5,0,0,1,0,1H.5a.5.5,0,0,1,0-1Z" transform="translate(5.5 10)" fill="#333"/></g></g><g transform="translate(-33 -40)"><rect width="24" height="24" transform="translate(239 91)" fill="none"/><g transform="translate(239 91)"><path d="M1.09,4.75A1,1,0,0,1,.58,2.889L5.591-.076A1,1,0,0,1,6.609,1.646L1.6,4.611A1,1,0,0,1,1.09,4.75Z" transform="translate(8.25 7)" fill="#353535"/><path d="M6.137,3.854a1,1,0,0,1-.482-.125L.447.858A1,1,0,0,1,.054-.5,1,1,0,0,1,1.413-.894L6.621,1.978a1,1,0,0,1-.484,1.876Z" transform="translate(8.25 13.5)" fill="#353535"/><path d="M2.5,0A2.5,2.5,0,1,1,0,2.5,2.5,2.5,0,0,1,2.5,0Z" transform="translate(14.5 4)" fill="rgba(255,255,255,0.1)"/><path d="M2.5-1A3.5,3.5,0,1,1-1,2.5,3.5,3.5,0,0,1,2.5-1Zm0,5A1.5,1.5,0,1,0,1,2.5,1.5,1.5,0,0,0,2.5,4Z" transform="translate(14.5 4)" fill="#353535"/><path d="M2.5,0A2.5,2.5,0,1,1,0,2.5,2.5,2.5,0,0,1,2.5,0Z" transform="translate(14.5 15)" fill="rgba(255,255,255,0.1)"/><path d="M2.5-1A3.5,3.5,0,1,1-1,2.5,3.5,3.5,0,0,1,2.5-1Zm0,5A1.5,1.5,0,1,0,1,2.5,1.5,1.5,0,0,0,2.5,4Z" transform="translate(14.5 15)" fill="#353535"/><path d="M2.5,0A2.5,2.5,0,1,1,0,2.5,2.5,2.5,0,0,1,2.5,0Z" transform="translate(4.5 9.5)" fill="rgba(255,255,255,0.1)"/><path d="M2.5-1A3.5,3.5,0,1,1-1,2.5,3.5,3.5,0,0,1,2.5-1Zm0,5A1.5,1.5,0,1,0,1,2.5,1.5,1.5,0,0,0,2.5,4Z" transform="translate(4.5 9.5)" fill="#353535"/></g></g><g transform="translate(330 14) rotate(180)"><rect width="14" height="14" fill="#fff" opacity="0"/><circle cx="7" cy="7" r="7" fill="#ef5350" opacity="0.8"/><path d="M.657-1.4H2.115V-6.765H.657ZM.576-8.223a.788.788,0,0,0,.81.749.77.77,0,0,0,.79-.749.754.754,0,0,0-.79-.729A.772.772,0,0,0,.576-8.223Z" transform="translate(5.424 11.953)" fill="#fff"/></g><g transform="translate(62)"><circle cx="8" cy="8" r="8" fill="#ef5350" opacity="0.7"/><path d="M2.736-8.5H.936L1.08-2.544H2.592ZM.864-.888A.952.952,0,0,0,1.848.1a1,1,0,0,0,.984-.984.991.991,0,0,0-.984-.96A.946.946,0,0,0,.864-.888Z" transform="translate(6.137 12.496)" fill="#fff"/></g><g transform="translate(-46 -92)"><rect width="20" height="20" transform="translate(104 143)" fill="none"/><g transform="translate(104 142.997)"><path d="M.667,6.8H.656A1.487,1.487,0,0,1-.8,5.33s0,0,0-.007V2A.8.8,0,0,1,0,1.2.8.8,0,0,1,.8,2V5.2H15.2V2a.8.8,0,1,1,1.6,0V5.323A1.483,1.483,0,0,1,15.332,6.8Z" transform="translate(2 11.001)" fill="#353535"/><path d="M10.608,13.358a.8.8,0,0,1-.567-.236L6.318,9.379A.8.8,0,0,1,7.452,8.251l3.159,3.176,3.2-3.179a.8.8,0,1,1,1.128,1.134l-3.763,3.743A.8.8,0,0,1,10.608,13.358Z" transform="translate(-0.571 -1.082)" fill="#353535"/><path d="M8,.8H0A.8.8,0,0,1-.8,0,.8.8,0,0,1,0-.8H8a.8.8,0,0,1,.8.8A.8.8,0,0,1,8,.8Z" transform="translate(10.058 11.002) rotate(-90)" fill="#353535"/></g></g></svg>