<svg xmlns="http://www.w3.org/2000/svg" width="164" height="196" viewBox="0 0 164 196"><rect width="20" height="20" fill="none"/><g transform="translate(-0.063 -0.049)"><path d="M8.76,16.6a.5.5,0,0,1-.232-.057l-3.822-2L.725,16.546A.5.5,0,0,1,0,16.1V8.145A.5.5,0,0,1,.269,7.7L1.93,6.835a.5.5,0,1,1,.463.886L1,8.448v6.84l3.485-1.757a.5.5,0,0,1,.457,0l3.825,2.005,4.1-2.011a.5.5,0,0,1,.449,0L16.7,15.28V8.429L15.338,7.62a.5.5,0,1,1,.51-.86l1.611.954a.5.5,0,0,1,.245.43V16.1a.5.5,0,0,1-.729.444l-3.9-2.008-4.1,2.012A.5.5,0,0,1,8.76,16.6Z" transform="translate(1.163 2.288)" fill="#353535"/><path d="M4.909,13a1.292,1.292,0,0,1-.837-.308l-.022,0-.17-.191-.135-.161c-.1-.122-.232-.282-.4-.485l-.086-.106c-.51-.634-1-1.291-1.471-1.953a21.321,21.321,0,0,1-1.5-2.441A6.127,6.127,0,0,1-.5,4.787l0-.023V4.741A5.331,5.331,0,0,1,4.829-.5H4.99a5.331,5.331,0,0,1,5.329,5.241v.023l0,.023a6.127,6.127,0,0,1-.786,2.56A21.334,21.334,0,0,1,8.02,9.792c-.612.867-1.269,1.723-1.951,2.54l-.193.229A1.292,1.292,0,0,1,4.909,13Zm-.323-1.217.1.118a.292.292,0,0,0,.439,0l.038-.045.135-.161c.664-.8,1.3-1.63,1.9-2.478a20.343,20.343,0,0,0,1.446-2.34l.009-.016a5.121,5.121,0,0,0,.659-2.123A4.35,4.35,0,0,0,4.917.5H4.9A4.35,4.35,0,0,0,.5,4.734,5.121,5.121,0,0,0,1.16,6.857l.009.016A20.326,20.326,0,0,0,2.607,9.21c.457.648.938,1.288,1.433,1.9l.084.1c.163.2.291.358.388.474Z" transform="translate(5.086 1.75)" fill="#353535"/><path d="M3.5.5H0A.5.5,0,0,1-.5,0,.5.5,0,0,1,0-.5H3.5A.5.5,0,0,1,4,0,.5.5,0,0,1,3.5.5Z" transform="translate(8.246 6.787)" fill="#353535"/></g><rect width="20" height="20" transform="translate(22)" fill="none"/><g transform="translate(22.024 -0.059)"><path d="M7.726,6.5a12.644,12.644,0,0,1-4.773-.841c-1.421-.6-2.2-1.451-2.2-2.4s.783-1.8,2.206-2.4a.5.5,0,1,1,.389.921c-1,.421-1.594.973-1.594,1.476s.6,1.054,1.592,1.475A11.636,11.636,0,0,0,7.726,5.5a11.63,11.63,0,0,0,4.383-.762c1-.421,1.592-.973,1.592-1.476,0-.537-.66-1.115-1.767-1.547A.5.5,0,1,1,12.3.784c1.55.6,2.4,1.485,2.4,2.479,0,.946-.783,1.8-2.2,2.4A12.638,12.638,0,0,1,7.726,6.5Z" transform="translate(2.25 12.368)" fill="#353535"/><path d="M4.909,13a1.292,1.292,0,0,1-.837-.308l-.022,0-.17-.191-.135-.161c-.1-.122-.232-.282-.4-.485l-.086-.106c-.51-.634-1-1.291-1.471-1.953a21.321,21.321,0,0,1-1.5-2.441A6.127,6.127,0,0,1-.5,4.787l0-.023V4.741A5.331,5.331,0,0,1,4.829-.5H4.99a5.331,5.331,0,0,1,5.329,5.241v.023l0,.023a6.127,6.127,0,0,1-.786,2.56A21.334,21.334,0,0,1,8.02,9.792c-.612.867-1.269,1.723-1.951,2.54l-.193.229A1.292,1.292,0,0,1,4.909,13Zm-.323-1.217.1.118a.292.292,0,0,0,.439,0l.038-.045.135-.161c.664-.8,1.3-1.63,1.9-2.478a20.343,20.343,0,0,0,1.446-2.34l.009-.016a5.121,5.121,0,0,0,.659-2.123A4.35,4.35,0,0,0,4.917.5H4.9A4.35,4.35,0,0,0,.5,4.734,5.121,5.121,0,0,0,1.16,6.857l.009.016A20.326,20.326,0,0,0,2.607,9.21c.457.648.938,1.288,1.433,1.9l.084.1c.163.2.291.358.388.474Z" transform="translate(5 1.75)" fill="#353535"/><path d="M3.5.5H0A.5.5,0,0,1-.5,0,.5.5,0,0,1,0-.5H3.5A.5.5,0,0,1,4,0,.5.5,0,0,1,3.5.5Z" transform="translate(8.16 6.787)" fill="#353535"/></g><rect width="20" height="20" transform="translate(44)" fill="none"/><g transform="translate(43.998 0.326)"><path d="M7.091,16.982H2.821A2.325,2.325,0,0,1,.5,14.661V2.821A2.325,2.325,0,0,1,2.821.5h9.107A2.325,2.325,0,0,1,14.25,2.821V8.74a.5.5,0,0,1-1,0V2.821A1.324,1.324,0,0,0,11.928,1.5H2.821A1.324,1.324,0,0,0,1.5,2.821v11.84a1.324,1.324,0,0,0,1.321,1.321h4.27a.5.5,0,0,1,0,1Z" transform="translate(2.378 0.952)" fill="#353535"/><path d="M6,.5H0A.5.5,0,0,1-.5,0,.5.5,0,0,1,0-.5H6a.5.5,0,0,1,.5.5A.5.5,0,0,1,6,.5Z" transform="translate(6.753 8.693)" fill="#353535"/><path d="M6,.5H0A.5.5,0,0,1-.5,0,.5.5,0,0,1,0-.5H6a.5.5,0,0,1,.5.5A.5.5,0,0,1,6,.5Z" transform="translate(6.753 5.693)" fill="#353535"/><path d="M4.157.5H0A.5.5,0,0,1-.5,0,.5.5,0,0,1,0-.5H4.157a.5.5,0,0,1,.5.5A.5.5,0,0,1,4.157.5Z" transform="translate(11.495 15.055)" fill="#353535"/><path d="M2.351,2.851A.5.5,0,0,1,2,2.7L-.354.354a.5.5,0,0,1,0-.707.5.5,0,0,1,.707,0L2.7,2a.5.5,0,0,1-.354.854Z" transform="translate(14.274 12.699)" fill="#353535"/><path d="M0,2.851A.5.5,0,0,1-.354,2.7.5.5,0,0,1-.354,2L2-.354a.5.5,0,0,1,.707,0,.5.5,0,0,1,0,.707L.354,2.7A.5.5,0,0,1,0,2.851Z" transform="translate(14.274 15.061)" fill="#353535"/></g><rect width="20" height="20" transform="translate(66)" fill="none"/><g transform="translate(67.5 0.491)"><path d="M1.487-.5h12.34a1.989,1.989,0,0,1,1.987,1.987v.137a1.989,1.989,0,0,1-1.987,1.987H1.487A1.989,1.989,0,0,1-.5,1.624V1.487A1.989,1.989,0,0,1,1.487-.5Zm12.34,3.111a.988.988,0,0,0,.987-.987V1.487A.988.988,0,0,0,13.827.5H1.487A.988.988,0,0,0,.5,1.487v.137a.988.988,0,0,0,.987.987Z" transform="translate(0.843 15.407)" fill="#353535"/><path d="M14.26,14.929h-1V10.273a5.006,5.006,0,1,0-10.012,0v4.656h-1V10.273a6.006,6.006,0,1,1,12.012,0Z" transform="translate(0.247 0.59)" fill="#353535"/><path d="M0,2.5A.5.5,0,0,1-.5,2V0A.5.5,0,0,1,0-.5.5.5,0,0,1,.5,0V2A.5.5,0,0,1,0,2.5Z" transform="translate(8.5 0.5)" fill="#353535"/><path d="M1.414,1.914a.5.5,0,0,1-.354-.146L-.354.354a.5.5,0,0,1,0-.707.5.5,0,0,1,.707,0L1.768,1.06a.5.5,0,0,1-.354.854Z" transform="translate(2.293 2.811)" fill="#353535"/><path d="M0,1.914a.5.5,0,0,1-.354-.146.5.5,0,0,1,0-.707L1.06-.354a.5.5,0,0,1,.707,0,.5.5,0,0,1,0,.707L.354,1.768A.5.5,0,0,1,0,1.914Z" transform="translate(13.293 2.811)" fill="#353535"/></g><rect width="20" height="20" transform="translate(88)" fill="none"/><g transform="translate(88.022 -0.001)"><path d="M5.091,16.982H2.821A2.325,2.325,0,0,1,.5,14.661V2.821A2.325,2.325,0,0,1,2.821.5h9.107A2.325,2.325,0,0,1,14.25,2.821V8.74a.5.5,0,0,1-1,0V2.821A1.324,1.324,0,0,0,11.928,1.5H2.821A1.324,1.324,0,0,0,1.5,2.821v11.84a1.324,1.324,0,0,0,1.321,1.321h2.27a.5.5,0,0,1,0,1Z" transform="translate(2.378 0.952)" fill="#3a3a3a"/><path d="M6,.5H0A.5.5,0,0,1-.5,0,.5.5,0,0,1,0-.5H6a.5.5,0,0,1,.5.5A.5.5,0,0,1,6,.5Z" transform="translate(6.753 8.693)" fill="#3a3a3a"/><path d="M6,.5H0A.5.5,0,0,1-.5,0,.5.5,0,0,1,0-.5H6a.5.5,0,0,1,.5.5A.5.5,0,0,1,6,.5Z" transform="translate(6.753 5.693)" fill="#3a3a3a"/><path d="M5.868,9.539a.5.5,0,0,1-.308-.106L5,8.994C2.893,7.374,1.5,6.3,1.5,4.81q0-.019,0-.039A2.469,2.469,0,0,1,3.963,2.493c.069,0,.138,0,.207.009l.026,0A2.583,2.583,0,0,1,5.908,3.517,2.117,2.117,0,0,1,7.588,2.5c.062,0,.124-.007.186-.007a2.469,2.469,0,0,1,2.462,2.278q0,.019,0,.039c0,1.485-1.385,2.558-3.482,4.181l-.019.015-.565.431A.5.5,0,0,1,5.868,9.539ZM2.5,4.829c.016.993,1.25,1.943,3.112,3.375l.26.2L6.143,8.2C7.994,6.767,9.221,5.817,9.237,4.829A1.469,1.469,0,0,0,7.651,3.5l-.042,0c-.567,0-.942.617-1.2,1.155a.7.7,0,0,1-.312.383A.5.5,0,0,1,5.381,4.7,1.581,1.581,0,0,0,4.073,3.5,1.469,1.469,0,0,0,2.5,4.829Z" transform="translate(6.885 9.01)" fill="#353535"/></g><rect width="20" height="20" transform="translate(110)" fill="none"/><g transform="translate(111.127 1.904)"><path d="M.5,7.723a.5.5,0,0,1-.313-.89L8.56.11a.5.5,0,0,1,.626,0l8.373,6.723a.5.5,0,0,1-.626.78L8.873,1.141.813,7.613A.5.5,0,0,1,.5,7.723Z" fill="#353535"/><path d="M7.617,15.229H2.648a.5.5,0,0,1-.5-.5V5.206a.5.5,0,0,1,1,0v9.023H7.617a.5.5,0,0,1,0,1Z" transform="translate(0.158 0.347)" fill="#353535"/><path d="M16.489,12.681H10.558a.5.5,0,0,1,0-1h5.931a.5.5,0,0,1,0,1Z" transform="translate(0.372 0.325)" fill="#353535"/><path d="M5.931.5H0A.5.5,0,0,1-.5,0,.5.5,0,0,1,0-.5H5.931a.5.5,0,0,1,.5.5A.5.5,0,0,1,5.931.5Z" transform="translate(13.896 9.76) rotate(90)" fill="#353535"/><rect width="2" height="2" rx="0.5" transform="translate(8.092 6.076)" fill="#353535"/></g><rect width="20" height="20" transform="translate(0 22)" fill="none"/><path d="M10.239,16.15H2.383A2.386,2.386,0,0,1,0,13.767V2.383A2.386,2.386,0,0,1,2.383,0H11.6a2.386,2.386,0,0,1,2.383,2.383v4.61a.5.5,0,0,1-1,0V2.383A1.385,1.385,0,0,0,11.6,1H2.383A1.385,1.385,0,0,0,1,2.383V13.767A1.385,1.385,0,0,0,2.383,15.15h7.856a.5.5,0,0,1,0,1Z" transform="translate(2.427 23.925)" fill="#353535"/><path d="M10.037,7.657h0A2.863,2.863,0,1,1,7.174,10.52,2.868,2.868,0,0,1,10.037,7.657Zm0,4.726A1.863,1.863,0,1,0,8.174,10.52,1.865,1.865,0,0,0,10.037,12.383Z" transform="translate(3.016 24.554)" fill="#353535"/><path d="M2.236,2.736a.5.5,0,0,1-.354-.146L-.354.354a.5.5,0,0,1,0-.707.5.5,0,0,1,.707,0L2.59,1.882a.5.5,0,0,1-.354.854Z" transform="translate(14.837 36.627)" fill="#353535"/><path d="M6.631.5H0A.5.5,0,0,1-.5,0,.5.5,0,0,1,0-.5H6.631a.5.5,0,0,1,.5.5A.5.5,0,0,1,6.631.5Z" transform="translate(6.104 27.671)" fill="#353535"/><path d="M3.822.5H0A.5.5,0,0,1-.5,0,.5.5,0,0,1,0-.5H3.822a.5.5,0,0,1,.5.5A.5.5,0,0,1,3.822.5Z" transform="translate(6.104 30.918)" fill="#353535"/><path d="M1.658.5H0A.5.5,0,0,1-.5,0,.5.5,0,0,1,0-.5H1.658a.5.5,0,0,1,.5.5A.5.5,0,0,1,1.658.5Z" transform="translate(6.104 34.164)" fill="#353535"/><rect width="20" height="20" transform="translate(0 44)" fill="none"/><g transform="translate(0.049 44.227)"><path d="M8.564,16.443H2.647a.5.5,0,0,1-.5-.5V4.791a.5.5,0,0,1,1,0V15.443H8.564a.5.5,0,0,1,0,1Z" transform="translate(0.853 1.594)" fill="#353535"/><path d="M13.658,9.425a.5.5,0,0,1-.5-.5V4.907a.5.5,0,0,1,1,0V8.925A.5.5,0,0,1,13.658,9.425Z" transform="translate(2.842 1.478)" fill="#353535"/><path d="M-21543.5-19818.49a.487.487,0,0,1-.273-.082l-8.736-5.7-8.721,5.592a.488.488,0,0,1-.27.08.5.5,0,0,1-.42-.23.5.5,0,0,1,.15-.689l8.992-5.768a.494.494,0,0,1,.543,0l9.008,5.877a.5.5,0,0,1,.145.691A.5.5,0,0,1-21543.5-19818.49Z" transform="translate(21562.451 19826.877)" fill="#353535"/><path d="M3-.5A3.5,3.5,0,1,1-.5,3,3.5,3.5,0,0,1,3-.5Zm0,6A2.5,2.5,0,1,0,.5,3,2.5,2.5,0,0,0,3,5.5Z" transform="translate(12.242 8.501) rotate(45)" fill="#353535"/><path d="M2.443.5H0A.5.5,0,0,1-.5,0,.5.5,0,0,1,0-.5H2.443a.5.5,0,0,1,.5.5A.5.5,0,0,1,2.443.5Z" transform="translate(14.363 14.865) rotate(45)" fill="#353535"/></g><rect width="20" height="20" transform="translate(44 44)" fill="none"/><g transform="translate(43.998 43.8)"><path d="M13.575,19.406H11.941a.922.922,0,0,1,0-1.844h1.634a.922.922,0,0,1,0,1.844Z" transform="translate(-1.627 -1.505)" fill="#353535"/><path d="M13.575,19.406H11.941a.922.922,0,0,1,0-1.844h1.634a.922.922,0,0,1,0,1.844Z" transform="translate(-1.627 -1.505)" fill="#353535"/><path d="M18.355,6.04h0a3.946,3.946,0,0,1,0,7.892.5.5,0,0,1-.5-.5V6.54A.5.5,0,0,1,18.355,6.04Zm.5,6.849a2.946,2.946,0,0,0,0-5.807Z" transform="translate(-3.185 1.123)" fill="#353535"/><path d="M3.945,6.04h0a.5.5,0,0,1,.5.5v6.892a.5.5,0,0,1-.5.5,3.946,3.946,0,1,1,0-7.892Zm-.5,6.849V7.082a2.946,2.946,0,0,0,0,5.807Z" transform="translate(0.887 1.123)" fill="#353535"/><path d="M15.957,5.736a.5.5,0,0,1-.484-.377,5.785,5.785,0,0,0-11.2-.067.5.5,0,1,1-.966-.258,6.785,6.785,0,0,1,13.132.079.5.5,0,0,1-.485.623Z" transform="translate(0.135 2.5)" fill="#353535"/><path d="M15.444,18.436a3.234,3.234,0,0,1-1.129-.2.5.5,0,1,1,.349-.937,2.238,2.238,0,0,0,3.019-2.1.5.5,0,0,1,.5-.5h0a.5.5,0,0,1,.5.5,3.238,3.238,0,0,1-3.239,3.235Z" transform="translate(-2.304 -0.854)" fill="#353535"/></g><rect width="20" height="20" transform="translate(22 44)" fill="none"/><g transform="translate(22.953 46.187)"><path d="M0,4a.5.5,0,0,1-.5-.5V0A.5.5,0,0,1,0-.5.5.5,0,0,1,.5,0V3.5A.5.5,0,0,1,0,4Z" transform="translate(15.493 4.271)" fill="#353535"/><path d="M0,1.7a.5.5,0,0,1-.5-.5V0A.5.5,0,0,1,0-.5.5.5,0,0,1,.5,0V1.2A.5.5,0,0,1,0,1.7Z" transform="translate(2.499 4.5)" fill="#353535"/><rect width="2" height="2" rx="0.5" transform="translate(7.86 4.635)" fill="#353535"/><path d="M-21543.4-19818.49a.487.487,0,0,1-.273-.082l-8.736-5.7-8.721,5.592a.488.488,0,0,1-.27.08.5.5,0,0,1-.42-.23.5.5,0,0,1,.15-.689l8.992-5.768a.494.494,0,0,1,.543,0l9.008,5.877a.5.5,0,0,1,.145.691A.5.5,0,0,1-21543.4-19818.49Z" transform="translate(21561.447 19824.877)" fill="#353535"/><path d="M16.628,8.913H8.464A4.674,4.674,0,0,1,5.178,7.57L.534,3.04A1.772,1.772,0,0,1,2.985.479L6.365,3.642a1.391,1.391,0,0,0,.789.369l4.771.591a.5.5,0,0,1-.123.992L7.032,5a2.384,2.384,0,0,1-1.351-.631L2.3,1.2A.772.772,0,1,0,1.229,2.321L5.877,6.855A3.68,3.68,0,0,0,8.464,7.913h8.164a.5.5,0,0,1,0,1Z" transform="translate(0.027 7.164)" fill="#353535"/><path d="M16.116,4.466a.5.5,0,0,1-.319-.115A7.632,7.632,0,0,0,11.434,2.6C8.8,2.447,6.657,2.524,6.5,2.53a.9.9,0,0,0-.821.931.5.5,0,0,1-1,.039A1.9,1.9,0,0,1,6.427,1.533h.018c.022,0,2.271-.091,5.05.069H11.5a8.627,8.627,0,0,1,4.934,1.98.5.5,0,0,1-.32.885Z" transform="translate(0.472 7.307)" fill="#353535"/></g><rect width="20" height="20" transform="translate(22 66)" fill="none"/><g transform="translate(25 69.75)"><path d="M2-.5H12A2.5,2.5,0,0,1,14.5,2V12A2.5,2.5,0,0,1,12,14.5H2A2.5,2.5,0,0,1-.5,12V2A2.5,2.5,0,0,1,2-.5Zm10,14A1.5,1.5,0,0,0,13.5,12V2A1.5,1.5,0,0,0,12,.5H2A1.5,1.5,0,0,0,.5,2V12A1.5,1.5,0,0,0,2,13.5Z" fill="#353535"/><path d="M14,.5H0A.5.5,0,0,1-.5,0,.5.5,0,0,1,0-.5H14a.5.5,0,0,1,.5.5A.5.5,0,0,1,14,.5Z" transform="translate(0 4)" fill="#353535"/><path d="M1.5.5H0A.5.5,0,0,1-.5,0,.5.5,0,0,1,0-.5H1.5A.5.5,0,0,1,2,0,.5.5,0,0,1,1.5.5Z" transform="translate(3 -1.5) rotate(90)" fill="#353535"/><path d="M1.5.5H0A.5.5,0,0,1-.5,0,.5.5,0,0,1,0-.5H1.5A.5.5,0,0,1,2,0,.5.5,0,0,1,1.5.5Z" transform="translate(11 -1.5) rotate(90)" fill="#353535"/><path d="M2.776,5.8V3.7H.675a.462.462,0,0,1,0-.923h2.1V.669a.462.462,0,0,1,.923,0v2.1H5.8a.462.462,0,0,1,0,.923H3.7V5.8a.462.462,0,0,1-.923,0Z" transform="translate(3.8 5.554)" fill="#353535"/></g><rect width="20" height="20" transform="translate(0 66)" fill="none"/><g transform="translate(3 69.75)"><path d="M2-.5H12A2.5,2.5,0,0,1,14.5,2V12A2.5,2.5,0,0,1,12,14.5H2A2.5,2.5,0,0,1-.5,12V2A2.5,2.5,0,0,1,2-.5Zm10,14A1.5,1.5,0,0,0,13.5,12V2A1.5,1.5,0,0,0,12,.5H2A1.5,1.5,0,0,0,.5,2V12A1.5,1.5,0,0,0,2,13.5Z" fill="#353535"/><path d="M14,.5H0A.5.5,0,0,1-.5,0,.5.5,0,0,1,0-.5H14a.5.5,0,0,1,.5.5A.5.5,0,0,1,14,.5Z" transform="translate(0 4)" fill="#353535"/><path d="M1.5.5H0A.5.5,0,0,1-.5,0,.5.5,0,0,1,0-.5H1.5A.5.5,0,0,1,2,0,.5.5,0,0,1,1.5.5Z" transform="translate(3 -1.5) rotate(90)" fill="#353535"/><path d="M1.5.5H0A.5.5,0,0,1-.5,0,.5.5,0,0,1,0-.5H1.5A.5.5,0,0,1,2,0,.5.5,0,0,1,1.5.5Z" transform="translate(11 -1.5) rotate(90)" fill="#353535"/><path d="M0,0H1V1H0Z" transform="translate(3 6.25)" fill="#353535"/><path d="M0,0H1V1H0Z" transform="translate(3 10.25)" fill="#353535"/><path d="M0,0H1V1H0Z" transform="translate(6.5 6.25)" fill="#353535"/><path d="M0,0H1V1H0Z" transform="translate(6.5 10.25)" fill="#353535"/><path d="M0,0H1V1H0Z" transform="translate(10 6.25)" fill="#353535"/><path d="M0,0H1V1H0Z" transform="translate(10 10.25)" fill="#353535"/></g><rect width="20" height="20" transform="translate(22 88)" fill="none"/><g transform="translate(24.282 89.085)"><path d="M3.544-.5A4.044,4.044,0,1,1-.5,3.544,4.049,4.049,0,0,1,3.544-.5Zm0,7.088A3.044,3.044,0,1,0,.5,3.544,3.047,3.047,0,0,0,3.544,6.588Z" transform="translate(2.277 1.684)" fill="#353535"/><path d="M.5,6.9H.488A.5.5,0,0,1,0,6.388l.01-.407A6.178,6.178,0,0,1,6.177,0,5.994,5.994,0,0,1,9.944,1.254a.5.5,0,0,1-.613.79A4.991,4.991,0,0,0,6.191,1H6.182A5.157,5.157,0,0,0,1.01,6.009l-.01.4A.5.5,0,0,1,.5,6.9Z" transform="translate(-0.36 8.301)" fill="#353535"/><path d="M16.489,12.681H10.558a.5.5,0,0,1,0-1h5.931a.5.5,0,0,1,0,1Z" transform="translate(-1.193 1)" fill="#353535"/><path d="M16.489,12.681H10.558a.5.5,0,0,1,0-1h5.931a.5.5,0,0,1,0,1Z" transform="translate(24.511 -0.343) rotate(90)" fill="#353535"/></g><rect width="20" height="20" transform="translate(0 88)" fill="none"/><g transform="translate(2.911 89.5)"><path d="M2-.5H13A2.5,2.5,0,0,1,15.5,2V15.5A2.5,2.5,0,0,1,13,18H2A2.5,2.5,0,0,1-.5,15.5V2A2.5,2.5,0,0,1,2-.5ZM13,17a1.5,1.5,0,0,0,1.5-1.5V2A1.5,1.5,0,0,0,13,.5H2A1.5,1.5,0,0,0,.5,2V15.5A1.5,1.5,0,0,0,2,17Z" transform="translate(0.339 -0.25)" fill="#353535"/><path d="M2.5-.5a3,3,0,1,1-3,3A3,3,0,0,1,2.5-.5Zm0,5a2,2,0,1,0-2-2A2,2,0,0,0,2.5,4.5Z" transform="translate(5.339 3.945)" fill="#353535"/><path d="M.5,5.165H.484A.5.5,0,0,1,0,4.649l.009-.283a4.5,4.5,0,0,1,9,0l.007.228a.5.5,0,1,1-1,.03l-.007-.25a3.5,3.5,0,1,0-7,0v.016L1,4.681A.5.5,0,0,1,.5,5.165Z" transform="translate(3.331 8.466)" fill="#353535"/><path d="M1.5.5H0A.5.5,0,0,1-.5,0,.5.5,0,0,1,0-.5H1.5A.5.5,0,0,1,2,0,.5.5,0,0,1,1.5.5Z" transform="translate(-1.161 13.538)" fill="#353535"/><path d="M1.5.5H0A.5.5,0,0,1-.5,0,.5.5,0,0,1,0-.5H1.5A.5.5,0,0,1,2,0,.5.5,0,0,1,1.5.5Z" transform="translate(-1.161 3.538)" fill="#353535"/><path d="M1.5.5H0A.5.5,0,0,1-.5,0,.5.5,0,0,1,0-.5H1.5A.5.5,0,0,1,2,0,.5.5,0,0,1,1.5.5Z" transform="translate(-1.161 8.538)" fill="#353535"/></g><rect width="20" height="20" transform="translate(0 132)" fill="none"/><g transform="translate(0.013 132.107)"><path d="M15.1,4.5h2.4a1.723,1.723,0,0,1,1.61,1.794V14.67a1.723,1.723,0,0,1-1.61,1.794H5.11A1.722,1.722,0,0,1,3.5,14.668V8.5A1.723,1.723,0,0,1,5.11,6.708h7.5a.62.62,0,0,0,.532-.335l.006-.012.55-1a1.618,1.618,0,0,1,1.4-.865Zm2.353,1H15.111a.619.619,0,0,0-.532.333l-.006.011-.549.995a1.619,1.619,0,0,1-1.4.869H5.159a.72.72,0,0,0-.659.755q0,.014,0,.027v6.192q0,.014,0,.028a.72.72,0,0,0,.659.755h12.3a.72.72,0,0,0,.659-.755q0-.014,0-.027v-8.4q0-.014,0-.027A.72.72,0,0,0,17.458,5.5Z" transform="translate(-1.321 2.189)" fill="#353535"/><path d="M.5,6.49a.5.5,0,0,1-.5-.5V2.09A2.1,2.1,0,0,1,2.094,0H9.9a2.1,2.1,0,0,1,2.094,2.094V3.881a.5.5,0,1,1-1,0V2.094A1.1,1.1,0,0,0,9.9,1H2.094A1.1,1.1,0,0,0,1,2.091v3.9A.5.5,0,0,1,.5,6.49Z" transform="translate(3.909 1.193)" fill="#323232"/><path d="M5.613.5H0A.5.5,0,0,1-.5,0,.5.5,0,0,1,0-.5H5.613a.5.5,0,0,1,.5.5A.5.5,0,0,1,5.613.5Z" transform="translate(7.098 4.442)" fill="#373737"/><path d="M3.235.5H0A.5.5,0,0,1-.5,0,.5.5,0,0,1,0-.5H3.235a.5.5,0,0,1,.5.5A.5.5,0,0,1,3.235.5Z" transform="translate(7.098 7.189)" fill="#373737"/></g><rect width="20" height="20" transform="translate(0 110)" fill="none"/><g transform="translate(-0.046 109.934)"><path d="M4272-11322.7a.489.489,0,0,1-.45-.277l-1.1-2.211-.138-.276H4269a4.5,4.5,0,0,1-4.5-4.5,4.506,4.506,0,0,1,4.5-4.5h6a4.506,4.506,0,0,1,4.5,4.5,4.506,4.506,0,0,1-4.5,4.5h-1.308l-.138.276-1.106,2.211A.491.491,0,0,1,4272-11322.7Z" transform="translate(-4263 11338.619)" fill="#fff"/><path d="M4272-11323.2l1.383-2.764H4275a4,4,0,0,0,2.84-1.186A4.006,4.006,0,0,0,4279-11330a4.006,4.006,0,0,0-4-4h-6a4.005,4.005,0,0,0-4,4,4.006,4.006,0,0,0,4,4h1.62l1.379,2.762v0m0,1a.993.993,0,0,1-.9-.553L4270-11325h-1a5,5,0,0,1-5-5,5,5,0,0,1,5-5h6a5,5,0,0,1,5,5,5,5,0,0,1-5,5h-1l-1.106,2.21A.986.986,0,0,1,4272-11322.235Z" transform="translate(-4263 11338.619)" fill="#353535"/><path d="M4270-11334.3a.75.75,0,0,1,.749-.751.752.752,0,0,1,.531.22.75.75,0,0,1,.22.531.752.752,0,0,1-.751.751A.751.751,0,0,1,4270-11334.3Zm-3,0a.752.752,0,0,1,.22-.531.75.75,0,0,1,.532-.22.75.75,0,0,1,.748.751.752.752,0,0,1-.749.751.752.752,0,0,1-.751-.75Zm-3,0a.751.751,0,0,1,.75-.751.75.75,0,0,1,.532.22.752.752,0,0,1,.22.531.752.752,0,0,1-.751.751.752.752,0,0,1-.751-.75Z" transform="translate(-4258.698 11342.92)" fill="#353535"/><path d="M5.074,6.109A.767.767,0,0,1,4.5,5.85a.5.5,0,0,1-.034-.043L4,5.152H3.648a.5.5,0,0,1,0-1h.614a.5.5,0,0,1,.408.212l.4.571L5.519,4.3a.5.5,0,0,1,.265-.191A3.722,3.722,0,0,0,8.422.555a.5.5,0,0,1,1,0A4.666,4.666,0,0,1,8.5,3.367,4.663,4.663,0,0,1,6.24,5.014l-.557.793a.5.5,0,0,1-.034.044A.767.767,0,0,1,5.074,6.109Z" transform="translate(9.67 10.406)" fill="#353535"/></g><rect width="20" height="20" transform="translate(0 154)" fill="none"/><g transform="translate(-0.1 153.395)"><path d="M13.469,14.047h0L1.733,14.042a1.765,1.765,0,0,1-1.5-.839,1.637,1.637,0,0,1,.3-2.048l.956-.869V6.4A6.409,6.409,0,0,1,7.575,0h.051a6.408,6.408,0,0,1,6.087,6.4v3.891l.956.868a1.638,1.638,0,0,1,.3,2.045A1.766,1.766,0,0,1,13.469,14.047ZM7.6,1A5.41,5.41,0,0,0,2.488,6.4v4.107a.5.5,0,0,1-.164.37L1.205,11.894a.633.633,0,0,0-.116.791.757.757,0,0,0,.641.357l11.736.005,0,.5v-.5a.759.759,0,0,0,.643-.361.633.633,0,0,0-.118-.788l-1.119-1.016a.5.5,0,0,1-.164-.37V6.4A5.408,5.408,0,0,0,7.6,1Z" transform="translate(2.5 2)" fill="#353535"/><path d="M4.492,13.106H10.7a.5.5,0,0,1,.5.5,3.6,3.6,0,0,1-7.208,0A.5.5,0,0,1,4.492,13.106Zm5.66,1H5.04a2.6,2.6,0,0,0,5.112,0Z" transform="translate(2.5 2)" fill="#353535"/></g><rect width="20" height="20" transform="translate(44 154)" fill="none"/><g transform="translate(43.998 154)"><path d="M3.8,14.96H3.788a1.946,1.946,0,0,1-1.942-1.943V8.25a.5.5,0,1,1,1,0v4.767a.944.944,0,0,0,.942.943H3.8a.944.944,0,0,0,.942-.943V8.889a.5.5,0,0,1,1,0v4.128A1.945,1.945,0,0,1,3.8,14.96Z" transform="translate(2.611 2.873)" fill="#353535"/><path d="M14.618,12.426a.5.5,0,0,1-.127-.016L.373,8.71A.5.5,0,0,1,0,8.226V5.2a.5.5,0,0,1,.373-.484l14.118-3.7a.5.5,0,0,1,.627.484V11.926a.5.5,0,0,1-.5.5ZM1,7.84l13.118,3.438V2.148L1,5.586Z" transform="translate(2.443 2.259)" fill="#353535"/><path d="M0,13.111a.5.5,0,0,1-.5-.5V0A.5.5,0,0,1,0-.5.5.5,0,0,1,.5,0V12.611A.5.5,0,0,1,0,13.111Z" transform="translate(17.06 2.667)" fill="#353535"/><path d="M0,5.438a.5.5,0,0,1-.5-.5V0A.5.5,0,0,1,0-.5.5.5,0,0,1,.5,0V4.938A.5.5,0,0,1,0,5.438Z" transform="translate(2.943 6.504)" fill="#353535"/></g><rect width="20" height="20" transform="translate(22 154)" fill="none"/><g transform="translate(21.294 154.094)"><path d="M1.728,14.648a1.76,1.76,0,0,1-1.494-.84,1.637,1.637,0,0,1,.3-2.046l.956-.869V7A6.411,6.411,0,0,1,7.575.6a.5.5,0,1,1,.051,1A5.411,5.411,0,0,0,2.487,7v4.114a.5.5,0,0,1-.164.37L1.2,12.5a.633.633,0,0,0-.115.79.753.753,0,0,0,.642.357H13.468a.757.757,0,0,0,.645-.361A.631.631,0,0,0,14,12.5l-1.119-1.017a.5.5,0,1,1,.673-.74l1.119,1.017a1.635,1.635,0,0,1,.3,2.044,1.765,1.765,0,0,1-1.5.843H1.728Z" transform="translate(2 1)" fill="#353535"/><path d="M4.492,13.708H10.7a.5.5,0,0,1,.5.5,3.6,3.6,0,0,1-7.208,0A.5.5,0,0,1,4.492,13.708Zm5.66,1H5.04a2.6,2.6,0,0,0,5.112,0Z" transform="translate(2 1)" fill="#353535"/><path d="M13.472,1l.113,1.058a2.847,2.847,0,0,1,1.174.678l.972-.432.676,1.171-.86.628a2.735,2.735,0,0,1,0,1.353l.86.628-.676,1.171-.972-.432a2.847,2.847,0,0,1-1.174.678l-.113,1.058H12.12L12.007,7.5a2.837,2.837,0,0,1-1.173-.678l-.973.432-.675-1.17.861-.628a2.735,2.735,0,0,1,0-1.353l-.861-.628L9.861,2.3l.973.432a2.837,2.837,0,0,1,1.173-.678L12.12,1ZM12.8,6.391a1.61,1.61,0,1,0-1.141-.47,1.611,1.611,0,0,0,1.141.47M13.472,0H12.12a1,1,0,0,0-.995.894l-.048.46a3.593,3.593,0,0,0-.386.224l-.424-.188a1,1,0,0,0-1.272.41L8.319,2.975A1,1,0,0,0,8.6,4.284l.372.271a3.38,3.38,0,0,0,0,.449L8.6,5.275a1,1,0,0,0-.278,1.309L9,7.755a1,1,0,0,0,1.272.414l.424-.188a3.593,3.593,0,0,0,.386.224l.048.46a1,1,0,0,0,.995.894h1.352a1,1,0,0,0,.995-.894l.049-.46a3.926,3.926,0,0,0,.387-.224l.423.188A1,1,0,0,0,16.6,7.755l.677-1.171A1,1,0,0,0,17,5.275L16.625,5c0-.075.007-.15.007-.224s0-.15-.007-.225L17,4.284a1,1,0,0,0,.277-1.309L16.6,1.8a1,1,0,0,0-1.271-.414l-.423.188a3.926,3.926,0,0,0-.387-.224L14.47.89a1,1,0,0,0-1-.89M12.8,5.391a.612.612,0,1,1,.61-.611.612.612,0,0,1-.61.611" transform="translate(2 1)" fill="#353535"/></g><g transform="translate(132)"><g fill="#fff" stroke="#dbdbdb" stroke-width="1"><circle cx="16" cy="16" r="16" stroke="none"/><circle cx="16" cy="16" r="15.5" fill="none"/></g><path d="M9.052,11.627l-1.267.9L3.741,6.83l1.267-.9a.853.853,0,0,0,.266-1.083L3.492,1.355a.853.853,0,0,0-1.254-.308A5.314,5.314,0,0,0,.981,8.457L5.34,14.6a5.314,5.314,0,0,0,7.409,1.257.853.853,0,0,0,.123-1.285l-2.709-2.834a.853.853,0,0,0-1.11-.106" transform="translate(9 7.11)" fill="#b7b7b7"/></g><g transform="translate(0 -12)"><rect width="20" height="20" transform="translate(0 188)" fill="none"/><g transform="translate(-0.526 187.563)"><path d="M1523.478-11561.746h0a.5.5,0,0,1-.354-.146l-2.548-2.554a.5.5,0,0,1,0-.707.5.5,0,0,1,.707,0l2.194,2.2,3.287-3.288a.5.5,0,0,1,.707,0,.5.5,0,0,1,0,.707l-3.641,3.643A.5.5,0,0,1,1523.478-11561.746Z" transform="translate(-1508.067 11576.944)" fill="#373737"/><path d="M0-.5H5a.5.5,0,0,1,.5.5V10a.5.5,0,0,1-.5.5H0A.5.5,0,0,1-.5,10V0A.5.5,0,0,1,0-.5ZM4.5.5H.5v9h4Z" transform="translate(2 7.873)" fill="#373737"/><path d="M10.166.5H0A.5.5,0,0,1-.5,0,.5.5,0,0,1,0-.5H10.166a.5.5,0,0,1,.5.5A.5.5,0,0,1,10.166.5Z" transform="translate(6.334 17.873)" fill="#373737"/><path d="M15.287,6.644a.5.5,0,0,1-.5-.5V1H4.628V5.309a.5.5,0,1,1-1,0V.5a.5.5,0,0,1,.5-.5H15.287a.5.5,0,0,1,.5.5V6.144A.5.5,0,0,1,15.287,6.644Z" transform="translate(1.324 2.5)" fill="#373737"/><path d="M.883.5H0A.5.5,0,0,1-.5,0,.5.5,0,0,1,0-.5H.883a.5.5,0,0,1,.5.5A.5.5,0,0,1,.883.5Z" transform="translate(4.075 10.42)" fill="#373737"/><path d="M.883.5H0A.5.5,0,0,1-.5,0,.5.5,0,0,1,0-.5H.883a.5.5,0,0,1,.5.5A.5.5,0,0,1,.883.5Z" transform="translate(4.075 12.688)" fill="#373737"/><path d="M2,.5H0A.5.5,0,0,1-.5,0,.5.5,0,0,1,0-.5H2a.5.5,0,0,1,.5.5A.5.5,0,0,1,2,.5Z" transform="translate(10.25 6.557)" fill="#373737"/><path d="M2,.5H0A.5.5,0,0,1-.5,0,.5.5,0,0,1,0-.5H2a.5.5,0,0,1,.5.5A.5.5,0,0,1,2,.5Z" transform="translate(10.25 8.824)" fill="#373737"/></g></g><g transform="translate(0 -12)"><rect width="20" height="20" transform="translate(22 188)" fill="none"/><g transform="translate(21.875 187.435)"><path d="M0-.5H5a.5.5,0,0,1,.5.5V10a.5.5,0,0,1-.5.5H0A.5.5,0,0,1-.5,10V0A.5.5,0,0,1,0-.5ZM4.5.5H.5v9h4Z" transform="translate(2 8)" fill="#373737"/><path d="M10.166.5H0A.5.5,0,0,1-.5,0,.5.5,0,0,1,0-.5H10.166a.5.5,0,0,1,.5.5A.5.5,0,0,1,10.166.5Z" transform="translate(6.334 18)" fill="#373737"/><path d="M15.287,6.644a.5.5,0,0,1-.5-.5V1H4.628V5.309a.5.5,0,1,1-1,0V.5a.5.5,0,0,1,.5-.5H15.287a.5.5,0,0,1,.5.5V6.144A.5.5,0,0,1,15.287,6.644Z" transform="translate(1.324 2.628)" fill="#373737"/><path d="M.883.5H0A.5.5,0,0,1-.5,0,.5.5,0,0,1,0-.5H.883a.5.5,0,0,1,.5.5A.5.5,0,0,1,.883.5Z" transform="translate(4.075 10.547)" fill="#373737"/><path d="M.883.5H0A.5.5,0,0,1-.5,0,.5.5,0,0,1,0-.5H.883a.5.5,0,0,1,.5.5A.5.5,0,0,1,.883.5Z" transform="translate(4.075 12.815)" fill="#373737"/><path d="M7.165,11.135a.5.5,0,0,1-.334-.872L9.2,8.133a.5.5,0,0,1,.7.029l1.664,1.766,2.5-2.358-2.005-.446a.5.5,0,0,1,.217-.976L15.2,6.8a.5.5,0,0,1,.235.852L11.886,11a.5.5,0,0,1-.707-.021L9.507,9.2,7.5,11.007A.5.5,0,0,1,7.165,11.135Z" transform="translate(3.086 4.583)" fill="#373737"/><path d="M.075,3.849a.5.5,0,0,1-.5-.489L-.5.011A.5.5,0,0,1-.011-.5.5.5,0,0,1,.5-.011L.575,3.338a.5.5,0,0,1-.489.511Z" transform="translate(18.176 11.907)" fill="#373737"/><path d="M2,.5H0A.5.5,0,0,1-.5,0,.5.5,0,0,1,0-.5H2a.5.5,0,0,1,.5.5A.5.5,0,0,1,2,.5Z" transform="translate(10.25 6.683)" fill="#373737"/><path d="M2,.5H0A.5.5,0,0,1-.5,0,.5.5,0,0,1,0-.5H2a.5.5,0,0,1,.5.5A.5.5,0,0,1,2,.5Z" transform="translate(10.25 8.952)" fill="#373737"/></g></g></svg>