<svg xmlns="http://www.w3.org/2000/svg" width="134.834" height="128.924" viewBox="0 0 134.834 128.924">
    <defs>
        <filter id="ftwse3v83a" x="24.5" y="11.5" width="71" height="89" filterUnits="userSpaceOnUse">
            <feOffset/>
            <feGaussianBlur stdDeviation=".5" result="blur"/>
            <feFlood flood-opacity=".149"/>
            <feComposite operator="in" in2="blur"/>
            <feComposite in="SourceGraphic"/>
        </filter>
        <filter id="yv8x066wlb" x="47.35" y="35.961" width="24.957" height="35.012" filterUnits="userSpaceOnUse">
            <feOffset/>
            <feGaussianBlur stdDeviation=".5" result="blur-2"/>
            <feFlood flood-opacity=".051"/>
            <feComposite operator="in" in2="blur-2"/>
            <feComposite in="SourceGraphic"/>
        </filter>
        <filter id="1cugiek6rc" x="47.35" y="35.961" width="24.957" height="35.012" filterUnits="userSpaceOnUse">
            <feOffset dy="3"/>
            <feGaussianBlur stdDeviation="3" result="blur-3"/>
            <feFlood flood-color="#fff" flood-opacity=".161" result="color"/>
            <feComposite operator="out" in="SourceGraphic" in2="blur-3"/>
            <feComposite operator="in" in="color"/>
            <feComposite operator="in" in2="SourceGraphic"/>
        </filter>
        <filter id="zr4m8d085d" x="42.995" y="42.001" width="91.84" height="86.923" filterUnits="userSpaceOnUse">
            <feOffset/>
            <feGaussianBlur stdDeviation="5" result="blur-4"/>
            <feFlood flood-opacity=".051"/>
            <feComposite operator="in" in2="blur-4"/>
            <feComposite in="SourceGraphic"/>
        </filter>
        <filter id="pp7wo5hhne" x="56.495" y="55.501" width="64.84" height="59.923" filterUnits="userSpaceOnUse">
            <feOffset/>
            <feGaussianBlur stdDeviation=".5" result="blur-5"/>
            <feFlood flood-opacity=".302"/>
            <feComposite operator="in" in2="blur-5"/>
            <feComposite in="SourceGraphic"/>
        </filter>
    </defs>
    <g style="filter:url(#ftwse3v83a)">
        <path data-name="패스 66391" d="M16 0a6 6 0 0 0-6 6v74a6 6 0 0 0 6 6h56a6 6 0 0 0 6-6V14L64 0z" transform="translate(16 13)" style="fill-rule:evenodd;fill:#f8f9fa"/>
    </g>
    <path data-name="패스 66389" d="M73.311 9.2v8a6 6 0 0 0 6 6h8z" transform="translate(6.689 3.799)" style="fill:#d3d5de;opacity:.4;fill-rule:evenodd"/>
    <g data-type="innerShadowGroup">
        <g style="filter:url(#yv8x066wlb)">
            <path data-name="패스 66393" d="M-4.447-10.355v.687h6.961v-.687c0-2.514 1.139-3.738 3.352-5.07 2.943-1.719 4.941-3.889 4.941-7.562 0-5.672-4.727-8.551-11.172-8.551-5.844 0-10.7 2.814-10.785 9.41h7.562a3.112 3.112 0 0 1 3.18-3.094 2.716 2.716 0 0 1 2.879 2.664C2.449-20.8.988-19.723-.924-18.477c-2.299 1.504-3.545 3.077-3.523 8.122zm-.6 6.66A4.145 4.145 0 0 0-.881.473 4.242 4.242 0 0 0 3.287-3.7 4.234 4.234 0 0 0-.881-7.82 4.135 4.135 0 0 0-5.049-3.7z" transform="translate(60 69)" style="fill:#fff"/>
        </g>
        <g style="filter:url(#1cugiek6rc)">
            <path data-name="패스 66393" d="M-4.447-10.355v.687h6.961v-.687c0-2.514 1.139-3.738 3.352-5.07 2.943-1.719 4.941-3.889 4.941-7.562 0-5.672-4.727-8.551-11.172-8.551-5.844 0-10.7 2.814-10.785 9.41h7.562a3.112 3.112 0 0 1 3.18-3.094 2.716 2.716 0 0 1 2.879 2.664C2.449-20.8.988-19.723-.924-18.477c-2.299 1.504-3.545 3.077-3.523 8.122zm-.6 6.66A4.145 4.145 0 0 0-.881.473 4.242 4.242 0 0 0 3.287-3.7 4.234 4.234 0 0 0-.881-7.82 4.135 4.135 0 0 0-5.049-3.7z" transform="translate(60 69)" style="fill:#fff"/>
        </g>
    </g>
    <g data-name="그룹 21406">
        <g style="filter:url(#zr4m8d085d)">
            <path data-name="합치기 57" d="m6601.929 10487.907-12.624.011-8.128-.019c-4.24-.021-7.475-1.579-9.11-4.388s-1.387-6.364.679-10.036l20.854-37c.761-1.353 3.074-5.472 8.3-5.475 5.259 0 7.567 4.1 8.325 5.454l20.986 37.229c1.951 3.472 2.153 7.046.553 9.808s-4.82 4.372-8.818 4.4l-8.31.029z" transform="translate(-6513 -10374)" style="fill:#fff"/>
        </g>
        <g style="filter:url(#pp7wo5hhne)">
            <path data-name="합치기 58" d="m6601.929 10487.907-12.624.011-8.128-.019c-4.24-.021-7.475-1.579-9.11-4.388s-1.387-6.364.679-10.036l20.854-37c.761-1.353 3.074-5.472 8.3-5.475 5.259 0 7.567 4.1 8.325 5.454l20.986 37.229c1.951 3.472 2.153 7.046.553 9.808s-4.82 4.372-8.818 4.4l-8.31.029z" transform="translate(-6513 -10374)" style="fill:#fff"/>
        </g>
        <path data-name="패스 66395" d="M27.924 50.907c-6.912 0-13.824.026-20.736-.007-6.466-.032-8.988-4.343-5.833-9.952q10.416-18.508 20.856-37C23.488 1.673 25.072 0 27.9 0s4.428 1.65 5.706 3.924Q44.078 22.554 54.6 41.155c2.978 5.3.429 9.692-5.673 9.74-7 .055-14 .013-21 .013" transform="translate(61 60)" style="fill:#fff"/>
        <path data-name="패스 66392 - 윤곽선" d="m40.636 53.922-12.712-.015-12.623.01-8.128-.017c-4.241-.021-7.473-1.58-9.111-4.389s-1.387-6.363.678-10.034l20.855-37C20.356 1.123 22.669-3 27.9-3c5.26 0 7.567 4.106 8.325 5.455l20.986 37.229c1.952 3.472 2.153 7.046.553 9.807s-4.818 4.371-8.817 4.4zm-12.712-6.015 12.712.015 8.263-.028c1.822-.014 3.161-.529 3.673-1.412s.293-2.284-.592-3.858L30.994 5.394C29.863 3.381 29.037 3 27.908 3s-1.942.386-3.082 2.415l-20.857 37c-.952 1.691-1.221 3.214-.72 4.075s1.984 1.4 3.951 1.41l8.1.017z" transform="translate(61 60)" style="fill:#e2e3e8"/>
    </g>
    <path d="M7.5-15.555H1.745l.5 16.725H7zM1.612 5.826A2.988 2.988 0 0 0 4.6 8.851a3.081 3.081 0 0 0 3.03-3.025 3.057 3.057 0 0 0-3.03-2.96 2.963 2.963 0 0 0-2.988 2.96z" transform="translate(83.88 94.543)" style="fill:#6c5ae6"/>
</svg>
