<?xml version="1.0" encoding="utf-8"?>
<!-- Generator: Adobe Illustrator 27.8.1, SVG Export Plug-In . SVG Version: 6.00 Build 0)  -->
<svg version="1.1" id="레이어_1" xmlns="http://www.w3.org/2000/svg" xmlns:xlink="http://www.w3.org/1999/xlink" x="0px"
	 y="0px" viewBox="0 0 950 180" style="enable-background:new 0 0 950 180;" xml:space="preserve">
<style type="text/css">
	.st0{fill:#727171;}
	.st1{fill:#E60012;}
	.st2{fill:#004098;}
</style>
<g>
	<polygon class="st0" points="364,51.2 354.5,51.2 354.5,103.2 364,103.2 364,78 374.2,78 374.2,70.9 364,70.9 364,51.2 	"/>
	<path class="st0" d="M328.6,115.5c-0.2-0.2-0.3-0.5-0.3-0.9V99.3h-9.7v17.2c0,2.2,0.5,3.8,1.6,4.8c1,1,2.6,1.5,4.8,1.5h39.7v-7.1
		h-35.3C329.1,115.8,328.8,115.7,328.6,115.5L328.6,115.5z"/>
	<path class="st0" d="M336.5,88.9c3.4-3.2,5.2-7.1,5.2-11.6c0-1.8-0.3-3.6-0.9-5.3c-0.6-1.7-1.5-3.2-2.6-4.6h8.9v-7h-17.9
		c0-1.4,0-4.5,0-9.4h-10.1v9.4h-17.7v7h8.7c-1.1,1.4-2,2.9-2.6,4.6c-0.6,1.7-1,3.5-1,5.3c0,4.5,1.7,8.4,5.2,11.6
		c3.4,3.3,7.6,4.9,12.4,4.9C329,93.8,333.1,92.1,336.5,88.9L336.5,88.9z M318.7,83.8c-1.5-2-2.3-4.2-2.3-6.6c0-2.4,0.8-4.6,2.4-6.5
		c1.6-1.9,3.4-2.9,5.5-2.9c2.2,0,4,1,5.5,2.9c1.5,1.9,2.2,4.1,2.2,6.6c0,2.4-0.8,4.6-2.3,6.5c-1.5,1.9-3.4,2.9-5.5,2.9
		C322.1,86.7,320.2,85.8,318.7,83.8L318.7,83.8z"/>
	<path class="st0" d="M436.6,74.5c0.4-1.6,0.6-4,0.6-7.4V54.5c0-0.3-0.1-0.5-0.2-0.7c-0.1-0.1-0.3-0.2-0.6-0.2h-53.9v7.1H426
		c0.6,0,1.1,0.1,1.3,0.3c0.2,0.2,0.3,0.6,0.3,1.2v4.1c0,3.1-0.1,5.6-0.4,7.4c-0.3,1.9-0.9,3.6-1.9,5.1h-50.1v7.1h29.4v11.8h-20.7
		v7.1H426c0.3,0,0.5,0.1,0.6,0.2c0.1,0.1,0.2,0.3,0.2,0.6v18.1h9.8V98.5c0-0.3-0.1-0.5-0.2-0.6c-0.1-0.1-0.3-0.2-0.6-0.2h-20.7V85.9
		h29.4v-7.1h-9.9C435.5,77.5,436.2,76.1,436.6,74.5L436.6,74.5z"/>
	<polygon class="st0" points="484.1,68.7 474.4,68.7 474.4,81.8 447.9,81.8 447.9,88.9 517.2,88.9 517.2,81.8 484.1,81.8 
		484.1,68.7 	"/>
	<path class="st0" d="M499.4,61.4c0.2,0.2,0.3,0.6,0.3,1.2v2.1c0,3.4-0.2,6-0.6,7.9c-0.4,1.9-1.2,3.7-2.4,5.4h9.3
		c1.2-1.5,2.1-3,2.6-4.5c0.5-1.6,0.8-4.2,0.8-8V54.8c0-0.3-0.1-0.5-0.2-0.6c-0.1-0.1-0.3-0.2-0.5-0.2h-52.9v7.1h42.3
		C498.8,61.1,499.2,61.2,499.4,61.4L499.4,61.4z"/>
	<path class="st0" d="M495.6,96.9c-3.6-3.3-7.9-4.9-13-4.9c-5.1,0-9.4,1.6-13,4.9c-3.6,3.3-5.4,7.2-5.4,11.8c0,4.6,1.8,8.5,5.4,11.7
		c3.6,3.2,7.9,4.9,13,4.9c5.1,0,9.4-1.6,13-4.9c3.6-3.3,5.4-7.2,5.4-11.7C501,104.1,499.2,100.1,495.6,96.9L495.6,96.9z
		 M488.8,115.3c-1.8,1.8-3.8,2.8-6.3,2.8c-2.4,0-4.4-0.9-6.2-2.8c-1.8-1.8-2.7-4.1-2.7-6.7c0-2.6,0.9-4.9,2.7-6.7
		c1.8-1.8,3.9-2.8,6.2-2.8c2.4,0,4.5,0.9,6.3,2.8c1.8,1.8,2.6,4.1,2.6,6.7C491.4,111.2,490.6,113.5,488.8,115.3L488.8,115.3z"/>
	<path class="st0" d="M546,115.5c-0.2-0.2-0.3-0.5-0.3-0.9V98.1H536v18.4c0,2.2,0.5,3.8,1.6,4.8c1.1,1,2.7,1.5,4.8,1.5h40.1v-7.1
		h-35.7C546.5,115.8,546.2,115.7,546,115.5L546,115.5z"/>
	<path class="st0" d="M554.6,86.2c3.9-3.8,5.8-8.3,5.8-13.6c0-5.3-1.9-9.8-5.8-13.6c-3.8-3.8-8.5-5.7-14-5.7c-5.5,0-10.1,1.9-14,5.7
		c-3.9,3.8-5.8,8.3-5.8,13.6c0,5.3,1.9,9.8,5.8,13.6c3.9,3.8,8.5,5.7,14,5.7C546.1,91.9,550.8,90,554.6,86.2L554.6,86.2z
		 M533.4,81.2c-2-2.4-3-5.3-3-8.6c0-3.4,1-6.2,3-8.6c2-2.4,4.4-3.6,7.3-3.6c2.8,0,5.3,1.2,7.3,3.6c2,2.4,3,5.3,3,8.6
		c0,3.4-1,6.2-3,8.6c-2,2.4-4.5,3.6-7.3,3.6C537.8,84.8,535.4,83.6,533.4,81.2L533.4,81.2z"/>
	<polygon class="st0" points="581.7,103.2 581.7,51.3 572.3,51.3 572.3,103.2 581.7,103.2 	"/>
	<path class="st0" d="M599.7,78.4c2.3,0,4.8-0.3,7.4-0.9c2.6-0.6,5.2-1.3,7.7-2.2c2.4-0.9,4.5-1.9,6.4-3.1c1.9-1.2,3.3-2.6,4.2-4
		c0.1-0.1,0.3-0.2,0.5-0.2c0.2,0,0.4,0,0.4,0.2c1,1.5,2.4,2.8,4.1,4c1.8,1.2,3.7,2.2,5.9,3.1c2.5,1,5.2,1.8,7.9,2.3
		c2.8,0.5,5.3,0.8,7.8,0.8l4.5-5.6c0.2-0.2,0.2-0.4,0.2-0.5c0-0.2-0.2-0.2-0.5-0.2c-2.3-0.1-4.7-0.4-7.2-0.8
		c-2.5-0.4-4.9-1.1-7.2-1.9c-2.7-1-5.1-2.3-7-4c-2-1.7-3.1-3.7-3.6-6.3h21.4v-7.1h-53.6v7.1h21.3c-0.3,2.2-1.3,4.1-2.9,5.6
		c-1.5,1.5-3.4,2.8-5.7,3.9c-2.4,1.1-5.1,1.9-8,2.4c-2.9,0.5-5.7,0.9-8.4,1c-0.3,0-0.5,0.1-0.5,0.2c0,0.1,0.1,0.3,0.3,0.6
		L599.7,78.4L599.7,78.4z"/>
	<path class="st0" d="M591.2,90.3h29.4v4.3c-3.6,1-6.6,2.9-9,5.6c-2.4,2.7-3.6,5.9-3.6,9.4c0,4.3,1.7,8,5.2,11.1
		c3.5,3.1,7.7,4.6,12.6,4.6c4.9,0,9.1-1.5,12.6-4.6c3.5-3.1,5.2-6.8,5.2-11.1c0-3.6-1.2-6.7-3.6-9.4c-2.4-2.7-5.4-4.6-9-5.6v-4.3
		h29.4v-7.1h-69.3V90.3L591.2,90.3z M631.7,103.7c1.7,1.7,2.6,3.7,2.6,5.9c0,2.3-0.9,4.2-2.6,5.9c-1.7,1.7-3.7,2.6-5.8,2.6
		c-2.1,0-4-0.9-5.8-2.6c-1.8-1.7-2.6-3.7-2.6-5.9c0-2.3,0.9-4.2,2.6-5.9c1.8-1.7,3.7-2.6,5.8-2.6C628,101.1,629.9,102,631.7,103.7
		L631.7,103.7z"/>
	<polygon class="st0" points="718.1,74.5 712.1,74.5 712.1,51.3 703.2,51.3 703.2,123.7 712.1,123.7 712.1,81.6 718.1,81.6 
		718.1,123.7 727.1,123.7 727.1,51.3 718.1,51.3 718.1,74.5 	"/>
	<path class="st0" d="M696.4,56h-28.8v7.1h19.9v0.2c0,3.9-0.4,7.5-1.2,10.7c-0.8,3.2-1.9,6-3.2,8.5c-2.4,4.4-5.5,7.8-9.2,10.3
		c-3.8,2.5-7.6,4.2-11.5,5.3c-0.2,0.1-0.3,0.1-0.4,0.2c-0.1,0.1,0,0.2,0.2,0.4l5.3,4.5c3.9-0.8,8-2.6,12.1-5.2
		c4.2-2.6,7.8-6.1,10.7-10.6c2.1-3.1,3.8-6.6,5-10.5c1.2-3.9,1.8-8.2,1.8-13v-7.2c0-0.2-0.1-0.4-0.2-0.5
		C696.9,56.1,696.6,56,696.4,56L696.4,56z"/>
	<polygon class="st0" points="795.1,51.3 785.8,51.3 785.8,123.7 795.1,123.7 795.1,82 805.4,82 805.4,74.9 795.1,74.9 795.1,51.3 	
		"/>
	<path class="st0" d="M778.4,96.3c-1.8-0.4-3.7-1.2-5.8-2.5c-2.1-1.3-4-3-5.9-5.1c-1.8-2.2-3.3-4.7-4.5-7.7c-1.2-3-1.9-6.3-1.9-10
		V54.8h-9.8v16.3c0,3.4-0.5,6.5-1.6,9.3c-1,2.8-2.4,5.3-4,7.4c-1.8,2.4-3.9,4.3-6.1,5.7c-2.2,1.4-4.3,2.4-6.3,2.9
		c-0.2,0.1-0.3,0.2-0.3,0.3c0,0.1,0,0.2,0.1,0.4l4.9,5.7c1.7-0.4,3.4-1.1,5.2-2.2c1.8-1,3.5-2.2,5.1-3.6c1.7-1.4,3.2-2.8,4.5-4.4
		c1.3-1.6,2.3-3.1,3-4.6c0.2-0.3,0.4-0.5,0.6-0.5c0.3,0,0.4,0.1,0.6,0.5c0.6,1.5,1.5,3,2.8,4.5c1.3,1.5,2.7,2.9,4.3,4.3
		c1.7,1.4,3.4,2.7,5.4,3.7c1.9,1.1,3.6,1.8,5.3,2.3l4.9-5.7c0.1-0.1,0.2-0.2,0.2-0.4C778.7,96.5,778.6,96.4,778.4,96.3L778.4,96.3z"
		/>
	<path class="st0" d="M862.7,103h-28.2v-6.9h-9.6v21.2c0,2.1,0.5,3.7,1.6,4.8c1.1,1.1,2.6,1.6,4.6,1.6h34.9c1.9,0,3.5-0.5,4.6-1.6
		c1.1-1.1,1.7-2.7,1.7-4.8V95.4h-9.6V103L862.7,103z M862.7,115.6c0,0.5-0.1,0.8-0.3,1c-0.2,0.2-0.5,0.3-1,0.3h-25.7
		c-0.5,0-0.8-0.1-1-0.2c-0.2-0.1-0.3-0.5-0.3-1V110h28.2V115.6L862.7,115.6z"/>
	<path class="st0" d="M862.8,68.6h-16.3c-0.2-0.4-0.5-0.8-0.7-1.2c-0.3-0.4-0.5-0.8-0.8-1.2c0.1,0,3.1,0,9.1,0v-7h-17.9v-9.1h-10.1
		v9.1h-17.7v7h9c-1,1.3-1.8,2.7-2.3,4.3c-0.6,1.6-0.8,3.2-0.8,4.8c0,4.3,1.7,8.1,5,11.2c3.3,3.1,7.3,4.7,11.9,4.7
		c2.8,0,5.4-0.6,7.8-1.8c2.4-1.2,4.4-2.8,5.9-4.7h17.9v7.6h9.5V51.3h-9.5V68.6L862.8,68.6z M836.5,81.6c-1.4,1.8-3.1,2.7-5.1,2.7
		c-2,0-3.8-0.9-5.1-2.7c-1.4-1.8-2.1-3.9-2.1-6.2c0-2.3,0.7-4.3,2.2-6.1c1.4-1.8,3.2-2.6,5.2-2.6c2,0,3.7,0.9,5.1,2.7
		c1.4,1.8,2.1,3.9,2.1,6.2C838.6,77.7,837.9,79.8,836.5,81.6L836.5,81.6z M862.8,78H848c0.1-0.4,0.2-0.8,0.2-1.3c0-0.5,0-0.9,0-1.4
		h14.6V78L862.8,78z"/>
	<path class="st0" d="M934.2,51.3v46.7c-1.1,0.7-2.5,1.2-4.2,1.6c-1.7,0.4-3.9,0.5-6.7,0.5h-10.9v-8c3.3-1,6-2.7,8.2-5.3
		c2.2-2.6,3.2-5.6,3.2-8.9c0-1.7-0.3-3.3-0.8-4.7c-0.5-1.5-1.3-2.8-2.3-4h8.1v-6.7h-16.3V51.7h-9.8v10.7h-16.5v6.7h8.1
		c-1,1.2-1.8,2.6-2.3,4.1c-0.5,1.5-0.8,3.1-0.8,4.7c0,3.4,1.1,6.4,3.3,9c2.2,2.6,4.9,4.4,8.3,5.3v8h-19.9v7.1h37.2
		c3.6,0,6.4-0.1,8.5-0.3c2.1-0.2,3.9-0.8,5.5-1.6v18.5h9.4V51.3H934.2L934.2,51.3z M907.6,85.7c-1.9,0-3.6-0.8-4.9-2.5
		c-1.3-1.7-2-3.5-2-5.5c0-2,0.7-3.8,2-5.5c1.3-1.7,2.9-2.5,4.9-2.5c1.9,0,3.6,0.8,4.9,2.5c1.3,1.6,2,3.5,2,5.5c0,2-0.7,3.8-2,5.5
		C911.2,84.9,909.6,85.7,907.6,85.7L907.6,85.7z"/>
	<path class="st1" d="M232.4,50.8h-20.8c0-22.9-7.5-40.9-22.2-47.4c-21.3-9.4-53.6,8.7-73.1,40.7c-0.6,0.9-0.9,1.6-0.2,2
		c0.7,0.5,1.1-0.1,1.8-1c17.9-24.9,40.7-39.9,55.6-32.4c19.2,9.6,19.5,49.5,2,89.1c-3.5,7.9-7.4,15.2-11.7,21.7l27.1,0
		c2.3-4,4.4-8.2,6.4-12.6c7.2-15.7,11.6-31.4,13.4-45.8h15.4c8.9,0,13.5,4.9,11.8,11.9c-1.6,6.9-6.7,11.3-27.5,9.5l18.2,37h23.5
		l-16.9-27.5c12.6,0.5,21.8-5.7,23.4-19.2C260.7,60.1,250.1,50.8,232.4,50.8L232.4,50.8z"/>
	<polygon class="st2" points="90,50.8 65.2,50.8 35.5,80.4 43,50.8 21.2,50.8 3.4,123.6 25.2,123.6 33.5,89.8 55.6,123.6 
		77.6,123.6 53.7,87.3 90,50.8 	"/>
	<path class="st1" d="M232.5,50.8h-20.8c0-23-7.6-40.9-22.2-47.4c-21.3-9.4-53.6,8.7-73.1,40.7c-0.6,0.8-0.9,1.5-0.2,2
		c0.7,0.5,1.1-0.1,1.8-1c17.9-24.9,40.7-39.9,55.6-32.5c19.2,9.6,19.5,49.5,2,89.2c-3.5,7.9-7.4,15.2-11.7,21.7l27.1,0
		c2.3-4,4.4-8.2,6.4-12.6c7.2-15.7,11.6-31.4,13.4-45.8h15.4c8.9,0,13.5,4.9,11.8,11.9c-1.6,6.9-6.7,11.3-27.5,9.5l18.2,37h23.5
		l-17-27.5c12.6,0.5,21.8-5.6,23.5-19.2C260.8,60.1,250.3,50.8,232.5,50.8L232.5,50.8z"/>
	<path class="st2" d="M187.6,127.5c-0.6-0.3-1.2,0.5-1.6,1c-20.3,29.5-46.7,46.2-65,38.3c-21.5-9.3-21-48.5,1.2-87.7
		c1-1.9,2.1-3.7,3.2-5.4l7.2,49.9h26.2l-13.7-72.8h-32.9c-4.1,5.6-8,11.5-11.6,17.7c-26.9,47.3-25.1,95.2,4.1,106.9
		c24.9,10,60.4-9.6,82.8-46.1C188.1,128.5,188.2,127.8,187.6,127.5L187.6,127.5z"/>
</g>
<g>
	<path class="st0" d="M341.4,151.6c-6.9,0-11.8,5.2-11.8,12.6c0,7.2,4.7,12.2,11.4,12.2h0c5.7,0,11.8-3.9,11.8-12.6
		C352.8,156.6,348.1,151.6,341.4,151.6z M341.1,171.9L341.1,171.9c-3.5,0-6-3.3-6-7.9c0-4,1.9-8,6.1-8c4.7,0,6,5.1,6,7.8
		C347.2,168.5,344.7,171.9,341.1,171.9z"/>
	<path class="st0" d="M367.4,151.6c-2.3,0-4.4,1.2-5.7,3.1c0-0.9-0.1-2.6-0.1-2.6h-5l0.2,7.7l0,16.1h5.5v-12.6l0.1-1.8
		c0.5-2.8,2.3-4.6,4.7-4.6l2,0.1l0.1-0.8v-4.4l-0.5-0.1L367.4,151.6z"/>
	<path class="st0" d="M381.7,151.5c-6.6,0-11.2,5.3-11.2,12.8c0,7.3,4.6,12,11.7,12c3.7,0,6.3-0.8,7.8-1.5l0.6-0.2l-1.1-4.2
		l-0.8,0.3c-1.3,0.5-3,1.1-5.9,1.1c-1.9,0-6.3-0.7-6.8-6.3c1.4,0,15.5,0,15.5,0l0-0.6l0.2-2.1C391.5,157.6,389,151.5,381.7,151.5z
		 M381.3,155.9c1.4,0,2.5,0.4,3.3,1.2c1.2,1.2,1.4,2.9,1.5,3.9c-1.3,0-8.7,0-10.1,0C376.5,158.5,378.1,155.9,381.3,155.9z"/>
	<path class="st0" d="M413,161.4c0-6.4-3.3-9.8-9.2-9.8c-2.8,0-5.7,0.8-7.8,2l-0.5,0.3l1.4,4.1l0.8-0.5c1.4-1,3.5-1.5,5.5-1.5
		c1.4,0,2.5,0.3,3.2,1c0.7,0.7,1,1.8,1.1,3.2c-5.2,0.1-8.9,1.2-11.2,3.4c-1.5,1.5-2.2,3.3-2.2,5.5c0,3.5,2.6,7.1,7.5,7.1
		c2.9,0,5-1.2,6.4-2.5c0.1,0.7,0.3,2,0.3,2h5l-0.4-6.1V161.4z M402.7,171.9c-1.9,0-3.1-1.2-3.1-3.2c0-1,0.3-1.8,1-2.5
		c1.2-1.2,3.6-1.8,7-1.8c0,1,0,3.2,0,3.2l-0.2,1.1C407,170.2,405.4,171.9,402.7,171.9z"/>
	<path class="st0" d="M442.7,143.3h-5.4l-11.1,32.5h5.7c0,0,2.9-8.9,3.2-9.8c0.9,0,9.1,0,10,0c0.3,0.9,3.3,9.8,3.3,9.8h5.8
		l-11.1-32.5H442.7z M443.9,161.5c-1.4,0-6,0-7.4,0c0.5-1.5,2.7-8.1,2.7-8.1c0,0,0.5-1.8,0.9-3.4c0.4,1.6,0.9,3.4,0.9,3.4
		C441.1,153.5,443.1,159.2,443.9,161.5z"/>
	<path class="st0" d="M465.2,161.5c-2.9-1.1-3.7-1.8-3.7-3.2c0-1.4,1.2-2.3,3-2.3c1.4,0,2.8,0.4,4.2,1.2l0.8,0.4l1.4-4.3l-0.5-0.3
		c-1.4-0.9-3.6-1.5-5.8-1.5c-4.9,0-8.4,3.1-8.4,7.3c0,3.1,2.2,5.4,6.4,7c3,1.1,3.6,2.1,3.6,3.4c0,1.7-1.3,2.6-3.6,2.6
		c-1.9,0-3.9-0.8-5-1.5l-0.8-0.5l-1.4,4.4l0.5,0.3c1.8,1.1,4.2,1.7,6.6,1.7c5.5,0,9-2.9,9-7.5C471.5,165.4,469.6,163.1,465.2,161.5z
		"/>
	<path class="st0" d="M483.7,161.5c-2.9-1.1-3.7-1.8-3.7-3.2c0-1.4,1.2-2.3,3-2.3c1.4,0,2.8,0.4,4.2,1.2l0.8,0.4l1.4-4.3l-0.5-0.3
		c-1.4-0.9-3.6-1.5-5.8-1.5c-4.9,0-8.4,3.1-8.4,7.3c0,3.1,2.2,5.4,6.4,7c3,1.1,3.6,2.1,3.6,3.4c0,1.7-1.3,2.6-3.6,2.6
		c-1.9,0-3.9-0.8-5-1.5l-0.8-0.5l-1.4,4.4l0.5,0.3c1.8,1.1,4.2,1.7,6.6,1.7c5.5,0,9-2.9,9-7.5C490,165.4,488.1,163.1,483.7,161.5z"
		/>
	<path class="st0" d="M504.2,151.6c-6.9,0-11.8,5.2-11.8,12.6c0,7.2,4.7,12.2,11.4,12.2h0c5.7,0,11.8-3.9,11.8-12.6
		C515.7,156.6,511,151.6,504.2,151.6z M504,171.9L504,171.9c-3.5,0-6-3.3-6-7.9c0-4,1.9-8,6.1-8c4.7,0,6,5.1,6,7.8
		C510,168.5,507.5,171.9,504,171.9z"/>
	<path class="st0" d="M530.7,156.2c1.7,0,3.1,0.3,4.4,1l0.8,0.4l1.3-4.5l-0.5-0.3c-1.1-0.6-3.3-1.3-6-1.3c-7.5,0-12.7,5.2-12.7,12.6
		c0,7.3,4.8,12.2,11.8,12.2c2.9,0,5.3-0.7,6.7-1.4l0.5-0.2l-1-4.4l-0.8,0.3c-1.1,0.5-2.6,1-4.7,1c-4.2,0-7-3.1-7-7.6
		C523.5,160.4,525.4,156.2,530.7,156.2z"/>
	<polygon class="st0" points="541.2,152.1 541.2,175.9 546.7,175.9 546.7,152.1 546,152.1 	"/>
	<path class="st0" d="M544,142.8c-1.9,0-3.3,1.4-3.3,3.3c0,1.9,1.4,3.3,3.2,3.3h0.1c1.9,0,3.3-1.4,3.3-3.3
		C547.3,144.2,545.9,142.8,544,142.8z"/>
	<path class="st0" d="M569.4,161.4c0-6.4-3.3-9.8-9.2-9.8c-2.8,0-5.7,0.8-7.8,2l-0.5,0.3l1.4,4.1l0.8-0.5c1.4-1,3.5-1.5,5.5-1.5
		c1.4,0,2.5,0.3,3.2,1c0.7,0.7,1.1,1.8,1.1,3.2c-5.2,0.1-8.9,1.2-11.2,3.4c-1.5,1.5-2.2,3.3-2.2,5.5c0,3.5,2.6,7.1,7.5,7.1
		c2.9,0,5-1.2,6.4-2.5c0.1,0.7,0.3,2,0.3,2h5l-0.4-6.1V161.4z M559.1,171.9c-1.9,0-3.1-1.2-3.1-3.2c0-1,0.3-1.8,1-2.5
		c1.2-1.2,3.6-1.8,7-1.8c0,1,0,3.2,0,3.2l-0.2,1.1C563.4,170.2,561.8,171.9,559.1,171.9z"/>
	<path class="st0" d="M581.4,146.5l-0.9,0.3l-4.5,1.4c0,0,0,2.9,0,3.9c-0.9,0-3.5,0-3.5,0v4.5c0,0,2.6,0,3.5,0c0,1.3,0,11.5,0,11.5
		c0,2.9,0.6,5,1.7,6.3c1.1,1.3,2.9,1.9,4.9,1.9c1.9,0,3.2-0.4,3.8-0.6l0.5-0.2l-0.3-4.4l-0.9,0.1l-2.1,0.2c-1.4,0-2.3-0.6-2.3-3.6
		c0,0,0-10.1,0-11.3c1.1,0,5.8,0,5.8,0v-4.5c0,0-4.7,0-5.8,0C581.4,151,581.4,146.5,581.4,146.5z"/>
	<polygon class="st0" points="591.3,152.1 591.3,175.9 596.8,175.9 596.8,152.1 596.1,152.1 	"/>
	<path class="st0" d="M594,142.8c-1.9,0-3.3,1.4-3.3,3.3c0,1.9,1.4,3.3,3.3,3.3h0c1.9,0,3.3-1.4,3.3-3.3
		C597.3,144.2,595.9,142.8,594,142.8z"/>
	<path class="st0" d="M612.2,151.6c-6.9,0-11.8,5.2-11.8,12.6c0,7.2,4.7,12.2,11.4,12.2h0c5.7,0,11.8-3.9,11.8-12.6
		C623.7,156.6,619,151.6,612.2,151.6z M612,171.9L612,171.9c-3.5,0-6-3.3-6-7.9c0-4,1.9-8,6.1-8c4.7,0,6,5.1,6,7.8
		C618.1,168.5,615.5,171.9,612,171.9z"/>
	<path class="st0" d="M639.2,151.6c-3.1,0-5.4,1.4-6.9,2.9c-0.1-0.9-0.2-2.4-0.2-2.4h-5l0.2,6.8v17h5.5v-14.2l0.2-1.6
		c0.6-1.8,2.3-3.7,4.8-3.7c3.7,0,4.4,3.2,4.4,5.9v13.6h5.5v-14C647.8,154.3,643.2,151.6,639.2,151.6z"/>
	<path class="st0" d="M671.7,151.6c-6.9,0-11.8,5.2-11.8,12.6c0,7.2,4.7,12.2,11.4,12.2h0c5.7,0,11.8-3.9,11.8-12.6
		C683.1,156.6,678.4,151.6,671.7,151.6z M671.4,171.9L671.4,171.9c-3.5,0-6-3.3-6-7.9c0-4,1.9-8,6.1-8c4.7,0,6,5.1,6,7.8
		C677.5,168.5,674.9,171.9,671.4,171.9z"/>
	<path class="st0" d="M696.1,141.2c-2.3,0-4.4,0.8-5.9,2.3c-1.9,1.8-2.8,4.6-2.8,8.3c0,0,0,0.2,0,0.3c-0.9,0-3.1,0-3.1,0v4.5
		c0,0,2.2,0,3.1,0c0,1.3,0,19.2,0,19.2h5.5c0,0,0-17.9,0-19.2c1.1,0,5.4,0,5.4,0v-4.5c0,0-4.3,0-5.4,0c0-0.2,0-0.5,0-0.5
		c0-5.7,2.7-5.7,3.6-5.7c1.1,0,1.8,0.2,2.3,0.5l0.8,0.4l0.7-4.6l-0.5-0.2C699.2,141.6,697.9,141.2,696.1,141.2z"/>
	<g>
		<path class="st0" d="M733.4,175.9l-6.8-15.3c3.5-1.5,5.6-4.7,5.6-8.2c0-2.6-1-4.9-2.7-6.4c-2.1-1.9-5.1-2.8-9.5-2.8
			c-2.7,0-5.7,0.3-7.8,0.7l-0.6,0.1v31.9h5.4c0,0,0-27.1,0-27.9c0.6-0.1,1.5-0.2,3.2-0.2c2.9,0,6.4,0.9,6.4,5c0,3.2-2.4,5.2-6.3,5.2
			c0,0-0.6,0-1.3,0l7.9,17.9H733.4z"/>
	</g>
	<path class="st0" d="M745.5,151.5c-6.6,0-11.2,5.3-11.2,12.8c0,7.3,4.6,12,11.7,12c3.7,0,6.3-0.8,7.8-1.5l0.6-0.2l-1.1-4.2
		l-0.8,0.3c-1.3,0.5-3,1.1-5.9,1.1c-1.9,0-6.3-0.7-6.8-6.3c1.4,0,15.5,0,15.5,0l0-0.6l0.2-2.1C755.4,157.6,752.8,151.5,745.5,151.5z
		 M745.2,155.9c1.4,0,2.5,0.4,3.3,1.2c1.2,1.2,1.4,2.9,1.5,3.9c-1.3,0-8.7,0-10.1,0C740.4,158.5,742,155.9,745.2,155.9z"/>
	<path class="st0" d="M776.4,161.4c0-6.4-3.3-9.8-9.3-9.8c-2.8,0-5.7,0.8-7.8,2l-0.5,0.3l1.4,4.1l0.8-0.5c1.4-1,3.5-1.5,5.5-1.5
		c1.4,0,2.5,0.3,3.2,1c0.7,0.7,1,1.8,1.1,3.2c-5.2,0.1-8.9,1.2-11.2,3.4c-1.5,1.5-2.2,3.3-2.2,5.5c0,3.5,2.6,7.1,7.5,7.1
		c2.9,0,5-1.2,6.4-2.5c0.1,0.7,0.3,2,0.3,2h5l-0.4-6.1V161.4z M766.1,171.9c-1.9,0-3.1-1.2-3.1-3.2c0-1,0.3-1.8,1-2.5
		c1.2-1.2,3.6-1.8,7-1.8c0,1,0,3.2,0,3.2l-0.1,1.1C770.4,170.2,768.8,171.9,766.1,171.9z"/>
	<polygon class="st0" points="781.7,141.7 781.7,175.9 787.2,175.9 787.2,141.7 786.5,141.7 	"/>
	<path class="st0" d="M822.3,161.7c-2.9-1.1-3.7-1.8-3.7-3.2c0-1.4,1.2-2.3,3-2.3c1.4,0,2.8,0.4,4.2,1.2l0.8,0.4l1.4-4.3l-0.5-0.3
		c-1.4-0.9-3.6-1.5-5.8-1.5c-4.9,0-8.4,3.1-8.4,7.3c0,3.1,2.2,5.4,6.4,7c3.1,1.1,3.6,2.1,3.6,3.4c0,1.7-1.3,2.6-3.6,2.6
		c-1.9,0-3.9-0.8-5-1.5l-0.8-0.5l-1.4,4.4l0.5,0.3c1.8,1.1,4.2,1.7,6.6,1.7c5.5,0,9-2.9,9-7.5C828.7,165.6,826.7,163.3,822.3,161.7z
		"/>
	<polygon class="st0" points="330.8,175.8 318.1,158.7 330.2,143.3 323,143.3 312.3,157.3 312.3,143.3 306.9,143.3 306.9,175.9 
		312.3,175.9 312.3,160 323.6,175.8 	"/>
	<path class="st0" d="M801.4,151.3c-6.6,0-11.2,5.3-11.2,12.8c0,7.3,4.6,12,11.7,12c3.7,0,6.3-0.8,7.8-1.5l0.6-0.2l-1.1-4.2
		l-0.8,0.3c-1.3,0.5-3,1.1-5.9,1.1c-1.9,0-6.3-0.7-6.8-6.3c1.4,0,15.5,0,15.5,0l0-0.6l0.2-2.1C811.3,157.4,808.7,151.3,801.4,151.3z
		 M801,155.7c1.4,0,2.5,0.4,3.3,1.2c1.2,1.2,1.4,2.9,1.5,3.9c-1.3,0-8.7,0-10.1,0C796.2,158.3,797.8,155.7,801,155.7z"/>
	<path class="st0" d="M866,161.8c0-6.4-3.3-9.8-9.3-9.8c-2.8,0-5.7,0.8-7.8,2l-0.5,0.3l1.4,4.1l0.8-0.5c1.4-1,3.5-1.5,5.5-1.5
		c1.4,0,2.5,0.3,3.2,1c0.7,0.7,1,1.8,1.1,3.2c-5.2,0.1-8.9,1.2-11.2,3.4c-1.5,1.5-2.2,3.3-2.2,5.5c0,3.5,2.6,7.1,7.5,7.1
		c2.9,0,5-1.2,6.4-2.5c0.1,0.7,0.3,2,0.3,2h5l-0.4-6.1V161.8z M855.6,172.3c-1.9,0-3.1-1.2-3.1-3.2c0-1,0.3-1.8,1-2.5
		c1.2-1.2,3.6-1.8,7-1.8c0,1,0,3.2,0,3.2l-0.1,1.1C859.9,170.6,858.4,172.3,855.6,172.3z"/>
	<path class="st0" d="M839.2,146.6l-0.9,0.3l-4.5,1.4c0,0,0,2.9,0,3.9c-0.9,0-3.5,0-3.5,0v4.5c0,0,2.6,0,3.5,0c0,1.3,0,11.5,0,11.5
		c0,2.9,0.6,5,1.8,6.3c1.1,1.3,2.9,1.9,4.9,1.9c1.9,0,3.2-0.4,3.8-0.6l0.5-0.2l-0.3-4.4l-0.9,0.1l-2.1,0.2c-1.4,0-2.3-0.6-2.3-3.6
		c0,0,0-10.1,0-11.3c1.1,0,5.8,0,5.8,0v-4.5c0,0-4.7,0-5.8,0C839.2,151.1,839.2,146.6,839.2,146.6z"/>
	<path class="st0" d="M898.6,151.3c-6.9,0-11.8,5.2-11.8,12.6c0,7.2,4.7,12.2,11.4,12.2h0c5.7,0,11.8-3.9,11.8-12.6
		C910,156.3,905.3,151.3,898.6,151.3z M898.3,171.6L898.3,171.6c-3.5,0-6-3.3-6-7.9c0-4,1.9-8,6.1-8c4.7,0,6,5.1,6,7.8
		C904.4,168.2,901.8,171.6,898.3,171.6z"/>
	<path class="st0" d="M924.6,151.3c-2.3,0-4.4,1.2-5.8,3.1c0-0.9-0.1-2.6-0.1-2.6h-5l0.2,7.7l0,16.1h5.5V163l0.1-1.8
		c0.5-2.8,2.3-4.6,4.7-4.6l2,0.1l0.1-0.8v-4.4l-0.6-0.1L924.6,151.3z"/>
	<path class="st0" d="M937.4,161.2c-2.9-1.1-3.7-1.8-3.7-3.2c0-1.4,1.2-2.3,3-2.3c1.4,0,2.8,0.4,4.2,1.2l0.8,0.4l1.4-4.3l-0.5-0.3
		c-1.4-0.9-3.6-1.5-5.8-1.5c-4.9,0-8.4,3.1-8.4,7.3c0,3.1,2.2,5.4,6.4,7c3.1,1.1,3.6,2.1,3.6,3.4c0,1.7-1.3,2.6-3.6,2.6
		c-1.9,0-3.9-0.8-5-1.5l-0.8-0.5l-1.4,4.4l0.5,0.3c1.8,1.1,4.2,1.7,6.6,1.7c5.5,0,9-2.9,9-7.5C943.7,165.1,941.8,162.9,937.4,161.2z
		"/>
	<path class="st0" d="M877,146.6l-0.9,0.3l-4.5,1.4c0,0,0,2.9,0,3.9c-0.9,0-3.5,0-3.5,0v4.5c0,0,2.6,0,3.5,0c0,1.3,0,11.5,0,11.5
		c0,2.9,0.6,5,1.8,6.3c1.1,1.3,2.9,1.9,4.9,1.9c1.9,0,3.2-0.4,3.8-0.6l0.5-0.2l-0.3-4.4l-0.9,0.1l-2.1,0.2c-1.4,0-2.3-0.6-2.3-3.6
		c0,0,0-10.1,0-11.3c1.1,0,5.8,0,5.8,0v-4.5c0,0-4.7,0-5.8,0C877,151.1,877,146.6,877,146.6z"/>
</g>
</svg>
