<svg xmlns="http://www.w3.org/2000/svg" width="52" height="30" viewBox="0 0 52 30">
    <path d="M419.589 367.8H415.5v6.539l3.16 3.379h12.25v-4.106h-11.321z" transform="translate(-409.35 -349.374)" style="fill:#fff"/>
    <path data-name="path" d="m484.985 273.3-2.585 3.244v9.682h4.106v-8.837h3.109V273.3h-4.63z" transform="translate(-465.215 -271.424)" style="fill:#fff"/>
    <path data-name="path" d="M390.792 276.41a6.764 6.764 0 0 0 1.825-4.748 6.517 6.517 0 0 0-.169-1.5h-4.072a2.464 2.464 0 0 1-.321 2.923 2.076 2.076 0 0 1-1.605.727 2.05 2.05 0 0 1-1.555-.727 2.39 2.39 0 0 1-.642-1.69 2.511 2.511 0 0 1 .642-1.69 2.106 2.106 0 0 1 1.555-.693h7.384v-3.785H388.7V262.2h-4.376v3.024H379.1v3.785h1.774a8.773 8.773 0 0 0-.389 1.2 7.1 7.1 0 0 0-.169 1.453 6.887 6.887 0 0 0 1.791 4.748 5.664 5.664 0 0 0 4.342 1.994 5.767 5.767 0 0 0 4.343-1.994z" transform="translate(-379.1 -262.2)" style="fill:#fff"/>
    <path data-name="path" d="M652.489 273.3h-1.673l-2.416 3.227v9.344h4.089v-8.482h3.111V273.3z" transform="translate(-603.598 -271.424)" style="fill:#fff"/>
    <path data-name="path" d="M560.144 273.3h-4.072v2.534h-3.819v3.852h3.819v2.129h-4.883V273.3H547.1v9.141l2.923 3.565h10.121z" transform="translate(-519.215 -271.424)" style="fill:#fff"/>
    <path data-name="path" d="M602.136 354.7a5.971 5.971 0 0 0-4.512 2.011 7.107 7.107 0 0 0-1.825 4.9 6.965 6.965 0 0 0 1.825 4.866 6.029 6.029 0 0 0 8.989 0 6.887 6.887 0 0 0 1.876-4.866 6.97 6.97 0 0 0-1.825-4.832 6.075 6.075 0 0 0-4.528-2.079zm1.656 8.736a2.14 2.14 0 0 1-1.656.743 2.268 2.268 0 0 1-1.69-.743 2.713 2.713 0 0 1-.693-1.842 2.582 2.582 0 0 1 .693-1.825 2.253 2.253 0 0 1 3.346 0 2.641 2.641 0 0 1 .693 1.825 2.713 2.713 0 0 1-.693 1.842z" transform="translate(-559.885 -338.488)" style="fill:#fff"/>
</svg>
