<svg xmlns="http://www.w3.org/2000/svg" xmlns:xlink="http://www.w3.org/1999/xlink" width="298" height="107" viewBox="0 0 298 107"><defs><clipPath id="a"><path d="M0,0H18V17.994H0Z" fill="#353535"/></clipPath></defs><rect width="16" height="16" fill="none"/><g transform="translate(-0.095 -0.093)"><path d="M402.094,810.325a3.785,3.785,0,1,1-3.785,3.785,3.785,3.785,0,0,1,3.785-3.785m0-1.262a5.046,5.046,0,1,0,5.047,5.046,5.046,5.046,0,0,0-5.047-5.046Z" transform="translate(-394.954 -806.97)" fill="#333"/><path d="M408.97,821.671a.685.685,0,0,1-.484-.2l-2.632-2.632a.684.684,0,0,1,.968-.967l2.631,2.631a.685.685,0,0,1-.484,1.169Z" transform="translate(-395.558 -807.579)" fill="#333"/></g><g transform="translate(-15 -25)"><rect width="20" height="20" transform="translate(33 25)" fill="none"/><g transform="translate(33 25)"><circle cx="8" cy="8" r="8" transform="translate(2 2)" fill="#dbdbdb"/><path d="M6,0,0,6" transform="translate(13 13) rotate(180)" fill="none" stroke="#fff" stroke-linecap="round" stroke-linejoin="round" stroke-width="1.6"/><path d="M6,0,0,6" transform="translate(13 7) rotate(90)" fill="none" stroke="#fff" stroke-linecap="round" stroke-linejoin="round" stroke-width="1.6"/></g></g><g transform="translate(8 -28)"><rect width="20" height="20" transform="translate(32 28)" fill="none"/><path d="M-1931.06-2569.19a.8.8,0,0,1-.572-.241l-5.275-5.4a.8.8,0,0,1,0-1.118l5.275-5.4a.8.8,0,0,1,1.131-.013.8.8,0,0,1,.013,1.131l-4.729,4.841,4.729,4.841a.8.8,0,0,1-.013,1.131A.8.8,0,0,1-1931.06-2569.19Z" transform="translate(2617.39 -1895.66) rotate(-90)" fill="#333"/></g><g transform="translate(62)"><g fill="none" stroke="#ef5350" stroke-width="1" opacity="0.8"><circle cx="8" cy="8" r="8" stroke="none"/><circle cx="8" cy="8" r="7.5" fill="none"/></g><path d="M2.736-8.5H.936L1.08-2.544H2.592ZM.864-.888a.952.952,0,0,0,.277.708A.952.952,0,0,0,1.848.1a1,1,0,0,0,.984-.984.991.991,0,0,0-.984-.96.946.946,0,0,0-.7.267.946.946,0,0,0-.287.689Z" transform="translate(6.137 12.496)" fill="#ef5350"/></g><g transform="translate(80)"><g fill="none" stroke="#949494" stroke-width="1" opacity="0.8"><circle cx="8" cy="8" r="8" stroke="none"/><circle cx="8" cy="8" r="7.5" fill="none"/></g><path d="M.672,0H2.4V-6.36H.672Zm-.1-8.088a.934.934,0,0,0,.96.888.913.913,0,0,0,.936-.888.893.893,0,0,0-.287-.628.893.893,0,0,0-.649-.236.915.915,0,0,0-.956.864Z" transform="translate(6.476 12.477)" fill="#949494"/></g><g transform="translate(11 -24)"><rect width="20" height="20" transform="translate(87 24)" fill="none"/><g transform="translate(89.5 26)"><path d="M450.38,864.778H436.918a.767.767,0,0,1-.769-.766v-12.8a.768.768,0,0,1,.769-.766H450.38a.768.768,0,0,1,.769.766v12.8a.767.767,0,0,1-.769.766Zm-12.692-1.531h11.923V851.974H437.687Z" transform="translate(-436.149 -848.778)" fill="#363636"/><path d="M450.38,856.743H436.918a.8.8,0,0,1,0-1.6H450.38a.8.8,0,0,1,0,1.6Z" transform="translate(-436.149 -849.008)" fill="#363636"/><path d="M440.767,854.1a.8.8,0,0,1-.8-.8v-2.714a.8.8,0,0,1,1.6,0V853.3a.8.8,0,0,1-.8.8Z" transform="translate(-436.313 -849.778)" fill="#363636"/><path d="M447.131,854.092a.8.8,0,0,1-.8-.8v-2.714a.8.8,0,0,1,1.6,0v2.714a.8.8,0,0,1-.8.8Z" transform="translate(-436.585 -849.778)" fill="#363636"/><circle cx="1" cy="1" r="1" transform="translate(6.333 9.831)" fill="#363636"/><circle cx="1" cy="1" r="1" transform="translate(3.333 9.831)" fill="#363636"/><circle cx="1" cy="1" r="1" transform="translate(9.333 9.831)" fill="#363636"/></g></g><g transform="translate(25 -24)"><rect width="20" height="20" transform="translate(127 24)" fill="none"/><path d="M-1931.06-2569.19a.8.8,0,0,1-.572-.241l-5.275-5.4a.8.8,0,0,1,0-1.118l5.275-5.4a.8.8,0,0,1,1.131-.013.8.8,0,0,1,.013,1.131l-4.729,4.841,4.729,4.841a.8.8,0,0,1-.013,1.131A.8.8,0,0,1-1931.06-2569.19Z" transform="translate(2712.39 -1899.698) rotate(-90)" fill="#333"/></g><g transform="translate(137 -1)"><rect width="12" height="12" transform="translate(1 1)" fill="rgba(255,255,255,0)"/><path d="M-5815.517-1641.15a1,1,0,0,1-.707-.293l-3.41-3.411a1,1,0,0,1,0-1.414,1,1,0,0,1,1.414,0l2.712,2.713,4.95-4.824a1,1,0,0,1,1.414.018,1,1,0,0,1-.019,1.414l-5.657,5.513A1,1,0,0,1-5815.517-1641.15Z" transform="translate(5821.227 1652.412)" fill="#fff"/></g><g transform="translate(120.8 0.8)"><rect width="16" height="16" transform="translate(-0.8 -0.8)" fill="rgba(255,255,255,0)"/><path d="M-5814.835-1640.047a1,1,0,0,1-.707-.293l-4.092-4.093a1,1,0,0,1,0-1.414,1,1,0,0,1,1.414,0l3.394,3.395,6.081-5.926a1,1,0,0,1,1.414.018,1,1,0,0,1-.019,1.414l-6.788,6.615A1,1,0,0,1-5814.835-1640.047Z" transform="translate(5820.486 1651.862)" fill="#fff"/></g><g transform="translate(174)"><rect width="16" height="16" fill="red" opacity="0"/><g transform="translate(-6.898 -5.238)"><path d="M10.547.625H0A.625.625,0,0,1-.625,0,.625.625,0,0,1,0-.625H10.547A.625.625,0,0,1,11.172,0,.625.625,0,0,1,10.547.625Z" transform="translate(9.6 10.598)" fill="#353535"/><path d="M10.547.625H0A.625.625,0,0,1-.625,0,.625.625,0,0,1,0-.625H10.547A.625.625,0,0,1,11.172,0,.625.625,0,0,1,10.547.625Z" transform="translate(9.6 15.871)" fill="#353535"/><circle cx="2.109" cy="2.109" r="2.109" transform="translate(14.346 8.488)" fill="#fff"/><path d="M2.109,1.25a.859.859,0,1,0,.859.859.86.86,0,0,0-.859-.859m0-1.25A2.109,2.109,0,1,1,0,2.109,2.109,2.109,0,0,1,2.109,0Z" transform="translate(14.346 8.488)" fill="#353535"/><circle cx="2.109" cy="2.109" r="2.109" transform="translate(11.182 13.762)" fill="#fff"/><path d="M2.109,1.25a.859.859,0,1,0,.859.859.86.86,0,0,0-.859-.859m0-1.25A2.109,2.109,0,1,1,0,2.109,2.109,2.109,0,0,1,2.109,0Z" transform="translate(11.182 13.762)" fill="#353535"/></g></g><g transform="translate(192)"><rect width="16" height="16" fill="red" opacity="0"/><g transform="translate(3.986 2.986)"><path d="M2.987,11.175a.625.625,0,0,1-.625-.625V1.472l-.928.9a.625.625,0,1,1-.868-.9L2.553-.45a.625.625,0,0,1,.678-.126A.625.625,0,0,1,3.612,0V10.55A.625.625,0,0,1,2.987,11.175Z" transform="translate(-0.909 -0.263)" fill="#353535"/><path d="M1.987,11.175a.625.625,0,0,1-.625-.625V1.472l-.928.9A.625.625,0,0,1-.45,2.352a.625.625,0,0,1,.016-.884L1.553-.45a.625.625,0,0,1,.678-.126A.625.625,0,0,1,2.612,0V10.55A.625.625,0,0,1,1.987,11.175Z" transform="translate(7.938 10.288) rotate(180)" fill="#353535"/></g></g><g transform="translate(22 24)"><path d="M0,0H24V24H0Z" fill="none"/><path d="M4.25,8.128H11.8" transform="translate(6.125 0.939)" fill="none" stroke="#fff" stroke-linecap="round" stroke-width="1.5"/><path d="M4.25,8.128h7.432" transform="translate(1.881 6.808)" fill="none" stroke="#fff" stroke-linecap="round" stroke-width="1.5"/><g transform="translate(5 6)" fill="none" stroke="#fff" stroke-width="1.5"><circle cx="3" cy="3" r="3" stroke="none"/><circle cx="3" cy="3" r="2.25" fill="none"/></g><g transform="translate(13 12)" fill="none" stroke="#fff" stroke-width="1.5"><circle cx="3" cy="3" r="3" stroke="none"/><circle cx="3" cy="3" r="2.25" fill="none"/></g></g><g transform="translate(210)"><rect width="16" height="16" fill="rgba(255,255,255,0)"/><path d="M2579.613-8087l4.4,4.4,4.4-4.4" transform="translate(8093 2591.912) rotate(-90)" fill="none" stroke="#353535" stroke-linecap="round" stroke-linejoin="round" stroke-width="1.6"/></g><g transform="translate(0 -10)"><rect width="20" height="20" transform="translate(48 34)" fill="none"/><path d="M-3129.216-2594.826a1.2,1.2,0,0,1-.849-.351l-4.784-4.784a1.2,1.2,0,0,1,0-1.7,1.2,1.2,0,0,1,1.7,0l3.935,3.936,7.109-7.11a1.2,1.2,0,0,1,1.7,0,1.2,1.2,0,0,1,0,1.7l-7.958,7.958A1.2,1.2,0,0,1-3129.216-2594.826Z" transform="translate(3185.629 2643.972)" fill="#695ede"/></g><g transform="translate(70 24)"><rect width="24" height="24" transform="translate(24) rotate(90)" fill="#fff" opacity="0"/><path d="M-1930.333-2567.79a1,1,0,0,1-.707-.293l-6-6a1,1,0,0,1-.293-.707,1,1,0,0,1,.293-.707l6-6a1,1,0,0,1,1.414,0,1,1,0,0,1,0,1.414l-5.293,5.293,5.293,5.293a1,1,0,0,1,0,1.414A1,1,0,0,1-1930.333-2567.79Z" transform="translate(1945.333 2586.789)" fill="#353535"/></g><g transform="translate(96 24)"><g transform="translate(9058 20445)"><rect width="24" height="24" transform="translate(-9034 -20445) rotate(90)" fill="#fff" opacity="0"/><path d="M-9040-20437.508h-14a1,1,0,0,1-1-1,1,1,0,0,1,1-1h14a1,1,0,0,1,1,1A1,1,0,0,1-9040-20437.508Z" transform="translate(1 0.008)" fill="#353535"/><path d="M-9040-20437.508h-14a1,1,0,0,1-1-1,1,1,0,0,1,1-1h14a1,1,0,0,1,1,1A1,1,0,0,1-9040-20437.508Z" transform="translate(1 5.508)" fill="#353535"/><path d="M-9043.311-20437.508H-9054a1,1,0,0,1-1-1,1,1,0,0,1,1-1h10.689a1,1,0,0,1,1,1A1,1,0,0,1-9043.311-20437.508Z" transform="translate(1 11.008)" fill="#353535"/></g></g><g transform="translate(228)"><rect width="16" height="16" fill="#fff" opacity="0"/><g transform="translate(5552 19837)"><g transform="translate(-5552 -19837)" fill="none" stroke="#949494" stroke-width="1" opacity="0.8"><circle cx="8" cy="8" r="8" stroke="none"/><circle cx="8" cy="8" r="7.5" fill="none"/></g><path d="M2.257-2.753v.124H3.844v-.124a1.722,1.722,0,0,1,.992-1.662A2.31,2.31,0,0,0,6.15-6.522c0-1.488-1.19-2.368-2.877-2.356a2.531,2.531,0,0,0-2.852,2.5H2.133A1.1,1.1,0,0,1,3.249-7.465,1.01,1.01,0,0,1,4.315-6.448c0,.558-.4.93-.918,1.265C2.666-4.724,2.257-4.266,2.257-2.753ZM2.083-.918A.984.984,0,0,0,3.1.1,1.029,1.029,0,0,0,4.117-.918,1.025,1.025,0,0,0,3.1-1.91.978.978,0,0,0,2.083-.918Z" transform="translate(-5547.5 -19824.5)" fill="#949494"/></g></g><g transform="translate(0 24)"><rect width="20" height="20" fill="#fff" opacity="0"/><g transform="translate(2 2)"><path d="M856.617,597.43a5.72,5.72,0,1,1-5.72,5.72,5.726,5.726,0,0,1,5.72-5.72m0-1.43a7.15,7.15,0,1,0,7.15,7.15,7.15,7.15,0,0,0-7.15-7.15Z" transform="translate(-849.467 -596)" fill="#353535"/><path d="M864.467,611.7a.7.7,0,0,1-.495-.205l-3.367-3.366a.7.7,0,0,1,.991-.99l3.366,3.366a.7.7,0,0,1-.495,1.2Z" transform="translate(-849.167 -595.7)" fill="#353535"/></g></g><g transform="translate(251 5)"><circle cx="8" cy="8" r="8" transform="translate(-5 -5)" fill="#dbdbdb"/><path d="M4.775,0,0,4.775" transform="translate(2.999 6.376) rotate(-135)" fill="none" stroke="#fff" stroke-linecap="round" stroke-linejoin="round" stroke-width="1.6"/><path d="M4.775,0,0,4.775" transform="translate(6.376 2.999) rotate(135)" fill="none" stroke="#fff" stroke-linecap="round" stroke-linejoin="round" stroke-width="1.6"/></g><g transform="translate(264)"><rect width="16" height="16" fill="rgba(255,255,255,0)"/><path d="M4.4,5.2a.8.8,0,0,1-.566-.234l-4.4-4.4a.8.8,0,0,1,0-1.131.8.8,0,0,1,1.131,0L4.4,3.269,8.234-.566a.8.8,0,0,1,1.131,0,.8.8,0,0,1,0,1.131l-4.4,4.4A.8.8,0,0,1,4.4,5.2Z" transform="translate(5.8 12.4) rotate(-90)" fill="#353535"/></g><g transform="translate(-161 -34)"><rect width="56" height="56" transform="translate(161 85)" fill="none"/><g transform="translate(179 103)"><path d="M-20513.355-21934.764a1.4,1.4,0,0,1-1.4-1.4v-20a1.4,1.4,0,0,1,1.4-1.4,1.4,1.4,0,0,1,1.4,1.4v20A1.4,1.4,0,0,1-20513.355-21934.764Z" transform="translate(20523.355 21956.164)" fill="#fff"/><path d="M0,21.4A1.4,1.4,0,0,1-1.4,20V0A1.4,1.4,0,0,1,0-1.4,1.4,1.4,0,0,1,1.4,0V20A1.4,1.4,0,0,1,0,21.4Z" transform="translate(20 10) rotate(90)" fill="#fff"/></g></g><g transform="translate(122 24)"><rect width="24" height="24" fill="#fff" opacity="0"/><g transform="translate(17199 22678)"><path d="M-17190.678-22648.381h12" transform="translate(-2.323 -23.618)" fill="none" stroke="#353535" stroke-linecap="round" stroke-width="2"/><path d="M-17190.678-22648.381h12" transform="translate(-2.323 -17.618)" fill="none" stroke="#353535" stroke-linecap="round" stroke-width="2"/><path d="M-17190.678-22648.381h12" transform="translate(-2.323 -11.618)" fill="none" stroke="#353535" stroke-linecap="round" stroke-width="2"/></g></g><g transform="translate(159 24)"><rect width="20" height="20" fill="#fff" opacity="0"/><g transform="translate(2 2)"><path d="M856.617,597.43a5.72,5.72,0,1,1-5.72,5.72,5.726,5.726,0,0,1,5.72-5.72m0-1.43a7.15,7.15,0,1,0,7.15,7.15,7.15,7.15,0,0,0-7.15-7.15Z" transform="translate(-849.467 -596)" fill="#353535"/><path d="M864.467,611.7a.7.7,0,0,1-.495-.205l-3.367-3.366a.7.7,0,0,1,.991-.99l3.366,3.366a.7.7,0,0,1-.495,1.2Z" transform="translate(-849.167 -595.7)" fill="#353535"/></g></g><g transform="translate(298) rotate(90)"><rect width="16" height="16" fill="rgba(255,255,255,0)"/><path d="M4.4,5.2a.8.8,0,0,1-.566-.234l-4.4-4.4a.8.8,0,0,1,0-1.131.8.8,0,0,1,1.131,0L4.4,3.269,8.234-.566a.8.8,0,0,1,1.131,0,.8.8,0,0,1,0,1.131l-4.4,4.4A.8.8,0,0,1,4.4,5.2Z" transform="translate(5.8 12.4) rotate(-90)" fill="#353535"/></g><g transform="translate(-61 -53)"><rect width="16" height="16" transform="translate(242 77)" fill="none"/><g transform="translate(242 76.75)"><path d="M6.885,14.964a.75.75,0,0,1-.551-1.258l4.973-5.4a.75.75,0,0,1,1.1,0l5.027,5.4a.75.75,0,0,1-1.1,1.022L11.861,9.918l-4.424,4.8A.748.748,0,0,1,6.885,14.964Z" transform="translate(-3.885 -4.5)"/><path d="M17.163,10.665h-12a.75.75,0,1,1,0-1.5h12a.75.75,0,0,1,0,1.5Z" transform="translate(-3.163 -7.915)"/><path d="M15.163,10.665h-10a.75.75,0,1,1,0-1.5h10a.75.75,0,1,1,0,1.5Z" transform="translate(17.915 -0.663) rotate(90)"/></g></g><g transform="translate(-6 -51)"><rect width="16" height="16" transform="translate(205 75)" fill="none"/><g transform="translate(205 75)"><path d="M0,8.8a.8.8,0,0,1-.566-.234.8.8,0,0,1,0-1.131l8-8a.8.8,0,0,1,1.131,0,.8.8,0,0,1,0,1.131l-8,8A.8.8,0,0,1,0,8.8Z" transform="translate(12 12) rotate(180)" fill="#353535"/><path d="M0,8.8a.8.8,0,0,1-.566-.234.8.8,0,0,1,0-1.131l8-8a.8.8,0,0,1,1.131,0,.8.8,0,0,1,0,1.131l-8,8A.8.8,0,0,1,0,8.8Z" transform="translate(12 4) rotate(90)" fill="#353535"/></g></g><g transform="translate(58 51)"><path d="M0,0H20V20H0Z" fill="rgba(255,0,0,0.3)"/><g transform="translate(1 1.004)" clip-path="url(#a)"><path d="M0,8.977C0,6.548-.011,4.119.017,1.69A1.683,1.683,0,0,1,.833.326,1.869,1.869,0,0,1,1.9,0H15.973a1.883,1.883,0,0,1,1.908,1.307A2.21,2.21,0,0,1,18,2.018Q18,9,18,15.974a1.914,1.914,0,0,1-1.438,1.952,1.39,1.39,0,0,1-.4.064H1.762a1.821,1.821,0,0,1-1.64-1.234A2.192,2.192,0,0,1,0,15.983V8.977m16.651,4.245.058-.042V2.018c0-.476-.216-.73-.761-.731q-6.966,0-13.934,0a.67.67,0,0,0-.731.734c.014,3.734.008,7.469.008,11.2v.2c.148-.114.277-.21.4-.31.5-.4,1-.811,1.5-1.212.567-.453,1.141-.9,1.708-1.352s1.124-.925,1.7-1.371a.67.67,0,0,1,.951.035c.352.3.7.609,1.041.917.552.495,1.1.994,1.652,1.489.162.145.328.285.5.415a.188.188,0,0,0,.175,0c.693-.51,1.387-1.02,2.069-1.545a.7.7,0,0,1,1.04.061q1.212,1.2,2.414,2.413c.079.079.144.172.216.258M7.033,10.48,5.7,11.557q-.628.506-1.258,1.009-.76.606-1.522,1.208c-.441.35-.889.691-1.319,1.053-.137.115-.355.179-.317.452a6.121,6.121,0,0,1,.008.8.587.587,0,0,0,.621.627h14.11a.641.641,0,0,0,.648-.521c.012-.364.028-.728.036-1.093a.189.189,0,0,0-.061-.116q-1.552-1.556-3.107-3.11a.153.153,0,0,0-.24-.012c-.24.19-.491.366-.735.551s-.5.384-.761.583c.2.184.386.354.573.523.265.239.517.5.8.71a.688.688,0,0,1,.288.643.632.632,0,0,1-.974.447c-.135-.1-.257-.228-.385-.342l-1.752-1.55c-.262-.233-.52-.47-.782-.7Q8.7,11.95,7.834,11.183c-.267-.236-.535-.47-.8-.707" transform="translate(-0.001)" fill="#353535"/><path d="M180.1,50.732a2.566,2.566,0,1,1,2.575,2.556,2.565,2.565,0,0,1-2.575-2.556m1.286-.016a1.279,1.279,0,1,0,2.558,0,1.249,1.249,0,0,0-1.335-1.283,1.231,1.231,0,0,0-1.223,1.279" transform="translate(-170.455 -45.573)" fill="#353535"/></g></g><g transform="translate(217 24)"><rect width="20" height="20" fill="#fff" opacity="0"/><g transform="translate(4 4)"><path d="M12,0,0,12" transform="translate(12 12) rotate(180)" fill="none" stroke="#353535" stroke-linecap="round" stroke-linejoin="round" stroke-width="1.6"/><path d="M12,0,0,12" transform="translate(12 0) rotate(90)" fill="none" stroke="#353535" stroke-linecap="round" stroke-linejoin="round" stroke-width="1.6"/></g></g></svg>