<svg xmlns="http://www.w3.org/2000/svg" width="154.001" height="94" viewBox="0 0 154.001 94"><g transform="translate(130.001)"><path d="M0,0H24V24H0Z" fill="none" opacity="0.24"/><path d="M222.984,600.565c0,2.054,2.207,3.5,4,3.5s4-1.446,4-3.5Z" transform="translate(-214.985 -582.066)" fill="none" stroke="#363636" stroke-linecap="round" stroke-linejoin="round" stroke-width="2"/><path d="M226.736,585.439a6.744,6.744,0,0,0-6.467,6.673v4.674a1.475,1.475,0,0,1-.393,1l-1.529,2a.327.327,0,0,0-.062.417.512.512,0,0,0,.435.227h16.032a.516.516,0,0,0,.438-.231.326.326,0,0,0-.066-.412l-1.528-2a1.47,1.47,0,0,1-.394-1v-4.674a6.744,6.744,0,0,0-6.466-6.674Z" transform="translate(-214.735 -581.939)" fill="none" stroke="#363636" stroke-width="2"/><path d="M0,1V0" transform="translate(12 2)" fill="none" stroke="#363636" stroke-linecap="round" stroke-width="2"/></g><rect width="24" height="24" transform="translate(78)" fill="none"/><path d="M12,2V14.517L8.269,11.454,7,10.412,5.731,11.454,2,14.517V2Zm0-2H2A2,2,0,0,0,0,2V14.554A1.995,1.995,0,0,0,2.992,16.29L7,13l4.008,3.29A1.993,1.993,0,0,0,14,14.557V2a2,2,0,0,0-2-2" transform="translate(83.002 3.721)" fill="#363636"/><rect width="24" height="24" transform="translate(26)" fill="none"/><g transform="translate(26 0.5)"><path d="M2,0H9a2,2,0,0,1,2,2V19H2a2,2,0,0,1-2-2V2A2,2,0,0,1,2,0Z" transform="translate(2 2)" fill="#fff"/><path d="M2,1H9a1,1,0,0,1,1,1V18H2a1,1,0,0,1-1-1V2A1,1,0,0,1,2,1Z" transform="translate(2 2)" fill="none" stroke="#363636" stroke-width="2"/><g transform="translate(11 8)" fill="#fff" stroke="#363636" stroke-width="2"><rect width="11" height="13" rx="2" stroke="none"/><rect x="1" y="1" width="9" height="11" rx="1" fill="none"/></g><path d="M0,0H3" transform="translate(6 9.5)" fill="none" stroke="#363636" stroke-linecap="round" stroke-width="1.5"/><path d="M0,0H3" transform="translate(6 13.5)" fill="none" stroke="#363636" stroke-linecap="round" stroke-width="1.5"/></g><rect width="24" height="24" fill="none"/><path d="M8,2l6,5.061V15.7H11.25v-3a3,3,0,0,0-3-3h-.5a3,3,0,0,0-3,3v3H2V7.061L8,2M8,0A2,2,0,0,0,6.71.471l-6,5.062A2,2,0,0,0,0,7.061v9.675A.982.982,0,0,0,1,17.7H6.75v-5a1,1,0,0,1,1-1h.5a1,1,0,0,1,1,1v5H15a.982.982,0,0,0,1-.964V7.061a2,2,0,0,0-.71-1.528L9.29.471A2,2,0,0,0,8,0" transform="translate(4 3.15)" fill="#363636"/><rect width="24" height="24" transform="translate(104)" fill="none"/><g transform="translate(104)"><circle cx="1" cy="1" r="1" transform="translate(4 5.5)" fill="#363636"/><circle cx="1" cy="1" r="1" transform="translate(4 11)" fill="#363636"/><circle cx="1" cy="1" r="1" transform="translate(4 16.5)" fill="#363636"/><rect width="12" height="2" rx="1" transform="translate(8 5.5)" fill="#363636"/><rect width="12" height="2" rx="1" transform="translate(8 11)" fill="#363636"/><rect width="12" height="2" rx="1" transform="translate(8 16.5)" fill="#363636"/></g><g transform="translate(52)"><rect width="24" height="24" fill="#ff6a6a" opacity="0"/><path d="M14.941,9.1a.341.341,0,0,1,.174.047l2.862,7.92a.293.293,0,0,1-.147.033H2.17a.293.293,0,0,1-.147-.033l2.854-7.9A.256.256,0,0,1,5.06,9.1Zm0-2H5.06A2.162,2.162,0,0,0,3,8.468l-2.89,8A2.03,2.03,0,0,0,2.17,19.1H17.83a2.031,2.031,0,0,0,2.057-2.632l-2.89-8A2.162,2.162,0,0,0,14.941,7.1" transform="translate(2 1)" fill="#363636" stroke="rgba(0,0,0,0)" stroke-width="1"/><path d="M10.2,12.876a.144.144,0,0,1-.139-.088L7.431,7.495A5.8,5.8,0,0,1,6.57,4.66a3.626,3.626,0,1,1,7.251,0,5.689,5.689,0,0,1-.826,2.771l-2.661,5.357a.143.143,0,0,1-.138.088" transform="translate(2 1)" fill="#fff"/><path d="M10.2,2a2.645,2.645,0,0,1,2.625,2.661,4.742,4.742,0,0,1-.687,2.263l-.037.062-.031.064L10.2,10.817,8.326,7.051,8.3,6.986l-.038-.062a4.751,4.751,0,0,1-.686-2.263A2.645,2.645,0,0,1,10.2,2m0-2A4.643,4.643,0,0,0,5.571,4.661,6.7,6.7,0,0,0,6.535,7.94l2.626,5.292a1.152,1.152,0,0,0,2.068,0l2.627-5.293a6.691,6.691,0,0,0,.965-3.278A4.643,4.643,0,0,0,10.2,0" transform="translate(2 1)" fill="#363636"/><path d="M10.2,3.725a1,1,0,1,0,1,1,1,1,0,0,0-1-1" transform="translate(2 1)" fill="#363636"/></g><g transform="translate(0 26)"><rect width="24" height="24" transform="translate(78)" fill="none"/><path d="M12,2V14.517L8.269,11.454,7,10.412,5.731,11.454,2,14.517V2Zm0-2H2A2,2,0,0,0,0,2V14.554A1.995,1.995,0,0,0,2.992,16.29L7,13l4.008,3.29A1.993,1.993,0,0,0,14,14.557V2a2,2,0,0,0-2-2" transform="translate(83.002 3.721)" fill="#6c5ae6"/></g><g transform="translate(0 26)"><rect width="24" height="24" transform="translate(26)" fill="none"/><g transform="translate(26 0.5)"><path d="M2,0H9a2,2,0,0,1,2,2V19H2a2,2,0,0,1-2-2V2A2,2,0,0,1,2,0Z" transform="translate(2 2)" fill="#fff"/><path d="M2,1H9a1,1,0,0,1,1,1V18H2a1,1,0,0,1-1-1V2A1,1,0,0,1,2,1Z" transform="translate(2 2)" fill="none" stroke="#6c5ae6" stroke-width="2"/><g transform="translate(11 8)" fill="#fff" stroke="#6c5ae6" stroke-width="2"><rect width="11" height="13" rx="2" stroke="none"/><rect x="1" y="1" width="9" height="11" rx="1" fill="none"/></g><path d="M0,0H3" transform="translate(6 9.5)" fill="none" stroke="#6c5ae6" stroke-linecap="round" stroke-width="1.5"/><path d="M0,0H3" transform="translate(6 13.5)" fill="none" stroke="#6c5ae6" stroke-linecap="round" stroke-width="1.5"/></g></g><g transform="translate(0 26)"><rect width="24" height="24" fill="none"/><path d="M8,2l6,5.061V15.7H11.25v-3a3,3,0,0,0-3-3h-.5a3,3,0,0,0-3,3v3H2V7.061L8,2M8,0A2,2,0,0,0,6.71.471l-6,5.062A2,2,0,0,0,0,7.061v9.675A.982.982,0,0,0,1,17.7H6.75v-5a1,1,0,0,1,1-1h.5a1,1,0,0,1,1,1v5H15a.982.982,0,0,0,1-.964V7.061a2,2,0,0,0-.71-1.528L9.29.471A2,2,0,0,0,8,0" transform="translate(4 3.15)" fill="#6c5ae6"/></g><g transform="translate(0 26)"><rect width="24" height="24" transform="translate(104)" fill="none"/><g transform="translate(104)"><circle cx="1" cy="1" r="1" transform="translate(4 5.5)" fill="#363636"/><circle cx="1" cy="1" r="1" transform="translate(4 11)" fill="#363636"/><circle cx="1" cy="1" r="1" transform="translate(4 16.5)" fill="#363636"/><rect width="12" height="2" rx="1" transform="translate(8 5.5)" fill="#363636"/><rect width="12" height="2" rx="1" transform="translate(8 11)" fill="#363636"/><rect width="12" height="2" rx="1" transform="translate(8 16.5)" fill="#363636"/></g></g><g transform="translate(52 26)"><rect width="24" height="24" fill="#ff6a6a" opacity="0"/><path d="M14.941,9.1a.341.341,0,0,1,.174.047l2.862,7.92a.293.293,0,0,1-.147.033H2.17a.293.293,0,0,1-.147-.033l2.854-7.9A.256.256,0,0,1,5.06,9.1Zm0-2H5.06A2.162,2.162,0,0,0,3,8.468l-2.89,8A2.03,2.03,0,0,0,2.17,19.1H17.83a2.031,2.031,0,0,0,2.057-2.632l-2.89-8A2.162,2.162,0,0,0,14.941,7.1" transform="translate(2 1)" fill="#6c5ae6" stroke="rgba(0,0,0,0)" stroke-width="1"/><path d="M10.2,12.876a.144.144,0,0,1-.139-.088L7.431,7.495A5.8,5.8,0,0,1,6.57,4.66a3.626,3.626,0,1,1,7.251,0,5.689,5.689,0,0,1-.826,2.771l-2.661,5.357a.143.143,0,0,1-.138.088" transform="translate(2 1)" fill="#fff"/><path d="M10.2,2a2.645,2.645,0,0,1,2.625,2.661,4.742,4.742,0,0,1-.687,2.263l-.037.062-.031.064L10.2,10.817,8.326,7.051,8.3,6.986l-.038-.062a4.751,4.751,0,0,1-.686-2.263A2.645,2.645,0,0,1,10.2,2m0-2A4.643,4.643,0,0,0,5.571,4.661,6.7,6.7,0,0,0,6.535,7.94l2.626,5.292a1.152,1.152,0,0,0,2.068,0l2.627-5.293a6.691,6.691,0,0,0,.965-3.278A4.643,4.643,0,0,0,10.2,0" transform="translate(2 1)" fill="#6c5ae6"/><path d="M10.2,3.725a1,1,0,1,0,1,1,1,1,0,0,0-1-1" transform="translate(2 1)" fill="#6c5ae6"/></g><rect width="20" height="20" transform="translate(88 52)" fill="none"/><rect width="20" height="20" transform="translate(0 52)" fill="none"/><path d="M3.542,2h.067l2.983.022a1.55,1.55,0,0,1,1.09.488l.857.916A5.017,5.017,0,0,0,12.19,5.011h3.291A2.522,2.522,0,0,1,18,7.53v6.916a2.522,2.522,0,0,1-2.519,2.519H4.519A2.522,2.522,0,0,1,2,14.446V3.544A1.545,1.545,0,0,1,3.542,2m0-2A3.544,3.544,0,0,0,0,3.544v10.9a4.519,4.519,0,0,0,4.519,4.519H15.481A4.519,4.519,0,0,0,20,14.446V7.53a4.519,4.519,0,0,0-4.519-4.519H12.19A3,3,0,0,1,10,2.061l-.857-.916A3.535,3.535,0,0,0,6.638.024L3.624,0H3.542" transform="translate(0 52.5)" fill="#353535"/><rect width="20" height="20" transform="translate(22 52)" fill="none"/><g transform="translate(22 52)"><path d="M15,2a1,1,0,0,1,1,1V18H4V3A1,1,0,0,1,5,2Zm0-2H5A3,3,0,0,0,2,3V18.935A1.065,1.065,0,0,0,3.065,20h13.87A1.065,1.065,0,0,0,18,18.935V3a3,3,0,0,0-3-3" fill="#353535"/><path d="M18,1H0A1,1,0,0,1-1,0,1,1,0,0,1,0-1H18a1,1,0,0,1,1,1A1,1,0,0,1,18,1Z" transform="translate(1 19)" fill="#353535"/><path d="M1.5,1H0A1,1,0,0,1-1,0,1,1,0,0,1,0-1H1.5a1,1,0,0,1,1,1A1,1,0,0,1,1.5,1Z" transform="translate(6.75 6)" fill="#353535"/><path d="M1.5,1H0A1,1,0,0,1-1,0,1,1,0,0,1,0-1H1.5a1,1,0,0,1,1,1A1,1,0,0,1,1.5,1Z" transform="translate(11.75 6)" fill="#353535"/><path d="M1.5,1H0A1,1,0,0,1-1,0,1,1,0,0,1,0-1H1.5a1,1,0,0,1,1,1A1,1,0,0,1,1.5,1Z" transform="translate(6.75 10)" fill="#353535"/><path d="M1.5,1H0A1,1,0,0,1-1,0,1,1,0,0,1,0-1H1.5a1,1,0,0,1,1,1A1,1,0,0,1,1.5,1Z" transform="translate(11.75 10)" fill="#353535"/></g><rect width="20" height="20" transform="translate(66 52)" fill="none"/><g transform="translate(-3333 -970)"><path d="M3-1H15a4,4,0,0,1,4,4V15a4,4,0,0,1-4,4H3a4,4,0,0,1-4-4V3A4,4,0,0,1,3-1ZM15,17a2,2,0,0,0,2-2V3a2,2,0,0,0-2-2H3A2,2,0,0,0,1,3V15a2,2,0,0,0,2,2Z" transform="translate(3400 1023)" fill="#353535"/><path d="M18,1H0A1,1,0,0,1-1,0,1,1,0,0,1,0-1H18a1,1,0,0,1,1,1A1,1,0,0,1,18,1Z" transform="translate(3400 1028)" fill="#353535"/><path d="M9.914,15.743a1,1,0,0,1-.707-.293l-2.53-2.53a1,1,0,0,1,1.414-1.414l1.823,1.823,2.863-2.864a1,1,0,1,1,1.414,1.414l-3.57,3.571A1,1,0,0,1,9.914,15.743Z" transform="translate(3399 1021)" fill="#353535"/></g><g transform="translate(-44)"><rect width="20" height="20" transform="translate(88 52)" fill="none"/><g transform="translate(88 52)"><path d="M17,1a1.019,1.019,0,0,1,1,1.035V13.177a1.02,1.02,0,0,1-1,1.036H6.895a5.725,5.725,0,0,0-2.174.426,3.621,3.621,0,0,0-1.109.727L2,16.88V2.035A1.019,1.019,0,0,1,3,1Zm0-2H3A3.018,3.018,0,0,0,0,2.035V16.974A2.014,2.014,0,0,0,2,19a1.969,1.969,0,0,0,.893-.216L4.98,16.823a1.654,1.654,0,0,1,.5-.332A3.74,3.74,0,0,1,6.9,16.213H17a3.018,3.018,0,0,0,3-3.036V2.035A3.018,3.018,0,0,0,17-1" transform="translate(0 1)" fill="#353535"/><path d="M6,6.867a1.25,1.25,0,1,0,1.25,1.25A1.25,1.25,0,0,0,6,6.867" transform="translate(0 0.633)" fill="#353535"/><path d="M10,6.867a1.25,1.25,0,1,0,1.25,1.25A1.25,1.25,0,0,0,10,6.867" transform="translate(0 0.633)" fill="#353535"/><path d="M14,6.867a1.25,1.25,0,1,0,1.25,1.25A1.25,1.25,0,0,0,14,6.867" transform="translate(0 0.633)" fill="#353535"/></g></g><rect width="20" height="20" transform="translate(88 74)" fill="none"/><g transform="translate(0 22)"><rect width="20" height="20" transform="translate(0 52)" fill="none"/><path d="M3.542,2h.067l2.983.022a1.55,1.55,0,0,1,1.09.488l.857.916A5.017,5.017,0,0,0,12.19,5.011h3.291A2.522,2.522,0,0,1,18,7.53v6.916a2.522,2.522,0,0,1-2.519,2.519H4.519A2.522,2.522,0,0,1,2,14.446V3.544A1.545,1.545,0,0,1,3.542,2m0-2A3.544,3.544,0,0,0,0,3.544v10.9a4.519,4.519,0,0,0,4.519,4.519H15.481A4.519,4.519,0,0,0,20,14.446V7.53a4.519,4.519,0,0,0-4.519-4.519H12.19A3,3,0,0,1,10,2.061l-.857-.916A3.535,3.535,0,0,0,6.638.024L3.624,0H3.542" transform="translate(0 52.5)" fill="#6c5ae6"/></g><g transform="translate(0 22)"><rect width="20" height="20" transform="translate(22 52)" fill="none"/><g transform="translate(22 52)"><path d="M15,2a1,1,0,0,1,1,1V18H4V3A1,1,0,0,1,5,2Zm0-2H5A3,3,0,0,0,2,3V18.935A1.065,1.065,0,0,0,3.065,20h13.87A1.065,1.065,0,0,0,18,18.935V3a3,3,0,0,0-3-3" fill="#6c5ae6"/><path d="M18,1H0A1,1,0,0,1-1,0,1,1,0,0,1,0-1H18a1,1,0,0,1,1,1A1,1,0,0,1,18,1Z" transform="translate(1 19)" fill="#6c5ae6"/><path d="M1.5,1H0A1,1,0,0,1-1,0,1,1,0,0,1,0-1H1.5a1,1,0,0,1,1,1A1,1,0,0,1,1.5,1Z" transform="translate(6.75 6)" fill="#6c5ae6"/><path d="M1.5,1H0A1,1,0,0,1-1,0,1,1,0,0,1,0-1H1.5a1,1,0,0,1,1,1A1,1,0,0,1,1.5,1Z" transform="translate(11.75 6)" fill="#6c5ae6"/><path d="M1.5,1H0A1,1,0,0,1-1,0,1,1,0,0,1,0-1H1.5a1,1,0,0,1,1,1A1,1,0,0,1,1.5,1Z" transform="translate(6.75 10)" fill="#6c5ae6"/><path d="M1.5,1H0A1,1,0,0,1-1,0,1,1,0,0,1,0-1H1.5a1,1,0,0,1,1,1A1,1,0,0,1,1.5,1Z" transform="translate(11.75 10)" fill="#6c5ae6"/></g></g><g transform="translate(0 22)"><rect width="20" height="20" transform="translate(66 52)" fill="none"/><g transform="translate(-3333 -970)"><path d="M3-1H15a4,4,0,0,1,4,4V15a4,4,0,0,1-4,4H3a4,4,0,0,1-4-4V3A4,4,0,0,1,3-1ZM15,17a2,2,0,0,0,2-2V3a2,2,0,0,0-2-2H3A2,2,0,0,0,1,3V15a2,2,0,0,0,2,2Z" transform="translate(3400 1023)" fill="#6c5ae6"/><path d="M18,1H0A1,1,0,0,1-1,0,1,1,0,0,1,0-1H18a1,1,0,0,1,1,1A1,1,0,0,1,18,1Z" transform="translate(3400 1028)" fill="#6c5ae6"/><path d="M9.914,15.743a1,1,0,0,1-.707-.293l-2.53-2.53a1,1,0,0,1,1.414-1.414l1.823,1.823,2.863-2.864a1,1,0,1,1,1.414,1.414l-3.57,3.571A1,1,0,0,1,9.914,15.743Z" transform="translate(3399 1021)" fill="#6c5ae6"/></g></g><g transform="translate(-44 22)"><rect width="20" height="20" transform="translate(88 52)" fill="none"/><g transform="translate(88 52)"><path d="M17,1a1.019,1.019,0,0,1,1,1.035V13.177a1.02,1.02,0,0,1-1,1.036H6.895a5.725,5.725,0,0,0-2.174.426,3.621,3.621,0,0,0-1.109.727L2,16.88V2.035A1.019,1.019,0,0,1,3,1Zm0-2H3A3.018,3.018,0,0,0,0,2.035V16.974A2.014,2.014,0,0,0,2,19a1.969,1.969,0,0,0,.893-.216L4.98,16.823a1.654,1.654,0,0,1,.5-.332A3.74,3.74,0,0,1,6.9,16.213H17a3.018,3.018,0,0,0,3-3.036V2.035A3.018,3.018,0,0,0,17-1" transform="translate(0 1)" fill="#6c5ae6"/><path d="M6,6.867a1.25,1.25,0,1,0,1.25,1.25A1.25,1.25,0,0,0,6,6.867" transform="translate(0 0.633)" fill="#6c5ae6"/><path d="M10,6.867a1.25,1.25,0,1,0,1.25,1.25A1.25,1.25,0,0,0,10,6.867" transform="translate(0 0.633)" fill="#6c5ae6"/><path d="M14,6.867a1.25,1.25,0,1,0,1.25,1.25A1.25,1.25,0,0,0,14,6.867" transform="translate(0 0.633)" fill="#6c5ae6"/></g></g><g transform="translate(90 55)"><rect width="20" height="20" transform="translate(-2 -3)" fill="#ff6a6a" opacity="0"/><path d="M2.066,0h9.77a1.066,1.066,0,1,1,0,2.133H2.066A1.066,1.066,0,1,1,2.066,0Z" transform="translate(3.098 0)"/><path d="M2.066,0h9.77a1.066,1.066,0,1,1,0,2.133H2.066A1.066,1.066,0,1,1,2.066,0Z" transform="translate(3.098 5.434)"/><path d="M2.066,0h9.77a1.066,1.066,0,1,1,0,2.133H2.066A1.066,1.066,0,1,1,2.066,0Z" transform="translate(3.098 10.867)"/><ellipse cx="1.066" cy="1.066" rx="1.066" ry="1.066" transform="translate(0 0)"/><ellipse cx="1.066" cy="1.066" rx="1.066" ry="1.066" transform="translate(0 5.434)"/><ellipse cx="1.066" cy="1.066" rx="1.066" ry="1.066" transform="translate(0 10.867)"/></g><g transform="translate(90 77)"><rect width="20" height="20" transform="translate(-2 -3)" fill="#6c5ae6" opacity="0"/><path d="M2.066,0h9.77a1.066,1.066,0,1,1,0,2.133H2.066A1.066,1.066,0,1,1,2.066,0Z" transform="translate(3.098 0)" fill="#6c5ae6"/><path d="M2.066,0h9.77a1.066,1.066,0,1,1,0,2.133H2.066A1.066,1.066,0,1,1,2.066,0Z" transform="translate(3.098 5.434)" fill="#6c5ae6"/><path d="M2.066,0h9.77a1.066,1.066,0,1,1,0,2.133H2.066A1.066,1.066,0,1,1,2.066,0Z" transform="translate(3.098 10.867)" fill="#6c5ae6"/><ellipse cx="1.066" cy="1.066" rx="1.066" ry="1.066" transform="translate(0 0)" fill="#6c5ae6"/><ellipse cx="1.066" cy="1.066" rx="1.066" ry="1.066" transform="translate(0 5.434)" fill="#6c5ae6"/><ellipse cx="1.066" cy="1.066" rx="1.066" ry="1.066" transform="translate(0 10.867)" fill="#6c5ae6"/></g></svg>