<svg xmlns="http://www.w3.org/2000/svg" width="24" height="24" viewBox="0 0 24 24">
    <g data-name="icon_24px_youtube" transform="translate(-101 -16)">
        <circle data-name="타원 199" cx="12" cy="12" r="12" transform="translate(101 16)" style="fill:#b7b7b7"/>
        <path data-name="패스 65386" d="M11.715 1.308A1.5 1.5 0 0 0 10.656.249 35.837 35.837 0 0 0 5.982 0a35.85 35.85 0 0 0-4.674.249A1.5 1.5 0 0 0 .249 1.308 15.605 15.605 0 0 0 0 4.187a15.6 15.6 0 0 0 .249 2.88 1.5 1.5 0 0 0 1.059 1.058 35.822 35.822 0 0 0 4.674.25 35.808 35.808 0 0 0 4.674-.25 1.5 1.5 0 0 0 1.058-1.058 15.615 15.615 0 0 0 .249-2.88 15.617 15.617 0 0 0-.249-2.88M4.787 5.982V2.393l3.108 1.794z" transform="translate(107.018 23.813)" style="fill:#fff"/>
    </g>
</svg>
