<svg xmlns="http://www.w3.org/2000/svg" width="40" height="40" viewBox="0 0 40 40">
    <path data-name="패스 65948" d="M36.787 7.58h-14V5.258A1.355 1.355 0 0 1 24.145 3.9h11.287a1.355 1.355 0 0 1 1.355 1.355z" transform="translate(-9.556 10.16)" style="fill:none;stroke:#707070;stroke-linecap:round;stroke-linejoin:round;stroke-width:1.5px"/>
    <path data-name="사각형 23062" transform="translate(4.884 17.74)" style="fill:none;stroke:#707070;stroke-linecap:round;stroke-linejoin:round;stroke-width:1.5px" d="M0 0h30.695v20.176H0z"/>
    <path data-name="패스 65950" d="M28.556 25.246H4.339c-1.789 0-3.239-1.134-3.239-2.532V11.955h30.695v10.759c0 1.398-1.45 2.532-3.239 2.532z" transform="translate(3.784 5.785)" style="fill:none;stroke:#707070;stroke-linecap:round;stroke-linejoin:round;stroke-width:1.5px"/>
    <path data-name="패스 65951" d="M14.208 53.995h0a1.253 1.253 0 0 1-1.253-1.253v-2.001c0-.011 2.52-.007 2.506.011v1.989a1.253 1.253 0 0 1-1.253 1.253" transform="translate(-1.672 -19.35)" style="fill:none;stroke:#707070;stroke-linecap:round;stroke-linejoin:round;stroke-width:1.5px"/>
    <path data-name="패스 65952" d="M14.208 53.995h0a1.253 1.253 0 0 1-1.253-1.253v-2.001c0-.011 2.52-.007 2.506.011v1.989a1.253 1.253 0 0 1-1.253 1.253" transform="translate(14.661 -19.35)" style="fill:none;stroke:#707070;stroke-linecap:round;stroke-linejoin:round;stroke-width:1.5px"/>
    <g>
        <path data-name="패스 65955" d="M2.734 8.993a.451.451 0 0 1-.155-.074.446.446 0 0 1-.163-.483l.693-2.39-1.942-1.557a.446.446 0 0 1 .265-.794l2.488-.079.88-2.328a.446.446 0 0 1 .837.007l.844 2.341 2.486.119a.438.438 0 0 1 .088.013.446.446 0 0 1 .164.785L7.255 6.079l.655 2.4a.446.446 0 0 1-.681.487L5.17 7.569 3.089 8.934a.446.446 0 0 1-.355.059z" transform="translate(1.5 .412)" style="fill:none;stroke:#707070;stroke-linecap:round;stroke-linejoin:round;stroke-width:1.5px"/>
        <path data-name="패스 65956" d="M2.734 8.993a.451.451 0 0 1-.155-.074.446.446 0 0 1-.163-.483l.693-2.39-1.942-1.557a.446.446 0 0 1 .265-.794l2.488-.079.88-2.328a.446.446 0 0 1 .837.007l.844 2.341 2.486.119a.438.438 0 0 1 .088.013.446.446 0 0 1 .164.785L7.255 6.079l.655 2.4a.446.446 0 0 1-.681.487L5.17 7.569 3.089 8.934a.446.446 0 0 1-.355.059z" transform="translate(28.5 .412)" style="fill:none;stroke:#707070;stroke-linecap:round;stroke-linejoin:round;stroke-width:1.5px"/>
        <path data-name="패스 66245" d="M2.734 8.993a.451.451 0 0 1-.155-.074.446.446 0 0 1-.163-.483l.693-2.39-1.942-1.557a.446.446 0 0 1 .265-.794l2.488-.079.88-2.328a.446.446 0 0 1 .837.007l.844 2.341 2.486.119a.438.438 0 0 1 .088.013.446.446 0 0 1 .164.785L7.255 6.079l.655 2.4a.446.446 0 0 1-.681.487L5.17 7.569 3.089 8.934a.446.446 0 0 1-.355.059z" transform="translate(14.5 .412)" style="fill:none;stroke:#707070;stroke-linecap:round;stroke-linejoin:round;stroke-width:1.5px"/>
    </g>
</svg>
