<svg xmlns="http://www.w3.org/2000/svg" width="24" height="24" viewBox="0 0 24 24">
    <path data-name="사각형 23030" transform="translate(2.28 9.494)" style="fill:none;stroke:#707070;stroke-linecap:round;stroke-linejoin:round;stroke-width:1.5px" d="M0 0h9.702v10.991H0z"/>
    <path data-name="사각형 23033" transform="translate(11.983 9.494)" style="fill:none;stroke:#707070;stroke-linecap:round;stroke-linejoin:round;stroke-width:1.5px" d="M0 0h9.702v10.991H0z"/>
    <path data-name="패스 65769" d="M18.053 15.367z" transform="translate(-3.653 -2.258)" style="fill:#fff"/>
    <path data-name="선 314" transform="translate(14.4 12.047)" style="fill:none;stroke:#707070;stroke-linecap:round;stroke-linejoin:round;stroke-width:1.5px" d="M0 0v1.062"/>
    <path data-name="패스 65770" d="M11.783 15.367z" transform="translate(-2.217 -2.258)" style="fill:#fff"/>
    <path data-name="선 315" transform="translate(9.565 12.047)" style="fill:none;stroke:#707070;stroke-linecap:round;stroke-linejoin:round;stroke-width:1.5px" d="M0 1.062V0"/>
    <path data-name="패스 65771" d="M2.333 27.172v-1.925h19.406v1.925" transform="translate(-.054 -4.766)" style="fill:none;stroke:#707070;stroke-linecap:round;stroke-linejoin:round;stroke-width:1.5px"/>
    <path data-name="패스 65772" d="M.75 10.992z" transform="translate(.309 -1.498)" style="fill:#fff"/>
    <path data-name="선 316" transform="translate(1.059 9.494)" style="fill:none;stroke:#707070;stroke-linecap:round;stroke-linejoin:round;stroke-width:1.5px" d="M0 0h21.848"/>
    <path data-name="패스 65774" d="M12.708 4.04V2.453a1.7 1.7 0 0 1 3.407 0v6.193" transform="translate(-2.429 .844)" style="fill:none;stroke:#707070;stroke-linecap:round;stroke-linejoin:round;stroke-width:1.5px"/>
</svg>
