<svg xmlns="http://www.w3.org/2000/svg" width="30" height="30" viewBox="0 0 30 30">
    <path data-name="패스 109" d="M282.22 755.609H263a.8.8 0 0 1-.786-.608l-2.648-11a.775.775 0 0 1 .153-.67.816.816 0 0 1 .633-.3h24.519a.816.816 0 0 1 .633.3.775.775 0 0 1 .153.67l-2.648 11a.8.8 0 0 1-.789.608zm-18.583-1.577h17.943l2.268-9.422h-22.48z" transform="translate(-257.608 -728.609)" style="fill:#648eff"/>
    <g data-name="그룹 65">
        <path data-name="선 4" d="m20.341 18.886-1.13 3.533"/>
        <path data-name="패스 110" d="M285.806 754.063a.776.776 0 0 1-.24-.038.788.788 0 0 1-.511-.991l1.13-3.533a.788.788 0 0 1 1.5.48l-1.13 3.533a.788.788 0 0 1-.749.549z" transform="translate(-266.594 -730.856)" style="fill:#648eff"/>
    </g>
    <g data-name="그룹 66">
        <path data-name="선 5" d="m10.789 22.419-1.13-3.533"/>
        <path data-name="패스 111" d="M272.135 754.063a.788.788 0 0 1-.75-.548l-1.13-3.533a.788.788 0 0 1 1.5-.48l1.13 3.533a.788.788 0 0 1-.511.991.776.776 0 0 1-.239.037z" transform="translate(-261.347 -730.856)" style="fill:#648eff"/>
    </g>
    <path data-name="패스 112" d="M284.022 742.628H258.93a2.431 2.431 0 0 1-2.454-2.4v-.156a2.431 2.431 0 0 1 2.454-2.4h25.092a2.431 2.431 0 0 1 2.454 2.4v.156a2.431 2.431 0 0 1-2.454 2.4zm-25.092-3.385a.836.836 0 0 0-.844.826v.156a.836.836 0 0 0 .844.826h25.092a.836.836 0 0 0 .844-.826v-.156a.836.836 0 0 0-.844-.826z" transform="translate(-256.476 -726.801)" style="fill:#648eff"/>
    <g data-name="그룹 67">
        <path data-name="선 6" d="M15 22.419v-3.533"/>
        <path data-name="패스 113" d="M279.3 754.063a.788.788 0 0 1-.788-.788v-3.533a.788.788 0 0 1 1.577 0v3.533a.789.789 0 0 1-.789.788z" transform="translate(-264.302 -730.856)" style="fill:#648eff"/>
    </g>
    <path data-name="패스 114" d="M269 734.707a.788.788 0 0 1-.691-1.166l4.219-7.743a.788.788 0 1 1 1.384.755L269.7 734.3a.788.788 0 0 1-.7.407z" transform="translate(-260.616 -722.388)" style="fill:#648eff"/>
    <path data-name="패스 115" d="M287.127 734.707a.788.788 0 0 1-.693-.411l-4.219-7.743a.788.788 0 0 1 1.384-.755l4.22 7.743a.788.788 0 0 1-.692 1.166z" transform="translate(-265.516 -722.388)" style="fill:#648eff"/>
</svg>
