<svg xmlns="http://www.w3.org/2000/svg" width="24" height="24" viewBox="0 0 24 24">
    <path data-name="패스 64168" d="M-.16 3.226 5.357.539" transform="translate(8.75 7)" style="stroke:#353535;stroke-linecap:round;stroke-width:2px;fill:none"/>
    <path data-name="패스 64167" d="m0 0 4.943 2.958" transform="translate(8.75 13.5)" style="stroke:#353535;stroke-linecap:round;stroke-width:2px;fill:none"/>
    <path data-name="패스 65780" d="M3 0a3 3 0 1 1-3 3 3 3 0 0 1 3-3z" transform="translate(14 3)" style="fill:rgba(255,255,255,.1);stroke:#353535;stroke-linecap:round;stroke-width:2px"/>
    <path data-name="패스 65781" d="M3 0a3 3 0 1 1-3 3 3 3 0 0 1 3-3z" transform="translate(14 15)" style="fill:rgba(255,255,255,.1);stroke:#353535;stroke-linecap:round;stroke-width:2px"/>
    <path data-name="패스 65782" d="M3 0a3 3 0 1 1-3 3 3 3 0 0 1 3-3z" transform="translate(3 9)" style="fill:rgba(255,255,255,.1);stroke:#353535;stroke-linecap:round;stroke-width:2px"/>
</svg>
