<svg xmlns="http://www.w3.org/2000/svg" width="40" height="40.39" viewBox="0 0 40 40.39">
    <path data-name="패스 65879" d="M-21012.5 12136.306h38.232" transform="translate(21013.5 -12096.666)" style="fill:none;stroke:#707070;stroke-linecap:round;stroke-width:1.5px"/>
    <path data-name="패스 66045" d="M28.1 14.549a13.55 13.55 0 1 0-24.6 7.817l9.131 12.753a2.367 2.367 0 0 0 3.849 0l9.131-12.753a13.471 13.471 0 0 0 2.489-7.817z" transform="translate(5.567 1.501)" style="stroke-linejoin:round;fill:none;stroke:#707070;stroke-linecap:round;stroke-width:1.5px"/>
    <path data-name="패스 66179" d="M47.3 6.949c-1.244 3.116-1.308 5.407.82 7.777v4.45a1.384 1.384 0 0 0 1.38 1.567 1.413 1.413 0 0 0 1.4-1.568V3.836a.847.847 0 0 0-1.555-.454L48.6 4.516a13.754 13.754 0 0 0-1.3 2.433z" transform="translate(-24.112 5.962)" style="stroke-linejoin:round;fill:none;stroke:#707070;stroke-linecap:round;stroke-width:1.5px"/>
    <path data-name="패스 66180" d="M9.335 3.045a1.268 1.268 0 0 0-1.257.992 1.293 1.293 0 0 0-2.515 0 1.268 1.268 0 0 0-1.257-.992A1.266 1.266 0 0 0 3 4.258v6.4a3.69 3.69 0 0 0 2.456 3.447v5.353a1.365 1.365 0 0 0 2.729 0v-5.35a3.69 3.69 0 0 0 2.456-3.447v-6.4a1.266 1.266 0 0 0-1.306-1.216z" transform="translate(9.462 5.928)" style="stroke-linejoin:round;fill:none;stroke:#707070;stroke-linecap:round;stroke-width:1.5px"/>
    <path data-name="선 410" transform="translate(15.026 9.966)" style="stroke-linejoin:round;fill:none;stroke:#707070;stroke-linecap:round;stroke-width:1.5px" d="M0 0v4.03"/>
    <path data-name="선 411" transform="translate(17.573 9.966)" style="stroke-linejoin:round;fill:none;stroke:#707070;stroke-linecap:round;stroke-width:1.5px" d="M0 0v4.03"/>
</svg>
