<svg xmlns="http://www.w3.org/2000/svg" width="24" height="24" viewBox="0 0 24 24">
    <path data-name="패스 65767" d="M12.074 7.686a34.28 34.28 0 0 0-3.538-4.329 1.946 1.946 0 1 0-1.813 1.284 12.082 12.082 0 0 0 1.662 3.045" transform="translate(-.152 1.249)" style="stroke-linecap:round;stroke-linejoin:round;fill:none;stroke:#fff;stroke-width:1.5px"/>
    <path data-name="패스 65768" d="M21.508 11.9c0 5.958-4.42 10.789-10.379 10.789S.75 17.853.75 11.9z" transform="translate(1.25 -2.644)" style="stroke-miterlimit:10;fill:none;stroke:#fff;stroke-width:1.5px"/>
    <path data-name="패스 65769" d="M18.411 27.925v2.416h-7.374V27.8" transform="translate(-2.345 -7.759)" style="stroke-linecap:round;stroke-linejoin:round;fill:none;stroke:#fff;stroke-width:1.5px"/>
    <path data-name="패스 65770" d="M17.432 17.077h-1.885v-1.886h-1.954v1.885h-1.885v1.954h1.885v1.885h1.954V19.03h1.885z" transform="translate(-2.191 -3.409)" style="fill:#fff"/>
</svg>
