<svg xmlns="http://www.w3.org/2000/svg" width="16" height="16" viewBox="0 0 16 16">
    <defs>
        <clipPath id="edvprevjaa">
            <path data-name="사각형 22961" style="fill:none" d="M0 0h16v16H0z"/>
        </clipPath>
    </defs>
    <path style="fill:none" d="M0 0h16v16H0z"/>
    <g data-name="그룹 21024">
        <g data-name="그룹 21023" style="clip-path:url(#edvprevjaa)">
            <path data-name="패스 65716" d="m10.1.29-1.4 1.4 2.1 2.1L9.4 5.2 7.3 3.1 5.9 4.5 9.4 8 8 9.4 4.5 5.9 3.1 7.3l2.1 2.1-1.4 1.4-2.1-2.1-1.4 1.4a.992.992 0 0 0 0 1.4l4.2 4.2a.992.992 0 0 0 1.4 0l9.81-9.8a.992.992 0 0 0 0-1.4L11.51.3a.992.992 0 0 0-1.4 0" style="fill:#353535"/>
        </g>
    </g>
</svg>
