<svg xmlns="http://www.w3.org/2000/svg" width="40" height="40" viewBox="0 0 40 40">
    <g data-name="icon">
        <g data-name="사각형 13580" style="stroke:#fff;stroke-width:1.5px;fill:none">
            <path d="M2 0h16a2 2 0 0 1 2 2v28H0V2a2 2 0 0 1 2-2z" style="stroke:none" transform="translate(10 5.001)"/>
            <path d="M2 .75h16A1.25 1.25 0 0 1 19.25 2v27.25H.75V2A1.25 1.25 0 0 1 2 .75z" style="fill:none" transform="translate(10 5.001)"/>
        </g>
        <g data-name="사각형 13585" style="stroke:#fff;stroke-width:1.5px;fill:none">
            <path d="M0 0h5a2 2 0 0 1 2 2v20a2 2 0 0 1-2 2H0V0z" style="stroke:none" transform="translate(28.5 11.002)"/>
            <path d="M.75.75H5A1.25 1.25 0 0 1 6.25 2v20A1.25 1.25 0 0 1 5 23.25H.75V.75z" style="fill:none" transform="translate(28.5 11.002)"/>
        </g>
        <g data-name="사각형 13586" style="stroke:#fff;stroke-width:1.5px;fill:none">
            <path d="M2 0h5v24H2a2 2 0 0 1-2-2V2a2 2 0 0 1 2-2z" style="stroke:none" transform="translate(4.501 11.002)"/>
            <path d="M2 .75h4.25v22.5H2A1.25 1.25 0 0 1 .75 22V2A1.25 1.25 0 0 1 2 .75z" style="fill:none" transform="translate(4.501 11.002)"/>
        </g>
        <g data-name="그룹 18032" transform="translate(5.003 10.003)">
            <rect data-name="사각형 13582" width="1.25" height="3.333" rx=".625" transform="translate(18.498)" style="fill:#fff"/>
            <rect data-name="사각형 13584" width="1.25" height="3.333" rx=".625" transform="translate(14.248)" style="fill:#fff"/>
            <rect data-name="사각형 13581" width="1.25" height="3.333" rx=".625" transform="translate(9.998)" style="fill:#fff"/>
        </g>
        <g data-name="그룹 18046" transform="translate(5.003 15.002)">
            <rect data-name="사각형 13582" width="1.25" height="3.333" rx=".625" transform="translate(18.498)" style="fill:#fff"/>
            <rect data-name="사각형 13584" width="1.25" height="3.333" rx=".625" transform="translate(14.248)" style="fill:#fff"/>
            <rect data-name="사각형 13581" width="1.25" height="3.333" rx=".625" transform="translate(9.998)" style="fill:#fff"/>
        </g>
        <g data-name="그룹 18047" transform="translate(5.003 20.001)">
            <rect data-name="사각형 13582" width="1.25" height="3.333" rx=".625" transform="translate(18.498)" style="fill:#fff"/>
            <rect data-name="사각형 13584" width="1.25" height="3.333" rx=".625" transform="translate(14.248)" style="fill:#fff"/>
            <rect data-name="사각형 13581" width="1.25" height="3.333" rx=".625" transform="translate(9.998)" style="fill:#fff"/>
        </g>
        <g data-name="사각형 13706" style="stroke:#fff;stroke-width:1.5px;fill:none">
            <path d="M2 0h4a2 2 0 0 1 2 2v8H0V2a2 2 0 0 1 2-2z" style="stroke:none" transform="translate(16.001 25.001)"/>
            <path d="M2 .75h4A1.25 1.25 0 0 1 7.25 2v7.25H.75V2A1.25 1.25 0 0 1 2 .75z" style="fill:none" transform="translate(16.001 25.001)"/>
        </g>
    </g>
</svg>
