<svg xmlns="http://www.w3.org/2000/svg" width="40" height="40" viewBox="0 0 40 40">
    <path data-name="패스 66270" d="M15.156 49.075s1.249-3.748-.978-5.052l-2.452-.551s-3.426-.746-2.988-3.516c0 0-.164.009.294-.73.874-1.291 2.056-1.5 2.389-2.046a5.061 5.061 0 0 1 6.017-3.8v-3.8s-.109-1.467 1.466-.6a15.205 15.205 0 0 1 6.573 10.375 36.012 36.012 0 0 1 .652 10.05" transform="translate(-.93 -11.085)" style="stroke-miterlimit:10;stroke-width:1.5px;stroke-linecap:square;stroke-linejoin:round;fill:none;stroke:#707070"/>
    <path data-name="선 428" transform="translate(13.493 26.737)" style="stroke-linecap:round;stroke-miterlimit:10;stroke-width:1.5px;fill:none;stroke:#707070" d="M0 0v.549"/>
    <path data-name="패스 66271" d="M11.1 17.036s.567-5.1-1.877-5.267c0 0-6.139.272-7.442-1.63A3.619 3.619 0 0 1 .75 7.423s-.109-2.5 6.464-2.879a1.143 1.143 0 0 0 .815-.706S9.108-.516 12.8-.787h4.79s-1.449.022.009 0 4.395.881 7.38 7.122c0 0 3.313 5.812-1.739 7.008 0 0-3.585.815-5.052-3.477a22.528 22.528 0 0 1-.6-4.509" transform="translate(2.774 3.296)" style="stroke-miterlimit:10;stroke-width:1.5px;fill:none;stroke:#707070"/>
    <path data-name="패스 66272" d="M59.281 42.126s-5.492-12.354-9.265-16.933" transform="translate(-22.348 -9.296)" style="stroke-miterlimit:10;stroke-width:1.5px;fill:none;stroke:#707070"/>
    <path data-name="선 429" transform="translate(14.409 7.671)" style="stroke-linecap:round;stroke-miterlimit:10;stroke-width:1.5px;fill:none;stroke:#707070" d="M0 0v.876"/>
    <path data-name="패스 66273" d="M-6623.239-20687.518h.424" transform="translate(6627.358 20697.003)" style="stroke-width:3.2px;stroke-linecap:round;fill:none;stroke:#707070"/>
    <path data-name="패스 66274" d="M-6623.239-20687.518h.424" transform="translate(6631.009 20715.482)" style="stroke-width:2.4px;stroke-linecap:round;fill:none;stroke:#707070"/>
</svg>
