<svg xmlns="http://www.w3.org/2000/svg" width="40" height="40" viewBox="0 0 40 40">
    <g data-name="icon / icon_24px_facility_medical">
        <path data-name="선 327" transform="translate(1 38)" style="stroke:#707070;stroke-width:1.5px;fill:none;stroke-linecap:round;stroke-linejoin:round" d="M0 0h38"/>
        <path data-name="사각형 23147" transform="translate(12 20)" style="stroke:#707070;stroke-width:1.5px;fill:none;stroke-linecap:round;stroke-linejoin:round" d="M0 0h4v7H0z"/>
        <path data-name="사각형 23151" transform="translate(22.001 20)" style="stroke:#707070;stroke-width:1.5px;fill:none;stroke-linecap:round;stroke-linejoin:round" d="M0 0h4v7H0z"/>
        <path data-name="패스 66393" d="M17.865.75 4.081 13.492v20.34h27.568v-20.34z" transform="translate(1.229 4.168)" style="stroke:#707070;stroke-width:1.5px;fill:none;stroke-linecap:round;stroke-linejoin:round"/>
        <path data-name="패스 66394" d="M34.661 15.728 17.706.75.75 15.728" transform="translate(1.25 4.168)" style="stroke:#707070;stroke-width:1.5px;fill:none;stroke-linecap:round;stroke-linejoin:round"/>
        <g data-name="그룹 21480">
            <path data-name="패스 66397" d="M6.75 12.75a6 6 0 1 1 6-6 6.006 6.006 0 0 1-6 6z" transform="translate(26.127 24.751)" style="fill:#f2f2f2;stroke-miterlimit:10;stroke:#707070;stroke-width:1.5px"/>
            <path data-name="패스 66398" d="M32.246 11.486V14.7h2.678" transform="translate(.627 16.94)" style="stroke:#707070;stroke-width:1.5px;fill:none;stroke-linecap:round;stroke-linejoin:round"/>
        </g>
    </g>
</svg>
