<svg xmlns="http://www.w3.org/2000/svg" width="24" height="24" viewBox="0 0 24 24">
    <g data-name="그룹 18068">
        <g data-name="그룹 81">
            <g data-name="패스 64100" style="stroke-miterlimit:10;fill:none">
                <path d="M6.988.625a3.927 3.927 0 0 0-2.615 1.012 11.3 11.3 0 0 0-3.7 7.339 7.145 7.145 0 0 0 1.553 5.369 6.041 6.041 0 0 0 4.6 2.291h.325a6.041 6.041 0 0 0 4.6-2.291A7.166 7.166 0 0 0 13.3 8.976a11.316 11.316 0 0 0-3.7-7.339A3.927 3.927 0 0 0 6.988.625z" style="stroke:none" transform="translate(9.386 .708)"/>
                <path d="M6.988 2.125c-.584 0-1.159.225-1.62.636-1.252 1.107-2.824 3.114-3.202 6.388v.005a5.63 5.63 0 0 0 1.222 4.238c.903 1.098 2.128 1.717 3.452 1.745h.296c1.324-.028 2.55-.647 3.454-1.746.958-1.162 1.405-2.707 1.225-4.24-.383-3.276-1.955-5.283-3.209-6.393a2.444 2.444 0 0 0-1.618-.633m0-1.5c.929 0 1.857.339 2.615 1.012 1.45 1.284 3.265 3.602 3.702 7.34.227 1.934-.343 3.895-1.558 5.368-1.19 1.446-2.82 2.26-4.596 2.292h-.326c-1.776-.032-3.406-.846-4.596-2.292C1.014 12.872.445 10.911.676 8.976c.432-3.737 2.246-6.055 3.697-7.339A3.927 3.927 0 0 1 6.988.625z" style="fill:#656565;stroke:none" transform="translate(9.386 .708)"/>
            </g>
        </g>
        <path data-name="선 259" transform="translate(1.381 22.63)" style="stroke:#656565;stroke-linecap:round;stroke-width:1.5px;fill:none" d="M0 0h20.394"/>
        <path data-name="패스 64101" d="M14.341 22.267V11.035l-1.95-3.847" transform="translate(2.034 .399)" style="stroke-linejoin:round;stroke:#656565;stroke-linecap:round;stroke-width:1.5px;fill:none"/>
        <g data-name="그룹 18067">
            <g data-name="그룹 18066">
                <g data-name="패스 64100" style="stroke-miterlimit:10;fill:none">
                    <path d="M5.786.625a3.186 3.186 0 0 0-2.121.821 9.161 9.161 0 0 0-3 5.952 5.8 5.8 0 0 0 1.26 4.354 4.9 4.9 0 0 0 3.728 1.858h.264a4.9 4.9 0 0 0 3.728-1.858A5.811 5.811 0 0 0 10.91 7.4a9.178 9.178 0 0 0-3-5.952A3.186 3.186 0 0 0 5.786.625z" style="stroke:none" transform="translate(.274 4.845)"/>
                    <path d="M5.786 2.125c-.41 0-.799.153-1.127.445-.978.865-2.206 2.435-2.503 5v.006a4.281 4.281 0 0 0 .929 3.224c.678.824 1.596 1.29 2.584 1.31h.235c.988-.02 1.906-.486 2.586-1.312a4.298 4.298 0 0 0 .93-3.226c-.3-2.567-1.528-4.137-2.51-5.005a1.677 1.677 0 0 0-1.124-.442m0-1.5c.754 0 1.507.275 2.121.821 1.177 1.04 2.649 2.921 3.003 5.952a5.811 5.811 0 0 1-1.263 4.355c-.966 1.172-2.288 1.832-3.729 1.858h-.264c-1.44-.026-2.763-.686-3.728-1.858a5.795 5.795 0 0 1-1.26-4.355c.35-3.03 1.823-4.911 3-5.952a3.186 3.186 0 0 1 2.12-.821z" style="fill:#656565;stroke:none" transform="translate(.274 4.845)"/>
                </g>
            </g>
            <path data-name="패스 64104" d="M13.933 19.116v-8.885l-1.542-3.044" transform="translate(-7.745 3.549)" style="stroke-linejoin:round;stroke:#656565;stroke-linecap:round;stroke-width:1.5px;fill:none"/>
        </g>
        <path data-name="패스 64102" d="m17.435 9.872-2.709 1.613" transform="translate(1.863 .203)" style="stroke:#656565;stroke-linecap:round;stroke-width:1.5px;fill:none"/>
    </g>
</svg>
