<svg xmlns="http://www.w3.org/2000/svg" width="24" height="24" viewBox="0 0 24 24">
    <path data-name="패스 66319" d="M-5943.164-20745.51v-11.2h15.127v11.2" transform="translate(5947.742 20757.852)" style="stroke-linejoin:round;fill:none;stroke:#707070;stroke-width:1.5px"/>
    <path data-name="패스 66320" d="M-5941.394-20746.721v-8.643h10.054v8.643" transform="translate(5948.527 20759.067)" style="fill:none;stroke:#707070;stroke-width:1.5px"/>
    <path data-name="패스 66321" d="M-5945.992-20745.639h19.924" style="stroke-linecap:round;fill:none;stroke:#707070;stroke-width:1.5px" transform="translate(5948 20757.852)"/>
    <g data-name="그룹 21316">
        <path data-name="패스 66322" d="M-5944.3-20745.639v9" transform="translate(5947.798 20757.852)" style="fill:none;stroke:#707070;stroke-width:1.5px"/>
        <path data-name="패스 66323" d="M-5944.3-20745.639v9" transform="translate(5951.298 20757.852)" style="fill:none;stroke:#707070;stroke-width:1.5px"/>
        <path data-name="패스 66324" d="M-5944.3-20745.639v9" transform="translate(5954.798 20757.852)" style="fill:none;stroke:#707070;stroke-width:1.5px"/>
        <path data-name="패스 66325" d="M-5944.3-20745.639v9" transform="translate(5958.299 20757.852)" style="fill:none;stroke:#707070;stroke-width:1.5px"/>
        <path data-name="패스 66326" d="M-5944.3-20745.639v9" transform="translate(5961.599 20757.852)" style="fill:none;stroke:#707070;stroke-width:1.5px"/>
        <path data-name="패스 66327" d="M-5944.3-20745.639v9" transform="translate(5964.798 20757.852)" style="fill:none;stroke:#707070;stroke-width:1.5px"/>
    </g>
    <path data-name="사각형 23213" transform="translate(2 20.852)" style="stroke-linejoin:round;fill:none;stroke:#707070;stroke-width:1.5px" d="M0 0h20v2H0z"/>
    <path data-name="패스 66328" d="M-5932.327-20747.982h1.515" style="stroke-linecap:round;fill:none;stroke:#707070;stroke-width:1.5px" transform="translate(5948 20757.852)"/>
    <path data-name="패스 66329" d="M-5936-20754.826v9.25" style="fill:none;stroke:#707070;stroke-width:1.5px" transform="translate(5948 20757.852)"/>
</svg>
