<svg xmlns="http://www.w3.org/2000/svg" width="24" height="24" viewBox="0 0 24 24">
    <path data-name="패스 65824" d="M22.754 12.085H.75V2.954a2.2 2.2 0 0 1 2.2-2.2h17.6a2.2 2.2 0 0 1 2.2 2.2z" transform="translate(.249 1.465)" style="fill:none;stroke:#707070;stroke-linecap:round;stroke-linejoin:round;stroke-width:1.5px"/>
    <path data-name="패스 65825" d="M3.473 13.836v-2.067a1.168 1.168 0 0 1 1.267-1.034h14.569a1.168 1.168 0 0 1 1.266 1.034v2.067" transform="translate(-.024 -.287)" style="fill:none;stroke:#707070;stroke-linecap:round;stroke-linejoin:round;stroke-width:1.5px"/>
    <path data-name="선 363" transform="translate(10.667 7.551)" style="fill:none;stroke:#707070;stroke-linecap:round;stroke-linejoin:round;stroke-width:1.5px" d="M0 0h2.667"/>
    <path data-name="패스 65827" d="M10.106 20.123a2.017 2.017 0 0 0 .093 2.97 2.018 2.018 0 0 1 .162 2.9" transform="translate(-2.074 -3.678)" style="fill:none;stroke:#707070;stroke-linecap:round;stroke-linejoin:round;stroke-width:1.5px"/>
    <path data-name="패스 65828" d="M15.553 20.123a2.017 2.017 0 0 0 .093 2.97 2.018 2.018 0 0 1 .162 2.9" transform="translate(-3.52 -3.678)" style="fill:none;stroke:#707070;stroke-linecap:round;stroke-linejoin:round;stroke-width:1.5px"/>
    <path data-name="패스 65829" d="M21 20.123a2.017 2.017 0 0 0 .093 2.97 2.018 2.018 0 0 1 .162 2.9" transform="translate(-4.966 -3.678)" style="fill:none;stroke:#707070;stroke-linecap:round;stroke-linejoin:round;stroke-width:1.5px"/>
</svg>
