<svg xmlns="http://www.w3.org/2000/svg" width="24" height="24" viewBox="0 0 24 24">
    <g data-name="그룹 21321">
        <g data-name="그룹 21319">
            <path data-name="패스 66330" d="M-5788-20708.846h2.245" transform="translate(5787.999 20725.348)" style="stroke-width:1.5px;fill:none;stroke:#707070"/>
            <path data-name="패스 66339" d="M-5788-20708.846h2.245" transform="translate(5809.662 20725.348)" style="stroke-width:1.5px;fill:none;stroke:#707070"/>
            <path data-name="패스 66336" d="M-5788-20708.846h2.984" transform="translate(5792.975 20725.348)" style="stroke-width:1.5px;fill:none;stroke:#707070"/>
            <path data-name="패스 66337" d="M-5788-20708.846h2.984" transform="translate(5798.46 20725.348)" style="stroke-width:1.5px;fill:none;stroke:#707070"/>
            <path data-name="패스 66338" d="M-5788-20708.846h2.984" transform="translate(5804.432 20725.348)" style="stroke-width:1.5px;fill:none;stroke:#707070"/>
        </g>
        <g data-name="그룹 21320">
            <path data-name="패스 66330" d="M-5788-20708.846h2.245" transform="translate(5787.999 20728.673)" style="stroke-width:1.5px;fill:none;stroke:#707070"/>
            <path data-name="패스 66339" d="M-5788-20708.846h2.245" transform="translate(5809.662 20728.673)" style="stroke-width:1.5px;fill:none;stroke:#707070"/>
            <path data-name="패스 66336" d="M-5788-20708.846h2.984" transform="translate(5792.975 20728.673)" style="stroke-width:1.5px;fill:none;stroke:#707070"/>
            <path data-name="패스 66337" d="M-5788-20708.846h2.984" transform="translate(5798.46 20728.673)" style="stroke-width:1.5px;fill:none;stroke:#707070"/>
            <path data-name="패스 66338" d="M-5788-20708.846h2.984" transform="translate(5804.432 20728.673)" style="stroke-width:1.5px;fill:none;stroke:#707070"/>
        </g>
        <path data-name="패스 66332" d="M-5785.881-20701v-9.937l1.391-1.084 1.405 1.084v9.938" transform="translate(5787.989 20724.623)" style="stroke-width:1.4px;stroke-linejoin:round;fill:none;stroke:#707070"/>
        <path data-name="패스 66333" d="M-5785.881-20701v-9.937l1.391-1.084 1.405 1.084v9.938" transform="translate(5793.842 20724.623)" style="stroke-width:1.4px;stroke-linejoin:round;fill:none;stroke:#707070"/>
        <path data-name="패스 66334" d="M-5785.881-20701v-9.937l1.391-1.084 1.405 1.084v9.938" transform="translate(5799.314 20724.623)" style="stroke-width:1.4px;stroke-linejoin:round;fill:none;stroke:#707070"/>
        <path data-name="패스 66335" d="M-5785.881-20701v-9.937l1.391-1.084 1.405 1.084v9.938" transform="translate(5805.167 20724.623)" style="stroke-width:1.4px;stroke-linejoin:round;fill:none;stroke:#707070"/>
    </g>
    <g transform="translate(13.441 .6)">
        <circle data-name="타원 235" cx="1.748" cy="1.748" r="1.748" transform="translate(3.083 3.083)" style="stroke-linecap:round;stroke-width:1.2px;stroke-linejoin:round;fill:none;stroke:#707070"/>
        <path data-name="선 365" transform="translate(4.78)" style="stroke-linecap:round;stroke-width:1.2px;stroke-linejoin:round;fill:none;stroke:#707070" d="M0 0v1.247"/>
        <path data-name="선 366" transform="translate(7.255 1.305)" style="stroke-linecap:round;stroke-width:1.2px;stroke-linejoin:round;fill:none;stroke:#707070" d="M.882 0 0 .882"/>
        <path data-name="선 367" transform="translate(8.416 4.831)" style="stroke-linecap:round;stroke-width:1.2px;stroke-linejoin:round;fill:none;stroke:#707070" d="M1.247 0H0"/>
        <path data-name="선 368" transform="translate(7.476 7.256)" style="stroke-linecap:round;stroke-width:1.2px;stroke-linejoin:round;fill:none;stroke:#707070" d="M.882.882 0 0"/>
        <path data-name="선 369" transform="translate(1.525 1.305)" style="stroke-linecap:round;stroke-width:1.2px;stroke-linejoin:round;fill:none;stroke:#707070" d="m0 0 .882.882"/>
        <path data-name="선 370" transform="translate(0 4.831)" style="stroke-linecap:round;stroke-width:1.2px;stroke-linejoin:round;fill:none;stroke:#707070" d="M0 0h1.247"/>
        <path data-name="선 371" transform="translate(1.305 7.256)" style="stroke-linecap:round;stroke-width:1.2px;stroke-linejoin:round;fill:none;stroke:#707070" d="M0 .882.882 0"/>
        <path data-name="선 372" transform="translate(4.78 8.415)" style="stroke-linecap:round;stroke-width:1.2px;stroke-linejoin:round;fill:none;stroke:#707070" d="M0 1.247V0"/>
    </g>
</svg>
