<svg xmlns="http://www.w3.org/2000/svg" width="20" height="20" viewBox="0 0 20 20">
    <defs>
        <clipPath id="dz6rrh4uua">
            <path data-name="사각형 22946" style="fill:#fff" d="M0 0h12v12H0z"/>
        </clipPath>
    </defs>
    <circle data-name="타원 204" cx="10" cy="10" r="10" style="fill:#5d6589"/>
    <g data-name="그룹 20988" transform="translate(4 4)" style="clip-path:url(#dz6rrh4uua)">
        <path data-name="패스 65687" d="M9.878 4.695a3.549 3.549 0 0 0 .19-1.1A3.6 3.6 0 0 0 6.472 0H5.034a3.6 3.6 0 0 0-3.6 3.6 3.549 3.549 0 0 0 .19 1.1 3.73 3.73 0 0 0 2.1 6.812h4.051a3.73 3.73 0 0 0 2.1-6.812m-7-1.1a2.16 2.16 0 0 1 2.159-2.162h1.438A2.16 2.16 0 0 1 8.63 3.6a2.131 2.131 0 0 1-.074.532 3.728 3.728 0 0 0-.781-.085H3.732a3.728 3.728 0 0 0-.781.085 2.131 2.131 0 0 1-.074-.532" style="fill:#fff"/>
    </g>
</svg>
