<svg xmlns="http://www.w3.org/2000/svg" width="24" height="24" viewBox="0 0 24 24">
    <path data-name="패스 65816" d="M15.981 2.544a.73.73 0 0 1-.705.422H13.59c-.087.181-.159.359-.253.523a2.359 2.359 0 0 1-1.107.95 2.057 2.057 0 0 1-1.026.189 2.26 2.26 0 0 1-1.153-.459 2.09 2.09 0 0 1-.783-1.016c-.041-.115-.1-.205-.253-.188a3.086 3.086 0 0 1-.343 0c-2.643 0-5.287.006-7.93-.006a.66.66 0 0 1-.7-.647.652.652 0 0 1 .567-.653c.21-.018.422-.031.633-.032h7.774c.112 0 .174-.02.216-.134A2.214 2.214 0 0 1 10 .458 1.972 1.972 0 0 1 11.152 0a2.4 2.4 0 0 1 1.067.154 2.212 2.212 0 0 1 1.247 1.233c.091.242.094.241.353.241h1.345a1.722 1.722 0 0 1 .363.046.647.647 0 0 1 .443.354s.03.03.03.272a1.293 1.293 0 0 1-.016.243m-4.62.743a.989.989 0 0 0 .075-1.976.973.973 0 0 0-1.063.983.965.965 0 0 0 .988.993" transform="translate(3.964 4.301)" style="fill:#353535"/>
    <path data-name="패스 65817" d="M15.741 87.377a.764.764 0 0 1-.52.168h-1.533a.174.174 0 0 0-.2.125 2.118 2.118 0 0 1-.62.917 2.536 2.536 0 0 1-1.28.6 2.135 2.135 0 0 1-1.559-.42 1.944 1.944 0 0 1-.764-.94.392.392 0 0 0-.448-.284c-2.679.012-5.359.007-8.039.008A.727.727 0 0 1 0 86.928a.7.7 0 0 1 .452-.657 2.391 2.391 0 0 1 .473-.058h7.742a2.071 2.071 0 0 1 .246.024.232.232 0 0 0 .289-.159 2.122 2.122 0 0 1 .565-.861 2.26 2.26 0 0 1 1.537-.641 2.327 2.327 0 0 1 1.669.7 2.385 2.385 0 0 1 .521.833.187.187 0 0 0 .206.131c.457-.012.915-.021 1.372-.025a2.079 2.079 0 0 1 .37.033.688.688 0 0 1 .52.428l.031.094a.744.744 0 0 1-.257.615m-4.424-1.49a.954.954 0 0 0-.977.978 1 1 0 1 0 .977-.978" transform="translate(3.999 -69.599)" style="fill:#353535"/>
    <path data-name="패스 65818" d="m16.02 44.6-.039.091a.687.687 0 0 1-.68.439q-4 .009-7.993.01c-.115 0-.231-.015-.346-.005-.036 0-.078.056-.1.1-.117.206-.212.426-.346.62a2.245 2.245 0 0 1-1.191.844 2.089 2.089 0 0 1-1.809-.245 2.49 2.49 0 0 1-.988-1.193.163.163 0 0 0-.109-.091c-.535-.01-1.071-.026-1.606-.01a.78.78 0 0 1-.786-.65.659.659 0 0 1 .522-.656 2.434 2.434 0 0 1 .444-.042c.453 0 .907 0 1.36.01a.164.164 0 0 0 .181-.124 2.322 2.322 0 0 1 1.674-1.479 2.12 2.12 0 0 1 1.576.24 2.276 2.276 0 0 1 .767.678 2.847 2.847 0 0 1 .281.534.22.22 0 0 0 .243.152q3.864-.011 7.728-.013a5.019 5.019 0 0 1 .678.045.529.529 0 0 1 .456.334.461.461 0 0 0 .076.1l.007.314M5.69 44.48a.964.964 0 0 0-1.018-1 .952.952 0 0 0-.982.983 1 1 0 1 0 2 .015" transform="translate(3.978 -32.539)" style="fill:#353535"/>
</svg>
