<svg xmlns="http://www.w3.org/2000/svg" width="40" height="40" viewBox="0 0 40 40">
    <path data-name="패스 66153" d="M16 40.892a7.5 7.5 0 1 0-13.619 4.327l5.054 7.893a1.31 1.31 0 0 0 2.13 0l5.054-7.893A7.452 7.452 0 0 0 16 40.892z" transform="translate(.162 -15.973)" style="fill:transparent;stroke:#707070;stroke-linecap:round;stroke-linejoin:round;stroke-width:1.5px"/>
    <path data-name="패스 66154" d="M54.833 7.149A6.149 6.149 0 1 0 43.667 10.7l4.144 6.471a1.074 1.074 0 0 0 1.747 0L53.7 10.7a6.11 6.11 0 0 0 1.133-3.551z" transform="translate(-16.357 1.035)" style="fill:transparent;stroke:#707070;stroke-linecap:round;stroke-linejoin:round;stroke-width:1.5px"/>
    <path data-name="패스 66156" d="M31.535 29.334h-7.521c-2.163 0-3.933 2.137-3.933 4.751s1.77 4.75 3.933 4.75h7.907c2.163 0 3.933 2.138 3.933 4.751s-1.77 4.75-3.933 4.75H12.184" transform="translate(.479 -10.68)" style="stroke-dasharray:4 4;fill:transparent;stroke:#707070;stroke-linecap:round;stroke-linejoin:round;stroke-width:1.5px"/>
    <text transform="translate(32.326 11.322)" style="font-size:8px;letter-spacing:.07em;fill:#707070;font-family:Pretendard-Bold,Pretendard;font-weight:700"><tspan x="-3.531" y="0">M</tspan></text>
    <text data-name="10" transform="translate(8.662 28.322)" style="font-size:9px;letter-spacing:-.05em;fill:#707070;font-family:Pretendard-Bold,Pretendard;font-weight:700"><tspan x="-4.855" y="0">10</tspan></text>
</svg>
