<svg xmlns="http://www.w3.org/2000/svg" width="16" height="16" viewBox="0 0 16 16">
    <g data-name="타원 224" transform="rotate(-30 13.464 -1.464)" style="stroke-width:1.5px;stroke:#353535;fill:#fff">
        <circle cx="4" cy="4" r="4" style="stroke:none"/>
        <circle cx="4" cy="4" r="3.25" style="fill:none"/>
    </g>
    <g data-name="사각형 23018" transform="rotate(-30 8.232 -6.062)" style="stroke:#353535;fill:#fff">
        <rect width="2" height="3" rx="1" style="stroke:none"/>
        <rect x=".5" y=".5" width="1" height="2" rx=".5" style="fill:none"/>
    </g>
    <g data-name="사각형 23019" transform="rotate(-30 25.026 -10.562)" style="stroke:#353535;fill:#fff">
        <rect width="2" height="3" rx="1" style="stroke:none"/>
        <rect x=".5" y=".5" width="1" height="2" rx=".5" style="fill:none"/>
    </g>
    <g data-name="사각형 23020" transform="rotate(-90 5.5 3.5)" style="stroke:#353535;fill:#fff">
        <rect width="2" height="3" rx="1" style="stroke:none"/>
        <rect x=".5" y=".5" width="1" height="2" rx=".5" style="fill:none"/>
    </g>
    <g data-name="사각형 23021" transform="rotate(-90 10 -1)" style="stroke:#353535;fill:#fff">
        <rect width="2" height="3" rx="1" style="stroke:none"/>
        <rect x=".5" y=".5" width="1" height="2" rx=".5" style="fill:none"/>
    </g>
    <g data-name="사각형 23022" transform="rotate(-150 4.768 6.062)" style="stroke:#353535;fill:#fff">
        <rect width="2" height="3" rx="1" style="stroke:none"/>
        <rect x=".5" y=".5" width="1" height="2" rx=".5" style="fill:none"/>
    </g>
    <g data-name="사각형 23023" transform="rotate(-150 5.974 1.562)" style="stroke:#353535;fill:#fff">
        <rect width="2" height="3" rx="1" style="stroke:none"/>
        <rect x=".5" y=".5" width="1" height="2" rx=".5" style="fill:none"/>
    </g>
</svg>
