<svg xmlns="http://www.w3.org/2000/svg" width="40" height="40" viewBox="0 0 40 40">
    <g data-name="사각형 13588" style="stroke:#fff;stroke-width:1.5px;fill:none">
        <path d="M0 0h26v24a2 2 0 0 1-2 2H2a2 2 0 0 1-2-2V0z" style="stroke:none" transform="translate(6.999 11)"/>
        <path d="M.75.75h24.5V24A1.25 1.25 0 0 1 24 25.25H2A1.25 1.25 0 0 1 .75 24V.75z" style="fill:none" transform="translate(6.999 11)"/>
    </g>
    <g data-name="합치기 36" style="fill:none">
        <path d="M16203.609 15461a.984.984 0 0 1-.18-.017h-5.569a.754.754 0 0 1-.754-.749.767.767 0 0 1 .229-.542l5.532-6.367a1 1 0 0 1 .741-.327h22a1 1 0 0 1 .745.329v-.007l5.524 6.367a.741.741 0 0 1 .232.542.753.753 0 0 1-.75.749.244.244 0 0 1-.053 0h-5.515a1 1 0 0 1-.181.017z" style="stroke:none" transform="translate(-16194.61 -15448.501)"/>
        <path d="m16225.562 15459.498.09-.017h4.058l-4.321-4.98h-21.557l-4.327 4.98h4.063l.09.017h21.904m.045 1.5h-21.998a.984.984 0 0 1-.18-.017h-5.515v-.003c-.02 0-.036.003-.053.003a.754.754 0 0 1-.754-.749c0-.211.09-.403.229-.542l5.532-6.367v.005a.997.997 0 0 1 .741-.327h21.998c.296 0 .562.127.746.33v-.008l5.524 6.367a.741.741 0 0 1 .232.542.753.753 0 0 1-.75.75c-.015 0-.036 0-.052-.004l-.004.003h-5.515c-.059.011-.12.017-.18.017z" style="fill:#fff;stroke:none" transform="translate(-16194.61 -15448.501)"/>
    </g>
    <g data-name="그룹 18035" transform="translate(1 8.999)">
        <rect data-name="사각형 13590" width="1.5" height="4" rx=".75" transform="translate(25.5 6.001)" style="fill:#fff"/>
        <rect data-name="사각형 13583" width="1.5" height="4" rx=".75" transform="translate(21 6.001)" style="fill:#fff"/>
        <rect data-name="사각형 13582" width="1.5" height="4" rx=".75" transform="translate(16.5 6.001)" style="fill:#fff"/>
        <rect data-name="사각형 13584" width="1.5" height="4" rx=".75" transform="translate(12 6.001)" style="fill:#fff"/>
    </g>
    <g data-name="그룹 18036" transform="translate(1 15.001)">
        <rect data-name="사각형 13590" width="1.5" height="4" rx=".75" transform="translate(25.5 6.001)" style="fill:#fff"/>
        <rect data-name="사각형 13583" width="1.5" height="4" rx=".75" transform="translate(21 6.001)" style="fill:#fff"/>
        <rect data-name="사각형 13582" width="1.5" height="4" rx=".75" transform="translate(16.5 6.001)" style="fill:#fff"/>
        <rect data-name="사각형 13584" width="1.5" height="4" rx=".75" transform="translate(12 6.001)" style="fill:#fff"/>
    </g>
    <g data-name="사각형 13591" style="stroke:#fff;stroke-width:1.5px;fill:none">
        <path d="M2 0h4a2 2 0 0 1 2 2v8H0V2a2 2 0 0 1 2-2z" style="stroke:none" transform="translate(15.999 27)"/>
        <path d="M2 .75h4A1.25 1.25 0 0 1 7.25 2v7.25H.75V2A1.25 1.25 0 0 1 2 .75z" style="fill:none" transform="translate(15.999 27)"/>
    </g>
</svg>
