<svg xmlns="http://www.w3.org/2000/svg" width="24" height="24" viewBox="0 0 24 24">
    <g data-name="그룹 21186">
        <path data-name="패스 65752" d="M22.036 15.2a12.494 12.494 0 0 1-21.286.142" transform="translate(.547 .311)" style="fill:none;stroke:#fff;stroke-linecap:round;stroke-linejoin:round;stroke-width:1.5px"/>
        <path data-name="패스 65753" d="M19.82 8.027c.644-.608 2.367-1.9 3.557-.365 1.4 1.811.076 3.323-.074 4.258" transform="translate(-1.311 1.116)" style="fill:none;stroke:#fff;stroke-linecap:round;stroke-linejoin:round;stroke-width:1.5px"/>
        <path data-name="패스 65754" d="M19.759 16.317 17.7 7.462H9.094s-3.149-4.976-6.417-4.9a11.707 11.707 0 0 0-1.735 5.69l1.524.291L3.985 6.77l1.593 1.181-2.1 8.7" transform="translate(.528 1.542)" style="fill:none;stroke:#fff;stroke-linecap:round;stroke-linejoin:round;stroke-width:1.5px"/>
        <path data-name="패스 65755" d="M5.278 18.338S8 14.457 8.618 13.691c1.021-1.258 4.887-1.926 6.463-.145l3.8 4.86" transform="translate(.106 .578)" style="fill:none;stroke:#fff;stroke-linecap:round;stroke-linejoin:round;stroke-width:1.5px"/>
        <path data-name="패스 65756" d="M4.132 5.382a.369.369 0 1 1-.369-.369.369.369 0 0 1 .369.369" transform="translate(.289 1.303)" style="fill:#fff"/>
        <path data-name="패스 65757" d="m9.158 6.654.984-1.617S7.19.82 3.747.75l-.883 1.634" transform="translate(.341 1.719)" style="fill:none;stroke:#fff;stroke-linecap:round;stroke-linejoin:round;stroke-width:1.5px"/>
        <path data-name="선 310" transform="translate(7.988 5.349)" style="fill:none;stroke:#fff;stroke-linecap:round;stroke-linejoin:round;stroke-width:1.5px" d="M0 1.336.843 0"/>
        <path data-name="선 311" transform="translate(6.02 3.433)" style="fill:none;stroke:#fff;stroke-linecap:round;stroke-linejoin:round;stroke-width:1.5px" d="M0 1.336.843 0"/>
    </g>
</svg>
