<svg xmlns="http://www.w3.org/2000/svg" width="30" height="30" viewBox="0 0 30 30">
    <path data-name="패스 141" d="M453.354 733.01a.788.788 0 0 1-.67-1.2l2.944-4.767a.8.8 0 0 1 .218-.23l2.779-1.956a.788.788 0 1 1 .907 1.289l-2.647 1.863-2.859 4.629a.788.788 0 0 1-.672.372z" transform="translate(-436.166 -721.711)" style="fill:#648eff"/>
    <path data-name="패스 142" d="M452.225 752.9h-11.171a.8.8 0 0 1-.806-.713l-1.667-16.773a.81.81 0 0 1 1.612-.151l1.6 16.061h9.7l1.606-16.061a.806.806 0 0 1 .884-.708.793.793 0 0 1 .727.861l-1.676 16.773a.8.8 0 0 1-.809.711z" transform="translate(-431.426 -725.613)" style="fill:#648eff"/>
    <path data-name="패스 143" d="M453.639 743.3h-13.282a.789.789 0 1 1 0-1.577h13.282a.789.789 0 1 1 0 1.577z" transform="translate(-431.783 -728.118)" style="fill:#648eff"/>
    <path data-name="패스 144" d="M453.349 756.256h-11.892a.789.789 0 1 1 0-1.576h11.893a.789.789 0 1 1 0 1.576z" transform="translate(-432.189 -733)" style="fill:#648eff"/>
    <path data-name="패스 145" d="M439.374 732.658a.823.823 0 0 1-.194-.023.788.788 0 0 1-.592-.955 8.349 8.349 0 0 1 16.071-.092.786.786 0 0 1-.58.96.811.811 0 0 1-.987-.565 6.718 6.718 0 0 0-12.931.075.806.806 0 0 1-.787.6z" transform="translate(-431.421 -722.021)" style="fill:#648eff"/>
    <path data-name="패스 146" d="M454.372 737.058h-16.814a.788.788 0 1 1 0-1.576h16.814a.788.788 0 1 1 0 1.576z" transform="translate(-430.751 -725.768)" style="fill:#648eff"/>
</svg>
