<svg xmlns="http://www.w3.org/2000/svg" width="30" height="30" viewBox="0 0 30 30"><g transform="translate(5.111 1.404)"><path d="M9.323,27.316h0a1.675,1.675,0,0,0,2.572,0h0l0,0,.006-.007.021-.025.079-.1c.068-.083.167-.2.292-.359.251-.31.607-.756,1.033-1.306.852-1.1,1.991-2.62,3.133-4.3a46.669,46.669,0,0,0,3.187-5.342,12.794,12.794,0,0,0,1.569-5.266A10.609,10.609,0,0,0,0,10.609a12.794,12.794,0,0,0,1.569,5.266,46.669,46.669,0,0,0,3.187,5.342C5.9,22.9,7.037,24.422,7.889,25.52c.427.55.783,1,1.033,1.306.125.155.224.276.292.359l.079.1.021.025Z" transform="translate(0.001 0.001)" fill="#638bff" fill-rule="evenodd"/><path d="M378.909,375a3.909,3.909,0,1,0,3.909,3.909A3.909,3.909,0,0,0,378.909,375" transform="translate(-368.3 -368.299)" fill="#fff" fill-rule="evenodd"/></g><rect width="30" height="30" fill="none"/></svg>