<svg xmlns="http://www.w3.org/2000/svg" width="40" height="40" viewBox="0 0 40 40">
    <defs>
        <clipPath id="usi6nfzoca">
            <path transform="translate(-17721.053 11878)" style="opacity:.2;stroke:#707070;fill:red" d="M0 0h40v40H0z"/>
        </clipPath>
    </defs>
    <g data-name="마스크 그룹 65" style="clip-path:url(#usi6nfzoca)" transform="translate(17721.053 -11878)">
        <path data-name="패스 66252" d="M20.3 19.137a12.167 12.167 0 1 0 0 20.061 12.271 12.271 0 0 1-1.725-1.424 12.632 12.632 0 0 1-.749-.828 8.923 8.923 0 1 1 1.919-14.1c.2.2.38.4.555.614a8.944 8.944 0 0 1 0 11.426c.175.21.357.416.555.614a8.945 8.945 0 0 0 1.919 1.451 12.166 12.166 0 0 0 0-15.556 12.38 12.38 0 0 0-.749-.828 12.179 12.179 0 0 0-1.725-1.43z" transform="rotate(17 -48560.515 -53322.798)" style="fill:none;stroke-linecap:round;stroke-linejoin:round;stroke-width:1.5px;stroke:#707070"/>
        <path data-name="패스 66254" d="M27.078 19.137a12.179 12.179 0 0 1 1.722 1.424c.266.266.512.545.749.828a8.923 8.923 0 1 1-1.919 14.1c-.2-.2-.38-.4-.555-.614a8.944 8.944 0 0 1 0-11.426 8.862 8.862 0 0 0-.555-.614 8.924 8.924 0 0 0-1.92-1.445 12.166 12.166 0 0 0 0 15.556c.237.284.483.562.749.828a12.171 12.171 0 1 0 1.725-18.637z" transform="rotate(17 -48557.128 -53345.471)" style="fill:none;stroke-linecap:round;stroke-linejoin:round;stroke-width:1.5px;stroke:#707070"/>
        <path data-name="패스 66354" d="M.773 2.708a1.988 1.988 0 0 1 .378-.929 2.893 2.893 0 0 1 .35-.4 2.575 2.575 0 0 1 .705-.456A2.281 2.281 0 0 1 3.351.76a2.206 2.206 0 0 1 1.245.5c.157.125.3.266.464.412.079-.082.164-.171.251-.258A2.307 2.307 0 0 1 6.429.8a2.6 2.6 0 0 1 .839-.029 2.247 2.247 0 0 1 1.087.41 2.368 2.368 0 0 1 .471.454 2.286 2.286 0 0 1 .364.62 2.553 2.553 0 0 1 .168.733 2.246 2.246 0 0 1-.141.961 2.373 2.373 0 0 1-.467.8q-.339.369-.7.717c-.24.232-.491.454-.74.676-.23.206-.46.41-.7.61-.3.252-.6.5-.9.748-.149.123-.3.25-.451.364a.352.352 0 0 1-.474-.022c-.239-.192-.473-.391-.708-.588-.278-.233-.558-.464-.833-.7-.2-.174-.393-.362-.6-.53a13.712 13.712 0 0 1-1.123-1.069 2.714 2.714 0 0 1-.683-1.12C.819 3.772.8 3.709.789 3.645S.776 3.5.77 3.434c0 0-.015-.15-.02-.374a2.868 2.868 0 0 1 .023-.352z" transform="rotate(20 -42533.724 -44246.3)" style="fill:none;stroke-linecap:round;stroke-linejoin:round;stroke-width:1.5px;stroke:#707070"/>
        <path data-name="패스 66355" d="M.763 1.9a1.171 1.171 0 0 1 .223-.547 1.7 1.7 0 0 1 .206-.237 1.518 1.518 0 0 1 .416-.264 1.344 1.344 0 0 1 .675-.1 1.3 1.3 0 0 1 .734.3c.092.073.177.157.274.243.047-.048.1-.1.148-.152A1.36 1.36 0 0 1 4.1.777a1.529 1.529 0 0 1 .491-.015 1.324 1.324 0 0 1 .64.238 1.4 1.4 0 0 1 .278.268 1.347 1.347 0 0 1 .214.365 1.5 1.5 0 0 1 .1.432 1.324 1.324 0 0 1-.083.566 1.4 1.4 0 0 1-.275.469q-.2.217-.413.422c-.142.137-.289.267-.436.4s-.271.242-.41.36c-.175.149-.352.294-.529.441-.088.072-.174.147-.266.214a.208.208 0 0 1-.279-.013c-.141-.113-.279-.23-.417-.346-.164-.137-.329-.273-.491-.412-.119-.1-.231-.213-.354-.312a8.079 8.079 0 0 1-.67-.626 1.6 1.6 0 0 1-.4-.66c-.01-.037-.018-.075-.027-.112s-.008-.083-.012-.125c0 0-.009-.089-.012-.22A1.69 1.69 0 0 1 .763 1.9z" transform="rotate(-22 21707.193 51491.235)" style="fill:none;stroke-linecap:round;stroke-linejoin:round;stroke-width:1.5px;stroke:#707070"/>
    </g>
</svg>
