<svg xmlns="http://www.w3.org/2000/svg" width="24" height="24" viewBox="0 0 24 24">
    <path data-name="패스 65821" d="M5.681 9.209V2.051A1.308 1.308 0 0 1 6.995.75H22.1a1.308 1.308 0 0 1 1.314 1.3v7.159" transform="translate(-2.567 1.342)" style="fill:none;stroke:#707070;stroke-linecap:round;stroke-linejoin:round;stroke-width:1.5px"/>
    <path data-name="패스 65822" d="M23.037 28.828H.75v-7.914a1.854 1.854 0 0 1 1.861-1.847h18.565a1.854 1.854 0 0 1 1.861 1.847z" transform="translate(.086 -8.352)" style="fill:none;stroke:#707070;stroke-linecap:round;stroke-linejoin:round;stroke-width:1.5px"/>
    <path data-name="패스 65823" d="M14.84 12.134v-3.8a1.952 1.952 0 0 1 1.952-1.952H22a1.952 1.952 0 0 1 1.95 1.956v3.8" transform="translate(-7.415 -1.691)" style="fill:none;stroke:#707070;stroke-linecap:round;stroke-linejoin:round;stroke-width:1.5px"/>
    <path data-name="선 360" transform="translate(.836 17.33)" style="fill:none;stroke:#707070;stroke-linecap:round;stroke-linejoin:round;stroke-width:1.5px" d="M0 0h22.179"/>
</svg>
