<svg xmlns="http://www.w3.org/2000/svg" width="40.555" height="40" viewBox="0 0 40.555 40">
    <path data-name="패스 65742" d="m-21561.455-19810.73 19.219-14.148 19.238 14.416" transform="translate(21562.504 19826.844)" style="fill:none;stroke:#707070;stroke-linecap:round;stroke-linejoin:round;stroke-width:1.5px"/>
    <path data-name="패스 65799" d="M-20894.006 11954.942v25.772h28.215v-25.251" transform="translate(20900.472 -11942.68)" style="fill:none;stroke:#707070;stroke-linecap:round;stroke-linejoin:round;stroke-width:1.5px"/>
    <path data-name="패스 66275" d="M-4.99-7.07h-1.455v4.492h-.068L-9.6-7.07h-1.289V0h1.465v-4.492h.059L-6.26 0h1.27zM-3.8 0H.957v-1.211h-3.291V-2.93H.7v-1.211h-3.034v-1.718H.947V-7.07H-3.8zm7.472 0h1.435l1.358-4.668h.059L7.871 0h1.436l2.021-7.07h-1.6L8.535-2.119h-.058L7.178-7.07H5.8L4.5-2.129h-.057L3.252-7.07H1.65z" transform="translate(20.705 27.98)" style="fill:#707070"/>
</svg>
