<svg data-name="Tool tip" xmlns="http://www.w3.org/2000/svg" width="16" height="16" viewBox="0 0 16 16">
    <circle cx="8" cy="8" r="8" style="opacity:.2;fill:#67549d"/>
    <path d="M469.249 785.891c.546-.34.97-.715.963-1.272a1.023 1.023 0 0 0-1.1-1.006 1.114 1.114 0 0 0-1.167 1.09h-1.8c.031-1.7 1.357-2.519 2.981-2.519 1.769 0 3.019.878 3.019 2.373a2.333 2.333 0 0 1-1.37 2.109 1.668 1.668 0 0 0-1.04 1.647v.133h-1.675v-.133c.002-1.513.428-1.969 1.189-2.422zm-.317 3.27a1.035 1.035 0 0 1 1.052 1 1.046 1.046 0 0 1-1.052 1.018 1.03 1.03 0 0 1-1.066-1.018 1.019 1.019 0 0 1 1.066-1z" transform="translate(-461.141 -778.684)" style="fill:#67549d"/>
</svg>
