<svg xmlns="http://www.w3.org/2000/svg" width="24.922" height="24" viewBox="0 0 24.922 24">
    <path data-name="패스 65771" d="M22.743 10.14a9.39 9.39 0 1 1-9.39-9.39 9.39 9.39 0 0 1 9.39 9.39z" transform="translate(-.891 2.07)" style="fill:none;stroke:#fff;stroke-miterlimit:10;stroke-width:1.5px"/>
    <path data-name="패스 65772" d="M3.444 16.405a2.694 2.694 0 0 1 0-5.388" transform="translate(0 -.78)" style="fill:none;stroke:#fff;stroke-miterlimit:10;stroke-width:1.5px"/>
    <path data-name="패스 65773" d="M29.444 10.986a2.694 2.694 0 0 1 0 5.388" transform="translate(-7.965 -.769)" style="fill:none;stroke:#fff;stroke-miterlimit:10;stroke-width:1.5px"/>
    <path data-name="패스 65774" d="M15.918.75a2.29 2.29 0 1 1-1.758 3.759" transform="translate(-3.722 2.07)" style="stroke-linecap:round;fill:none;stroke:#fff;stroke-miterlimit:10;stroke-width:1.5px"/>
    <path data-name="패스 65777" d="M19.207 17.7a3.816 3.816 0 0 1-3.647 1.982c-2.014 0-3.343-.99-3.647-1.982" transform="translate(-3.099 -2.632)" style="stroke-linecap:round;fill:none;stroke:#fff;stroke-miterlimit:10;stroke-width:1.5px"/>
    <path data-name="패스 65775" d="M11.382 12.017a.979.979 0 1 1-.979-.979.979.979 0 0 1 .979.979" transform="translate(-2.407 -.784)" style="fill:#fff"/>
    <path data-name="패스 65776" d="M23.747 12.017a.979.979 0 1 1-.98-.979.98.98 0 0 1 .98.979" transform="translate(-5.841 -.784)" style="fill:#fff"/>
</svg>
