<svg xmlns="http://www.w3.org/2000/svg" width="20" height="20" viewBox="0 0 20 20">
    <g data-name="그룹 17834">
        <path data-name="패스 63855" d="M5.772 16.359a1.06 1.06 0 0 0 1.592 0l.013-.015.049-.057.181-.215a51.588 51.588 0 0 0 2.58-3.359 27.771 27.771 0 0 0 1.973-3.2 7.477 7.477 0 0 0 .971-3.154A6.464 6.464 0 0 0 6.569 0 6.464 6.464 0 0 0 0 6.354a7.477 7.477 0 0 0 .971 3.153 27.771 27.771 0 0 0 1.973 3.2 51.588 51.588 0 0 0 2.58 3.359l.181.215.049.057.013.015z" style="fill-rule:evenodd;fill:none;stroke:#000;stroke-width:1.5px" transform="translate(3.431 1.64)"/>
        <path data-name="선 180" transform="translate(7.218 8.379)" style="stroke-linecap:round;fill:none;stroke:#000;stroke-width:1.5px" d="M0 0h5.774"/>
    </g>
</svg>
