<?xml version="1.0" encoding="utf-8"?>
<!-- Generator: Adobe Illustrator 27.8.1, SVG Export Plug-In . SVG Version: 6.00 Build 0)  -->
<svg version="1.1" id="레이어_1" xmlns="http://www.w3.org/2000/svg" xmlns:xlink="http://www.w3.org/1999/xlink" x="0px"
	 y="0px" viewBox="0 0 40 40" style="enable-background:new 0 0 40 40;" xml:space="preserve">
<style type="text/css">
	.st0{clip-path:url(#SVGID_00000000192868416944981880000006427642025827857081_);}
	.st1{fill:none;stroke:#707070;stroke-width:1.5;stroke-linecap:round;stroke-linejoin:round;}
	.st2{fill:none;stroke:#707070;stroke-width:1.5;stroke-linecap:round;stroke-miterlimit:10;}
	.st3{fill:none;stroke:#707070;stroke-width:1.5;stroke-linecap:round;stroke-linejoin:round;stroke-miterlimit:10;}
	.st4{fill:none;stroke:#707070;stroke-width:1.5;stroke-linecap:round;}
</style>
<g>
	<g>
		<defs>
			<rect id="SVGID_1_" width="40" height="40"/>
		</defs>
		<clipPath id="SVGID_00000051363590865905205350000015466454799743619485_">
			<use xlink:href="#SVGID_1_"  style="overflow:visible;"/>
		</clipPath>
		<g transform="translate(2.42 3.42)" style="clip-path:url(#SVGID_00000051363590865905205350000015466454799743619485_);">
			<path class="st1" d="M0.2-0.6v34.8h34.7"/>
			<path class="st2" d="M22.9,27.3"/>
			<path class="st3" d="M34.6,25.3v5h-5"/>
			<path class="st2" d="M34.4,30.1l-9.2-9.4"/>
			<path class="st4" d="M597.8-327.3l10.2,10.2"/>
			<g>
				<path class="st4" d="M0.3,20.9h13.8"/>
				<g>
					<path class="st1" d="M9,10.3l9.3-6.8l9.3,7"/>
				</g>
				<path class="st1" d="M11.6,8.4v12.5h13.6V9"/>
			</g>
			<g>
				<path class="st1" d="M17.2,12.2c-0.2,0.8-1,1.2-1.8,1s-1.2-1-1-1.8s1-1.2,1.8-1C17,10.6,17.4,11.4,17.2,12.2L17.2,12.2z"/>
				<path class="st1" d="M22.1,16.7c-0.2,0.8-1,1.2-1.8,1s-1.2-1-1-1.8s1-1.2,1.8-1l0,0C21.8,15.1,22.3,15.9,22.1,16.7z"/>
				<path class="st1" d="M15.2,17l6-6.1"/>
			</g>
		</g>
	</g>
</g>
</svg>
