<svg xmlns="http://www.w3.org/2000/svg" width="40" height="40.179" viewBox="0 0 40 40.179">
    <g transform="translate(21475.563 -12205.793)">
        <path data-name="패스 66136" d="M14.04 40.353a2.02 2.02 0 1 1-2.02-2.02 2.02 2.02 0 0 1 2.02 2.02z" transform="translate(-21477.258 12191.279)" style="fill:none;stroke:#656565;stroke-linecap:round;stroke-linejoin:round;stroke-width:1.5px"/>
        <path data-name="패스 66137" d="M44.374 40.353a2.02 2.02 0 1 1-2.02-2.02 2.02 2.02 0 0 1 2.02 2.02z" transform="translate(-21488.242 12191.279)" style="fill:none;stroke:#656565;stroke-linecap:round;stroke-linejoin:round;stroke-width:1.5px"/>
        <path data-name="패스 66138" d="M8.333 25.323V14.432a1.2 1.2 0 0 1 1.189-1.21h21.41a1.2 1.2 0 0 1 1.189 1.21v10.89z" transform="translate(-21475.803 12201.529)" style="fill:none;stroke:#656565;stroke-linecap:round;stroke-linejoin:round;stroke-width:1.5px"/>
        <path data-name="선 399" transform="translate(-21455.563 12215.293)" style="fill:none;stroke:#656565;stroke-linecap:round;stroke-linejoin:round;stroke-width:1.5px" d="M0 0v11.551"/>
        <path data-name="선 402" transform="translate(-21473 12238.277)" style="fill:none;stroke:#656565;stroke-linecap:round;stroke-linejoin:round;stroke-width:1.5px" d="M5.529 0 0 6.639"/>
        <path data-name="선 403" transform="translate(-21443.654 12238.277)" style="fill:none;stroke:#656565;stroke-linecap:round;stroke-linejoin:round;stroke-width:1.5px" d="m0 0 5.529 6.639"/>
        <path data-name="선 404" transform="translate(-21470.236 12241.515)" style="fill:none;stroke:#656565;stroke-linecap:round;stroke-linejoin:round;stroke-width:1.5px" d="M0 0h28.92"/>
        <path data-name="패스 66139" d="M17.333 4.985V3.517A2.534 2.534 0 0 1 19.885 1h8.931a2.534 2.534 0 0 1 2.552 2.517v1.468" transform="translate(-21479.914 12206.661)" style="fill:none;stroke:#656565;stroke-linecap:round;stroke-linejoin:round;stroke-width:1.5px"/>
        <rect data-name="사각형 23163" width="31.347" height="26.631" rx="3" transform="translate(-21471.236 12211.646)" style="fill:none;stroke:#656565;stroke-linecap:round;stroke-linejoin:round;stroke-width:1.5px"/>
    </g>
</svg>
