<svg xmlns="http://www.w3.org/2000/svg" width="20" height="20" viewBox="0 0 20 20">
    <defs>
        <clipPath id="zq4wbkoira">
            <path data-name="사각형 23216" transform="translate(4.999 9.322)" style="fill:#fff" d="M0 0h8v4H0z"/>
        </clipPath>
    </defs>
    <path data-name="패스 65793" d="M2.647 4.791v11.152h13V4.791" transform="translate(.853 1.594)" style="stroke-linecap:round;stroke-linejoin:round;stroke:#3a3a3a;fill:none"/>
    <path data-name="패스 65823" d="m-21561.451-19819.109 8.992-5.768 9.008 5.877" transform="translate(21562.452 19826.877)" style="stroke-linecap:round;stroke-linejoin:round;stroke:#3a3a3a;fill:none"/>
    <g data-name="그룹 21394">
        <path data-name="패스 65924" d="M13.914 11.906a2.1 2.1 0 1 1-2.1-2.1 2.1 2.1 0 0 1 2.1 2.1z" transform="translate(-1.813 -2.604)" style="stroke:#353535;stroke-linecap:round;stroke-linejoin:round;fill:none"/>
        <g data-name="마스크 그룹 68" style="clip-path:url(#zq4wbkoira)" transform="translate(1.001 1.678)">
            <g data-name="패스 66349" style="fill:none">
                <path d="M3 0h2a3 3 0 0 1 3 3v5a3 3 0 0 1-3 3H3a3 3 0 0 1-3-3V3a3 3 0 0 1 3-3z" style="stroke:none" transform="translate(4.999 9.322)"/>
                <path d="M3 1c-1.103 0-2 .897-2 2v5c0 1.103.897 2 2 2h2c1.103 0 2-.897 2-2V3c0-1.103-.897-2-2-2H3m0-1h2a3 3 0 0 1 3 3v5a3 3 0 0 1-3 3H3a3 3 0 0 1-3-3V3a3 3 0 0 1 3-3z" style="fill:#353535;stroke:none" transform="translate(4.999 9.322)"/>
            </g>
        </g>
    </g>
</svg>
