<svg xmlns="http://www.w3.org/2000/svg" width="40" height="40" viewBox="0 0 40 40">
    <path data-name="패스 66176" d="M22.648 39.267a2.31 2.31 0 1 1-2.31-2.31 2.31 2.31 0 0 1 2.31 2.31z" transform="translate(-4.408 -3.4)" style="fill:none;stroke:#707070;stroke-linecap:round;stroke-linejoin:round;stroke-width:1.5px"/>
    <path data-name="패스 66287" d="M22.648 39.267a2.31 2.31 0 1 1-2.31-2.31 2.31 2.31 0 0 1 2.31 2.31z" transform="translate(9.592 -3.4)" style="fill:none;stroke:#707070;stroke-linecap:round;stroke-linejoin:round;stroke-width:1.5px"/>
    <path data-name="패스 66178" d="m1 1 3.99 1.088 7.288 19.324h18.609l5.276-12.443H7.606" transform="translate(1 9.955)" style="fill:none;stroke:#707070;stroke-linecap:round;stroke-linejoin:round;stroke-width:1.5px"/>
    <g transform="translate(21216.031 -12233)">
        <path data-name="패스 66045" d="M11.953 6.476a5.476 5.476 0 1 0-9.944 3.16L5.7 14.791a.957.957 0 0 0 1.555 0l3.69-5.155a5.445 5.445 0 0 0 1.008-3.16z" transform="translate(-21200 12234)" style="fill:none;stroke:#707070;stroke-linecap:round;stroke-linejoin:round;stroke-width:1.5px"/>
        <circle data-name="타원 252" cx="2.277" cy="2.277" r="2.277" transform="translate(-21195.801 12237.96)" style="fill:none;stroke:#707070;stroke-linecap:round;stroke-linejoin:round;stroke-width:1.5px"/>
    </g>
</svg>
