<svg xmlns="http://www.w3.org/2000/svg" width="20" height="20" viewBox="0 0 20 20">
    <path data-name="사각형 23013" style="fill:rgba(255,0,0,.23);opacity:.005" d="M0 0h20v20H0z"/>
    <g data-name="패스 65751" style="fill:none">
        <path d="M1.621 0h9.724a1.621 1.621 0 0 1 1.621 1.621v9.724a1.621 1.621 0 0 1-1.621 1.621H1.621A1.621 1.621 0 0 1 0 11.344V1.621A1.621 1.621 0 0 1 1.621 0z" style="stroke:none" transform="translate(3.518 3.518)"/>
        <path d="M1.62 1.5a.12.12 0 0 0-.12.12v9.724c0 .067.054.12.12.12h9.724a.12.12 0 0 0 .12-.12V1.621a.12.12 0 0 0-.12-.121H1.621m0-1.5h9.723c.895 0 1.62.726 1.62 1.62v9.724a1.62 1.62 0 0 1-1.62 1.62H1.621A1.62 1.62 0 0 1 0 11.345V1.621C0 .726.726 0 1.62 0z" style="fill:#b7b7b7;stroke:none" transform="translate(3.518 3.518)"/>
    </g>
    <path data-name="사각형 23014" transform="translate(10)" style="fill:#fff" d="M0 0h10v10H0z"/>
    <g data-name="그룹 21165">
        <path data-name="패스 65749" d="m171.262-23.777 6.043-6.277" transform="translate(-159.262 32.375)" style="stroke:#b7b7b7;stroke-linecap:round;stroke-width:1.5px;fill:none"/>
        <path data-name="패스 65750" d="M171.262-30.875h6v6" transform="translate(-159 32.875)" style="stroke-linejoin:round;stroke:#b7b7b7;stroke-linecap:round;stroke-width:1.5px;fill:none"/>
    </g>
</svg>
