<svg xmlns="http://www.w3.org/2000/svg" width="24" height="24.023" viewBox="0 0 24 24.023">
    <path data-name="선 387" transform="translate(1.902 19.006)" style="stroke-miterlimit:10;stroke-linecap:round;stroke:#707070;fill:none;stroke-width:1.5px" d="M0 0v3.999"/>
    <path data-name="선 388" transform="translate(7.234 19.006)" style="stroke-miterlimit:10;stroke-linecap:round;stroke:#707070;fill:none;stroke-width:1.5px" d="M0 0v3.999"/>
    <path data-name="선 389" transform="translate(1.244 10.072)" style="stroke-miterlimit:10;stroke-linecap:round;stroke:#707070;fill:none;stroke-width:1.5px" d="M.658 6.994 0 0"/>
    <path data-name="선 390" transform="translate(21.639 19.006)" style="stroke-miterlimit:10;stroke-linecap:round;stroke:#707070;fill:none;stroke-width:1.5px" d="M0 0v3.999"/>
    <path data-name="선 391" transform="translate(16.307 19.006)" style="stroke-miterlimit:10;stroke-linecap:round;stroke:#707070;fill:none;stroke-width:1.5px" d="M0 0v3.999"/>
    <path data-name="선 392" transform="translate(21.639 10.072)" style="stroke-miterlimit:10;stroke-linecap:round;stroke:#707070;fill:none;stroke-width:1.5px" d="M0 6.994.658 0"/>
    <path data-name="선 393" transform="translate(11.77 7.293)" style="stroke-miterlimit:10;stroke-linecap:round;stroke:#707070;fill:none;stroke-width:1.5px" d="M0 0v15.713"/>
    <path data-name="패스 65865" d="M11.018.75c-2.871 0-8.749 2.434-8.749 5.436h17.5C19.768 3.184 13.81.75 11.018.75z" transform="translate(.752 .289)" style="stroke-linejoin:round;stroke-miterlimit:10;stroke-linecap:round;stroke:#707070;fill:none;stroke-width:1.5px"/>
    <path data-name="선 394" transform="translate(4.86 13.568)" style="stroke-miterlimit:10;stroke-linecap:round;stroke:#707070;fill:none;stroke-width:1.5px" d="M0 0h13.822"/>
    <path data-name="패스 65866" d="M6.545 5.934S6.02 3.561 10.311.75" transform="translate(1.46 .289)" style="fill:#ecf0f1;stroke-linecap:round;stroke:#707070"/>
    <path data-name="패스 65867" d="M6.545 5.934S6.02 3.561 10.311.75" transform="translate(1.46 .289)" style="stroke-miterlimit:10;stroke-linecap:round;stroke:#707070;fill:none;stroke-width:1.5px"/>
    <path data-name="패스 65868" d="M13.536 5.934S14.06 3.561 9.77.75" transform="translate(2 .289)" style="fill:#ecf0f1;stroke-linecap:round;stroke:#707070"/>
    <path data-name="패스 65869" d="M13.536 5.934S14.06 3.561 9.77.75" transform="translate(2 .289)" style="stroke-miterlimit:10;stroke-linecap:round;stroke:#707070;fill:none;stroke-width:1.5px"/>
    <path data-name="패스 65871" d="M1.528 19.4v-2.765H6.86V19.3" style="stroke-linejoin:round;stroke:#707070;fill:none;stroke-width:1.5px" transform="translate(.374 .164)"/>
    <path data-name="패스 65870" d="M21.542 19.471v-2.549h-5.326v2.973" transform="translate(.09 .021)" style="stroke-linejoin:round;stroke-linecap:round;stroke:#707070;fill:none;stroke-width:1.5px"/>
</svg>
