<svg xmlns="http://www.w3.org/2000/svg" width="24" height="24" viewBox="0 0 24 24">
    <path data-name="패스 65778" d="M3.75 5.6V2.568A1.818 1.818 0 0 1 5.568.75h12.121a1.818 1.818 0 0 1 1.818 1.818V5.6" transform="translate(.372 1.762)" style="fill:none;stroke:#707070;stroke-linejoin:round;stroke-width:1.5px"/>
    <path data-name="패스 65779" d="M15.3 10.962v5.454H4.992v-5.454A1.212 1.212 0 0 0 3.78 9.75H1.962A1.212 1.212 0 0 0 .75 10.962v10.3h19.393v-10.3a1.212 1.212 0 0 0-1.212-1.212h-2.424a1.212 1.212 0 0 0-1.207 1.212z" transform="translate(1.554 -1.783)" style="fill:none;stroke:#707070;stroke-linejoin:round;stroke-width:1.5px"/>
    <path data-name="선 326" transform="translate(6.546 10.996)" style="fill:none;stroke:#707070;stroke-linejoin:round;stroke-width:1.5px" d="M0 0h10.303"/>
    <path data-name="선 327" transform="translate(4.122 19.48)" style="stroke-linecap:round;fill:none;stroke:#707070;stroke-linejoin:round;stroke-width:1.5px" d="M0 0v2.424"/>
    <path data-name="선 328" transform="translate(19.879 19.48)" style="stroke-linecap:round;fill:none;stroke:#707070;stroke-linejoin:round;stroke-width:1.5px" d="M0 0v2.424"/>
</svg>
