<svg xmlns="http://www.w3.org/2000/svg" width="40" height="40.083" viewBox="0 0 40 40.083">
    <path data-name="패스 65879" d="M-21012.5 12136.306h38.232" transform="translate(21013.431 -12096.972)" style="fill:none;stroke:#707070;stroke-linecap:round;stroke-width:1.5px"/>
    <g data-name="그룹 21299">
        <path data-name="패스 66140" d="M40.072 17.306c0 9-4 10.871-8.941 10.871s-8.94-1.866-8.94-10.871S31.131 1 31.131 1s8.941 7.3 8.941 16.306z" transform="translate(-4.698 1.501)" style="stroke-linejoin:round;fill:none;stroke:#707070;stroke-linecap:round;stroke-width:1.5px"/>
        <path data-name="패스 66141" d="m31.822 22.351 3.136 4.241v19.659" transform="translate(-8.522 -6.98)" style="stroke-linejoin:round;fill:none;stroke:#707070;stroke-linecap:round;stroke-width:1.5px"/>
        <path data-name="선 406" transform="translate(26.712 19.724)" style="stroke-linejoin:round;fill:none;stroke:#707070;stroke-linecap:round;stroke-width:1.5px" d="M0 4.04 4.656 0"/>
        <path data-name="선 407" transform="translate(26.435 14.236)" style="stroke-linejoin:round;fill:none;stroke:#707070;stroke-linecap:round;stroke-width:1.5px" d="M0 5.376 2.1 0"/>
    </g>
    <path data-name="패스 66142" d="M15.486 31.416c-.473 5.886-3.521 7.166-7.211 7.166C4.257 38.581 1 37.064 1 29.737s7.275-13.268 7.275-13.268a24.971 24.971 0 0 1 5.37 6.538" transform="translate(3.72 -4.644)" style="stroke-linejoin:round;fill:none;stroke:#707070;stroke-linecap:round;stroke-width:1.5px"/>
    <path data-name="패스 66143" d="m8.836 33.842 2.551 3.451v13.584" transform="translate(.607 -11.544)" style="stroke-linejoin:round;fill:none;stroke:#707070;stroke-linecap:round;stroke-width:1.5px"/>
    <path data-name="선 409" transform="translate(11.995 21.374)" style="stroke-linejoin:round;fill:none;stroke:#707070;stroke-linecap:round;stroke-width:1.5px" d="M0 4.374 1.709 0"/>
</svg>
