<svg xmlns="http://www.w3.org/2000/svg" width="82" height="40" viewBox="0 0 82 40"><rect width="40" height="40" fill="none"/><g transform="translate(0.498 4.941)"><path d="M32.672,17.031a.988.988,0,0,1,.873.525l4.615,8.686a.971.971,0,0,1-.637,1.424,1.026,1.026,0,0,1-.166.013H1.67a1.04,1.04,0,0,1-.167-.013.971.971,0,0,1-.636-1.424l4.615-8.686a.987.987,0,0,1,.873-.525" transform="translate(0.009 1.69)" fill="#fff"/><path d="M1.665,28.429a1.79,1.79,0,0,1-.28-.022L1.341,28.4A1.721,1.721,0,0,1,.208,25.883L4.82,17.2a1.734,1.734,0,0,1,1.536-.923v1.5a.239.239,0,0,0-.21.126l-4.624,8.7a.221.221,0,0,0,.124.318H37.381a.221.221,0,0,0,.125-.319l-.009-.016-4.615-8.686a.238.238,0,0,0-.211-.127v-1.5a1.734,1.734,0,0,1,1.536.924l4.611,8.679A1.721,1.721,0,0,1,37.685,28.4l-.043.008a1.777,1.777,0,0,1-.287.023H1.665Z" transform="translate(0.009 1.69)" fill="#121212"/><path d="M10.375,18.72h-5a.091.091,0,0,1-.084-.1V3.363A2.468,2.468,0,0,1,7.582.75H30.5a2.468,2.468,0,0,1,2.3,2.613V18.624a.091.091,0,0,1-.085.1H27.559" transform="translate(0.481)" fill="#fff"/><path d="M32.738,19.474H27.559a.75.75,0,0,1,0-1.5H32.05V3.317A1.722,1.722,0,0,0,30.473,1.5H7.611A1.723,1.723,0,0,0,6.04,3.317V17.97h4.334a.75.75,0,0,1,0,1.5l-5.054,0a.841.841,0,0,1-.78-.866V3.384A3.227,3.227,0,0,1,7.53,0l.052,0L30.55,0a3.225,3.225,0,0,1,3,3.383V18.606a.841.841,0,0,1-.789.866Z" transform="translate(0.481)" fill="#121212"/><path d="M18.511,4.75l-8.1,7.153v11.42h5.914V17.337H20.7v5.986h5.914V11.9Z" transform="translate(1.011 0.417)" fill="#61d3c1"/><path d="M18.511,4a.748.748,0,0,1,.5.188l8.1,7.15a.75.75,0,0,1,.254.562V23.323a.75.75,0,0,1-.75.75H20.7a.75.75,0,0,1-.75-.75V18.087H17.075v5.236a.75.75,0,0,1-.75.75H10.411a.75.75,0,0,1-.75-.75V11.9a.75.75,0,0,1,.254-.562l8.1-7.153A.748.748,0,0,1,18.511,4Zm7.353,8.238L18.511,5.75l-7.35,6.491V22.573h4.414V17.337a.75.75,0,0,1,.75-.75H20.7a.75.75,0,0,1,.75.75v5.236h4.414Z" transform="translate(1.011 0.417)" fill="#121212"/><path d="M0-.75H4.369a.75.75,0,0,1,.75.75V5.986a.75.75,0,0,1-.75.75H0a.75.75,0,0,1-.75-.75V0A.75.75,0,0,1,0-.75ZM3.619.75H.75V5.236H3.619Z" transform="translate(17.338 17.754)" fill="#121212"/><path d="M8.586,14.435a.75.75,0,0,1-.5-1.312L18.2,4.189a.75.75,0,0,1,.993,0l10.116,8.934a.75.75,0,0,1-.993,1.124L18.7,5.752l-9.618,8.5A.747.747,0,0,1,8.586,14.435Z" transform="translate(0.822 0.417)" fill="#121212"/></g><rect width="40" height="40" transform="translate(42)" fill="none"/><g transform="translate(47.936 2.936)"><path d="M27.221,33.036H3.582A2.831,2.831,0,0,1,.75,30.2V4.216H27.221Z" transform="translate(0 0.342)" fill="#fff"/><path d="M27.721,33.536H3.582v-1H26.721V4.716H1.25V30.2a2.331,2.331,0,0,0,2.331,2.336v1A3.331,3.331,0,0,1,.25,30.2V3.716H27.721Z" transform="translate(0 0.342)" fill="#121212"/><path d="M27.221,33.786H3.582v-1.5H26.471V4.966H1.5V30.2a2.081,2.081,0,0,0,2.081,2.086v1.5A3.581,3.581,0,0,1,0,30.2V4.216a.75.75,0,0,1,.75-.75H27.221a.75.75,0,0,1,.75.75v28.82A.75.75,0,0,1,27.221,33.786Z" transform="translate(0 0.342)" fill="#121212"/><path d="M27.221.75H3.547a2.8,2.8,0,1,0,0,5.6H27.221Z" fill="#f2f2f2"/><path d="M3.547.25H27.721v6.6H3.547a3.3,3.3,0,1,1,0-6.6Zm23.174,1H3.547a2.3,2.3,0,1,0,0,4.6H26.721Z" fill="#121212"/><path d="M3.547,0H27.221a.75.75,0,0,1,.75.75v5.6a.75.75,0,0,1-.75.75H3.547a3.55,3.55,0,1,1,0-7.1ZM26.471,1.5H3.547a2.05,2.05,0,1,0,0,4.1H26.471Z" fill="#121212"/><path d="M25.315,12.787h3.64v4.022h-3.64" transform="translate(2.427 0.189)" fill="#f2f2f2"/><path d="M28.955,17.559h-3.64a.75.75,0,1,1,0-1.5H28.2V13.537h-2.89a.75.75,0,1,1,0-1.5h3.64a.75.75,0,0,1,.75.75v4.022A.75.75,0,0,1,28.955,17.559Z" transform="translate(2.427 0.189)" fill="#121212"/><path d="M25.315,12.787h3.64v4.022h-3.64" transform="translate(2.427 -6.44)" fill="#61d3c1"/><path d="M28.955,17.559h-3.64a.75.75,0,1,1,0-1.5H28.2V13.537h-2.89a.75.75,0,1,1,0-1.5h3.64a.75.75,0,0,1,.75.75v4.022A.75.75,0,0,1,28.955,17.559Z" transform="translate(2.427 -6.44)" fill="#121212"/><path d="M12.9,11.318,7.491,16.1v7.63h3.951v-4H14.36v4h3.951V16.1Z" transform="translate(0.666 1.044)" fill="#61d3c1"/><path d="M12.9,10.568a.748.748,0,0,1,.5.188l5.411,4.782a.75.75,0,0,1,.253.562v7.63a.75.75,0,0,1-.75.75H14.36a.75.75,0,0,1-.75-.75V20.48H12.192v3.25a.75.75,0,0,1-.75.75H7.491a.75.75,0,0,1-.75-.75V16.1a.75.75,0,0,1,.253-.562L12.4,10.756A.748.748,0,0,1,12.9,10.568Zm4.661,5.87L12.9,12.319,8.241,16.438V22.98h2.451V19.73a.75.75,0,0,1,.75-.75H14.36a.75.75,0,0,1,.75.75v3.25h2.451Z" transform="translate(0.666 1.044)" fill="#121212"/></g></svg>