<svg xmlns="http://www.w3.org/2000/svg" width="40" height="40" viewBox="0 0 40 40">
    <path data-name="패스 65879" d="M-21012.5 12136.306h38.457" transform="translate(21013.27 -12098.233)" style="fill:none;stroke:#707070;stroke-linecap:round;stroke-width:1.5px"/>
    <path data-name="패스 66041" d="M-21012.5 12136.306h38.457" transform="translate(21013.27 -12108.233)" style="fill:none;stroke:#707070;stroke-linecap:round;stroke-width:1.5px"/>
    <path data-name="패스 66042" d="M-21012.5 12136.306h6.039" transform="translate(21029.479 -12103.233)" style="fill:none;stroke:#707070;stroke-linecap:round;stroke-width:1.5px"/>
    <path data-name="패스 66043" d="M-21012.5 12136.306h6.039" transform="translate(21041.479 -12103.233)" style="fill:none;stroke:#707070;stroke-linecap:round;stroke-width:1.5px"/>
    <path data-name="패스 66044" d="M-21012.5 12136.306h6.039" transform="translate(21017.479 -12103.233)" style="fill:none;stroke:#707070;stroke-linecap:round;stroke-width:1.5px"/>
    <g transform="translate(21209.869 -12233.351)">
        <path data-name="패스 66045" d="M19.262 10.131A9.131 9.131 0 1 0 2.682 15.4l6.153 8.595a1.6 1.6 0 0 0 2.593 0l6.153-8.595a9.079 9.079 0 0 0 1.681-5.269z" transform="translate(-21200 12234)" style="stroke-linejoin:round;fill:none;stroke:#707070;stroke-linecap:round;stroke-width:1.5px"/>
        <circle data-name="타원 252" cx="3.797" cy="3.797" r="3.797" transform="translate(-21193.666 12239.935)" style="stroke-linejoin:round;fill:none;stroke:#707070;stroke-linecap:round;stroke-width:1.5px"/>
    </g>
</svg>
