<svg xmlns="http://www.w3.org/2000/svg" width="24" height="24" viewBox="0 0 24 24">
    <g transform="translate(3.941 2.684)" data-name="icon / icon_24px_facility_key">
        <path data-name="패스 65850" d="M20.383 11.845A6.5 6.5 0 1 0 9.91 10.026L.832 19.105l.438 1.726 3.23-.218.644-1.141.776-.074.28-1.069.849-.059.512-.512-.029-.732.747-.043.234-.351.1-.747.688-.659.131-.483 1.39-.043.5-.527.293-1.112.885-.2a6.5 6.5 0 0 0 7.883-1.016z" transform="translate(-3.5 -1.477)" style="fill:none;stroke:#707070;stroke-width:1.5px"/>
        <circle data-name="타원 232" cx="1.672" cy="1.672" r="1.672" transform="translate(12.016 2.699)" style="fill:none;stroke:#707070;stroke-width:1.5px"/>
    </g>
</svg>
