<svg xmlns="http://www.w3.org/2000/svg" width="32" height="32" viewBox="0 0 32 32">
    <defs>
        <clipPath id="vhpvw629ka">
            <path data-name="사각형 22977" style="fill:#6b59e3" d="M0 0h16v10.585H0z"/>
        </clipPath>
    </defs>
    <g data-name="32" style="fill:#fff;stroke:#dbdbdb">
        <circle cx="16" cy="16" r="16" style="stroke:none"/>
        <circle cx="16" cy="16" r="15.5" style="fill:none"/>
    </g>
    <g data-name="그룹 21098">
        <g data-name="그룹 21097" style="clip-path:url(#vhpvw629ka)" transform="translate(8 11)">
            <path data-name="패스 65731" d="M10.278 5.45 18.135.49A1.007 1.007 0 0 0 17.27 0H3.287a1.007 1.007 0 0 0-.865.49z" transform="translate(-2.278 .001)" style="fill:#6b59e3"/>
            <path data-name="패스 65732" d="M8.253 30.567a.475.475 0 0 1-.507 0L0 25.677v8.054a1.008 1.008 0 0 0 1.008 1.008h13.984A1.008 1.008 0 0 0 16 33.731v-8.054z" transform="translate(0 -24.154)" style="fill:#6b59e3"/>
        </g>
    </g>
</svg>
