<svg xmlns="http://www.w3.org/2000/svg" width="16" height="16" viewBox="0 0 16 16">
    <defs>
        <clipPath id="zp2v3ew88a">
            <path data-name="사각형 22956" style="fill:#353535" d="M0 0h16v16H0z"/>
        </clipPath>
    </defs>
    <path style="fill:none" d="M0 0h16v16H0z"/>
    <g data-name="그룹 21012">
        <g data-name="그룹 21011" style="clip-path:url(#zp2v3ew88a)">
            <path data-name="패스 65703" d="M8 5a3 3 0 1 0 3 3 3 3 0 0 0-3-3" style="fill:#353535"/>
            <path data-name="패스 65704" d="M8 0a8 8 0 0 0 0 16h6.5a1.5 1.5 0 0 0 1.5-1.5V8a8 8 0 0 0-8-8m0 13a5 5 0 1 1 5-5 5 5 0 0 1-5 5" style="fill:#353535"/>
        </g>
    </g>
</svg>
