<svg xmlns="http://www.w3.org/2000/svg" width="40.555" height="40" viewBox="0 0 40.555 40">
    <g data-name="shape">
        <path data-name="패스 65742" d="m-21561.455-19810.73 19.219-14.148 19.238 14.416" transform="translate(21562.504 19826.844)" style="stroke-width:1.5px;stroke-linejoin:round;fill:none;stroke:#707070;stroke-linecap:round"/>
    </g>
    <path data-name="패스 65799" d="M-20894.006 11954.942v23.108h28.215v-22.641" transform="translate(20900.473 -11942.68)" style="stroke-width:1.5px;stroke-linejoin:round;fill:none;stroke:#707070;stroke-linecap:round"/>
    <path data-name="패스 66229" d="M5.347 57.5v1.237a1.237 1.237 0 1 1-2.474 0V57.5" transform="translate(5.901 -21.978)" style="stroke-width:1.5px;stroke-linejoin:round;fill:none;stroke:#707070;stroke-linecap:round"/>
    <path data-name="패스 66230" d="M5.347 57.5v1.237a1.237 1.237 0 1 1-2.474 0V57.5" transform="translate(26.901 -21.978)" style="stroke-width:1.5px;stroke-linejoin:round;fill:none;stroke:#707070;stroke-linecap:round"/>
    <path data-name="패스 66231" d="M0 0v29.615" transform="translate(23.832 5.175)" style="stroke-width:1.5px;fill:none;stroke:#707070;stroke-linecap:round"/>
    <path data-name="선 418" transform="translate(23.832 19.487)" style="stroke-width:1.5px;stroke-linejoin:round;fill:none;stroke:#707070;stroke-linecap:round" d="M0 0h10.143"/>
    <path data-name="패스 66232" d="M0 0h10.143" transform="translate(23.832 27.487)" style="stroke-width:1.5px;fill:none;stroke:#707070;stroke-linecap:round"/>
    <path data-name="패스 66235" d="M0 0v28.354" transform="translate(14.832 6.437)" style="stroke-width:1.5px;fill:none;stroke:#707070;stroke-linecap:round"/>
    <path data-name="패스 66279" d="M7.992 17.438V19.2" transform="translate(3.78 4.023)" style="fill:none;stroke:#707070;stroke-linecap:round"/>
    <path data-name="패스 66280" d="M7.992 17.438V19.2" transform="translate(9.78 4.023)" style="fill:none;stroke:#707070;stroke-linecap:round"/>
    <path data-name="패스 66281" d="M7.992 17.438V19.2" transform="rotate(90 16.559 30.911)" style="fill:none;stroke:#707070;stroke-linecap:round"/>
    <path data-name="패스 66282" d="M7.992 17.438V19.2" transform="rotate(90 12.559 34.911)" style="fill:none;stroke:#707070;stroke-linecap:round"/>
</svg>
