<svg xmlns="http://www.w3.org/2000/svg" width="24" height="24.209" viewBox="0 0 24 24.209">
    <g data-name="그룹 17891">
        <path data-name="패스 63897" d="M6.942 44.181 8.8 41.968h10.906l1.856 2.213" transform="translate(-2.254 -21.029)" style="stroke:#656565;stroke-width:1.5px;fill:none;stroke-linecap:round;stroke-linejoin:round"/>
        <path data-name="패스 63898" d="M16.947 34.268H6.708a4.477 4.477 0 0 1-4.477-4.477v-4.333h19.193v4.333a4.477 4.477 0 0 1-4.477 4.477" transform="translate(.172 -12.531)" style="stroke:#656565;stroke-width:1.5px;fill:#fff"/>
        <path data-name="패스 63899" d="M16.947 34.268H6.708a4.477 4.477 0 0 1-4.477-4.477v-4.333h19.193v4.333a4.477 4.477 0 0 1-4.477 4.477z" transform="translate(.172 -12.531)" style="stroke:#656565;stroke-width:1.5px;fill:none;stroke-linecap:round;stroke-linejoin:round"/>
        <path data-name="패스 63900" d="M20.321 21.089H1.81a1.06 1.06 0 0 0 0 2.12h18.511a1.06 1.06 0 0 0 0-2.12z" transform="translate(.934 -10.283)" style="stroke:#656565;stroke-width:1.5px;fill:none;stroke-linecap:round;stroke-linejoin:round"/>
        <path data-name="패스 63901" d="M5.252 10.621V2.643a1.893 1.893 0 0 1 3.787 0v.839" transform="translate(-1.383 .185)" style="stroke:#656565;stroke-width:1.5px;fill:none;stroke-linecap:round;stroke-linejoin:round"/>
        <path data-name="패스 63902" d="M12.989 8.979h-2.136V7.447a1.068 1.068 0 1 1 2.136 0z" transform="translate(-4.267 -2.712)" style="stroke:#656565;stroke-width:1.5px;fill:none;stroke-linecap:round;stroke-linejoin:round"/>
    </g>
</svg>
