<svg xmlns="http://www.w3.org/2000/svg" width="40" height="40" viewBox="0 0 40 40">
    <path data-name="패스 66308" d="M-21012.5 12136.923h38.355" transform="translate(21013.377 -12097.914)" style="stroke-width:1.5px;stroke-linecap:round;fill:none;stroke:#707070"/>
    <path data-name="패스 66304" d="M-6666-20592.2v-17.891h10.353v33.029" transform="translate(6686.715 20612.315)" style="stroke-linejoin:round;stroke-width:1.5px;fill:none;stroke:#707070"/>
    <path data-name="패스 66305" d="M-6665.826-20607.074h-12.748v15.066" transform="translate(6686.541 20616.032)" style="stroke-linejoin:round;stroke-width:1.5px;fill:none;stroke:#707070"/>
    <path data-name="패스 66306" d="M-6672.415-20592.008h-9.719v9.283" transform="translate(6685.242 20616.032)" style="stroke-linejoin:round;stroke-width:1.5px;fill:none;stroke:#707070"/>
    <path data-name="패스 66307" d="M-6654.173-20592.008h5.824v14.965" transform="translate(6685.242 20616.032)" style="stroke-linejoin:round;stroke-width:1.5px;fill:none;stroke:#707070"/>
    <g data-name="그룹 21314">
        <path data-name="패스 66296" d="M-6866.449-20671.609v2.59" transform="translate(6883.224 20694.998)" style="stroke-width:2px;fill:none;stroke:#707070"/>
        <path data-name="패스 66299" d="M-6866.449-20671.609v2.59" transform="translate(6883.224 20699.147)" style="stroke-width:2px;fill:none;stroke:#707070"/>
        <path data-name="패스 66297" d="M-6866.449-20671.609v2.59" transform="translate(6888.155 20694.998)" style="stroke-width:2px;fill:none;stroke:#707070"/>
        <path data-name="패스 66298" d="M-6866.449-20671.609v2.59" transform="translate(6888.155 20699.147)" style="stroke-width:2px;fill:none;stroke:#707070"/>
    </g>
    <path data-name="사각형 23212" transform="translate(17.391 32.637)" style="stroke-width:1.4px;stroke-linejoin:round;fill:none;stroke:#707070" d="M0 0h3.547v6.039H0z"/>
    <path data-name="패스 66317" d="m-6803.952-20590.352.046-15.387h12.006v18.943" transform="translate(6817 20626)" style="stroke-linejoin:round;stroke-width:1.5px;fill:none;stroke:#707070"/>
    <path data-name="패스 66312" d="M21.663 3.344v1.144" transform="translate(2.545 2.428)" style="stroke-width:1.2px;fill:none;stroke:#707070"/>
    <path data-name="패스 66314" d="M21.663 3.344v4.1" transform="translate(2.545 4.428)" style="stroke-width:1.2px;fill:none;stroke:#707070"/>
    <path data-name="패스 66313" d="M21.663 3.344v11.385" transform="translate(5.913 2.428)" style="stroke-width:1.2px;fill:none;stroke:#707070"/>
    <g data-name="그룹 21315">
        <path data-name="패스 66309" d="M-6806.286-20613.59h7.48" style="stroke-width:1.2px;fill:none;stroke:#707070" transform="translate(6817 20625.59)"/>
        <path data-name="패스 66310" d="M-6806.286-20613.59h7.48" transform="translate(6817 20628.59)" style="stroke-width:1.2px;fill:none;stroke:#707070"/>
        <path data-name="패스 66311" d="M-6806.285-20613.59h1.222" transform="translate(6817 20631.59)" style="stroke-width:1.2px;fill:none;stroke:#707070"/>
        <path data-name="패스 66315" d="M-6806.285-20613.59h1.222" transform="translate(6819 20631.59)" style="stroke-width:1.2px;fill:none;stroke:#707070"/>
    </g>
    <path data-name="패스 66316" d="M.836 6.952S-.2 1.322 4.892.756c0 0 2.9-.221 3.884 2.016 0 0 4.942-1.278 5.163 4.179" transform="translate(.515 31.94)" style="stroke-linejoin:round;stroke-width:1.5px;fill:none;stroke:#707070"/>
    <path data-name="패스 66318" d="M10.161 5.134s.739-3.98-2.914-4.38c0 0-2.083-.156-2.79 1.425A2.865 2.865 0 0 0 .75 5.134" transform="translate(24.353 33.756)" style="stroke-linejoin:round;stroke-width:1.5px;fill:none;stroke:#707070"/>
</svg>
