<svg data-name="그룹 20987" xmlns="http://www.w3.org/2000/svg" width="15.441" height="15.828" viewBox="0 0 15.441 15.828">
    <defs>
        <clipPath id="zc9uqya35a">
            <path data-name="사각형 22945" style="fill:none" d="M0 0h15.441v15.828H0z"/>
        </clipPath>
    </defs>
    <g data-name="그룹 20986" style="clip-path:url(#zc9uqya35a)">
        <path data-name="패스 65685" d="M14.03 4.828H1.412A1.412 1.412 0 0 0 .023 6.492l1.487 8.177a1.412 1.412 0 0 0 1.39 1.159h9.987a1 1 0 0 0 .984-.821l1.549-8.515a1.412 1.412 0 0 0-1.39-1.664m-8.709 7.2a.8.8 0 1 1-1.6 0v-3.4a.8.8 0 1 1 1.6 0zm3.2 0a.8.8 0 1 1-1.6 0v-3.4a.8.8 0 1 1 1.6 0zm3.2 0a.8.8 0 1 1-1.6 0v-3.4a.8.8 0 1 1 1.6 0z" style="fill:#b7b7b7"/>
        <path data-name="패스 65686" d="M12.376 6.655a1 1 0 0 1-.707-.293L7.721 2.414 3.772 6.362a1 1 0 0 1-1.414-1.414L7.014.293a1 1 0 0 1 1.414 0l4.655 4.655a1 1 0 0 1-.707 1.707" style="fill:#b7b7b7"/>
    </g>
</svg>
