<svg xmlns="http://www.w3.org/2000/svg" width="16" height="14.044" viewBox="0 0 16 14.044">
    <defs>
        <clipPath id="98b6wiacxa">
            <path data-name="사각형 22949" style="fill:#b7b7b7" d="M0 0h16v14.044H0z"/>
        </clipPath>
    </defs>
    <g data-name="그룹 20997" style="clip-path:url(#98b6wiacxa)">
        <path data-name="패스 65691" d="M11.5 14.044h-7a2.846 2.846 0 0 1-3-2.641v-1.76h13V11.4a2.837 2.837 0 0 1-3 2.641" style="fill:#b7b7b7"/>
        <path data-name="패스 65692" d="M14.009 2.055 8 0 1.991 2.055 0 6.654l1.5 1.567h13L16 6.654zm-3.853 3.229A4.587 4.587 0 0 1 8 6.828a4.594 4.594 0 0 1-2.156-1.544l-.616-1.452a.255.255 0 0 1 .287-.222A3.971 3.971 0 0 0 7.8 2.521a.3.3 0 0 1 .406 0 3.974 3.974 0 0 0 2.28 1.089.254.254 0 0 1 .286.222z" style="fill:#b7b7b7"/>
    </g>
</svg>
