<svg xmlns="http://www.w3.org/2000/svg" width="20" height="20" viewBox="0 0 20 20">
    <g data-name="그룹 21279">
        <path data-name="패스 65778" d="m18.517 12.466-1.684-2.927a.644.644 0 0 0-1.056-.087l-2.145 2.622a.643.643 0 0 0 1 .815l.907-1.108a5.4 5.4 0 0 1-5.139 4.343 5.457 5.457 0 0 1-4.756-2.5.643.643 0 0 0-1.084.693 6.751 6.751 0 0 0 5.662 3.1h.222a6.674 6.674 0 0 0 6.349-5.361l.609 1.059a.643.643 0 0 0 1.115-.642" transform="translate(-.266 -.7)" style="fill:#353535"/>
        <path data-name="패스 65779" d="M4.97 5.34a.643.643 0 0 0-1-.815l-.902 1.109a5.426 5.426 0 0 1 9.891-1.841.643.643 0 1 0 1.084-.693A6.713 6.713 0 0 0 1.81 5.365L1.2 4.307a.643.643 0 1 0-1.115.642L1.77 7.875a.643.643 0 0 0 .5.32h.053a.643.643 0 0 0 .5-.236z" style="fill:#353535" transform="translate(1.664 3.287)"/>
    </g>
</svg>
