<svg data-name="그룹 20989" xmlns="http://www.w3.org/2000/svg" width="16" height="16" viewBox="0 0 16 16">
    <defs>
        <clipPath id="u6m6d4xifa">
            <path data-name="사각형 22946" style="fill:none" d="M0 0h16v16H0z"/>
        </clipPath>
    </defs>
    <g data-name="그룹 20988" style="clip-path:url(#u6m6d4xifa)">
        <path data-name="패스 65687" d="M13.736 6.528A4.935 4.935 0 0 0 14 5a5.006 5.006 0 0 0-5-5H7a5.006 5.006 0 0 0-5 5 4.935 4.935 0 0 0 .264 1.528A5.187 5.187 0 0 0 5.189 16h5.622a5.187 5.187 0 0 0 2.925-9.472M4 5a3 3 0 0 1 3-3h2a3 3 0 0 1 3 3 2.963 2.963 0 0 1-.1.74 5.184 5.184 0 0 0-1.086-.118H5.189A5.184 5.184 0 0 0 4.1 5.74 2.963 2.963 0 0 1 4 5" style="fill:#b7b7b7"/>
    </g>
</svg>
