<svg xmlns="http://www.w3.org/2000/svg" width="24" height="24" viewBox="0 0 24 24">
    <g data-name="icon_32px_message" transform="translate(-20 -915)">
        <circle data-name="타원 199" cx="12" cy="12" r="12" transform="translate(20 915)" style="fill:#b7b7b7"/>
        <path data-name="합치기 51" d="M4124.693-11110.379a.709.709 0 0 1-.692-.725v-5.8l5.325 3.523a.326.326 0 0 0 .175.052.318.318 0 0 0 .172-.052l5.327-3.523v5.8a.709.709 0 0 1-.694.725zm-.6-7.268a.7.7 0 0 1 .6-.354h9.616a.686.686 0 0 1 .592.354l-5.4 3.572z" transform="translate(-4097.501 12041.191)" style="fill:#fff;stroke:transparent;stroke-miterlimit:10"/>
    </g>
</svg>
