<svg xmlns="http://www.w3.org/2000/svg" xmlns:xlink="http://www.w3.org/1999/xlink" width="120" height="120" viewBox="0 0 120 120"><defs><style>.a{fill:none;}.b{fill:url(#a);}.c{fill:url(#b);}.d{fill:url(#c);}.e{fill:#cdcdcd;}.f{fill:url(#d);}.g,.n{fill:#fff;}.h,.i,.o,.p{fill:#61d3c1;}.i,.k{opacity:0.2;}.j{fill:#6c5ae6;}.l,.n{opacity:0.1;}.m{fill:#bafff4;}.o{opacity:0.5;}.p{opacity:0.4;}</style><linearGradient id="a" x1="-6.553" y1="3.649" x2="-6.553" y2="3.639" gradientUnits="objectBoundingBox"><stop offset="0" stop-color="#cfcfcf"/><stop offset="1" stop-color="#b5b5b5"/></linearGradient><linearGradient id="b" x1="-6.738" y1="3.649" x2="-6.738" y2="3.639" gradientUnits="objectBoundingBox"><stop offset="0" stop-color="#efefef"/><stop offset="1" stop-color="#efefef"/></linearGradient><linearGradient id="c" x1="-7.385" y1="3.797" x2="-7.385" y2="3.786" gradientUnits="objectBoundingBox"><stop offset="0" stop-color="#f5f8ff"/><stop offset="1" stop-color="#dfdfe0"/></linearGradient><linearGradient id="d" x1="-16.996" y1="10.869" x2="-16.996" y2="10.835" gradientUnits="objectBoundingBox"><stop offset="0" stop-color="#a093f8"/><stop offset="1" stop-color="#6c5ae6"/></linearGradient></defs><rect class="a" width="120" height="120"/><g transform="translate(-12.172 -10.986)"><g transform="translate(15.172 11.986)"><path class="b" d="M8,0H48.2a8.024,8.024,0,0,1,8,8V86.2a8.024,8.024,0,0,1-8,8H8a8.024,8.024,0,0,1-8-8V8A8.024,8.024,0,0,1,8,0Z"/><path class="c" d="M11.8,0H51a8.024,8.024,0,0,1,8,8V86.2a8.024,8.024,0,0,1-8,8H11.8a8.024,8.024,0,0,1-8-8V8A8.024,8.024,0,0,1,11.8,0Z"/><path class="d" d="M13.8,2.3h3.8c2.7,0,2.9,5,5.9,5h15c3.9,0,3.8-5,6.3-5h4c6.1,0,7.9,3.4,7.9,7.3V84.9c0,5.3-3.4,7.3-7.7,7.3H14c-4.3,0-7.9-1.5-7.9-7.3V10.2C6.1,5,7.9,2.3,13.8,2.3Z"/><g transform="translate(24.211 3.266)"><path class="e" d="M.9,0h9.9a.9.9,0,0,1,.9.9h0a.9.9,0,0,1-.9.9H.9C.4,1.9,0,1.5,0,.9H0A.9.9,0,0,1,.9,0Z"/><path class="e" d="M13.5,0h0a.9.9,0,0,1,.9.9h0a.9.9,0,0,1-.9.9h0a.9.9,0,0,1-.9-.9h0A.9.9,0,0,1,13.5,0Z"/></g><path class="f" d="M30.3,19.7h2.3c.1.1.3.1.4.2a8.614,8.614,0,0,1,7.2,7.8c.1,1.3.1,2.6.2,3.8,1.8.6,2.3,1.1,2.3,3.1V46c0,2.2-.8,3-2.9,3H23.3c-2.1,0-2.9-.8-2.9-2.9V34.9c0-2.3.3-2.7,2.5-3.5V28.5a8.791,8.791,0,0,1,2.8-6.4,9.274,9.274,0,0,1,4.6-2.4m6.1,11.8c0-1.3.1-2.4,0-3.5a4.827,4.827,0,0,0-4.5-4.4,4.638,4.638,0,0,0-5.1,3.6,31.079,31.079,0,0,0-.3,4.3Z"/><path class="g" d="M29.8,44V40.5a2.5,2.5,0,1,1,3.5-.5,1.205,1.205,0,0,1-.5.5V44Z"/></g><path class="h" d="M95.9,65.9a7.358,7.358,0,1,0,3.5-9.8h0a7.435,7.435,0,0,0-3.5,9.8"/><path class="g" d="M101.8,66.4a1.2,1.2,0,0,1-.848-.351l-2.5-2.5a1.2,1.2,0,0,1,1.7-1.7l1.59,1.59,3.156-3.629a1.2,1.2,0,0,1,1.811,1.575l-4,4.6a1.2,1.2,0,0,1-.864.412Z"/><path class="i" d="M89.5,77.2a.9.9,0,1,0,.9-.9.9.9,0,0,0-.9.9h0"/><path class="j" d="M36.3,78l-.1-2,1.7,1.2.8-1.4-1.9-.9,1.9-.9-.8-1.4-1.7,1.2.2-2.1H34.8l.1,2.1-1.7-1.2L32.3,74l1.9.9-1.9.9.8,1.4L34.8,76l-.1,2Z"/><path class="j" d="M44.3,78l-.1-2,1.7,1.2.8-1.4-1.9-.9,1.9-.9-.8-1.4-1.7,1.2.2-2.1H42.8l.1,2.1-1.7-1.2L40.3,74l1.9.9-1.9.9.8,1.4L42.8,76l-.1,2Z"/><path class="j" d="M52.3,78l-.1-2,1.7,1.2.8-1.4-1.9-.9,1.9-.9-.8-1.4-1.7,1.2.2-2.1H50.8l.1,2.1-1.7-1.2L48.3,74l1.9.9-1.9.9.8,1.4L50.8,76l-.1,2Z"/><path class="j" d="M60.8,78l-.2-2,1.7,1.2.8-1.4-1.9-.9,1.9-.9-.8-1.4-1.7,1.2.2-2.1H59.2l.1,2.1-1.7-1.2L56.8,74l1.9.9-1.9.9.8,1.4L59.3,76l-.1,2Z"/><g class="k"><rect class="a" width="104" height="93.52" transform="translate(25 36.626)"/></g><g class="l"><rect class="a" width="104" height="93.52" transform="translate(25 36.626)"/></g><g transform="translate(35.31 49.187)"><path class="h" d="M26,37.9c0,2.6.1,5.2,0,7.8a7.68,7.68,0,0,0,2.2,5.8,36.75,36.75,0,0,0,12.3,8.7,3.083,3.083,0,0,0,1.9,0A33.357,33.357,0,0,0,54.9,51a9.327,9.327,0,0,0,1.8-4.5c.2-5.9,0-11.8.1-17.8a1.97,1.97,0,0,0-1.7-2.3H55c-4.1-1.2-8.1-2.6-12.2-3.8a6.15,6.15,0,0,0-2.7,0C36,23.8,32,25.2,27.9,26.4a2.021,2.021,0,0,0-1.7,2.3v.1c-.1,3.1-.2,6.1-.2,9.1"/><path class="m" d="M26,38.2c0,2.6.1,5.2,0,7.8a7.68,7.68,0,0,0,2.2,5.8,36.75,36.75,0,0,0,12.3,8.7,3.083,3.083,0,0,0,1.9,0,33.357,33.357,0,0,0,12.5-9.2,9.327,9.327,0,0,0,1.8-4.5c.2-5.9,0-11.8.1-17.8a1.97,1.97,0,0,0-1.7-2.3H55c-4.1-1.2-8.1-2.6-12.2-3.8a6.15,6.15,0,0,0-2.7,0C36,24.1,32,25.5,27.9,26.7A2.174,2.174,0,0,0,26,29.1v.1c.1,3,0,6,0,9"/><path class="m" d="M26,38.3c0,2.6.1,5.3,0,7.9A7.68,7.68,0,0,0,28.2,52a38.506,38.506,0,0,0,12.3,8.8,3.083,3.083,0,0,0,1.9,0,33.357,33.357,0,0,0,12.5-9.2,9.327,9.327,0,0,0,1.8-4.5c.2-5.9,0-11.9.1-17.8a2.12,2.12,0,0,0-1.7-2.4H55c-4.1-1.2-8.1-2.6-12.2-3.8a6.15,6.15,0,0,0-2.7,0C36,24.3,32,25.7,27.9,26.9a2.021,2.021,0,0,0-1.7,2.3v.1c-.1,3-.2,6-.2,9"/><path class="h" d="M26,38.5c0,2.6.1,5.2,0,7.8a7.68,7.68,0,0,0,2.2,5.8,36.75,36.75,0,0,0,12.3,8.7,3.083,3.083,0,0,0,1.9,0,33.357,33.357,0,0,0,12.5-9.2,9.327,9.327,0,0,0,1.8-4.5c.2-5.9,0-11.8.1-17.8A1.97,1.97,0,0,0,55.1,27H55c-4.1-1.2-8.1-2.6-12.2-3.8a6.15,6.15,0,0,0-2.7,0C36,24.4,32,25.8,27.9,27a2.021,2.021,0,0,0-1.7,2.3v.1c-.1,3.1-.2,6.1-.2,9.1"/><path class="h" d="M26.8,39.2c0,2.7.1,5.3,0,8a7.972,7.972,0,0,0,2.1,5.9A35.4,35.4,0,0,0,40.7,62a2.775,2.775,0,0,0,1.8,0,32.193,32.193,0,0,0,12-9.3,8.34,8.34,0,0,0,1.7-4.6c.2-6,0-12,.1-18.1a2.12,2.12,0,0,0-1.7-2.4h0c-3.9-1.2-7.8-2.6-11.7-3.8a4.6,4.6,0,0,0-2.6,0c-3.9,1.2-7.8,2.6-11.7,3.8A2.12,2.12,0,0,0,26.9,30h0c0,3.1-.1,6.2-.1,9.2"/><path class="h" d="M41.6,62.65a3.343,3.343,0,0,1-1.058-.176l-.027-.009-.026-.012a35.8,35.8,0,0,1-11.96-9.018A8.493,8.493,0,0,1,26.3,47.177c.066-1.78.044-3.562.022-5.286-.011-.877-.022-1.785-.022-2.691,0-1.492.025-3.038.049-4.533.025-1.514.05-3.08.051-4.625a2.617,2.617,0,0,1,2.08-2.929c1.936-.6,3.906-1.253,5.812-1.888s3.906-1.3,5.861-1.9l.026-.007a6.2,6.2,0,0,1,1.512-.2,4.319,4.319,0,0,1,1.362.213c1.954.6,3.937,1.262,5.856,1.9s3.876,1.292,5.812,1.888A2.616,2.616,0,0,1,56.8,30.047c-.042,2.6-.03,5.219-.018,7.754.016,3.383.033,6.881-.082,10.316v.013A8.806,8.806,0,0,1,54.9,53l-.006.007A32.85,32.85,0,0,1,42.7,62.457l-.046.018A3.343,3.343,0,0,1,41.6,62.65Zm-.716-1.116a2.28,2.28,0,0,0,1.435,0,31.846,31.846,0,0,0,11.787-9.142A7.809,7.809,0,0,0,55.7,48.077c.114-3.415.1-6.9.081-10.272-.012-2.552-.025-5.191.018-7.813v-.041l.007-.04a1.621,1.621,0,0,0-1.3-1.819l-.029-.005-.028-.009c-1.956-.6-3.941-1.264-5.861-1.9s-3.894-1.3-5.839-1.9l-.011,0a4,4,0,0,0-2.308.008c-1.94.6-3.916,1.256-5.826,1.892s-3.906,1.3-5.861,1.9l-.028.009-.029.005a1.621,1.621,0,0,0-1.3,1.819l.008.044V30c0,1.567-.026,3.151-.051,4.683-.024,1.491-.049,3.033-.049,4.517,0,.9.011,1.8.022,2.679.022,1.736.044,3.531-.023,5.34a7.5,7.5,0,0,0,1.965,5.54l.013.014A34.807,34.807,0,0,0,40.884,61.534Z"/><path class="n" d="M54.8,52.8a8.445,8.445,0,0,0,1.8-4.5c.2-5.9,0-11.9.1-17.9A2.12,2.12,0,0,0,55,28h-.1c-4.1-1.2-8.2-2.6-12.3-3.8a6.608,6.608,0,0,0-2.8,0c-4.1,1.2-8.2,2.6-12.3,3.8"/><path class="g" d="M41.5,50.1H35.8c-1.2,0-1.7-.5-1.7-1.7a6.065,6.065,0,0,1,5.7-5.8,21.308,21.308,0,0,1,4.4.2,5.788,5.788,0,0,1,4.6,5.7c0,1.1-.5,1.7-1.6,1.7-1.8-.1-3.7-.1-5.7-.1"/><path class="g" d="M41.5,41.1a4.6,4.6,0,1,1,4.6-4.6h0a4.653,4.653,0,0,1-4.6,4.6"/></g><path class="i" d="M79.6,35.2a.9.9,0,1,0,.9-.9.9.9,0,0,0-.9.9h0"/><path class="o" d="M89.5,67.1a1.7,1.7,0,1,0,1.7-1.7,1.685,1.685,0,0,0-1.7,1.7"/><path class="i" d="M88.3,73.2a.9.9,0,1,0,.9-.9.9.9,0,0,0-.9.9h0"/><path class="p" d="M86.2,37.3h3.3a11.627,11.627,0,0,1,.4,1.8,1.456,1.456,0,0,0,.6.9,1.506,1.506,0,0,0,1.8.1,4.875,4.875,0,0,1,.7-.3.54.54,0,0,1,.8.2v.1c.2.4.5.8.7,1.2,1,1.8,1.1,1.3-.5,2.6a1.193,1.193,0,0,0-.5.9,1.425,1.425,0,0,0,.9,1.6c.2.1.4.3.6.4a.443.443,0,0,1,.2.7.1.1,0,0,1-.1.1c-.4.7-.9,1.5-1.3,2.2a.553.553,0,0,1-.8.3.1.1,0,0,1-.1-.1,5.023,5.023,0,0,0-1.3-.5,1.268,1.268,0,0,0-.6.1,1.645,1.645,0,0,0-1.2,1.8.749.749,0,0,1-.1.5.634.634,0,0,1-.5.6H86.5c-.3,0-.6-.2-.6-.4V52c0-.4-.2-.8-.2-1.2a.891.891,0,0,0-.5-.8,1.5,1.5,0,0,0-1.9-.1,1.421,1.421,0,0,1-.6.2.54.54,0,0,1-.8-.2v-.1a25.294,25.294,0,0,0-1.3-2.2.608.608,0,0,1,0-.8l.1-.1c.4-.3.7-.5,1.1-.8a2.186,2.186,0,0,0,.3-.5,1.644,1.644,0,0,0-.9-2,1.756,1.756,0,0,1-.5-.4.524.524,0,0,1-.2-.8.1.1,0,0,1,.1-.1c.4-.7.9-1.4,1.3-2.2a.68.68,0,0,1,.8-.4.1.1,0,0,1,.1.1c.4.2.8.3,1.2.5a1.676,1.676,0,0,0,1.8-1,6.542,6.542,0,0,1,.4-1.8M90.5,45a2.65,2.65,0,1,0-2.6,2.7h0A2.81,2.81,0,0,0,90.5,45h0"/></g></svg>