<svg xmlns="http://www.w3.org/2000/svg" width="120" height="120" viewBox="0 0 120 120">
    <g data-name="그룹 21453">
        <g data-name="그룹 21454">
            <path data-name="패스 66350" d="M28.726 121.7c-.049 5.476 1.27 7.266 2.942 8.685 2.894 2.456 5.395 2.481 6.874 4.264 2.525 3.045 5.525 20.108 8.732 27.418l8.923.172 3.285-3.131c-1.862-8.47-6.635-23.483-6.581-30.167.006-.713 3.308-5.138 3.742-7.117l-25.1-4.137z" transform="translate(-1.966 -58.27)" style="fill-rule:evenodd;fill:#087f8a"/>
            <path data-name="패스 66351" d="m88.221 133.186 4.13 8.63-4.7.636-5-6.562 2.221-2.383z" transform="translate(-35.101 -67.794)" style="fill:#143143;fill-rule:evenodd"/>
            <path data-name="패스 66352" d="m79.834 134.311 4.13 8.63-5.441 2.728-4.256-8.655z" transform="translate(-29.948 -68.485)" style="fill:#2c5871;fill-rule:evenodd"/>
            <path data-name="패스 66353" d="m93.982 155.564-3.238.414-5.438 2.748 3.828-1.119z" transform="translate(-36.731 -81.544)" style="fill:#0a1a24;fill-rule:evenodd"/>
            <path data-name="패스 66354" d="M19.671 125.857c-.049 5.476 1.27 7.266 2.942 8.685 2.894 2.456 7.5 1.891 8.975 3.674 2.525 3.045 5.526 20.107 8.732 27.418 1.2 1.6 8.658 1.816 10.677-1.2-1.862-8.47-6.723-27.3-6.669-33.98.006-.714 2.343-4.785 2.777-6.764l-24.618-1.845z" transform="translate(3.597 -60.825)" style="fill:#0b95a1;fill-rule:evenodd"/>
            <path data-name="패스 66355" d="M77.864 35.312c14.736-2.726 20.733-6.168 30.75-22.1-9.205 16.688-7.639 49.945 3.093 65.688-11.47-14.92-17.764-17.783-32.691-19.112-7.778-5.776-8.353-18-1.152-24.477" transform="translate(-29.05 5.921)" style="fill:#a6dae8;fill-rule:evenodd"/>
            <path data-name="패스 66356" d="M14.325 95.492C6.47 95.862.163 90.087 0 83.293c-.151-6.513 5.851-12.308 13.4-12.664l19.961-.94c-3.43 2.432-3.957 19.4.921 24.864-7.959.37-12 .565-19.961.94" transform="translate(15.683 -28.78)" style="fill:#14b0bf;fill-rule:evenodd"/>
            <path data-name="패스 66357" d="M153.013 41.687c-.924-19.622 4.421-35.816 11.939-36.17s14.362 15.266 15.286 34.883-4.422 35.817-11.94 36.171-14.361-15.266-15.285-34.889" transform="translate(-78.269 10.653)" style="fill:#95c2d9;fill-rule:evenodd"/>
            <path data-name="패스 66358" d="M164.256 73.016a58.888 58.888 0 0 0-13.967-2.126 90.629 90.629 0 0 0 1.029 21.853 58.892 58.892 0 0 0 13.705-3.429l-.551-8.141z" transform="translate(-76.505 -29.518)" style="fill:#d3ecf0;fill-rule:evenodd"/>
            <path data-name="패스 66359" d="M180.326 84.648c-.212-4.509 1.016-8.229 2.743-8.31s3.3 3.508 3.512 8.016-1.016 8.229-2.743 8.31-3.3-3.507-3.512-8.015" transform="translate(-95.099 -32.864)" style="fill:#fefffa;fill-rule:evenodd"/>
            <path data-name="패스 66360" d="M140.1 46.779a68.934 68.934 0 0 1 2.792-23.707 86.471 86.471 0 0 0 7.017-9.86 34.28 34.28 0 0 0-1.157 2.309c-3.736 6.361-5.9 17.906-5.286 30.975.631 13.392 4.019 24.918 8.5 30.776q.5.843 1.04 1.63a85.217 85.217 0 0 0-8.089-9.328 68.54 68.54 0 0 1-4.817-22.795" transform="translate(-70.344 5.921)" style="fill:#95c2d9;fill-rule:evenodd"/>
            <path data-name="패스 66361" d="M147.189 38.407c-.979-20.8 5.328-37.987 14.087-38.4s16.654 16.111 17.633 36.906-5.328 37.987-14.087 38.4-16.654-16.113-17.633-36.906m2.248-.106c.924 19.623 7.768 35.243 15.285 34.889s12.864-16.548 11.94-36.171-7.768-35.243-15.286-34.889-12.863 16.548-11.939 36.17" transform="translate(-74.692 14.039)" style="fill:#a6dae8;fill-rule:evenodd"/>
        </g>
    </g>
</svg>
