<svg xmlns="http://www.w3.org/2000/svg" width="16" height="16" viewBox="0 0 16 16">
    <defs>
        <clipPath id="1wozumc4na">
            <path data-name="사각형 23036" style="fill:none" d="M0 0h9.319v9.509H0z"/>
        </clipPath>
    </defs>
    <g transform="translate(-52 -120)">
        <circle data-name="타원 243" cx="8" cy="8" r="8" transform="translate(52 120)" style="fill:#fff"/>
        <g data-name="그룹 21373">
            <g data-name="그룹 21372" transform="translate(55.342 123.246)" style="clip-path:url(#1wozumc4na)">
                <path data-name="패스 65814" d="M10.091 5.495a5.5 5.5 0 0 0-.086-.973H5.527v1.839h2.558A2.188 2.188 0 0 1 7.137 7.8v1.19h1.537a4.64 4.64 0 0 0 1.418-3.495" transform="translate(-.773 -.632)" style="fill-rule:evenodd;fill:#3e82f1"/>
                <path data-name="패스 65815" d="M4.836 10.429a4.539 4.539 0 0 0 3.147-1.152L6.447 8.084a2.868 2.868 0 0 1-4.271-1.506H.588V7.81a4.752 4.752 0 0 0 4.248 2.619" transform="translate(-.082 -.919)" style="fill:#32a753;fill-rule:evenodd"/>
                <path data-name="패스 65816" d="M2.094 6.083a2.815 2.815 0 0 1 0-1.806V3.045H.5a4.766 4.766 0 0 0 0 4.27z" transform="translate(0 -.425)" style="fill:#f9bb00;fill-rule:evenodd"/>
                <path data-name="패스 65817" d="M4.836 1.891a2.569 2.569 0 0 1 1.818.709l1.363-1.362A4.567 4.567 0 0 0 4.836 0 4.75 4.75 0 0 0 .588 2.619l1.588 1.232a2.833 2.833 0 0 1 2.661-1.96" transform="translate(-.082)" style="fill:#e74133;fill-rule:evenodd"/>
            </g>
        </g>
    </g>
</svg>
