<svg id="spr_nav" xmlns="http://www.w3.org/2000/svg" xmlns:xlink="http://www.w3.org/1999/xlink" width="274" height="32" viewBox="0 0 274 32">
  <defs>
    <clipPath id="clip-path">
      <path id="사각형_23032" data-name="사각형 23032" d="M0,0H16.595V14.575H0Z" fill="none"/>
    </clipPath>
  </defs>
  <g id="그룹_21176" data-name="그룹 21176">
    <rect id="사각형_13810" data-name="사각형 13810" width="20" height="20" fill="none"/>
    <g id="그룹_21300" data-name="그룹 21300" transform="translate(0.003)">
      <path id="패스_65785" data-name="패스 65785" d="M4.336,0C5.609,0,7.023.839,8.542,2.5,10.061.839,11.475,0,12.749,0a2.8,2.8,0,0,1,1.127.236l.019.009a5.737,5.737,0,0,1,2.812,7.226c-.43,1.161-1.9,2.783-4.358,4.822-1.8,1.492-3.508,2.68-3.525,2.692a.5.5,0,0,1-.57,0c-.017-.012-1.723-1.2-3.524-2.691C2.269,10.256.8,8.633.372,7.472A5.737,5.737,0,0,1,3.19.245L3.209.236A2.781,2.781,0,0,1,4.336,0ZM8.542,3.75a.5.5,0,0,1-.38-.175C6.718,1.891,5.395,1,4.336,1a1.762,1.762,0,0,0-.715.148A4.709,4.709,0,0,0,1.3,7.113l0,.008c.707,1.915,5.214,5.41,7.231,6.842,2.018-1.434,6.526-4.93,7.231-6.842l0-.009a4.71,4.71,0,0,0-2.31-5.965A1.76,1.76,0,0,0,12.749,1c-1.059,0-2.383.891-3.827,2.576A.5.5,0,0,1,8.542,3.75Z" transform="translate(1.458 2.463)" fill="#353535"/>
    </g>
  </g>
  <g id="그룹_21177" data-name="그룹 21177">
    <g id="그룹_21167" data-name="그룹 21167" transform="translate(-22 -44)">
      <rect id="사각형_13798" data-name="사각형 13798" width="20" height="20" transform="translate(44 44)" fill="none"/>
      <g id="그룹_21302" data-name="그룹 21302" transform="translate(43.998 43.8)">
        <path id="패스_65786" data-name="패스 65786" d="M13.575,19.406H11.941a.922.922,0,0,1,0-1.844h1.634a.922.922,0,0,1,0,1.844Z" transform="translate(-1.627 -1.505)" fill="#353535"/>
        <path id="패스_65787" data-name="패스 65787" d="M13.575,19.406H11.941a.922.922,0,0,1,0-1.844h1.634a.922.922,0,0,1,0,1.844Z" transform="translate(-1.627 -1.505)" fill="#353535"/>
        <path id="패스_65788" data-name="패스 65788" d="M18.355,6.04h0a3.946,3.946,0,0,1,0,7.892.5.5,0,0,1-.5-.5V6.54A.5.5,0,0,1,18.355,6.04Zm.5,6.849a2.946,2.946,0,0,0,0-5.807Z" transform="translate(-3.185 1.123)" fill="#353535"/>
        <path id="패스_65789" data-name="패스 65789" d="M3.945,6.04h0a.5.5,0,0,1,.5.5v6.892a.5.5,0,0,1-.5.5,3.946,3.946,0,1,1,0-7.892Zm-.5,6.849V7.082a2.946,2.946,0,0,0,0,5.807Z" transform="translate(0.887 1.123)" fill="#353535"/>
        <path id="패스_65790" data-name="패스 65790" d="M15.957,5.736a.5.5,0,0,1-.484-.377,5.785,5.785,0,0,0-11.2-.067.5.5,0,1,1-.966-.258,6.785,6.785,0,0,1,13.132.079.5.5,0,0,1-.485.623Z" transform="translate(0.135 2.5)" fill="#353535"/>
        <path id="패스_65791" data-name="패스 65791" d="M15.444,18.436a3.234,3.234,0,0,1-1.129-.2.5.5,0,1,1,.349-.937,2.238,2.238,0,0,0,3.019-2.1.5.5,0,0,1,.5-.5h0a.5.5,0,0,1,.5.5,3.238,3.238,0,0,1-3.239,3.235Z" transform="translate(-2.304 -0.854)" fill="#353535"/>
      </g>
    </g>
  </g>
  <g id="그룹_21178" data-name="그룹 21178">
    <rect id="사각형_13811" data-name="사각형 13811" width="20" height="20" transform="translate(44)" fill="none"/>
    <g id="그룹_21103" data-name="그룹 21103" transform="translate(43.999 0.214)">
      <g id="그룹_21062" data-name="그룹 21062" transform="translate(3.869 2.487)">
        <path id="선_295" data-name="선 295" d="M12,.5H0A.5.5,0,0,1-.5,0,.5.5,0,0,1,0-.5H12a.5.5,0,0,1,.5.5A.5.5,0,0,1,12,.5Z" transform="translate(0.132 14.513)" fill="#353535"/>
        <path id="패스_65721" data-name="패스 65721" d="M6.1-.029a6.107,6.107,0,0,1,6.1,6.1c0,1.409-.988,3.163-2.938,5.213a28.659,28.659,0,0,1-2.856,2.611l-.307.238-.307-.238a28.64,28.64,0,0,1-2.856-2.611C.988,9.234,0,7.48,0,6.071A6.107,6.107,0,0,1,6.1-.029Zm0,12.889c1.667-1.361,5.1-4.613,5.1-6.789a5.1,5.1,0,0,0-10.2,0C1,8.251,4.433,11.5,6.1,12.86Z" transform="translate(0.032 -0.386)" fill="#353535"/>
        <path id="타원_215" data-name="타원 215" d="M1.8-.5A2.3,2.3,0,1,1-.5,1.8,2.3,2.3,0,0,1,1.8-.5Zm0,3.6A1.3,1.3,0,1,0,.5,1.8,1.3,1.3,0,0,0,1.8,3.1Z" transform="translate(4.132 3.714)" fill="#353535"/>
      </g>
    </g>
  </g>
  <g id="그룹_21179" data-name="그룹 21179">
    <rect id="사각형_13812" data-name="사각형 13812" width="20" height="20" transform="translate(66)" fill="none"/>
    <g id="그룹_21317" data-name="그룹 21317" transform="translate(65.668 0.5)">
      <path id="사각형_23033" data-name="사각형 23033" d="M0-.5H5a.5.5,0,0,1,.5.5V10a.5.5,0,0,1-.5.5H0A.5.5,0,0,1-.5,10V0A.5.5,0,0,1,0-.5ZM4.5.5H.5v9h4Z" transform="translate(3 6)" fill="#373737"/>
      <path id="선_321" data-name="선 321" d="M7,.5H0A.5.5,0,0,1-.5,0,.5.5,0,0,1,0-.5H7a.5.5,0,0,1,.5.5A.5.5,0,0,1,7,.5Z" transform="translate(7.627 16)" fill="#373737"/>
      <path id="패스_65802" data-name="패스 65802" d="M13.128,4.733a.5.5,0,0,1-.5-.5V1h-8V3.216a.5.5,0,1,1-1,0V.5a.5.5,0,0,1,.5-.5h9a.5.5,0,0,1,.5.5V4.233A.5.5,0,0,1,13.128,4.733Z" transform="translate(2.5 2.5)" fill="#373737"/>
      <path id="선_322" data-name="선 322" d="M.883.5H0A.5.5,0,0,1-.5,0,.5.5,0,0,1,0-.5H.883a.5.5,0,0,1,.5.5A.5.5,0,0,1,.883.5Z" transform="translate(5.059 9)" fill="#373737"/>
      <path id="선_323" data-name="선 323" d="M.883.5H0A.5.5,0,0,1-.5,0,.5.5,0,0,1,0-.5H.883a.5.5,0,0,1,.5.5A.5.5,0,0,1,.883.5Z" transform="translate(5.059 11)" fill="#373737"/>
      <path id="패스_65803" data-name="패스 65803" d="M7.165,11.135a.5.5,0,0,1-.334-.872L9.2,8.133a.5.5,0,0,1,.7.029l1.664,1.766,2.5-2.358-2.005-.446a.5.5,0,0,1,.217-.976L15.2,6.8a.5.5,0,0,1,.235.852L11.886,11a.5.5,0,0,1-.707-.021L9.507,9.2,7.5,11.007A.5.5,0,0,1,7.165,11.135Z" transform="translate(2.5 2.5)" fill="#373737"/>
      <path id="선_324" data-name="선 324" d="M.075,3.849a.5.5,0,0,1-.5-.489L-.5.011A.5.5,0,0,1-.011-.5.5.5,0,0,1,.5-.011L.575,3.338a.5.5,0,0,1-.489.511Z" transform="translate(17.59 9.786)" fill="#373737"/>
      <path id="선_325" data-name="선 325" d="M2,.5H0A.5.5,0,0,1-.5,0,.5.5,0,0,1,0-.5H2a.5.5,0,0,1,.5.5A.5.5,0,0,1,2,.5Z" transform="translate(10.127 6.135)" fill="#373737"/>
      <path id="선_326" data-name="선 326" d="M2,.5H0A.5.5,0,0,1-.5,0,.5.5,0,0,1,0-.5H2a.5.5,0,0,1,.5.5A.5.5,0,0,1,2,.5Z" transform="translate(10.127 8.135)" fill="#373737"/>
    </g>
  </g>
  <g id="그룹_21180" data-name="그룹 21180">
    <rect id="사각형_13813" data-name="사각형 13813" width="20" height="20" transform="translate(88)" fill="none"/>
    <g id="그룹_21319" data-name="그룹 21319" transform="translate(87.998 -0.012)">
      <path id="패스_65804" data-name="패스 65804" d="M16.1,7.261a.5.5,0,0,1-.313-.11L8.3,1.141.813,7.151a.5.5,0,1,1-.626-.78L7.987.11a.5.5,0,0,1,.626,0l7.8,6.261a.5.5,0,0,1-.313.89Z" transform="translate(1.702 2.712)" fill="#353535"/>
      <path id="패스_65805" data-name="패스 65805" d="M11.275,14.575H2.647a.5.5,0,0,1-.5-.5V5.206a.5.5,0,0,1,1,0v8.369h8.128a.5.5,0,0,1,0,1Z" transform="translate(1.702 2.712)" fill="#353535"/>
      <path id="패스_65806" data-name="패스 65806" d="M14.561,13.645h0a1.1,1.1,0,0,1-.2-.019l-.185-.035a2.886,2.886,0,0,1-2.1-1.685l-.255-.43a.1.1,0,0,0-.111-.044l-.7.189a1.1,1.1,0,0,1-1.061-.282L7.2,8.587a.5.5,0,0,1,0-.707l2.7-2.7a.5.5,0,0,1,.707,0l2.747,2.747a1.1,1.1,0,0,1,.275,1.078l-.194.672a.1.1,0,0,0,.046.11l.446.265a2.881,2.881,0,0,1,1.679,2.1l.036.185a1.1,1.1,0,0,1-1.081,1.305Zm-2.827-3.216a1.105,1.105,0,0,1,.944.535l.273.46a.5.5,0,0,1,.031.062,1.888,1.888,0,0,0,1.382,1.124l.181.035h.016a.1.1,0,0,0,.1-.118l-.035-.183a1.883,1.883,0,0,0-1.119-1.383.5.5,0,0,1-.061-.031l-.475-.282a1.1,1.1,0,0,1-.5-1.244l.195-.677a.1.1,0,0,0-.023-.094L10.253,6.241,8.26,8.234l2.394,2.4a.1.1,0,0,0,.095.024l.7-.189A1.1,1.1,0,0,1,11.734,10.429Z" transform="translate(1.702 2.712)" fill="#353535"/>
      <path id="선_327" data-name="선 327" d="M0,3.2a.5.5,0,0,1-.354-.146.5.5,0,0,1,0-.707l2.7-2.7a.5.5,0,0,1,.707,0,.5.5,0,0,1,0,.707l-2.7,2.7A.5.5,0,0,1,0,3.2Z" transform="translate(10.772 9.765)" fill="#353535"/>
    </g>
  </g>
  <g id="그룹_21181" data-name="그룹 21181">
    <rect id="사각형_13814" data-name="사각형 13814" width="20" height="20" transform="translate(110)" fill="none"/>
    <g id="그룹_21304" data-name="그룹 21304" transform="translate(110.201 -0.287)">
      <path id="패스_65792" data-name="패스 65792" d="M16.1,7.261a.5.5,0,0,1-.313-.11L8.3,1.141.813,7.151a.5.5,0,1,1-.626-.78L7.987.11a.5.5,0,0,1,.626,0l7.8,6.261a.5.5,0,0,1-.313.89Z" transform="translate(1.499 3)" fill="#3a3a3a"/>
      <path id="패스_65793" data-name="패스 65793" d="M13.275,14.575H2.647a.5.5,0,0,1-.5-.5V5.206a.5.5,0,0,1,1,0v8.369H13.275a.5.5,0,0,1,0,1Z" transform="translate(1.499 3)" fill="#3a3a3a"/>
      <path id="패스_65794" data-name="패스 65794" d="M6.515,16.1a.5.5,0,0,1-.5-.5v-6a.5.5,0,0,1,.5-.5h1.8a.5.5,0,0,1,0,1h-1.3v5.5A.5.5,0,0,1,6.515,16.1Z" transform="translate(1.499 1)" fill="#3a3a3a"/>
      <path id="패스_65795" data-name="패스 65795" d="M12.007,6.938h0A2.684,2.684,0,1,1,9.323,9.622,2.689,2.689,0,0,1,12.007,6.938Zm0,4.368a1.684,1.684,0,1,0-1.684-1.684A1.686,1.686,0,0,0,12.007,11.306Z" transform="translate(1.499 3)" fill="#3a3a3a"/>
      <path id="선_316" data-name="선 316" d="M2.066,2.566a.5.5,0,0,1-.354-.146L-.354.354a.5.5,0,0,1,0-.707.5.5,0,0,1,.707,0L2.42,1.712a.5.5,0,0,1-.354.854Z" transform="translate(15.157 14.057)" fill="#3a3a3a"/>
    </g>
  </g>
  <g id="그룹_21185" data-name="그룹 21185">
    <g id="그룹_21164" data-name="그룹 21164" transform="translate(198 -22)">
      <rect id="사각형_13795" data-name="사각형 13795" width="20" height="20" transform="translate(0 22)" fill="none"/>
      <g id="그룹_21154" data-name="그룹 21154">
        <path id="패스_65809" data-name="패스 65809" d="M10.239,16.15H2.383A2.386,2.386,0,0,1,0,13.767V2.383A2.386,2.386,0,0,1,2.383,0H11.6a2.386,2.386,0,0,1,2.383,2.383v4.61a.5.5,0,0,1-1,0V2.383A1.385,1.385,0,0,0,11.6,1H2.383A1.385,1.385,0,0,0,1,2.383V13.767A1.385,1.385,0,0,0,2.383,15.15h7.856a.5.5,0,0,1,0,1Z" transform="translate(2.427 23.925)" fill="#353535"/>
        <path id="패스_65810" data-name="패스 65810" d="M10.037,7.657h0A2.863,2.863,0,1,1,7.174,10.52,2.868,2.868,0,0,1,10.037,7.657Zm0,4.726A1.863,1.863,0,1,0,8.174,10.52,1.865,1.865,0,0,0,10.037,12.383Z" transform="translate(3.016 24.554)" fill="#353535"/>
        <path id="선_330" data-name="선 330" d="M2.236,2.736a.5.5,0,0,1-.354-.146L-.354.354a.5.5,0,0,1,0-.707.5.5,0,0,1,.707,0L2.59,1.882a.5.5,0,0,1-.354.854Z" transform="translate(14.837 36.627)" fill="#353535"/>
        <path id="선_331" data-name="선 331" d="M6.631.5H0A.5.5,0,0,1-.5,0,.5.5,0,0,1,0-.5H6.631a.5.5,0,0,1,.5.5A.5.5,0,0,1,6.631.5Z" transform="translate(6.104 27.671)" fill="#353535"/>
        <path id="선_332" data-name="선 332" d="M3.822.5H0A.5.5,0,0,1-.5,0,.5.5,0,0,1,0-.5H3.822a.5.5,0,0,1,.5.5A.5.5,0,0,1,3.822.5Z" transform="translate(6.104 30.918)" fill="#353535"/>
        <path id="선_333" data-name="선 333" d="M1.658.5H0A.5.5,0,0,1-.5,0,.5.5,0,0,1,0-.5H1.658a.5.5,0,0,1,.5.5A.5.5,0,0,1,1.658.5Z" transform="translate(6.104 34.164)" fill="#353535"/>
      </g>
    </g>
  </g>
  <g id="그룹_21183" data-name="그룹 21183">
    <rect id="사각형_13816" data-name="사각형 13816" width="20" height="20" transform="translate(154)" fill="none"/>
    <g id="그룹_21325" data-name="그룹 21325" transform="translate(154.1 -0.015)">
      <path id="패스_65811" data-name="패스 65811" d="M13.154,15.82a1.912,1.912,0,0,1-1.908-2.041L11.3,8.994a.5.5,0,0,1,1,.011l-.054,4.8q0,.016,0,.033a.912.912,0,0,0,.96.98.5.5,0,1,1,.056,1Q13.207,15.82,13.154,15.82Z" transform="translate(3 2)" fill="#353535"/>
      <path id="패스_65812" data-name="패스 65812" d="M2.928,16A2.929,2.929,0,0,1,0,13.133s0-.007,0-.01V1.5A1.5,1.5,0,0,1,1.5,0h9.254a1.5,1.5,0,0,1,1.5,1.5l.044,8.75h2.2a.5.5,0,0,1,.5.5v2.873C15,15.134,13.88,16,11.927,16H3.087C3.034,16,2.981,16,2.928,16ZM1,13.118A1.929,1.929,0,0,0,2.928,15c.038,0,.077,0,.115,0h8.884C14,15,14,13.964,14,13.623V11.25H11.8a.5.5,0,0,1-.5-.5L11.254,1.5a.5.5,0,0,0-.5-.5H1.5a.5.5,0,0,0-.5.5Z" transform="translate(3 2)" fill="#353535"/>
      <path id="선_334" data-name="선 334" d="M6.128.5H0A.5.5,0,0,1-.5,0,.5.5,0,0,1,0-.5H6.128a.5.5,0,0,1,.5.5A.5.5,0,0,1,6.128.5Z" transform="translate(6.086 5.635)" fill="#353535"/>
      <path id="선_335" data-name="선 335" d="M5.717.5H0A.5.5,0,0,1-.5,0,.5.5,0,0,1,0-.5H5.717a.5.5,0,0,1,.5.5A.5.5,0,0,1,5.717.5Z" transform="translate(6.086 8.635)" fill="#353535"/>
      <path id="선_336" data-name="선 336" d="M1.532.5H0A.5.5,0,0,1-.5,0,.5.5,0,0,1,0-.5H1.532a.5.5,0,0,1,.5.5A.5.5,0,0,1,1.532.5Z" transform="translate(6.086 11.635)" fill="#353535"/>
    </g>
  </g>
  <g id="그룹_21184" data-name="그룹 21184">
    <rect id="사각형_13817" data-name="사각형 13817" width="20" height="20" transform="translate(176)" fill="none"/>
    <g id="그룹_21312" data-name="그룹 21312" transform="translate(175.998 -0.012)">
      <path id="패스_65799" data-name="패스 65799" d="M16.1,7.261a.5.5,0,0,1-.313-.11L8.3,1.141.813,7.151a.5.5,0,1,1-.626-.78L7.987.11a.5.5,0,0,1,.626,0l7.8,6.261a.5.5,0,0,1-.313.89Z" transform="translate(1.702 2.712)" fill="#373737"/>
      <path id="패스_65800" data-name="패스 65800" d="M13.275,14.575H2.647a.5.5,0,0,1-.5-.5V5.206a.5.5,0,0,1,1,0v8.369H13.275a.5.5,0,0,1,0,1Z" transform="translate(1.702 2.712)" fill="#373737"/>
      <path id="패스_65801" data-name="패스 65801" d="M10.307,11.973h-.015a.5.5,0,0,1-.349-.157L8.271,10.041l-2.011,1.8a.5.5,0,1,1-.668-.744l2.374-2.13a.5.5,0,0,1,.7.029l1.664,1.766,2.5-2.358L10.82,7.961a.5.5,0,1,1,.217-.976l2.925.651a.5.5,0,0,1,.235.852L10.65,11.837A.5.5,0,0,1,10.307,11.973Z" transform="translate(1.702 2.712)" fill="#373737"/>
      <path id="선_320" data-name="선 320" d="M.075,3.849a.5.5,0,0,1-.5-.489L-.5.011A.5.5,0,0,1-.011-.5.5.5,0,0,1,.5-.011L.575,3.338a.5.5,0,0,1-.489.511Z" transform="translate(15.553 10.836)" fill="#373737"/>
    </g>
  </g>
  <g id="그룹_21182" data-name="그룹 21182">
    <rect id="사각형_13815" data-name="사각형 13815" width="20" height="20" transform="translate(132)" fill="none"/>
    <g id="그룹_21309" data-name="그룹 21309" transform="translate(131.701 -0.287)">
      <g id="그룹_21306" data-name="그룹 21306">
        <path id="패스_65796" data-name="패스 65796" d="M16.1,7.261a.5.5,0,0,1-.313-.11L8.3,1.141.813,7.151a.5.5,0,1,1-.626-.78L7.987.11a.5.5,0,0,1,.626,0l7.8,6.261a.5.5,0,0,1-.313.89Z" transform="translate(1.999 3)" fill="#3a3a3a"/>
        <path id="패스_65797" data-name="패스 65797" d="M13.275,14.575H2.647a.5.5,0,0,1-.5-.5V5.206a.5.5,0,0,1,1,0v8.369H13.275a.5.5,0,0,1,0,1Z" transform="translate(1.999 3)" fill="#3a3a3a"/>
        <path id="패스_65798" data-name="패스 65798" d="M6.515,16.1a.5.5,0,0,1-.5-.5v-6a.5.5,0,0,1,.5-.5h1.8a.5.5,0,0,1,0,1h-1.3v5.5A.5.5,0,0,1,6.515,16.1Z" transform="translate(1.999 1)" fill="#3a3a3a"/>
      </g>
      <path id="선_317" data-name="선 317" d="M4.157.5H0A.5.5,0,0,1-.5,0,.5.5,0,0,1,0-.5H4.157a.5.5,0,0,1,.5.5A.5.5,0,0,1,4.157.5Z" transform="translate(12.494 13.055)" fill="#3a3a3a"/>
      <g id="그룹_21308" data-name="그룹 21308">
        <g id="그룹_21307" data-name="그룹 21307" transform="translate(1.999 3)" clip-path="url(#clip-path)">
          <path id="선_318" data-name="선 318" d="M2.351,2.851A.5.5,0,0,1,2,2.7L-.354.354a.5.5,0,0,1,0-.707.5.5,0,0,1,.707,0L2.7,2a.5.5,0,0,1-.354.854Z" transform="translate(13.275 7.7)" fill="#3a3a3a"/>
          <path id="선_319" data-name="선 319" d="M0,2.851A.5.5,0,0,1-.354,2.7.5.5,0,0,1-.354,2L2-.354a.5.5,0,0,1,.707,0,.5.5,0,0,1,0,.707L.354,2.7A.5.5,0,0,1,0,2.851Z" transform="translate(13.2 10.06)" fill="#3a3a3a"/>
        </g>
      </g>
    </g>
  </g>
  <g id="그룹_21157" data-name="그룹 21157" transform="translate(176 -154)">
    <rect id="사각형_13807" data-name="사각형 13807" width="20" height="20" transform="translate(44 154)" fill="none"/>
    <g id="그룹_21321" data-name="그룹 21321" transform="translate(43.998 154)">
      <path id="패스_65807" data-name="패스 65807" d="M3.8,14.96H3.788a1.946,1.946,0,0,1-1.942-1.943V8.25a.5.5,0,1,1,1,0v4.767a.944.944,0,0,0,.942.943H3.8a.944.944,0,0,0,.942-.943V8.889a.5.5,0,0,1,1,0v4.128A1.945,1.945,0,0,1,3.8,14.96Z" transform="translate(2.611 2.873)" fill="#353535"/>
      <path id="패스_65808" data-name="패스 65808" d="M14.618,12.426a.5.5,0,0,1-.127-.016L.373,8.71A.5.5,0,0,1,0,8.226V5.2a.5.5,0,0,1,.373-.484l14.118-3.7a.5.5,0,0,1,.627.484V11.926a.5.5,0,0,1-.5.5ZM1,7.84l13.118,3.438V2.148L1,5.586Z" transform="translate(2.443 2.259)" fill="#353535"/>
      <path id="선_328" data-name="선 328" d="M0,13.111a.5.5,0,0,1-.5-.5V0A.5.5,0,0,1,0-.5.5.5,0,0,1,.5,0V12.611A.5.5,0,0,1,0,13.111Z" transform="translate(17.06 2.667)" fill="#353535"/>
      <path id="선_329" data-name="선 329" d="M0,5.438a.5.5,0,0,1-.5-.5V0A.5.5,0,0,1,0-.5.5.5,0,0,1,.5,0V4.938A.5.5,0,0,1,0,5.438Z" transform="translate(2.943 6.504)" fill="#353535"/>
    </g>
  </g>
  <g id="icon_32px_phone" transform="translate(242)">
    <g id="_32" data-name="32" fill="#fff" stroke="#dbdbdb" stroke-width="1">
      <circle cx="16" cy="16" r="16" stroke="none"/>
      <circle cx="16" cy="16" r="15.5" fill="none"/>
    </g>
    <path id="패스_65730" data-name="패스 65730" d="M9.052,11.627l-1.267.9L3.741,6.83l1.267-.9a.853.853,0,0,0,.266-1.083L3.492,1.355a.853.853,0,0,0-1.254-.308A5.314,5.314,0,0,0,.981,8.457L5.34,14.6a5.314,5.314,0,0,0,7.409,1.257.853.853,0,0,0,.123-1.285l-2.709-2.834a.853.853,0,0,0-1.11-.106" transform="translate(9 7.11)" fill="#b7b7b7"/>
  </g>
</svg>
