<svg xmlns="http://www.w3.org/2000/svg" width="180" height="94" viewBox="0 0 180 94"><g transform="translate(130.001)"><path d="M0,0H24V24H0Z" fill="none" opacity="0.24"/><path d="M222.984,599.565h8a1,1,0,0,1,1,1,4.214,4.214,0,0,1-1.7,3.3,5.133,5.133,0,0,1-6.591,0,4.214,4.214,0,0,1-1.7-3.3A1,1,0,0,1,222.984,599.565Zm6.707,2h-5.415a3.193,3.193,0,0,0,5.415,0Z" transform="translate(-214.985 -582.066)" fill="#353535"/><path d="M226.736,584.438l.041,0A7.739,7.739,0,0,1,234.2,592.1v4.684a.468.468,0,0,0,.126.319l.033.036,1.517,1.985a1.326,1.326,0,0,1,.172,1.583l-.026.042a1.513,1.513,0,0,1-1.264.679H218.71a1.509,1.509,0,0,1-1.256-.67l-.02-.031a1.324,1.324,0,0,1,.159-1.6l1.518-1.985.032-.035a.473.473,0,0,0,.127-.322V592.1a7.739,7.739,0,0,1,7.426-7.662Zm5.466,7.679a5.47,5.47,0,1,0-10.933,0v4.669a2.469,2.469,0,0,1-.624,1.64l-.767,1h13.715l-.766-1a2.462,2.462,0,0,1-.625-1.64Z" transform="translate(-214.735 -581.939)" fill="#353535"/><path d="M0,1V0" transform="translate(12 2)" fill="none" stroke="#363636" stroke-linecap="round" stroke-width="2"/></g><g transform="translate(52)"><rect width="24" height="24" fill="none"/><rect width="20" height="20" transform="translate(2 2)" fill="#ff6a6a" opacity="0"/><path d="M13.329,8H15.4a1.749,1.749,0,0,1,1.8,1.692L19,17.308A1.749,1.749,0,0,1,17.2,19H2.8A1.749,1.749,0,0,1,1,17.308L2.8,9.692A1.749,1.749,0,0,1,4.6,8H6.116" transform="translate(2 2)" fill="none" stroke="#353535" stroke-linecap="round" stroke-linejoin="round" stroke-width="2"/><path d="M13.854,5.286c0,2.367-4,7.714-4,7.714s-4-5.347-4-7.714A4.151,4.151,0,0,1,9.854,1,4.151,4.151,0,0,1,13.854,5.286Z" transform="translate(2 2)" fill="none" stroke="#353535" stroke-linecap="round" stroke-linejoin="round" stroke-width="2"/><path d="M10.854,5.421a1,1,0,1,1-1-1,1,1,0,0,1,1,1" transform="translate(2 2)" fill="#353535"/></g><rect width="24" height="24" transform="translate(104 26)" fill="none"/><g transform="translate(104 26)"><rect width="20" height="20" transform="translate(2 2)" fill="#ff6a6a" opacity="0"/><line x2="18" transform="translate(3 4.5)" fill="none" stroke="#6c5ae6" stroke-linecap="round" stroke-linejoin="round" stroke-width="2"/><line x2="18" transform="translate(3 12)" fill="none" stroke="#6c5ae6" stroke-linecap="round" stroke-linejoin="round" stroke-width="2"/><line x2="18" transform="translate(3 19.5)" fill="none" stroke="#6c5ae6" stroke-linecap="round" stroke-linejoin="round" stroke-width="2"/></g><g transform="translate(52 26)"><rect width="24" height="24" fill="none"/><rect width="20" height="20" transform="translate(2 2)" fill="#ff6a6a" opacity="0"/><path d="M13.329,8H15.4a1.749,1.749,0,0,1,1.8,1.692L19,17.308A1.749,1.749,0,0,1,17.2,19H2.8A1.749,1.749,0,0,1,1,17.308L2.8,9.692A1.749,1.749,0,0,1,4.6,8H6.116" transform="translate(2 2)" fill="rgba(0,0,0,0)" stroke="#6c5ae6" stroke-linecap="round" stroke-linejoin="round" stroke-width="2"/><path d="M13.854,5.286c0,2.367-4,7.714-4,7.714s-4-5.347-4-7.714A4.151,4.151,0,0,1,9.854,1,4.151,4.151,0,0,1,13.854,5.286Z" transform="translate(2 2)" fill="rgba(0,0,0,0)" stroke="#6c5ae6" stroke-linecap="round" stroke-linejoin="round" stroke-width="2"/><path d="M10.854,5.421a1,1,0,1,1-1-1,1,1,0,0,1,1,1" transform="translate(2 2)" fill="#6c5ae6"/></g><rect width="20" height="20" transform="translate(88 52)" fill="none"/><rect width="20" height="20" transform="translate(0 52)" fill="none"/><path d="M3.542,2h.067l2.983.022a1.55,1.55,0,0,1,1.09.488l.857.916A5.017,5.017,0,0,0,12.19,5.011h3.291A2.522,2.522,0,0,1,18,7.53v6.916a2.522,2.522,0,0,1-2.519,2.519H4.519A2.522,2.522,0,0,1,2,14.446V3.544A1.545,1.545,0,0,1,3.542,2m0-2A3.544,3.544,0,0,0,0,3.544v10.9a4.519,4.519,0,0,0,4.519,4.519H15.481A4.519,4.519,0,0,0,20,14.446V7.53a4.519,4.519,0,0,0-4.519-4.519H12.19A3,3,0,0,1,10,2.061l-.857-.916A3.535,3.535,0,0,0,6.638.024L3.624,0H3.542" transform="translate(0 52.5)" fill="#353535"/><rect width="20" height="20" transform="translate(22 52)" fill="none"/><g transform="translate(22 52)"><path d="M15,2a1,1,0,0,1,1,1V18H4V3A1,1,0,0,1,5,2Zm0-2H5A3,3,0,0,0,2,3V18.935A1.065,1.065,0,0,0,3.065,20h13.87A1.065,1.065,0,0,0,18,18.935V3a3,3,0,0,0-3-3" fill="#353535"/><path d="M18,1H0A1,1,0,0,1-1,0,1,1,0,0,1,0-1H18a1,1,0,0,1,1,1A1,1,0,0,1,18,1Z" transform="translate(1 19)" fill="#353535"/><path d="M1.5,1H0A1,1,0,0,1-1,0,1,1,0,0,1,0-1H1.5a1,1,0,0,1,1,1A1,1,0,0,1,1.5,1Z" transform="translate(6.75 6)" fill="#353535"/><path d="M1.5,1H0A1,1,0,0,1-1,0,1,1,0,0,1,0-1H1.5a1,1,0,0,1,1,1A1,1,0,0,1,1.5,1Z" transform="translate(11.75 6)" fill="#353535"/><path d="M1.5,1H0A1,1,0,0,1-1,0,1,1,0,0,1,0-1H1.5a1,1,0,0,1,1,1A1,1,0,0,1,1.5,1Z" transform="translate(6.75 10)" fill="#353535"/><path d="M1.5,1H0A1,1,0,0,1-1,0,1,1,0,0,1,0-1H1.5a1,1,0,0,1,1,1A1,1,0,0,1,1.5,1Z" transform="translate(11.75 10)" fill="#353535"/></g><rect width="20" height="20" transform="translate(66 52)" fill="none"/><g transform="translate(-3333 -970)"><path d="M3-1H15a4,4,0,0,1,4,4V15a4,4,0,0,1-4,4H3a4,4,0,0,1-4-4V3A4,4,0,0,1,3-1ZM15,17a2,2,0,0,0,2-2V3a2,2,0,0,0-2-2H3A2,2,0,0,0,1,3V15a2,2,0,0,0,2,2Z" transform="translate(3400 1023)" fill="#353535"/><path d="M18,1H0A1,1,0,0,1-1,0,1,1,0,0,1,0-1H18a1,1,0,0,1,1,1A1,1,0,0,1,18,1Z" transform="translate(3400 1028)" fill="#353535"/><path d="M9.914,15.743a1,1,0,0,1-.707-.293l-2.53-2.53a1,1,0,0,1,1.414-1.414l1.823,1.823,2.863-2.864a1,1,0,1,1,1.414,1.414l-3.57,3.571A1,1,0,0,1,9.914,15.743Z" transform="translate(3399 1021)" fill="#353535"/></g><g transform="translate(-44)"><rect width="20" height="20" transform="translate(88 52)" fill="none"/><g transform="translate(88 52)"><path d="M17,1a1.019,1.019,0,0,1,1,1.035V13.177a1.02,1.02,0,0,1-1,1.036H6.895a5.725,5.725,0,0,0-2.174.426,3.621,3.621,0,0,0-1.109.727L2,16.88V2.035A1.019,1.019,0,0,1,3,1Zm0-2H3A3.018,3.018,0,0,0,0,2.035V16.974A2.014,2.014,0,0,0,2,19a1.969,1.969,0,0,0,.893-.216L4.98,16.823a1.654,1.654,0,0,1,.5-.332A3.74,3.74,0,0,1,6.9,16.213H17a3.018,3.018,0,0,0,3-3.036V2.035A3.018,3.018,0,0,0,17-1" transform="translate(0 1)" fill="#353535"/><path d="M6,6.867a1.25,1.25,0,1,0,1.25,1.25A1.25,1.25,0,0,0,6,6.867" transform="translate(0 0.633)" fill="#353535"/><path d="M10,6.867a1.25,1.25,0,1,0,1.25,1.25A1.25,1.25,0,0,0,10,6.867" transform="translate(0 0.633)" fill="#353535"/><path d="M14,6.867a1.25,1.25,0,1,0,1.25,1.25A1.25,1.25,0,0,0,14,6.867" transform="translate(0 0.633)" fill="#353535"/></g></g><rect width="20" height="20" transform="translate(88 74)" fill="none"/><g transform="translate(0 22)"><rect width="20" height="20" transform="translate(0 52)" fill="none"/><path d="M3.542,2h.067l2.983.022a1.55,1.55,0,0,1,1.09.488l.857.916A5.017,5.017,0,0,0,12.19,5.011h3.291A2.522,2.522,0,0,1,18,7.53v6.916a2.522,2.522,0,0,1-2.519,2.519H4.519A2.522,2.522,0,0,1,2,14.446V3.544A1.545,1.545,0,0,1,3.542,2m0-2A3.544,3.544,0,0,0,0,3.544v10.9a4.519,4.519,0,0,0,4.519,4.519H15.481A4.519,4.519,0,0,0,20,14.446V7.53a4.519,4.519,0,0,0-4.519-4.519H12.19A3,3,0,0,1,10,2.061l-.857-.916A3.535,3.535,0,0,0,6.638.024L3.624,0H3.542" transform="translate(0 52.5)" fill="#6c5ae6"/></g><g transform="translate(0 22)"><rect width="20" height="20" transform="translate(22 52)" fill="none"/><g transform="translate(22 52)"><path d="M15,2a1,1,0,0,1,1,1V18H4V3A1,1,0,0,1,5,2Zm0-2H5A3,3,0,0,0,2,3V18.935A1.065,1.065,0,0,0,3.065,20h13.87A1.065,1.065,0,0,0,18,18.935V3a3,3,0,0,0-3-3" fill="#6c5ae6"/><path d="M18,1H0A1,1,0,0,1-1,0,1,1,0,0,1,0-1H18a1,1,0,0,1,1,1A1,1,0,0,1,18,1Z" transform="translate(1 19)" fill="#6c5ae6"/><path d="M1.5,1H0A1,1,0,0,1-1,0,1,1,0,0,1,0-1H1.5a1,1,0,0,1,1,1A1,1,0,0,1,1.5,1Z" transform="translate(6.75 6)" fill="#6c5ae6"/><path d="M1.5,1H0A1,1,0,0,1-1,0,1,1,0,0,1,0-1H1.5a1,1,0,0,1,1,1A1,1,0,0,1,1.5,1Z" transform="translate(11.75 6)" fill="#6c5ae6"/><path d="M1.5,1H0A1,1,0,0,1-1,0,1,1,0,0,1,0-1H1.5a1,1,0,0,1,1,1A1,1,0,0,1,1.5,1Z" transform="translate(6.75 10)" fill="#6c5ae6"/><path d="M1.5,1H0A1,1,0,0,1-1,0,1,1,0,0,1,0-1H1.5a1,1,0,0,1,1,1A1,1,0,0,1,1.5,1Z" transform="translate(11.75 10)" fill="#6c5ae6"/></g></g><g transform="translate(0 22)"><rect width="20" height="20" transform="translate(66 52)" fill="none"/><g transform="translate(-3333 -970)"><path d="M3-1H15a4,4,0,0,1,4,4V15a4,4,0,0,1-4,4H3a4,4,0,0,1-4-4V3A4,4,0,0,1,3-1ZM15,17a2,2,0,0,0,2-2V3a2,2,0,0,0-2-2H3A2,2,0,0,0,1,3V15a2,2,0,0,0,2,2Z" transform="translate(3400 1023)" fill="#6c5ae6"/><path d="M18,1H0A1,1,0,0,1-1,0,1,1,0,0,1,0-1H18a1,1,0,0,1,1,1A1,1,0,0,1,18,1Z" transform="translate(3400 1028)" fill="#6c5ae6"/><path d="M9.914,15.743a1,1,0,0,1-.707-.293l-2.53-2.53a1,1,0,0,1,1.414-1.414l1.823,1.823,2.863-2.864a1,1,0,1,1,1.414,1.414l-3.57,3.571A1,1,0,0,1,9.914,15.743Z" transform="translate(3399 1021)" fill="#6c5ae6"/></g></g><g transform="translate(-44 22)"><rect width="20" height="20" transform="translate(88 52)" fill="none"/><g transform="translate(88 52)"><path d="M17,1a1.019,1.019,0,0,1,1,1.035V13.177a1.02,1.02,0,0,1-1,1.036H6.895a5.725,5.725,0,0,0-2.174.426,3.621,3.621,0,0,0-1.109.727L2,16.88V2.035A1.019,1.019,0,0,1,3,1Zm0-2H3A3.018,3.018,0,0,0,0,2.035V16.974A2.014,2.014,0,0,0,2,19a1.969,1.969,0,0,0,.893-.216L4.98,16.823a1.654,1.654,0,0,1,.5-.332A3.74,3.74,0,0,1,6.9,16.213H17a3.018,3.018,0,0,0,3-3.036V2.035A3.018,3.018,0,0,0,17-1" transform="translate(0 1)" fill="#6c5ae6"/><path d="M6,6.867a1.25,1.25,0,1,0,1.25,1.25A1.25,1.25,0,0,0,6,6.867" transform="translate(0 0.633)" fill="#6c5ae6"/><path d="M10,6.867a1.25,1.25,0,1,0,1.25,1.25A1.25,1.25,0,0,0,10,6.867" transform="translate(0 0.633)" fill="#6c5ae6"/><path d="M14,6.867a1.25,1.25,0,1,0,1.25,1.25A1.25,1.25,0,0,0,14,6.867" transform="translate(0 0.633)" fill="#6c5ae6"/></g></g><g transform="translate(90 55)"><rect width="20" height="20" transform="translate(-2 -3)" fill="#ff6a6a" opacity="0"/><path d="M10,2a6.007,6.007,0,0,1,6,6v6H4V8a6.007,6.007,0,0,1,6-6m0-2A8,8,0,0,0,2,8v7.5a.5.5,0,0,0,.5.5h15a.5.5,0,0,0,.5-.5V8a8,8,0,0,0-8-8" transform="translate(-2 -3)" fill="#353535"/><line x2="18" transform="translate(-1 12)" fill="none" stroke="#353535" stroke-linecap="round" stroke-width="2"/><path d="M10,19h0a3,3,0,0,1-3-3V15h6v1A3,3,0,0,1,10,19Z" transform="translate(-2 -3)" fill="none" stroke="#353535" stroke-linecap="round" stroke-linejoin="round" stroke-width="2"/></g><g transform="translate(90 77)"><rect width="20" height="20" transform="translate(-2 -3)" fill="#ff6a6a" opacity="0"/><path d="M10,2a6.007,6.007,0,0,1,6,6v6H4V8a6.007,6.007,0,0,1,6-6m0-2A8,8,0,0,0,2,8v7.5a.5.5,0,0,0,.5.5h15a.5.5,0,0,0,.5-.5V8a8,8,0,0,0-8-8" transform="translate(-2 -3)" fill="#6b59e3"/><line x2="18" transform="translate(-1 12)" fill="none" stroke="#6b59e3" stroke-linecap="round" stroke-width="2"/><path d="M10,19h0a3,3,0,0,1-3-3V15h6v1A3,3,0,0,1,10,19Z" transform="translate(-2 -3)" fill="none" stroke="#6b59e3" stroke-linecap="round" stroke-linejoin="round" stroke-width="2"/></g><g transform="translate(-59 -7)"><rect width="18" height="18" transform="translate(189 33)" fill="none"/><path d="M6,13a1,1,0,0,1-.707-.293l-6-6a1,1,0,0,1,0-1.414l6-6a1,1,0,0,1,1.414,0,1,1,0,0,1,0,1.414L1.414,6l5.293,5.293A1,1,0,0,1,6,13Z" transform="translate(201 48) rotate(180)" fill="#353535"/></g><g transform="translate(-16 -8)"><rect width="24" height="24" transform="translate(172 8)" fill="none"/><path d="M328.123,839.053l-.426-3.367a5.122,5.122,0,0,1-.92-.417,5.867,5.867,0,0,1-.844-.574l-3.152,1.318-2.579-4.421,2.727-2.038c-.026-.164-.044-.33-.055-.5a7.61,7.61,0,0,1,0-.979c.012-.162.029-.34.055-.533L320.2,825.5l2.579-4.4,3.141,1.308a7.3,7.3,0,0,1,.863-.58,5.7,5.7,0,0,1,.9-.421l.436-3.367h5.157l.426,3.377a5.238,5.238,0,0,1,.91.422,7.478,7.478,0,0,1,.823.569l3.185-1.308,2.579,4.4-2.771,2.07a2.582,2.582,0,0,1,.066.5c0,.154.005.311.005.468s0,.3-.01.458a3.256,3.256,0,0,1-.078.531l2.749,2.05L338.583,836l-3.146-1.328a7.353,7.353,0,0,1-.847.579,5.161,5.161,0,0,1-.885.412l-.426,3.377Zm2.592-7.184a3.255,3.255,0,0,0,2.374-.968,3.306,3.306,0,0,0,0-4.7,3.4,3.4,0,0,0-4.755,0,3.324,3.324,0,0,0,0,4.7,3.244,3.244,0,0,0,2.381.967Zm0-1.658a1.625,1.625,0,0,1-1.187-.483,1.654,1.654,0,0,1,0-2.349,1.7,1.7,0,0,1,2.375,0,1.654,1.654,0,0,1,0,2.349,1.625,1.625,0,0,1-1.188.482Zm-1.13,7.184h2.2l.4-2.96a6.267,6.267,0,0,0,1.564-.629,6.92,6.92,0,0,0,1.365-1.046l2.776,1.154,1.1-1.879-2.424-1.806a4.474,4.474,0,0,0,.191-.842,6.835,6.835,0,0,0,.051-.833,6.646,6.646,0,0,0-.051-.833,4.28,4.28,0,0,0-.191-.821l2.446-1.828-1.1-1.878-2.808,1.171a5.937,5.937,0,0,0-1.345-1.047,5.779,5.779,0,0,0-1.585-.644l-.353-2.961H329.6l-.37,2.951a5.813,5.813,0,0,0-1.579.612,6.641,6.641,0,0,0-1.381,1.062l-2.777-1.142-1.1,1.878,2.414,1.779a4.014,4.014,0,0,0-.2.819,7.032,7.032,0,0,0-.056.895,6.467,6.467,0,0,0,.056.846,4.871,4.871,0,0,0,.186.819l-2.4,1.806,1.1,1.879,2.766-1.16a6.1,6.1,0,0,0,2.962,1.692Z" transform="translate(-146.701 -808.548)" fill="#353535"/></g><g transform="translate(26)"><rect width="24" height="24" fill="none"/><g transform="translate(3 2)"><rect width="20" height="20" transform="translate(-1)" fill="#ff6a6a" opacity="0"/><path d="M4,2H16V18H4ZM2,20H18V0H2Z" transform="translate(-1)" fill="#353535"/><line x2="18" transform="translate(0 19)" fill="none" stroke="#353535" stroke-linecap="round" stroke-linejoin="round" stroke-width="2"/><line x1="16" transform="translate(1 1)" fill="none" stroke="#353535" stroke-linecap="round" stroke-linejoin="round" stroke-width="2"/><line x2="1.5" transform="translate(5.75 6)" fill="none" stroke="#353535" stroke-linecap="round" stroke-linejoin="round" stroke-width="2"/><line x2="1.5" transform="translate(10.75 6)" fill="none" stroke="#353535" stroke-linecap="round" stroke-linejoin="round" stroke-width="2"/><line x2="1.5" transform="translate(5.75 10)" fill="none" stroke="#353535" stroke-linecap="round" stroke-linejoin="round" stroke-width="2"/><line x2="1.5" transform="translate(10.75 10)" fill="none" stroke="#353535" stroke-linecap="round" stroke-linejoin="round" stroke-width="2"/></g></g><g transform="translate(26 26)"><rect width="24" height="24" fill="none"/><g transform="translate(3 2)"><rect width="20" height="20" transform="translate(-1)" fill="#ff6a6a" opacity="0"/><path d="M4,2H16V18H4ZM2,20H18V0H2Z" transform="translate(-1)" fill="#6c5ae6"/><path d="M18,1H0A1,1,0,0,1-1,0,1,1,0,0,1,0-1H18a1,1,0,0,1,1,1A1,1,0,0,1,18,1Z" transform="translate(0 19)" fill="#6c5ae6"/><path d="M16,1H0A1,1,0,0,1-1,0,1,1,0,0,1,0-1H16a1,1,0,0,1,1,1A1,1,0,0,1,16,1Z" transform="translate(1 1)" fill="#6c5ae6"/><path d="M1.5,1H0A1,1,0,0,1-1,0,1,1,0,0,1,0-1H1.5a1,1,0,0,1,1,1A1,1,0,0,1,1.5,1Z" transform="translate(5.75 6)" fill="#6c5ae6"/><path d="M1.5,1H0A1,1,0,0,1-1,0,1,1,0,0,1,0-1H1.5a1,1,0,0,1,1,1A1,1,0,0,1,1.5,1Z" transform="translate(10.75 6)" fill="#6c5ae6"/><path d="M1.5,1H0A1,1,0,0,1-1,0,1,1,0,0,1,0-1H1.5a1,1,0,0,1,1,1A1,1,0,0,1,1.5,1Z" transform="translate(5.75 10)" fill="#6c5ae6"/><path d="M1.5,1H0A1,1,0,0,1-1,0,1,1,0,0,1,0-1H1.5a1,1,0,0,1,1,1A1,1,0,0,1,1.5,1Z" transform="translate(10.75 10)" fill="#6c5ae6"/></g></g><g transform="translate(-68 -52)"><rect width="24" height="24" transform="translate(146 52)" fill="none"/><g transform="translate(146 52)"><rect width="20" height="20" transform="translate(2 2)" fill="#ff6a6a" opacity="0"/><path d="M15.75,2a.407.407,0,0,1,.25.073V17.816l-4.758-3.547a3.785,3.785,0,0,0-4.483,0L2,17.816V2.073A.407.407,0,0,1,2.25,2Zm0-2H2.25A2.141,2.141,0,0,0,0,2.012v16.1a1.959,1.959,0,0,0,.977,1.659A1.593,1.593,0,0,0,1.816,20a1.807,1.807,0,0,0,1.071-.351l5.067-3.776a1.783,1.783,0,0,1,2.092,0l5.067,3.776A1.8,1.8,0,0,0,16.184,20a1.593,1.593,0,0,0,.839-.229A1.959,1.959,0,0,0,18,18.112V2.012A2.141,2.141,0,0,0,15.75,0" transform="translate(3 2)" fill="#353535"/><rect width="18" height="20" transform="translate(3 2)" fill="none"/></g></g><g transform="translate(-68 -26)"><rect width="24" height="24" transform="translate(146 52)" fill="none"/><g transform="translate(146 52)"><rect width="20" height="20" transform="translate(2 2)" fill="#ff6a6a" opacity="0"/><path d="M15.75,2a.407.407,0,0,1,.25.073V17.816l-4.758-3.547a3.785,3.785,0,0,0-4.483,0L2,17.816V2.073A.407.407,0,0,1,2.25,2Zm0-2H2.25A2.141,2.141,0,0,0,0,2.012v16.1a1.959,1.959,0,0,0,.977,1.659A1.593,1.593,0,0,0,1.816,20a1.807,1.807,0,0,0,1.071-.351l5.067-3.776a1.783,1.783,0,0,1,2.092,0l5.067,3.776A1.8,1.8,0,0,0,16.184,20a1.593,1.593,0,0,0,.839-.229A1.959,1.959,0,0,0,18,18.112V2.012A2.141,2.141,0,0,0,15.75,0" transform="translate(3 2)" fill="#6c5ae6"/><rect width="18" height="20" transform="translate(3 2)" fill="none"/></g></g><rect width="24" height="24" fill="none"/><g transform="translate(0)"><rect width="20" height="20" transform="translate(2 2)" fill="#ff6a6a" opacity="0"/><path d="M11.084,2.995h0L18.9,9.264l.131,9.721c.017-.006-.472.021-1.03.021H15V15.544A3.449,3.449,0,0,0,11.667,12H10.333A3.449,3.449,0,0,0,7,15.544v3.461H3.158L3,9.264l8.084-6.269m0-1.995a2,2,0,0,0-1.227.42L1.773,7.689A1.989,1.989,0,0,0,1,9.3l.158,9.741a1.8,1.8,0,0,0,2,1.963H19.03A1.742,1.742,0,0,0,21,18.984l-.1-9.741a1.99,1.99,0,0,0-.747-1.534L12.338,1.44A2,2,0,0,0,11.084,1M9,20.974v-5.43a1.455,1.455,0,0,1,1.333-1.552h1.334A1.455,1.455,0,0,1,13,15.544v5.43Z" transform="translate(1 1)" fill="#353535"/><rect width="4" height="1.053" transform="translate(10 20.947)" fill="#fff"/></g><rect width="24" height="24" transform="translate(104)" fill="none"/><g transform="translate(104)"><rect width="20" height="20" transform="translate(2 2)" fill="#ff6a6a" opacity="0"/><path d="M18,1H0A1,1,0,0,1-1,0,1,1,0,0,1,0-1H18a1,1,0,0,1,1,1A1,1,0,0,1,18,1Z" transform="translate(3 4.5)" fill="#353535"/><path d="M18,1H0A1,1,0,0,1-1,0,1,1,0,0,1,0-1H18a1,1,0,0,1,1,1A1,1,0,0,1,18,1Z" transform="translate(3 12)" fill="#353535"/><path d="M18,1H0A1,1,0,0,1-1,0,1,1,0,0,1,0-1H18a1,1,0,0,1,1,1A1,1,0,0,1,18,1Z" transform="translate(3 19.5)" fill="#353535"/></g><g transform="translate(-59.167 -26)"><rect width="24" height="24" transform="translate(59.167 52)" fill="none"/></g><g transform="translate(0 26)"><rect width="20" height="20" transform="translate(2 2)" fill="#ff6a6a" opacity="0"/><path d="M11.084,2.995h0L18.9,9.264l.131,9.721c.017-.006-.472.021-1.03.021H15V15.544A3.449,3.449,0,0,0,11.667,12H10.333A3.449,3.449,0,0,0,7,15.544v3.461H3.158L3,9.264l8.084-6.269m0-1.995a2,2,0,0,0-1.227.42L1.773,7.689A1.989,1.989,0,0,0,1,9.3l.158,9.741a1.8,1.8,0,0,0,2,1.963H19.03A1.742,1.742,0,0,0,21,18.984l-.1-9.741a1.99,1.99,0,0,0-.747-1.534L12.338,1.44A2,2,0,0,0,11.084,1M9,20.974v-5.43a1.455,1.455,0,0,1,1.333-1.552h1.334A1.455,1.455,0,0,1,13,15.544v5.43Z" transform="translate(1 1)" fill="#6c5ae6"/><rect width="4" height="1.053" transform="translate(10 20.947)" fill="#fff"/></g></svg>